<svg xmlns="http://www.w3.org/2000/svg" width="404.549" height="382.152" viewBox="0 0 404.549 382.152">
  <g id="Grupo_11363" data-name="Grupo 11363" transform="translate(-801.217 -761.848)">
    <path id="Trazado_1555" data-name="Trazado 1555" d="M95.536,293.311c-14.853-12.253-29.423-26.577-37.08-44.243S51,209.225,63.3,194.411c6.254-7.534,15.185-12.788,20.2-21.2,5.515-9.244,5.372-20.778,3.74-31.418s-4.591-21.2-4.131-31.959A50.652,50.652,0,0,1,145.93,62.846c17.009,4.227,30.65,16.874,46.947,23.325,16.769,6.637,35.955,6.451,53.264,2.027,17.935-4.584,35.355-17.267,51.941-25.509,10.264-5.1,20.8-10.1,32.119-11.875s23.727.094,32.485,7.487c9.7,8.191,13.256,21.336,16.82,33.523s8.424,25.25,19.348,31.724c8.185,4.852,18.3,5.043,27.12,8.608a37.484,37.484,0,0,1,19.734,51.013c-4.944,10.272-14.506,18.2-17.48,29.208-2.453,9.079.012,18.672.113,28.075.226,21.087-17.445,43.835-36.5,52.859Z" transform="translate(747.945 713.229)" fill="#8749ed"/>
    <g id="Grupo_10211" data-name="Grupo 10211" transform="translate(32 -47.96)">
      <path id="Trazado_1344" data-name="Trazado 1344" d="M-10359.906,3545.495h261.3" transform="translate(11129.124 -2377.455)" fill="none" stroke="#3bcfff" stroke-width="2"/>
      <path id="Trazado_1553" data-name="Trazado 1553" d="M-10359.906,3545.495h261.3" transform="translate(11272.374 -2354.534)" fill="none" stroke="#7c3be6" stroke-width="2"/>
      <path id="Polígono_7" data-name="Polígono 7" d="M6,0l6,10.157H0Z" transform="matrix(0.966, 0.259, -0.259, 0.966, 825.629, 855.749)" fill="#21c3fd"/>
      <path id="Polígono_8" data-name="Polígono 8" d="M6,0l6,10.157H0Z" transform="matrix(-0.259, 0.966, -0.966, -0.259, 1104.458, 844.153)" fill="#f9a828"/>
      <path id="Polígono_9" data-name="Polígono 9" d="M6,0l6,10.157H0Z" transform="translate(1031.771 824.607) rotate(-150)" fill="#bf5eea"/>
      <g id="Grupo_9898" data-name="Grupo 9898" transform="translate(8229.99 -2728.026)">
        <g id="Grupo_9865" data-name="Grupo 9865" transform="translate(-7219.589 3572.78)">
          <path id="Trazado_1381" data-name="Trazado 1381" d="M3332.71,780.407s4.971-4.786-.741-9.989c0,0,3.5-6.369-3.593-8.287,0,0-1.193-10.7-11.124-7.555,0,0-7.757-7.93-14.118-2.63,0,0-6.845-2.048-9.474,5.843,0,0-7.134,2.619-4.269,11.4,0,0-6.214,6.227-1.374,13.924,0,0-1.624,10.089,9.562,9.313.605,2.728,4.71,3.5,7.167,2.946,0,0,3.574,3.727,9.737-.1.782.654,4.881,3.836,7.424,1.021,0,0,8.373,1.573,7.486-5.75A8.734,8.734,0,0,0,3332.71,780.407Z" transform="translate(-3213.976 -726.446)" fill="#f36b80"/>
          <path id="Trazado_1382" data-name="Trazado 1382" d="M3296.07,1204.748l1.5,95.344,2.432,6.88,7.306-6.88,6.929-97.786Z" transform="translate(-3220.73 -1035.112)" fill="#9e5b42"/>
          <path id="Trazado_1383" data-name="Trazado 1383" d="M3394.2,1220.17h-18.278s8.6,91.546,8.541,92.116,3.083,4.682,3.083,4.682l6.655-4.682Z" transform="translate(-3275.236 -1047.306)" fill="#9e5b42"/>
          <path id="Trazado_1384" data-name="Trazado 1384" d="M3296.07,1204.748l1.5,95.344,2.432,6.88,7.306-6.88,6.929-97.786Z" transform="translate(-3220.73 -1035.112)" fill="#ffb3c5"/>
          <path id="Trazado_1385" data-name="Trazado 1385" d="M3394.2,1220.17h-18.278s8.6,91.546,8.541,92.116,3.083,4.682,3.083,4.682l6.655-4.682Z" transform="translate(-3275.236 -1047.306)" fill="#ffb3c5"/>
          <path id="Trazado_1386" data-name="Trazado 1386" d="M3282.3,1202.618a38.522,38.522,0,0,0,22.169,2.26l1.659-76.144,1.234-13.405c.932.815,1.488,1.2,1.488,1.2l4.449,86.993a45.926,45.926,0,0,0,21.947,1.376c.04-5.233-3.2-85.093-3.238-88.8-.237-26.778-8.513-30.7-8.513-30.7l-14.094-3.568-3.094.534c-4.927-1.619-13.84-3.466-17.509,2.685-5.2,8.713-4.894,35.57-4.894,35.57S3282.26,1198.932,3282.3,1202.618Z" transform="translate(-3211.331 -952.163)" fill="#370c7d"/>
          <path id="Trazado_1387" data-name="Trazado 1387" d="M3218.22,972.083,3205,965.966l1.2,14s-25.025-11.361-26.29-12.505a8.088,8.088,0,0,1-1.363-2.552,25.679,25.679,0,0,1-1.1-3.8,8.537,8.537,0,0,0-2.661-4.006,7.961,7.961,0,0,1-1.115-2.15.406.406,0,0,0-.788.043l-.134.875a4.444,4.444,0,0,0,.36,2.22l-.348-.133-.575,5.886.706,5.147,3.96,2.982s34.868,25.1,38.056,21.82C3218.336,990.267,3218.22,972.083,3218.22,972.083Z" transform="translate(-3136.168 -866.066)" fill="#ffb3c5"/>
          <path id="Trazado_1388" data-name="Trazado 1388" d="M3277.588,916.27s-2.707.644-6.624,5.49-7.4,18.252-7.4,18.252l12.5,6.828,8.134-16.19Z" transform="translate(-3198.541 -839.861)" fill="#e25a74"/>
          <path id="Trazado_1389" data-name="Trazado 1389" d="M3384.862,1159.774q-1.979.73-3.906,1.568c-1.286.56-2.557,1.15-3.817,1.757s-2.514,1.233-3.754,1.88-2.478,1.3-3.694,1.987l-.1-.234a26.2,26.2,0,0,1,2.775-.427c.93-.094,1.866-.131,2.8-.132a22.631,22.631,0,0,1,2.8.162l.694.091.689.123.343.062.339.081.679.165-.686-.132-.342-.067-.345-.049-.69-.1-.694-.066c-.231-.026-.462-.037-.694-.048s-.463-.031-.7-.035l-.7-.013c-.232-.005-.464,0-.7.006-.928.018-1.854.084-2.776.186a25.987,25.987,0,0,0-2.739.44l-.833.184.734-.417c1.219-.694,2.449-1.363,3.7-2s2.508-1.259,3.776-1.858,2.563-1.149,3.862-1.685c.653-.259,1.308-.518,1.97-.751S3384.194,1159.992,3384.862,1159.774Z" transform="translate(-3270.393 -1006.079)" fill="#472a6a" opacity="0.5"/>
          <path id="Trazado_1390" data-name="Trazado 1390" d="M3302.768,1158.1c.668.218,1.339.431,2,.678s1.316.493,1.969.752c1.3.535,2.59,1.091,3.862,1.684s2.528,1.218,3.777,1.858,2.48,1.307,3.7,2l.734.418-.831-.184a25.883,25.883,0,0,0-2.74-.441c-.922-.1-1.848-.167-2.776-.185-.232,0-.464-.011-.7-.007l-.7.014c-.233,0-.464.025-.7.035s-.464.022-.694.048l-.695.066-.688.1-.346.049-.341.067-.686.132.678-.165.34-.081.344-.062.688-.123.694-.091a22.538,22.538,0,0,1,2.8-.161c.935,0,1.87.039,2.8.132a26.178,26.178,0,0,1,2.775.426l-.1.234c-1.217-.684-2.457-1.335-3.695-1.986s-2.492-1.274-3.754-1.881-2.532-1.2-3.818-1.757S3304.088,1158.587,3302.768,1158.1Z" transform="translate(-3225.303 -1004.937)" fill="#472a6a" opacity="0.5"/>
          <path id="Trazado_1391" data-name="Trazado 1391" d="M3311.626,1109.373c1.144.2,2.294.365,3.447.513s2.306.281,3.462.391c2.312.224,4.633.372,6.956.42,1.16.024,2.323.026,3.483,0s2.321-.1,3.478-.189,2.31-.233,3.456-.418,2.283-.42,3.406-.716c-1.116.318-2.25.573-3.394.782s-2.3.343-3.459.457-2.321.169-3.484.209-2.327.034-3.491.014c-2.326-.06-4.649-.207-6.962-.453q-1.734-.185-3.461-.43C3313.913,1109.782,3312.766,1109.6,3311.626,1109.373Z" transform="translate(-3231.35 -971.675)" fill="#daeef7" opacity="0.5"/>
          <path id="Trazado_1392" data-name="Trazado 1392" d="M3394.092,1122.98a3.055,3.055,0,0,0,.186.388l.2.382.407.762.677,1.261,1.933,3.355c.266.51,2.8,4.922,3.4,5.91a25.872,25.872,0,0,1-2.255-2.756c-.307-.49-.592-.992-.882-1.492s-.558-1.01-.831-1.518c-.535-1.021-1.053-2.051-1.534-3.1-.243-.522-.475-1.049-.7-1.579-.11-.266-.221-.532-.325-.8A6.675,6.675,0,0,1,3394.092,1122.98Z" transform="translate(-3287.642 -980.963)" fill="#472a6a"/>
          <path id="Trazado_1393" data-name="Trazado 1393" d="M3350.21,923.615c-5.684-6.857-12.25-14.3-17.994-17.2-2.2-1.109-7.411-1.328-10.442-1.825a70.756,70.756,0,0,0-15.7.055c-4.206,1.54-11.554,4.145-11.65,6.639-.481,12.449-.621,21.991-.553,29.308,0,.023-.209,26.527-.016,32.188,0,0,28.815,6.211,43.554,2.478,0,0,2.435-34.668-1.062-44.03l1.49,1.9S3343.762,931.777,3350.21,923.615Z" transform="translate(-3219.16 -831.604)" fill="#f36b80"/>
          <path id="Trazado_1394" data-name="Trazado 1394" d="M3421.634,968.827a27.169,27.169,0,0,1-10.4,8.073l13.934,16.69-25.49,27.481,4.486,7.816c3.544-1.72,4.344-8.241,4.344-8.241s31.547-21.093,31.547-26.139C3440.052,987.749,3421.634,968.827,3421.634,968.827Z" transform="translate(-3291.454 -875.737)" fill="#ffb3c5"/>
          <path id="Trazado_1395" data-name="Trazado 1395" d="M3414.665,951.477c-.219.245-.417.507-.646.744l-.676.717-.334.36-.355.341-.708.682c-.239.224-.491.434-.735.652-.48.444-1.017.825-1.521,1.24a27.27,27.27,0,0,1-3.3,2.113l-.43.23c-.145.075-.294.142-.44.213-.292.146-.591.274-.891.4-.148.067-.3.122-.451.181s-.3.121-.454.172c-.207.075-.422.146-.629.208l-1.526-1.824-1.733-2.036c-1.15-1.362-2.328-2.7-3.5-4.049s-2.361-2.675-3.56-4-2.406-2.64-3.647-3.93c1.059,1.434,2.153,2.841,3.252,4.243s2.218,2.789,3.337,4.175,2.253,2.761,3.4,4.124l1.715,2.051,1.734,2.035.19.223.273-.071c.364-.1.679-.2,1.005-.324s.641-.248.951-.39.618-.285.918-.445c.151-.078.3-.153.452-.234l.441-.251a23.99,23.99,0,0,0,3.308-2.312l.751-.666c.254-.218.489-.455.723-.691s.476-.467.7-.709l.66-.745.328-.373.307-.39.608-.783c.392-.53.745-1.087,1.114-1.63Z" transform="translate(-3284.259 -858.716)" fill="#f36b80"/>
          <path id="Trazado_1396" data-name="Trazado 1396" d="M3341.92,883.042s5.721,3.391,10.179,0h0l-1.051-8.278-8.869-1.827-.259,10.1Z" transform="translate(-3252.029 -810.281)" fill="#ffb3c5"/>
          <path id="Trazado_1397" data-name="Trazado 1397" d="M3342.3,878.337l.138-5.4,8.951,2.475.3,2.346A16.1,16.1,0,0,1,3342.3,878.337Z" transform="translate(-3252.289 -810.281)" fill="#ea94ad"/>
          <path id="Trazado_1398" data-name="Trazado 1398" d="M3313.17,825.934a2.684,2.684,0,0,1-1.981,3.25,2.8,2.8,0,0,1-2.853-2.622,2.683,2.683,0,0,1,1.982-3.25A2.8,2.8,0,0,1,3313.17,825.934Z" transform="translate(-3229.077 -776.395)" fill="#ea94ad"/>
          <path id="Trazado_1399" data-name="Trazado 1399" d="M3315.15,812.651a12.1,12.1,0,0,1-.435-2.245,22.725,22.725,0,0,1,.182-5.954c.058-.384.094-.771.122-1.159a12.288,12.288,0,0,1,1.312-4.694,13.051,13.051,0,0,1,13.865-6.745,12.809,12.809,0,0,1,10.488,15.638,2.9,2.9,0,0,1,2.511.434c1.334,1.027,1.358,3.161.053,4.767s-3.447,2.076-4.781,1.049a2.5,2.5,0,0,1-.478-.489,12.172,12.172,0,0,1-14.5,7.563,11.84,11.84,0,0,1-6.906-5.042c-.106-.144-.216-.309-.327-.5A10.911,10.911,0,0,1,3315.15,812.651Z" transform="translate(-3233.376 -754.796)" fill="#ffb3c5"/>
          <path id="Trazado_1400" data-name="Trazado 1400" d="M3360.049,834.163a1.112,1.112,0,0,0,.807,1.36,1.13,1.13,0,0,0,1.392-.769,1.112,1.112,0,0,0-.806-1.36A1.13,1.13,0,0,0,3360.049,834.163Z" transform="translate(-3264.377 -783.261)" fill="#333"/>
          <path id="Trazado_1401" data-name="Trazado 1401" d="M3329.768,828.06a1.113,1.113,0,0,0,.807,1.36,1.131,1.131,0,0,0,1.393-.769,1.113,1.113,0,0,0-.806-1.359A1.13,1.13,0,0,0,3329.768,828.06Z" transform="translate(-3243.708 -779.095)" fill="#333"/>
          <path id="Trazado_1402" data-name="Trazado 1402" d="M3357.781,826.488a11,11,0,0,1,1.708-.083,5.824,5.824,0,0,1,1.572.269,5.352,5.352,0,0,1,1.423.692l.175.109c.058.037.107.086.163.125l.335.255c.224.175.422.378.673.558a4.913,4.913,0,0,0-.364-.81,4.125,4.125,0,0,0-.562-.714,3.771,3.771,0,0,0-1.6-.976,3.992,3.992,0,0,0-1.87-.133A3.6,3.6,0,0,0,3357.781,826.488Z" transform="translate(-3262.857 -778.053)" fill="#f36b80"/>
          <path id="Trazado_1403" data-name="Trazado 1403" d="M3330.081,820.757a3.575,3.575,0,0,0-1.208-1.329,3.978,3.978,0,0,0-1.757-.651,3.8,3.8,0,0,0-1.86.229,4.117,4.117,0,0,0-.811.417,4.882,4.882,0,0,0-.671.585c.3-.06.57-.163.846-.229l.412-.093c.069-.013.132-.037.2-.047l.2-.026a5.348,5.348,0,0,1,1.584-.042,5.781,5.781,0,0,1,1.542.4A10.826,10.826,0,0,1,3330.081,820.757Z" transform="translate(-3239.642 -773.293)" fill="#f36b80"/>
          <path id="Trazado_1404" data-name="Trazado 1404" d="M3342.848,828.351a8.211,8.211,0,0,1-.247,2.368,6.219,6.219,0,0,1-.4,1.154,3.026,3.026,0,0,1-.781,1.068l-.157.108-.14.091a1.29,1.29,0,0,0-.187.126.911.911,0,0,0-.262.32,1.044,1.044,0,0,0,.022.862,3.4,3.4,0,0,0,1.623,1.5,2.826,2.826,0,0,1-2.165-1.235,1.587,1.587,0,0,1-.165-1.4,1.234,1.234,0,0,1,.184-.335,1.435,1.435,0,0,1,.255-.278,1.863,1.863,0,0,1,.3-.211,1.115,1.115,0,0,0,.108-.075l.088-.06a2.916,2.916,0,0,0,.618-.805,9.8,9.8,0,0,0,.483-1.014C3342.311,829.828,3342.569,829.1,3342.848,828.351Z" transform="translate(-3250.646 -779.847)" fill="#ea94ad"/>
          <path id="Trazado_1405" data-name="Trazado 1405" d="M3345.68,859.471a2.337,2.337,0,0,0-4.348-.253Z" transform="translate(-3251.628 -799.986)" fill="#fff"/>
          <path id="Trazado_1406" data-name="Trazado 1406" d="M3160.136,719.153l8.871,199.38,1.791-.049-8.87-199.342Z" transform="translate(-3127.941 -705.299)" fill="#5c407b"/>
          <path id="Trazado_1407" data-name="Trazado 1407" d="M3163.171,976.448a9.617,9.617,0,0,1,.1-1.373,1.515,1.515,0,0,1,1.055-1.13l.611-.185.054,1.375h0c-.05,1.049-.072.975,1.384,1.607,2.074.9,1.207,1.988,1.207,1.988s-.577.772-3.114-.5A2.514,2.514,0,0,1,3163.171,976.448Z" transform="translate(-3130.011 -879.105)" fill="#ffb3c5"/>
          <path id="Trazado_1408" data-name="Trazado 1408" d="M3162.491,980.437a8.961,8.961,0,0,1,.1-1.307,1.441,1.441,0,0,1,1-1.076l.582-.176.052,1.308h0c-.049,1-.069.929,1.317,1.53,1.975.858,1.148,1.892,1.148,1.892s-.548.735-2.963-.473A2.393,2.393,0,0,1,3162.491,980.437Z" transform="translate(-3129.547 -881.916)" fill="#ffb3c5"/>
          <path id="Trazado_1409" data-name="Trazado 1409" d="M3163.5,986.227a7.578,7.578,0,0,1,.083-1.107,1.22,1.22,0,0,1,.849-.91l.492-.149.044,1.107h0c-.041.845-.058.786,1.115,1.295,1.671.726.971,1.6.971,1.6s-.464.622-2.509-.4A2.024,2.024,0,0,1,3163.5,986.227Z" transform="translate(-3130.233 -886.136)" fill="#ffb3c5"/>
          <path id="Trazado_1410" data-name="Trazado 1410" d="M3164.589,971.126a9.609,9.609,0,0,1,.1-1.373,1.515,1.515,0,0,1,1.055-1.13l.612-.185.054,1.375h0c-.052,1.049-.072.975,1.383,1.608,2.074.9,1.206,1.988,1.206,1.988s-.577.772-3.114-.5A2.515,2.515,0,0,1,3164.589,971.126Z" transform="translate(-3130.979 -875.471)" fill="#ffb3c5"/>
          <path id="Trazado_1411" data-name="Trazado 1411" d="M3166.368,972.769a4.057,4.057,0,0,0,.033.688.682.682,0,0,0,.451.455c.423.2.873.35,1.309.566.1.06.213.117.317.182a2.489,2.489,0,0,1,.29.226,1.4,1.4,0,0,1,.426.611,1.035,1.035,0,0,1-.041.752,1.075,1.075,0,0,1-.1.172.592.592,0,0,1-.172.142,1.2,1.2,0,0,1-.375.125,2.338,2.338,0,0,1-.749-.022,4.928,4.928,0,0,1-.709-.179,8.248,8.248,0,0,1-1.322-.583,2.924,2.924,0,0,1-1-1.028,1.864,1.864,0,0,1-.2-.677,1.629,1.629,0,0,1,.005-.35l.029-.347.007.346a1.619,1.619,0,0,0,.02.343,1.792,1.792,0,0,0,.245.631,2.809,2.809,0,0,0,.989.932,10.36,10.36,0,0,0,1.294.535,3.151,3.151,0,0,0,1.351.173.98.98,0,0,0,.3-.093.382.382,0,0,0,.1-.078.768.768,0,0,0,.075-.132.826.826,0,0,0,.043-.6,1.209,1.209,0,0,0-.361-.529,2.486,2.486,0,0,0-.263-.212c-.093-.065-.194-.123-.291-.185-.4-.224-.854-.393-1.276-.621a1.3,1.3,0,0,1-.3-.215.569.569,0,0,1-.16-.328A3.277,3.277,0,0,1,3166.368,972.769Z" transform="translate(-3130.934 -878.428)" fill="#ea94ad"/>
          <path id="Trazado_1412" data-name="Trazado 1412" d="M3167.123,980.089a1.244,1.244,0,0,1,.561.909,1.034,1.034,0,0,1-.137.545.391.391,0,0,1-.1.123.67.67,0,0,1-.127.083,1.129,1.129,0,0,1-.28.1,2.655,2.655,0,0,1-1.132-.058,6.837,6.837,0,0,1-1.052-.36c-.172-.069-.334-.156-.5-.233a2.432,2.432,0,0,1-.474-.308,2.629,2.629,0,0,1-.712-.853,1.968,1.968,0,0,1-.176-.527,1.944,1.944,0,0,1-.023-.275l.012-.272a8.359,8.359,0,0,1,.157-1.058c-.028.354-.044.709-.041,1.062l.005.261a1.911,1.911,0,0,0,.036.254,1.862,1.862,0,0,0,.191.473,2.685,2.685,0,0,0,.691.766,2.4,2.4,0,0,0,.44.277c.164.074.323.157.49.223a6.957,6.957,0,0,0,1.012.359,2.68,2.68,0,0,0,1.04.1.618.618,0,0,0,.417-.207.935.935,0,0,0,.15-.47.971.971,0,0,0-.118-.491A1.931,1.931,0,0,0,3167.123,980.089Z" transform="translate(-3129.874 -881.933)" fill="#ea94ad"/>
          <path id="Trazado_1413" data-name="Trazado 1413" d="M3166.8,987.254a.9.9,0,0,1,.015.767.5.5,0,0,1-.12.18.718.718,0,0,1-.183.115,1.355,1.355,0,0,1-.406.1,3.737,3.737,0,0,1-1.581-.3c-.245-.1-.489-.206-.725-.326a2.423,2.423,0,0,1-.655-.468,2.518,2.518,0,0,1-.479-.633,1.654,1.654,0,0,1-.175-.754,2.11,2.11,0,0,0,.778,1.258,2.6,2.6,0,0,0,.633.4c.233.111.47.212.71.306a6.017,6.017,0,0,0,.732.235,2.843,2.843,0,0,0,.749.1,1.216,1.216,0,0,0,.362-.059.594.594,0,0,0,.154-.08.391.391,0,0,0,.1-.132A.9.9,0,0,0,3166.8,987.254Z" transform="translate(-3129.552 -887.419)" fill="#ea94ad"/>
          <path id="Trazado_1414" data-name="Trazado 1414" d="M3166.947,991.687a.869.869,0,0,1,.307.633.836.836,0,0,1-.085.363.6.6,0,0,1-.049.086.4.4,0,0,1-.083.077.741.741,0,0,1-.179.093,1.617,1.617,0,0,1-.752.049,3.754,3.754,0,0,1-.712-.178,6.353,6.353,0,0,1-.667-.28,3.6,3.6,0,0,1-.323-.173,2.137,2.137,0,0,1-.289-.225,1.659,1.659,0,0,1-.615-1.247,1.844,1.844,0,0,0,.737,1.112,2.842,2.842,0,0,0,.279.191,3.148,3.148,0,0,0,.31.146,6.445,6.445,0,0,0,.648.26,3.73,3.73,0,0,0,.666.18,1.547,1.547,0,0,0,.659,0,.536.536,0,0,0,.14-.059.379.379,0,0,0,.051-.038.7.7,0,0,0,.15-.36.721.721,0,0,0-.031-.324A1.229,1.229,0,0,0,3166.947,991.687Z" transform="translate(-3130.237 -890.793)" fill="#ea94ad"/>
          <g id="Grupo_9856" data-name="Grupo 9856">
            <ellipse id="Elipse_513" data-name="Elipse 513" cx="32.236" cy="32.295" rx="32.236" ry="32.295" fill="#f2f2f2"/>
          </g>
          <path id="Trazado_1415" data-name="Trazado 1415" d="M3347.965,782.354l.35,7.982-18.662-4.5a13.4,13.4,0,0,1-2.35,1.781c-.309-.038-2.682-1.044-2.59-1.384s6.565-8.94,6.565-8.94,6.188,1.4,6.74,1.549S3347.965,782.354,3347.965,782.354Z" transform="translate(-3240.281 -744.996)" fill="#f36b80"/>
          <path id="Trazado_1416" data-name="Trazado 1416" d="M3343.5,809.2s-9.472-8.373-25.227-4.965c0,0-.017-.064-.039-.178a4.432,4.432,0,0,1,3.221-5.1c3.6-.981,11.441-1.761,21.579,5.088a3.323,3.323,0,0,1,.628,4.986C3343.61,809.095,3343.556,809.15,3343.5,809.2Z" transform="translate(-3235.806 -759.351)" fill="#31dae7"/>
          <g id="Grupo_9860" data-name="Grupo 9860" transform="translate(96.403 262.192)">
            <path id="Trazado_1417" data-name="Trazado 1417" d="M3363.657,1531.486l21.754-.014a1.217,1.217,0,0,0,1.216-1.218h0a1.218,1.218,0,0,0-1.218-1.216l-21.753.013a1.218,1.218,0,0,0-1.217,1.218h0A1.217,1.217,0,0,0,3363.657,1531.486Z" transform="translate(-3362.438 -1520.335)" fill="#fff"/>
            <path id="Trazado_1418" data-name="Trazado 1418" d="M3385.512,1502.926l.806,6.769c.1.835-.368,1.593-.981,1.593l-21.315.013a1.551,1.551,0,0,1-1.391-.994,2.96,2.96,0,0,1,.594-3.019c1.853-2.624,7.828-3.322,10.976-5.476a1.09,1.09,0,0,1,.616-.19l9.578-.006C3384.949,1501.617,3385.422,1502.171,3385.512,1502.926Z" transform="translate(-3362.436 -1501.617)" fill="#31dae7"/>
            <g id="Grupo_9857" data-name="Grupo 9857" transform="translate(9.035 0.603)">
              <path id="Trazado_1419" data-name="Trazado 1419" d="M3395.409,1506.849h0a.457.457,0,0,0,.121-.552c-.419-.927-1.729-3.184-4.39-2.719-.154.027-.258.231-.231.442v.007c.026.2.164.338.313.312a3.551,3.551,0,0,1,3.837,2.359C3395.132,1506.863,3395.281,1506.928,3395.409,1506.849Z" transform="translate(-3390.904 -1503.516)" fill="#fff"/>
            </g>
            <g id="Grupo_9858" data-name="Grupo 9858" transform="translate(6.822 1.476)">
              <path id="Trazado_1420" data-name="Trazado 1420" d="M3388.436,1509.6h0a.456.456,0,0,0,.12-.552c-.418-.928-1.728-3.184-4.39-2.719-.153.027-.257.231-.232.442l0,.007c.024.2.164.337.312.312a3.551,3.551,0,0,1,3.837,2.359C3388.158,1509.614,3388.308,1509.679,3388.436,1509.6Z" transform="translate(-3383.931 -1506.266)" fill="#fff"/>
            </g>
            <g id="Grupo_9859" data-name="Grupo 9859" transform="translate(4.764 2.29)">
              <path id="Trazado_1421" data-name="Trazado 1421" d="M3381.951,1512.166h0a.458.458,0,0,0,.121-.552c-.419-.927-1.729-3.184-4.39-2.719-.154.027-.258.231-.232.442v.007c.026.2.164.337.313.312a3.55,3.55,0,0,1,3.837,2.359C3381.674,1512.18,3381.823,1512.245,3381.951,1512.166Z" transform="translate(-3377.446 -1508.833)" fill="#fff"/>
            </g>
          </g>
          <g id="Grupo_9864" data-name="Grupo 9864" transform="translate(64.755 262.192)">
            <path id="Trazado_1422" data-name="Trazado 1422" d="M3263.945,1531.486l21.754-.014a1.217,1.217,0,0,0,1.217-1.218h0a1.217,1.217,0,0,0-1.218-1.216l-21.754.013a1.218,1.218,0,0,0-1.217,1.218h0A1.218,1.218,0,0,0,3263.945,1531.486Z" transform="translate(-3262.725 -1520.335)" fill="#fff"/>
            <path id="Trazado_1423" data-name="Trazado 1423" d="M3285.8,1502.926l.806,6.769c.1.835-.367,1.593-.981,1.593l-21.314.013a1.554,1.554,0,0,1-1.393-.994,2.962,2.962,0,0,1,.595-3.019c1.853-2.624,7.828-3.322,10.976-5.476a1.088,1.088,0,0,1,.616-.19l9.577-.006C3285.236,1501.617,3285.709,1502.171,3285.8,1502.926Z" transform="translate(-3262.723 -1501.617)" fill="#31dae7"/>
            <g id="Grupo_9861" data-name="Grupo 9861" transform="translate(9.035 0.603)">
              <path id="Trazado_1424" data-name="Trazado 1424" d="M3295.7,1506.849h0a.458.458,0,0,0,.121-.552c-.419-.927-1.729-3.184-4.39-2.719-.153.027-.258.231-.232.442v.007c.025.2.164.338.313.312a3.549,3.549,0,0,1,3.836,2.359C3295.418,1506.863,3295.567,1506.928,3295.7,1506.849Z" transform="translate(-3291.19 -1503.516)" fill="#fff"/>
            </g>
            <g id="Grupo_9862" data-name="Grupo 9862" transform="translate(6.822 1.476)">
              <path id="Trazado_1425" data-name="Trazado 1425" d="M3288.722,1509.6h0a.458.458,0,0,0,.121-.552c-.419-.928-1.728-3.184-4.39-2.719-.153.027-.258.231-.231.442v.007c.026.2.164.337.313.312a3.55,3.55,0,0,1,3.837,2.359C3288.446,1509.614,3288.595,1509.679,3288.722,1509.6Z" transform="translate(-3284.218 -1506.266)" fill="#fff"/>
            </g>
            <g id="Grupo_9863" data-name="Grupo 9863" transform="translate(4.764 2.29)">
              <path id="Trazado_1426" data-name="Trazado 1426" d="M3282.238,1512.166h0a.457.457,0,0,0,.12-.552c-.42-.927-1.728-3.184-4.39-2.719-.154.027-.259.231-.232.442v.007c.026.2.165.337.314.312a3.552,3.552,0,0,1,3.837,2.359C3281.96,1512.18,3282.109,1512.245,3282.238,1512.166Z" transform="translate(-3277.732 -1508.833)" fill="#fff"/>
            </g>
          </g>
        </g>
        <g id="Grupo_9875" data-name="Grupo 9875" transform="translate(-7352.481 3556.026)">
          <g id="Grupo_9874" data-name="Grupo 9874">
            <rect id="Rectángulo_2671" data-name="Rectángulo 2671" width="8.002" height="19.379" transform="translate(67.395 94.337) rotate(-7.556)" fill="#ddab99"/>
            <path id="Trazado_1427" data-name="Trazado 1427" d="M2834.967,833.685a2.967,2.967,0,0,0-2.639.457,14.225,14.225,0,0,0-28.2,3.74,2.97,2.97,0,0,0-2.667.247c-1.481.991-1.677,3.293-.438,5.142s3.447,2.544,4.928,1.553a2.632,2.632,0,0,0,.54-.486,12.823,12.823,0,0,0,25.242-3.348,2.613,2.613,0,0,0,.646.328c1.69.571,3.638-.676,4.353-2.784S2836.656,834.256,2834.967,833.685Z" transform="translate(-2749.358 -758.573)" fill="#ddab99"/>
            <path id="Trazado_1428" data-name="Trazado 1428" d="M2841.812,874.857a1.2,1.2,0,1,1-1.4-.953A1.2,1.2,0,0,1,2841.812,874.857Z" transform="translate(-2776.137 -794.174)" fill="#333"/>
            <path id="Trazado_1429" data-name="Trazado 1429" d="M2874.047,870.935a1.2,1.2,0,1,1-1.4-.953A1.2,1.2,0,0,1,2874.047,870.935Z" transform="translate(-2798.142 -791.496)" fill="#333"/>
            <path id="Trazado_1430" data-name="Trazado 1430" d="M2836.035,866.519a11.3,11.3,0,0,0-1.783-.238,5.933,5.933,0,0,0-1.669.152,5.5,5.5,0,0,0-1.548.621l-.191.1c-.063.035-.118.082-.181.121l-.372.244c-.249.169-.473.371-.752.543a5.2,5.2,0,0,1,.447-.842,4.351,4.351,0,0,1,.646-.722,3.9,3.9,0,0,1,1.751-.914,4.074,4.074,0,0,1,1.973.021A3.758,3.758,0,0,1,2836.035,866.519Z" transform="translate(-2769.381 -788.434)" fill="#472a6a"/>
            <path id="Trazado_1431" data-name="Trazado 1431" d="M2865.071,862.667a3.77,3.77,0,0,1,1.373-1.329,4.079,4.079,0,0,1,1.895-.549,3.9,3.9,0,0,1,1.932.412,4.366,4.366,0,0,1,.817.522,5.365,5.365,0,0,1,.656.692c-.314-.091-.585-.225-.87-.321l-.423-.136c-.071-.02-.136-.051-.207-.068l-.212-.046a5.49,5.49,0,0,0-1.657-.183,5.923,5.923,0,0,0-1.648.3A11.423,11.423,0,0,0,2865.071,862.667Z" transform="translate(-2793.635 -785.234)" fill="#472a6a"/>
            <path id="Trazado_1432" data-name="Trazado 1432" d="M2828.557,799.33c-2.895-4.623-13.305-7.117-19.536-5.416a5.992,5.992,0,0,0,.83,2.431c-.746-.733-3.609-2.888-9.759-.551,0,0,1.129,1.962,1.7,2.686a10.838,10.838,0,0,1-4.142-.351s-1.555,3.665.446,6.744l-2.262-.575s1.686,7.371,3.166,11.83h0c.273,1.373.512,2.24.512,2.24.116-.012,1.343-.354,3.265,1.131l.333-.228c1.322-.905.759-7.334,2.67-10.2,3.665-2.158,12.2-3.571,15.359-2.993,3.685.675,4.933,9.29,6.7,9.91l.382.134a3.244,3.244,0,0,1,2.857-1.929S2831.452,803.953,2828.557,799.33Z" transform="translate(-2746.374 -739.22)" fill="#2a1148"/>
            <path id="Trazado_1433" data-name="Trazado 1433" d="M2857.513,864.441a17.332,17.332,0,0,1,1.34,1.906,16.537,16.537,0,0,1,1.095,2.068,6.181,6.181,0,0,1,.372,1.145,2.212,2.212,0,0,1,.033.325c0,.056-.006.12-.011.178a.766.766,0,0,1-.06.2c-.019.035-.039.069-.059.1l-.054.06c-.036.039-.07.081-.107.116-.076.069-.151.142-.232.2a5.651,5.651,0,0,1-1.007.631,7.549,7.549,0,0,1-1.083.443,12.72,12.72,0,0,0,1.844-1.353c.067-.062.125-.132.187-.2l.082-.1.04-.051a.076.076,0,0,1,.01-.026.886.886,0,0,0-.024-.439,6.343,6.343,0,0,0-.368-1.048c-.294-.7-.642-1.384-.98-2.074S2857.84,865.148,2857.513,864.441Z" transform="translate(-2788.476 -787.728)" fill="#804832"/>
            <path id="Trazado_1434" data-name="Trazado 1434" d="M2859.954,895.582a1.587,1.587,0,0,1,2.823-.284Z" transform="translate(-2790.142 -808.287)" fill="#fff"/>
            <path id="Trazado_1435" data-name="Trazado 1435" d="M2835.969,930.5l19.516-2.589-4.136,9.4s-8.693,1.559-9.551,1.267S2835.969,930.5,2835.969,930.5Z" transform="translate(-2773.77 -831.051)" fill="#ddab99"/>
            <path id="Trazado_1436" data-name="Trazado 1436" d="M2804.856,1088.327s-8.631,76.974-7.231,103.8l15.244,1.817,15.875-89.054,2.009.078,10.226,89.569h13.84s2.284-89.414-5.179-114.605S2804.856,1088.327,2804.856,1088.327Z" transform="translate(-2747.49 -928.428)" fill="#21c3fd"/>
            <path id="Trazado_1437" data-name="Trazado 1437" d="M2815.15,1465.346l-.315,11.149-7.4,5.366s-2.809-5.354-2.74-6.007,0-13.438,0-13.438Z" transform="translate(-2752.419 -1195.912)" fill="#ddab99"/>
            <path id="Trazado_1438" data-name="Trazado 1438" d="M2942.665,1465.346l.315,11.149,7.4,5.366s2.422-5.354,2.352-6.007.39-13.438.39-13.438Z" transform="translate(-2846.602 -1195.912)" fill="#ddab99"/>
            <path id="Trazado_1439" data-name="Trazado 1439" d="M2794.582,1450.409l16.04,1.911a.769.769,0,0,1,.663.907l-1.086,5.655a.768.768,0,0,1-.859.616l-15.021-2.076a.767.767,0,0,1-.663-.77l.067-5.491A.768.768,0,0,1,2794.582,1450.409Z" transform="translate(-2744.887 -1187.713)" fill="#09347b"/>
            <path id="Trazado_1440" data-name="Trazado 1440" d="M2701.864,886.77l4.952-14.515-4.118-.921c-8.725-.264-16.957-4.339-18.287-5.724-2.821-2.938,7.134-22.6,7.134-22.6l-7.7-1.558s-17.722,23.751-10.161,31.867,26.075,13.259,26.075,13.259Z" transform="translate(-2661.708 -772.033)" fill="#ddab99"/>
            <path id="Trazado_1441" data-name="Trazado 1441" d="M2958.526,852.124l-8.565-12.723,3.735-1.962c8.355-2.53,15.24-8.609,16.163-10.293,1.958-3.572-12.78-19.962-12.78-19.962l7.031-3.513s23.3,18.31,18.117,28.116-21.718,19.6-21.718,19.6Z" transform="translate(-2851.582 -746.246)" fill="#ddab99"/>
            <path id="Trazado_1442" data-name="Trazado 1442" d="M2946.453,1451.756l-16.038,1.912a.768.768,0,0,0-.663.908l1.085,5.655a.768.768,0,0,0,.859.616l15.021-2.076a.767.767,0,0,0,.662-.77l-.068-5.491A.768.768,0,0,0,2946.453,1451.756Z" transform="translate(-2837.778 -1188.632)" fill="#09347b"/>
            <path id="Trazado_1443" data-name="Trazado 1443" d="M2829.521,922.531l-8.24-15.524c-5.063,2.3-12.979,4.365-17.026,5.344a16.143,16.143,0,0,0-4.741,1.995l-.164.1a20.267,20.267,0,0,1-16.515,2.191l-.184-.056a16.152,16.152,0,0,0-5.1-.69c-4.162.11-12.344.179-17.831-.721l-3.908,17.135a69.431,69.431,0,0,0,15.995,1.425l2.489,49.318h0a115.031,115.031,0,0,0,50.207-6.566l.4-.146-10.453-48.261A69.429,69.429,0,0,0,2829.521,922.531Z" transform="translate(-2719.056 -816.784)" fill="#d5d5d5"/>
            <path id="Trazado_1444" data-name="Trazado 1444" d="M2763.015,678.407l-111.884,14.84c-2.312.307-4.39-.982-4.642-2.878l-6.466-48.754c-.252-1.9,1.418-3.682,3.73-3.989l111.884-14.84c2.313-.307,4.39.982,4.641,2.878l6.467,48.753C2767,676.314,2765.326,678.1,2763.015,678.407Z" transform="translate(-2639.998 -622.741)" fill="#f2f2f2"/>
            <path id="Trazado_1445" data-name="Trazado 1445" d="M2718.094,829.769s2.214-.88,2.274-2.712,1.289-.982,1.394-.185,1.4,4.426-4.327,5.565-7.7-1.558-7.7-1.558Z" transform="translate(-2687.598 -761.463)" fill="#ddab99"/>
            <path id="Trazado_1446" data-name="Trazado 1446" d="M2958.934,800.827s-2.367-.273-2.9-2.026-1.5-.611-1.394.185-.2,4.637,5.629,4.244,7.032-3.513,7.032-3.513Z" transform="translate(-2854.768 -742.292)" fill="#ddab99"/>
            <g id="Grupo_9869" data-name="Grupo 9869" transform="translate(40.63 279.361)">
              <path id="Trazado_1447" data-name="Trazado 1447" d="M2769.188,1531.682l20.942-.013a1.171,1.171,0,0,0,1.171-1.172h0a1.172,1.172,0,0,0-1.172-1.171l-20.943.013a1.172,1.172,0,0,0-1.172,1.173h0A1.172,1.172,0,0,0,2769.188,1531.682Z" transform="translate(-2768.013 -1520.946)" fill="#5c407b"/>
              <path id="Trazado_1448" data-name="Trazado 1448" d="M2790.227,1504.185l.776,6.517c.1.8-.354,1.534-.943,1.534l-20.521.013a1.5,1.5,0,0,1-1.34-.957,2.851,2.851,0,0,1,.572-2.906c1.784-2.526,7.537-3.2,10.568-5.272a1.049,1.049,0,0,1,.592-.182l9.221-.006C2789.686,1502.925,2790.142,1503.458,2790.227,1504.185Z" transform="translate(-2768.011 -1502.925)" fill="#f36b80"/>
              <g id="Grupo_9866" data-name="Grupo 9866" transform="translate(8.699 0.58)">
                <path id="Trazado_1449" data-name="Trazado 1449" d="M2799.755,1507.963h0a.44.44,0,0,0,.116-.531c-.4-.893-1.664-3.066-4.226-2.618-.148.026-.248.223-.223.426v.006c.025.2.158.325.3.3a3.42,3.42,0,0,1,3.7,2.271C2799.489,1507.976,2799.633,1508.039,2799.755,1507.963Z" transform="translate(-2795.418 -1504.754)" fill="#fff"/>
              </g>
              <g id="Grupo_9867" data-name="Grupo 9867" transform="translate(6.568 1.421)">
                <path id="Trazado_1450" data-name="Trazado 1450" d="M2793.043,1510.612h0a.442.442,0,0,0,.116-.531c-.4-.893-1.664-3.066-4.227-2.617-.147.026-.248.223-.222.425v.006c.025.2.158.324.3.3a3.419,3.419,0,0,1,3.694,2.271C2792.776,1510.625,2792.919,1510.688,2793.043,1510.612Z" transform="translate(-2788.706 -1507.403)" fill="#fff"/>
              </g>
              <g id="Grupo_9868" data-name="Grupo 9868" transform="translate(4.587 2.205)">
                <path id="Trazado_1451" data-name="Trazado 1451" d="M2786.8,1513.082h0a.438.438,0,0,0,.116-.531c-.4-.892-1.663-3.066-4.226-2.618-.148.026-.248.223-.223.426v.006c.025.2.158.325.3.3a3.419,3.419,0,0,1,3.695,2.27C2786.532,1513.1,2786.676,1513.158,2786.8,1513.082Z" transform="translate(-2782.462 -1509.873)" fill="#fff"/>
              </g>
            </g>
            <g id="Grupo_9873" data-name="Grupo 9873" transform="translate(94.347 279.361)">
              <path id="Trazado_1452" data-name="Trazado 1452" d="M2959.371,1531.682l-20.942-.013a1.172,1.172,0,0,1-1.172-1.172h0a1.173,1.173,0,0,1,1.173-1.171l20.943.013a1.172,1.172,0,0,1,1.171,1.173h0A1.172,1.172,0,0,1,2959.371,1531.682Z" transform="translate(-2937.257 -1520.946)" fill="#5c407b"/>
              <path id="Trazado_1453" data-name="Trazado 1453" d="M2938.937,1504.185l-.775,6.517c-.1.8.354,1.534.944,1.534l20.52.013a1.5,1.5,0,0,0,1.341-.957,2.854,2.854,0,0,0-.573-2.906c-1.784-2.526-7.537-3.2-10.568-5.272a1.051,1.051,0,0,0-.593-.182l-9.22-.006C2939.479,1502.925,2939.023,1503.458,2938.937,1504.185Z" transform="translate(-2937.866 -1502.925)" fill="#f36b80"/>
              <g id="Grupo_9870" data-name="Grupo 9870" transform="translate(10.095 0.58)">
                <path id="Trazado_1454" data-name="Trazado 1454" d="M2969.221,1507.963h0a.441.441,0,0,1-.115-.531c.4-.893,1.664-3.066,4.226-2.618.148.026.249.223.223.426v.006c-.025.2-.158.325-.3.3a3.418,3.418,0,0,0-3.694,2.271C2969.489,1507.976,2969.345,1508.039,2969.221,1507.963Z" transform="translate(-2969.064 -1504.754)" fill="#fff"/>
              </g>
              <g id="Grupo_9871" data-name="Grupo 9871" transform="translate(12.226 1.421)">
                <path id="Trazado_1455" data-name="Trazado 1455" d="M2975.934,1510.612h0a.441.441,0,0,1-.116-.531c.4-.893,1.664-3.066,4.226-2.617.148.026.248.223.224.425l0,.006c-.024.2-.157.324-.3.3a3.418,3.418,0,0,0-3.694,2.271C2976.2,1510.625,2976.057,1510.688,2975.934,1510.612Z" transform="translate(-2975.777 -1507.403)" fill="#fff"/>
              </g>
              <g id="Grupo_9872" data-name="Grupo 9872" transform="translate(14.207 2.205)">
                <path id="Trazado_1456" data-name="Trazado 1456" d="M2982.177,1513.082h0a.441.441,0,0,1-.116-.531c.4-.892,1.665-3.066,4.227-2.618.148.026.249.223.223.426v.006c-.025.2-.158.325-.3.3a3.42,3.42,0,0,0-3.7,2.27C2982.443,1513.1,2982.3,1513.158,2982.177,1513.082Z" transform="translate(-2982.02 -1509.873)" fill="#fff"/>
              </g>
            </g>
          </g>
        </g>
        <g id="Grupo_9897" data-name="Grupo 9897" transform="translate(-7434.99 3612.002)">
          <path id="Trazado_1520" data-name="Trazado 1520" d="M2529.221,1515.211v5.947a.891.891,0,0,0,.891.889h13.947a1.007,1.007,0,0,0,.542-1.857l-7.641-4.979A7.833,7.833,0,0,1,2529.221,1515.211Z" transform="translate(-2481.87 -1287.927)" fill="#472a6a"/>
          <path id="Trazado_1521" data-name="Trazado 1521" d="M2448.318,1515.211v5.947a.89.89,0,0,0,.891.889h13.948a1.007,1.007,0,0,0,.542-1.857l-7.642-4.979A7.832,7.832,0,0,1,2448.318,1515.211Z" transform="translate(-2426.645 -1287.927)" fill="#472a6a"/>
          <g id="Grupo_9895" data-name="Grupo 9895" transform="translate(27.619 11.022)">
            <path id="Trazado_1522" data-name="Trazado 1522" d="M2573.245,885.735c-.7,1.909-.034,3.913,1.5,4.475s3.341-.53,4.045-2.439.034-3.913-1.5-4.475S2573.949,883.825,2573.245,885.735Z" transform="translate(-2539.35 -867.496)" fill="#7a422e"/>
            <path id="Trazado_1523" data-name="Trazado 1523" d="M2489.582,926.117s-1.3,12.278-3.536,15.766c0,0,6.532,8.761,15.177,3.467,0,0,1.106-10.437,2.6-12.762S2489.582,926.117,2489.582,926.117Z" transform="translate(-2480.018 -896.827)" fill="#9e5b42"/>
            <path id="Trazado_1524" data-name="Trazado 1524" d="M2495.416,926.117s-.288,2.714-.825,5.952a14.194,14.194,0,0,0,9.767,5.51,13.977,13.977,0,0,0,3.856-.128,17.254,17.254,0,0,1,1.438-4.862C2511.142,930.263,2495.416,926.117,2495.416,926.117Z" transform="translate(-2485.851 -896.827)" fill="#7a422e"/>
            <path id="Trazado_1525" data-name="Trazado 1525" d="M2501.883,860.491a29.044,29.044,0,0,0,1.328-7.291c.031-.483.088-.963.156-1.442A15.762,15.762,0,1,0,2472,850.112a3.411,3.411,0,0,0-3.075-.133c-1.841.9-2.422,3.489-1.3,5.786s3.529,3.432,5.369,2.534a3.016,3.016,0,0,0,.69-.47,14.774,14.774,0,0,0,15.152,13.017A14.5,14.5,0,0,0,2501.883,860.491Z" transform="translate(-2467.054 -833.833)" fill="#9e5b42"/>
            <g id="Grupo_9894" data-name="Grupo 9894" transform="translate(13.835 12.993)">
              <path id="Trazado_1526" data-name="Trazado 1526" d="M2515.627,874.769l-4.983,6.037,1.668,1.624,4.983-6.742Z" transform="translate(-2510.645 -874.769)" fill="#fff" opacity="0.3"/>
              <path id="Trazado_1527" data-name="Trazado 1527" d="M2522.253,879.522s-4.861,6.335-4.881,6.417l.325.321,4.983-6.324Z" transform="translate(-2515.237 -878.014)" fill="#fff" opacity="0.3"/>
            </g>
            <path id="Trazado_1528" data-name="Trazado 1528" d="M2517.872,879.326a4.047,4.047,0,1,1-4.048-4.041A4.045,4.045,0,0,1,2517.872,879.326Z" transform="translate(-2496.218 -862.129)" fill="#daeef7" opacity="0.3"/>
            <path id="Trazado_1529" data-name="Trazado 1529" d="M2526.181,885.6a1.376,1.376,0,1,1-1.445-1.3A1.375,1.375,0,0,1,2526.181,885.6Z" transform="translate(-2505.537 -868.279)" fill="#333"/>
            <path id="Trazado_1530" data-name="Trazado 1530" d="M2558.747,885.63a1.376,1.376,0,1,1-1.444-1.3A1.376,1.376,0,0,1,2558.747,885.63Z" transform="translate(-2527.767 -868.3)" fill="#333"/>
            <path id="Trazado_1531" data-name="Trazado 1531" d="M2515.721,870.276a14.42,14.42,0,0,0-2-.512,7.025,7.025,0,0,0-1.908-.074,6.482,6.482,0,0,0-1.844.452l-.235.083c-.078.029-.148.073-.226.107-.15.073-.3.143-.464.212-.313.148-.6.338-.955.482a5.752,5.752,0,0,1,.625-.908c.128-.131.262-.262.4-.39a2.408,2.408,0,0,1,.446-.346,4.438,4.438,0,0,1,2.149-.783,4.639,4.639,0,0,1,2.258.342A4.217,4.217,0,0,1,2515.721,870.276Z" transform="translate(-2495.063 -857.549)" fill="#472a6a"/>
            <path id="Trazado_1532" data-name="Trazado 1532" d="M2549.611,870.276a4.215,4.215,0,0,1,1.759-1.336,4.64,4.64,0,0,1,2.258-.342,4.439,4.439,0,0,1,2.148.783,2.4,2.4,0,0,1,.446.346c.137.128.271.258.4.39a5.676,5.676,0,0,1,.626.908c-.351-.144-.642-.334-.955-.482-.159-.069-.313-.139-.464-.212-.076-.034-.147-.078-.225-.107l-.234-.083a6.483,6.483,0,0,0-1.844-.452,7.026,7.026,0,0,0-1.908.074A14.446,14.446,0,0,0,2549.611,870.276Z" transform="translate(-2523.408 -857.549)" fill="#472a6a"/>
            <path id="Trazado_1533" data-name="Trazado 1533" d="M2485.159,885.808c-.936-4.873,1.932-5.679,2.837-4.508s-.275,10.681,4.424,10.3c2.95-.242,6.529-1.888,12.264-1.279,4.7.5,8.482,2.742,10.312-1.645,0,0,2.5,15.007-13.729,15.047-16.436.041-16.108-17.91-16.108-17.91Z" transform="translate(-2479.286 -865.91)" fill="#472a6a"/>
            <path id="Trazado_1534" data-name="Trazado 1534" d="M2537.968,918.436c-1.913.117-2.715,1.4-2.686,1.856.7.557,3.521.3,3.521-.265S2538.727,918.39,2537.968,918.436Z" transform="translate(-2513.626 -891.583)" fill="#fff"/>
            <path id="Trazado_1535" data-name="Trazado 1535" d="M2494.838,873.991a4.446,4.446,0,0,0-3.728,6.887.79.79,0,0,0-.638.814.821.821,0,0,0,.021.14c-1.743,1-3.293,1.226-4.611.66-2.7-1.157-3.834-4.927-3.842-4.968l-.28-.132c.036.174,1.184,4.137,4.012,5.352a4.068,4.068,0,0,0,1.62.328,6.562,6.562,0,0,0,3.211-.989.789.789,0,0,0,1.416-.195,4.454,4.454,0,1,0,2.82-7.9Zm0,8.355a3.9,3.9,0,1,1,3.909-3.9A3.911,3.911,0,0,1,2494.838,882.346Z" transform="translate(-2477.092 -861.246)" fill="#5c407b"/>
            <path id="Trazado_1536" data-name="Trazado 1536" d="M2542.406,874.769a12.268,12.268,0,0,0,.187,3.451,9.566,9.566,0,0,0,.486,1.7,4.487,4.487,0,0,0,1.027,1.61c.563.444.832.567,1.006.994a1.552,1.552,0,0,1-.089,1.248,4.771,4.771,0,0,1-2.385,2.039,3.909,3.909,0,0,0,3.131-1.616,2.356,2.356,0,0,0,.326-2.013,2.914,2.914,0,0,0-1.249-1.463,4.257,4.257,0,0,1-.816-1.215,14.428,14.428,0,0,1-.611-1.508C2543.061,876.952,2542.748,875.87,2542.406,874.769Z" transform="translate(-2518.457 -861.777)" fill="#7a422e"/>
          </g>
          <path id="Trazado_1537" data-name="Trazado 1537" d="M2522.167,1194.653c-8.193,8.633-25.189-.1-25.189-.1l2.79,40.3,7.063,62.411s6.575,1.25,10.332-.782C2517.162,1296.481,2522.7,1218.879,2522.167,1194.653Z" transform="translate(-2459.861 -1069.043)" fill="#472a6a"/>
          <path id="Trazado_1538" data-name="Trazado 1538" d="M2421.71,1188.513a22.414,22.414,0,0,1,1.085-4.456c.421,0,17.7-2.384,18.685-2.244s24.807,4.986,24.807,4.986-14.588,16.188-26.721,19.839c-1.174,32.283-4.661,81.142-4.661,81.142-3.757,2.032-10.332.782-10.332.782l-7.062-62.411-2.79-40.3A42.027,42.027,0,0,0,2421.71,1188.513Z" transform="translate(-2403.711 -1060.342)" fill="#5c407b"/>
          <path id="Trazado_1539" data-name="Trazado 1539" d="M2653.794,808.19a.391.391,0,0,1-.685.065c-2.685-3.964-3.124-4.115-3.491-3.722-.213.228.538,7.089,1.361,10.775.005-.028.034,4.072.034,4.072h2.671s2.342-.052,2.466,0c0,0,3.492-1.643,4.859-4.072.2-.329.334-.541.334-.541,4.258-9.738,4-9.826,3.673-10.04s-3.223,3.281-3.49,2.912,1.99-6.187,1.447-6.072-3.28,5.231-3.564,5.007,1.976-5.806,1.212-6.069-3.036,5.935-3.558,5.479,1.964-6.749,1.229-6.877C2657.671,799,2654.718,805.969,2653.794,808.19Z" transform="translate(-2564.03 -799.106)" fill="#9e5b42"/>
          <path id="Trazado_1540" data-name="Trazado 1540" d="M2532.709,904.041s-9.715-5.184,7.3-24.765c15.442-17.774,23.8-28.73,27.769-37.112a22.386,22.386,0,0,1,12.189,3.971s-9.8,26.3-17.6,38.08c-8.628,13.029-18.764,28.549-18.764,28.549Z" transform="translate(-2482.366 -828.498)" fill="#e25a74"/>
          <path id="Trazado_1541" data-name="Trazado 1541" d="M2499.321,959.982H2473.7s5.583,21.805,14.779,20,11.624-14.8,11.624-14.8Z" transform="translate(-2443.974 -908.922)" fill="#f2f2f2"/>
          <path id="Trazado_1542" data-name="Trazado 1542" d="M2500.556,979.163l5.973-4.509,6.117,4.509-5.184,8.52s-3.03,0-3.088-.407-3.817-7.852-3.817-7.852Z" transform="translate(-2462.303 -918.937)" fill="#e1dde7" style="mix-blend-mode: multiply;isolation: isolate"/>
          <path id="Trazado_1543" data-name="Trazado 1543" d="M2508.085,992.094l2.948-7.91h1.637l2.611,8.555-3.058,5.813Z" transform="translate(-2467.443 -925.442)" fill="#31dae7"/>
          <path id="Trazado_1544" data-name="Trazado 1544" d="M2473.7,959.982h3.754s5.615,12.742,10.975,17.162a48.678,48.678,0,0,0,8.272-17.162h2.615v18.326s-4.83,10.935-7.975,9.19-6.875-.814-8.972-5.817-4.354-5.817-4.916-9.19a31.356,31.356,0,0,0-2.029-7.1C2474.568,963.068,2473.7,959.982,2473.7,959.982Z" transform="translate(-2443.974 -908.922)" fill="#e25a74"/>
          <path id="Trazado_1545" data-name="Trazado 1545" d="M2453.88,959.982a29.98,29.98,0,0,1,10.181,25.248c-1.314,16.4-3.924,43.1-2.61,48.67,1.24,5.261-22.849,8.495-47.927,3.326a6.128,6.128,0,0,1-4.865-5.467l-1.085-12.427s-.985-12.762,0-19.825,7.225-19.523,8.211-25.753,12.48-13.772,12.48-13.772,8.538,16.067,14.778,20C2443.042,979.984,2450.6,976.377,2453.88,959.982Z" transform="translate(-2398.534 -908.922)" fill="#f36b80"/>
          <path id="Trazado_1546" data-name="Trazado 1546" d="M2485.532,954.317l2.49-2.634s8.745,4.856,14.46,1.139l2.3,1.495-2.909,2.621s-11.773.93-11.928.62S2485.532,954.317,2485.532,954.317Z" transform="translate(-2452.048 -903.257)" fill="#f2f2f2"/>
          <path id="Trazado_1547" data-name="Trazado 1547" d="M2510.645,976.746l2.771-2.092,2.663,1.963-1.414,1.6a1.544,1.544,0,0,1-2.171.141Z" transform="translate(-2469.191 -918.937)" fill="#31dae7"/>
          <g id="Grupo_9896" data-name="Grupo 9896" transform="translate(8.602 121.648)">
            <path id="Trazado_1548" data-name="Trazado 1548" d="M2430.309,1294.855h-4.981v-98.276a9.265,9.265,0,0,0-2.55-6.465,9.016,9.016,0,0,0-6.516-2.758h-6.635a2.489,2.489,0,0,1-2.491-2.487h0a2.489,2.489,0,0,1,2.491-2.486h6.406a14.358,14.358,0,0,1,10.259,4.206,13.917,13.917,0,0,1,4.017,9.82Z" transform="translate(-2407.136 -1182.382)" fill="#472a6a"/>
          </g>
          <path id="Trazado_1549" data-name="Trazado 1549" d="M2457,1086.859l-5.207,5.2-5.207-5.2-5.207,5.2-5.207-5.2-5.207,5.2-5.207-5.2-5.207,5.2-5.206-5.2-5.124,5.116-2.936-2.931c-.135,2.086-.167,4.388-.146,6.6l3.081-3.076,4.908,4.9-4.908,4.9-3-2.992c.1,3.012.266,5.435.324,6.257l2.672-2.667,4.838,4.831-4.838,4.83-2.263-2.259.412,4.705,1.851-1.849,5.124,5.115,5.206-5.2,5.207,5.2,5.207-5.2,5.207,5.2,5.207-5.2,5.207,5.2,5.207-5.2,5.207,5.2,4.094-4.088c.009-.814.028-1.681.057-2.6l-3.865-3.859,4.265-4.258q.05-.81.1-1.637l-4.439-4.433,4.991-4.983.131.13q.03-.375.06-.751l-.19.19Zm-36.449,25.855-4.921-4.914,4.921-4.914,4.922,4.914Zm0-10.259-4.991-4.984,4.991-4.983,4.991,4.983Zm10.414,10.259-4.921-4.914,4.921-4.914,4.921,4.914Zm0-10.259-4.991-4.984,4.991-4.983,4.991,4.983Zm10.414,10.259-4.922-4.914,4.922-4.914,4.922,4.914Zm0-10.259-4.992-4.984,4.992-4.983,4.992,4.983Zm10.414,10.259-4.922-4.914,4.922-4.914,4.922,4.914Zm0-10.259-4.991-4.984,4.991-4.983,4.991,4.983Z" transform="translate(-2398.534 -995.529)" fill="#e25a74" opacity="0.664"/>
          <path id="Trazado_1550" data-name="Trazado 1550" d="M2433.011,1175.755c-3.616-1.984-8.137-1.835-11.8-1.172-.177.042-.355.084-.533.128-2.873.708-2.706,2.282-2.467,2.993a.553.553,0,0,0,.531.359c.45,0,1.026.017,1.807.079,4.548.359.169,5.725,1.941,5.75,2.238.031,1.648-4.841,2.817-4.752,2.2.167-.449,4.5,1,4.749,1.59.275.289-4.949,2.815-4.8,1.354.082-.356,4.868,1.229,4.525,1.665-.359.26-4.577,1.8-4.5,2.279.113-.549,4.3,1.137,4.529C2434.3,1183.783,2435.572,1177.16,2433.011,1175.755Z" transform="translate(-2406.008 -1055.107)" fill="#9e5b42"/>
          <path id="Trazado_1551" data-name="Trazado 1551" d="M2409.764,959.982a39.669,39.669,0,0,0-22.661,16.8c-8.375,13.526-10.975,25.084,1.532,52.381,0,0,12.015,1.722,14.724-1.23l-8.461-27.3,16.589-19.428Z" transform="translate(-2380.033 -908.922)" fill="#f36b80"/>
          <path id="Trazado_1552" data-name="Trazado 1552" d="M2426.4,1030.181c-1.9,2.089-3.828,4.156-5.814,6.161s-4.026,3.958-6.18,5.775a38.405,38.405,0,0,1-3.368,2.545,13.653,13.653,0,0,1-3.777,1.862,9.391,9.391,0,0,0,2.021-.66l.487-.219c.16-.078.315-.165.473-.246l.472-.249.46-.271c.665-.4,1.309-.83,1.94-1.28.161.777.329,1.552.518,2.321.168.729.34,1.457.532,2.18s.368,1.45.563,2.172q.589,2.165,1.236,4.313c.86,2.864,1.748,5.721,2.713,8.551.946,2.776,1.918,5.542,2.939,8.293a12.193,12.193,0,0,1-3.3,1.214,21.991,21.991,0,0,1-3.7.479,36.833,36.833,0,0,1-3.744,0c-1.249-.068-2.5-.183-3.735-.366a34.062,34.062,0,0,0,3.725.509,32.035,32.035,0,0,0,3.765.116,22.211,22.211,0,0,0,3.756-.41,12.1,12.1,0,0,0,3.581-1.272l.146-.083-.059-.161c-1.021-2.8-1.993-5.63-2.937-8.463s-1.878-5.67-2.747-8.526-1.713-5.721-2.457-8.611q-.3-1.2-.59-2.4.682-.495,1.343-1.015c1.115-.881,2.183-1.818,3.234-2.769s2.059-1.951,3.061-2.954,1.969-2.038,2.929-3.081,1.9-2.1,2.818-3.179q2.772-3.218,5.316-6.621Q2429.247,1027.044,2426.4,1030.181Z" transform="translate(-2398.534 -952.505)" fill="#daeef7"/>
        </g>
      </g>
    </g>
  </g>
</svg>
