<svg xmlns="http://www.w3.org/2000/svg" width="524" height="311.48" viewBox="0 0 524 311.48">
  <g id="Grupo_9824" data-name="Grupo 9824" transform="translate(-758.761 -164.708)">
    <path id="Trazado_1179" data-name="Trazado 1179" d="M52.2,300.279c-18.346-15.133-36.34-32.826-45.8-54.646s-9.211-49.209,5.978-67.507c7.725-9.3,18.755-15.795,24.952-26.18,6.812-11.418,6.635-25.663,4.619-38.8s-5.67-26.19-5.1-39.473a62.561,62.561,0,0,1,77.593-58.04c21.008,5.221,37.856,20.842,57.985,28.808,20.711,8.2,44.409,7.968,65.787,2.5,22.152-5.662,43.667-21.326,64.153-31.507,12.677-6.3,25.684-12.478,39.67-14.667s29.306.116,40.123,9.248c11.983,10.117,16.373,26.352,20.774,41.4s10.4,31.186,23.9,39.183c10.11,5.993,22.6,6.229,33.5,10.632A46.3,46.3,0,0,1,484.7,164.242c-6.107,12.687-17.916,22.482-21.589,36.075-3.03,11.213.015,23.062.14,34.676.279,26.045-21.546,54.141-45.087,65.287Z" transform="matrix(1, 0.017, -0.017, 1, 783.853, 164.708)" fill="#7c3be6"/>
    <path id="Trazado_1179-2" data-name="Trazado 1179" d="M105.473,350.471c-18.346-15.133-36.34-32.826-45.8-54.646s-9.211-49.209,5.978-67.507c7.725-9.3,18.755-15.795,24.952-26.18,6.812-11.418,6.635-25.663,4.619-38.8s-5.67-26.19-5.1-39.473a62.561,62.561,0,0,1,77.593-58.04c21.008,5.221,37.856,20.842,57.985,28.808,20.711,8.2,44.409,7.968,65.787,2.5,22.152-5.662,43.667-21.326,64.153-31.507,12.678-6.3,25.684-12.478,39.67-14.667s29.306.116,40.123,9.248c11.983,10.117,16.373,26.352,20.774,41.4s10.4,31.186,23.9,39.183c10.11,5.993,22.6,6.229,33.5,10.632a46.3,46.3,0,0,1,24.374,63.007c-6.107,12.687-17.916,22.482-21.589,36.075-3.03,11.213.015,23.062.14,34.676.279,26.045-21.546,54.141-45.087,65.287Z" transform="translate(723.307 122.161)" fill="#2a0664"/>
    <g id="Grupo_9768" data-name="Grupo 9768" transform="translate(762.393 341.55)">
      <g id="Grupo_9762" data-name="Grupo 9762" transform="translate(0 2.254)">
        <g id="Grupo_9759" data-name="Grupo 9759">
          <path id="Trazado_1180" data-name="Trazado 1180" d="M314.091,318.7H120.877V336.22l129.443,11.9q8.435.776,16.915.776h47.788Z" transform="translate(-55.288 -285.999)" fill="#c7d2d7"/>
          <path id="Trazado_1181" data-name="Trazado 1181" d="M197.934,318.7,225.558,346,120.877,336.22V318.7Z" transform="translate(-55.288 -285.999)" fill="#9799be"/>
          <g id="Grupo_9758" data-name="Grupo 9758" transform="translate(55.255 17.577)">
            <rect id="Rectángulo_2648" data-name="Rectángulo 2648" width="10.771" height="21.796" transform="translate(12.859)" fill="#f9a828"/>
            <ellipse id="Elipse_498" data-name="Elipse 498" cx="14.75" cy="14.75" rx="14.75" ry="14.75" transform="translate(0 34.332) rotate(-73.997)" fill="#f9a828"/>
            <path id="Trazado_1281" data-name="Trazado 1281" d="M10.412,0A10.412,10.412,0,1,1,0,10.412,10.412,10.412,0,0,1,10.412,0Z" transform="translate(7.833 13.809)" fill="#fff"/>
            <ellipse id="Elipse_500" data-name="Elipse 500" cx="8.05" cy="8.05" rx="8.05" ry="8.05" transform="translate(10.194 16.17)" fill="#f9a828"/>
          </g>
          <path id="Trazado_1182" data-name="Trazado 1182" d="M159.557,297.745H56.666a22.054,22.054,0,0,1-22.054-22.054h147A22.054,22.054,0,0,1,159.557,297.745Z" transform="translate(-34.612 -275.691)" fill="#f9a828"/>
          <path id="Trazado_1183" data-name="Trazado 1183" d="M181.214,282.309H35.38a696.041,696.041,0,0,0,145.83,0Z" transform="translate(-34.796 -277.277)" fill="#fffefd"/>
        </g>
        <g id="Grupo_9761" data-name="Grupo 9761" transform="translate(257.871)">
          <path id="Trazado_1184" data-name="Trazado 1184" d="M374.706,318.7H567.92V336.22l-129.442,11.9q-8.435.776-16.915.776H373.775Z" transform="translate(-373.775 -285.999)" fill="#c7d2d7"/>
          <path id="Trazado_1185" data-name="Trazado 1185" d="M519.067,318.7,491.442,346l104.681-9.781V318.7Z" transform="translate(-401.978 -285.999)" fill="#9799be"/>
          <g id="Grupo_9760" data-name="Grupo 9760" transform="translate(168.469 17.577)">
            <rect id="Rectángulo_2649" data-name="Rectángulo 2649" width="10.771" height="21.796" transform="translate(23.151 21.796) rotate(180)" fill="#f9a828"/>
            <ellipse id="Elipse_501" data-name="Elipse 501" cx="14.75" cy="14.75" rx="14.75" ry="14.75" transform="translate(0 13.289) rotate(-13.396)" fill="#f9a828"/>
            <ellipse id="Elipse_502" data-name="Elipse 502" cx="10.412" cy="10.412" rx="10.412" ry="10.412" transform="translate(7.354 13.809)" fill="#fff"/>
            <ellipse id="Elipse_503" data-name="Elipse 503" cx="8.05" cy="8.05" rx="8.05" ry="8.05" transform="translate(9.716 16.17)" fill="#f9a828"/>
          </g>
          <path id="Trazado_1186" data-name="Trazado 1186" d="M544.1,297.745H646.994a22.054,22.054,0,0,0,22.054-22.054h-147A22.054,22.054,0,0,0,544.1,297.745Z" transform="translate(-409.314 -275.691)" fill="#f9a828"/>
          <path id="Trazado_1187" data-name="Trazado 1187" d="M522.812,282.309H668.647a696.043,696.043,0,0,1-145.83,0Z" transform="translate(-409.497 -277.277)" fill="#fff"/>
        </g>
      </g>
      <g id="Grupo_9763" data-name="Grupo 9763" transform="translate(197.516 112.834)">
        <rect id="Rectángulo_2650" data-name="Rectángulo 2650" width="122.573" height="9.1" rx="2.331" transform="translate(0 9.148)" fill="#ffd696"/>
        <path id="Rectángulo_2651" data-name="Rectángulo 2651" d="M9.148,0H94.769a9.148,9.148,0,0,1,9.148,9.148v0a0,0,0,0,1,0,0H0a0,0,0,0,1,0,0v0A9.148,9.148,0,0,1,9.148,0Z" transform="translate(9.328)" fill="#7c3be6"/>
      </g>
      <path id="Trazado_1188" data-name="Trazado 1188" d="M400.755,385.56H325.531l6.045-98.964,14.742-13.869h33.65L394.71,286.6Z" transform="translate(-104.34 -272.727)" fill="#7c3be6"/>
      <g id="Grupo_9764" data-name="Grupo 9764" transform="translate(244.894 28.599)">
        <ellipse id="Elipse_504" data-name="Elipse 504" cx="13.909" cy="13.909" rx="13.909" ry="13.909" fill="#090d43"/>
        <ellipse id="Elipse_505" data-name="Elipse 505" cx="8.794" cy="8.794" rx="8.794" ry="8.794" transform="translate(5.115 5.115)" fill="#21c3fd"/>
        <ellipse id="Elipse_506" data-name="Elipse 506" cx="6.433" cy="6.434" rx="6.433" ry="6.434" transform="translate(7.476 7.476)" fill="#7c3be6"/>
      </g>
      <g id="Grupo_9767" data-name="Grupo 9767" transform="translate(229.531 70.322)">
        <g id="Grupo_9765" data-name="Grupo 9765">
          <path id="Trazado_1189" data-name="Trazado 1189" d="M345.624,365.218h-5.553a3.571,3.571,0,0,0-3.571,3.571h9.124Z" transform="translate(-336.5 -365.218)" fill="#f0bf6c"/>
          <path id="Trazado_1190" data-name="Trazado 1190" d="M336.5,369.915a3.571,3.571,0,0,0,3.571,3.571h5.553v-3.571Z" transform="translate(-336.5 -366.344)" fill="#f9a828"/>
          <rect id="Rectángulo_2652" data-name="Rectángulo 2652" width="40.297" height="3.571" transform="translate(9.124 0)" fill="#fff"/>
          <rect id="Rectángulo_2653" data-name="Rectángulo 2653" width="40.297" height="3.571" transform="translate(9.124 3.571)" fill="#c7d2d7"/>
          <path id="Trazado_1191" data-name="Trazado 1191" d="M407.053,365.218H401.5v3.571h9.124A3.571,3.571,0,0,0,407.053,365.218Z" transform="translate(-352.079 -365.218)" fill="#f0bf6c"/>
          <path id="Trazado_1192" data-name="Trazado 1192" d="M401.5,373.486h5.553a3.571,3.571,0,0,0,3.571-3.571H401.5Z" transform="translate(-352.079 -366.344)" fill="#f9a828"/>
        </g>
        <g id="Grupo_9766" data-name="Grupo 9766" transform="translate(0 14.592)">
          <path id="Trazado_1193" data-name="Trazado 1193" d="M345.624,384.41h-5.553a3.571,3.571,0,0,0-3.571,3.572h9.124Z" transform="translate(-336.5 -384.41)" fill="#f0bf6c"/>
          <path id="Trazado_1194" data-name="Trazado 1194" d="M336.5,389.108a3.571,3.571,0,0,0,3.571,3.57h5.553v-3.57Z" transform="translate(-336.5 -385.536)" fill="#f9a828"/>
          <rect id="Rectángulo_2654" data-name="Rectángulo 2654" width="40.297" height="3.571" transform="translate(9.124 0)" fill="#fff"/>
          <rect id="Rectángulo_2655" data-name="Rectángulo 2655" width="40.297" height="3.571" transform="translate(9.124 3.572)" fill="#c7d2d7"/>
          <path id="Trazado_1195" data-name="Trazado 1195" d="M407.053,384.41H401.5v3.572h9.124A3.571,3.571,0,0,0,407.053,384.41Z" transform="translate(-352.079 -384.41)" fill="#f0bf6c"/>
          <path id="Trazado_1196" data-name="Trazado 1196" d="M401.5,392.678h5.553a3.571,3.571,0,0,0,3.571-3.57H401.5Z" transform="translate(-352.079 -385.536)" fill="#f9a828"/>
        </g>
      </g>
    </g>
    <g id="Grupo_9815" data-name="Grupo 9815" transform="translate(764.754 472.631)">
      <path id="Trazado_1279" data-name="Trazado 1279" d="M548.822,448.688H39.5a1.778,1.778,0,0,1-1.778-1.778h0a1.778,1.778,0,0,1,1.778-1.778H548.822a1.778,1.778,0,0,1,1.778,1.778h0A1.778,1.778,0,0,1,548.822,448.688Z" transform="translate(-37.718 -445.131)" fill="#7c3be6"/>
      <path id="Trazado_1280" data-name="Trazado 1280" d="M514.053,448.688H106.278a1.778,1.778,0,0,1-1.778-1.778h0a1.778,1.778,0,0,1,1.778-1.778H514.053a1.778,1.778,0,0,1,1.778,1.778h0A1.778,1.778,0,0,1,514.053,448.688Z" transform="translate(-53.725 -445.131)" fill="#f9a828"/>
    </g>
    <ellipse id="Elipse_508" data-name="Elipse 508" cx="77" cy="76.5" rx="77" ry="76.5" transform="translate(1128.761 168.714)" fill="#7c3be6"/>
    <g id="Grupo_9790" data-name="Grupo 9790" transform="translate(1132.411 204.462)">
      <g id="Grupo_9789" data-name="Grupo 9789" transform="translate(0 0)">
        <g id="Grupo_9772" data-name="Grupo 9772" transform="translate(0 113.195)">
          <g id="Grupo_9769" data-name="Grupo 9769">
            <path id="Trazado_1197" data-name="Trazado 1197" d="M565.828,241.3H536.046a14.77,14.77,0,0,0-14.736,15.763l3.86,57.246h21.661l-2.166-46.867h21.162Z" transform="translate(-521.276 -241.303)" fill="#21c3fd"/>
            <path id="Trazado_1198" data-name="Trazado 1198" d="M554.344,267.444h0a31.265,31.265,0,0,0-12.681-25.432l-.961-.709h29.781v26.141Z" transform="translate(-525.932 -241.303)" fill="#1a94bf"/>
          </g>
          <g id="Grupo_9771" data-name="Grupo 9771" transform="translate(0.938 73.009)">
            <g id="Grupo_9770" data-name="Grupo 9770">
              <path id="Trazado_1200" data-name="Trazado 1200" d="M545.055,346.5a9.59,9.59,0,0,1-1.964-5.815v-3.358H529.8l.205,7.054a13.78,13.78,0,0,1-1.147,5.918l-5.245,12a13.174,13.174,0,0,0-.975,7.1l25.1-19.377Z" transform="translate(-522.51 -337.327)" fill="#fff"/>
            </g>
            <path id="Trazado_1201" data-name="Trazado 1201" d="M532.1,337.328h13.292v3.358L532.1,338.509Z" transform="translate(-524.807 -337.327)" fill="#422c4f"/>
          </g>
        </g>
        <g id="Grupo_9773" data-name="Grupo 9773" transform="translate(33.876 55.841)">
          <path id="Trazado_1202" data-name="Trazado 1202" d="M582.619,165.868h0a6.525,6.525,0,0,0-4.843,5.411l-5.15,36.583-6.794,15.36h14.622l8.418-22.334Z" transform="translate(-565.831 -165.868)" fill="#21c3fd"/>
          <path id="Trazado_1203" data-name="Trazado 1203" d="M592.567,201.492l-5.911-33.107-.6,1.4a26.115,26.115,0,0,0-2,12.27l.734,9.287a65.875,65.875,0,0,1-.762,16.424l-2.781,16.058h2.9Z" transform="translate(-569.527 -166.471)" fill="#1692ba"/>
        </g>
        <g id="Grupo_9775" data-name="Grupo 9775" transform="translate(49.795 49.772)">
          <g id="Grupo_9774" data-name="Grupo 9774">
            <path id="Trazado_1204" data-name="Trazado 1204" d="M587.637,163.955l11.748-4.037,15.568-2.032,15.022,2.13,7.484,17.428-3.988,29.686,3.39,25.235a9.348,9.348,0,0,1-2.5,7.7h0a8.163,8.163,0,0,0-2.773-6.13l-2.876-2.53a40.545,40.545,0,0,0-26.774-10.1h-14.3l1.25-20.9a48.943,48.943,0,0,0-.254-8.694L587.111,178.9a48.916,48.916,0,0,1,.526-14.949Z" transform="translate(-586.769 -157.886)" fill="#21c3fd"/>
            <path id="Trazado_1205" data-name="Trazado 1205" d="M608.929,204.2l-.612,13.1,1.538,4.726-.927,4.234.181,6.154-1.534-6.843,1.14-3.5-2.026-5.612Z" transform="translate(-591.543 -168.987)" fill="#085572"/>
            <path id="Trazado_1206" data-name="Trazado 1206" d="M614.786,213.84c0,1.055-.595,1.911-1.329,1.911s-1.329-.856-1.329-1.911.595-1.911,1.329-1.911S614.786,212.785,614.786,213.84Z" transform="translate(-592.847 -170.839)" fill="#0d6b8b"/>
            <path id="Trazado_1207" data-name="Trazado 1207" d="M640.035,187.106h0a84.947,84.947,0,0,0,3.179,16.811l3.025,10.217,1.316-9.8Z" transform="translate(-599.536 -164.89)" fill="#1692ba"/>
          </g>
          <path id="Trazado_1208" data-name="Trazado 1208" d="M615.326,228.527c0,1.055-.6,1.911-1.329,1.911s-1.33-.855-1.33-1.911.6-1.911,1.33-1.911S615.326,227.471,615.326,228.527Z" transform="translate(-592.976 -174.359)" fill="#0d6b8b"/>
        </g>
        <g id="Grupo_9781" data-name="Grupo 9781" transform="translate(44.055)">
          <g id="Grupo_9776" data-name="Grupo 9776" transform="translate(20.135 36.578)">
            <path id="Trazado_1209" data-name="Trazado 1209" d="M605.7,146.885v5.871l2.991,4.874,9.231-7.532v-9.564Z" transform="translate(-605.701 -140.533)" fill="#f0bf9c"/>
            <path id="Trazado_1210" data-name="Trazado 1210" d="M609.65,150.682a10.566,10.566,0,0,0,5.656-4.595,11.592,11.592,0,0,0,1.558-4.83l-11.163,5.8v4.059A9.708,9.708,0,0,0,609.65,150.682Z" transform="translate(-605.701 -140.707)" fill="#422c4f"/>
          </g>
          <path id="Trazado_1211" data-name="Trazado 1211" d="M600.982,140.38h0a14.937,14.937,0,0,1-14.938-14.937v-6.276a14.938,14.938,0,0,1,14.938-14.938h0a14.938,14.938,0,0,1,14.937,14.938v6.276A14.937,14.937,0,0,1,600.982,140.38Z" transform="translate(-580.855 -95.253)" fill="#f0bf9c"/>
          <path id="Trazado_1212" data-name="Trazado 1212" d="M613.569,127.953l-1.281-.578a4.694,4.694,0,0,1-2.765-4.279v-1.251a4.694,4.694,0,0,1-2.379-4.084v-2.9l-6.108-5.236a30.912,30.912,0,0,1-13.533,4.019,9.756,9.756,0,0,1-4.475-.53,6.742,6.742,0,0,1-3.806-6.366,9.1,9.1,0,0,1,3.656-6.7,14.209,14.209,0,0,1,7.3-2.689,33.215,33.215,0,0,1,7.855.351,2.728,2.728,0,0,1-.949-3.209,3.611,3.611,0,0,1,2.665-1.992,6.9,6.9,0,0,1,3.41.335,13.057,13.057,0,0,1,7.58,6.493,15.057,15.057,0,0,1,4.641-1.834,4.736,4.736,0,0,1,4.419,1.315,4.179,4.179,0,0,1,.855,3.232,6.584,6.584,0,0,1-1.392,3.106c2.073.593,3.211,3.234,3.292,5.389a13.192,13.192,0,0,1-1.723,6.165A62.2,62.2,0,0,1,613.569,127.953Z" transform="translate(-579.219 -92.424)" fill="#1d1d1d"/>
          <g id="Grupo_9777" data-name="Grupo 9777" transform="translate(31.732 28.31)">
            <path id="Trazado_1213" data-name="Trazado 1213" d="M630.474,134.419a4.76,4.76,0,1,1-4.76-4.76A4.759,4.759,0,0,1,630.474,134.419Z" transform="translate(-620.955 -129.659)" fill="#f0bf9c"/>
            <path id="Trazado_1214" data-name="Trazado 1214" d="M629.108,135.048a2.764,2.764,0,1,1-2.764-2.764A2.764,2.764,0,0,1,629.108,135.048Z" transform="translate(-621.584 -130.288)" fill="#eba588"/>
          </g>
          <g id="Grupo_9780" data-name="Grupo 9780" transform="translate(5.904 22.877)">
            <path id="Trazado_1215" data-name="Trazado 1215" d="M595.38,135.934a9.914,9.914,0,0,1,3.532.207,1.961,1.961,0,0,1-1.807,1.39A2.07,2.07,0,0,1,595.38,135.934Z" transform="translate(-588.996 -125.712)" fill="#eba588"/>
            <path id="Trazado_1216" data-name="Trazado 1216" d="M593.151,140.559a25.91,25.91,0,0,0,10.386.14,4.617,4.617,0,0,1-2.615,3.942,5.293,5.293,0,0,1-4.636-.171A7.841,7.841,0,0,1,593.151,140.559Z" transform="translate(-588.462 -126.838)" fill="#fff"/>
            <g id="Grupo_9778" data-name="Grupo 9778" transform="translate(12.598)">
              <path id="Trazado_1217" data-name="Trazado 1217" d="M606.933,122.613a3.9,3.9,0,0,1,2.685,2.207l-6.065-1.4A3.9,3.9,0,0,1,606.933,122.613Z" transform="translate(-603.553 -122.513)" fill="#8c404c"/>
            </g>
            <g id="Grupo_9779" data-name="Grupo 9779">
              <path id="Trazado_1218" data-name="Trazado 1218" d="M589.376,122.613a3.6,3.6,0,0,0-2.392,2.207l5.4-1.4A3.2,3.2,0,0,0,589.376,122.613Z" transform="translate(-586.984 -122.513)" fill="#8c404c"/>
            </g>
            <path id="Trazado_1219" data-name="Trazado 1219" d="M607.342,128.563c0,.778-.444,1.408-.991,1.408s-.992-.63-.992-1.408.443-1.408.992-1.408S607.342,127.785,607.342,128.563Z" transform="translate(-591.388 -123.625)" fill="#422c4f"/>
            <ellipse id="Elipse_507" data-name="Elipse 507" cx="0.739" cy="1.408" rx="0.739" ry="1.408" transform="translate(2.216 3.53)" fill="#422c4f"/>
          </g>
        </g>
        <g id="Grupo_9783" data-name="Grupo 9783" transform="translate(54.764 46.143)">
          <path id="Trazado_1220" data-name="Trazado 1220" d="M620.14,155.241h0a7.037,7.037,0,0,1,4.182,2.55l2.286,2.9a2.363,2.363,0,0,1-.516,3.41l-5.307,3.653,5.058,3.943a2.954,2.954,0,0,1,.265,4.427l-16.474,16.345Z" transform="translate(-597.218 -153.623)" fill="#1a94bf"/>
          <path id="Trazado_1221" data-name="Trazado 1221" d="M601.83,157.886l-2.287.966a7.04,7.04,0,0,0-3.411,3.062L594.417,165a2.363,2.363,0,0,0,1.1,3.307l3.111,1.386-4.512,5.445a3.544,3.544,0,0,0,.046,4.578L605.721,193.1Z" transform="translate(-593.304 -154.257)" fill="#1a94bf"/>
          <g id="Grupo_9782" data-name="Grupo 9782" transform="translate(6.14)">
            <path id="Trazado_1222" data-name="Trazado 1222" d="M603.363,170.414l4.768,23.917,6.621-22.877-6.621-8.434Z" transform="translate(-601.855 -155.487)" fill="#9ee6e0"/>
            <path id="Trazado_1223" data-name="Trazado 1223" d="M609.635,160.645l9.231-7.532,1.92,2.437L616.65,169.58Z" transform="translate(-603.358 -153.113)" fill="#e7faf9"/>
            <path id="Trazado_1224" data-name="Trazado 1224" d="M607.656,161.483l-2.991-4.874-3.286,3.545,1.182,9.231Z" transform="translate(-601.379 -153.951)" fill="#e7faf9"/>
            <path id="Trazado_1225" data-name="Trazado 1225" d="M608.645,163.019l-3.138,4.867,1.176,3.7h3.612l1.992-3.928Z" transform="translate(-602.369 -155.487)" fill="#085572"/>
            <path id="Trazado_1226" data-name="Trazado 1226" d="M606.8,174.286l-.808,8.85,2.77,13.9,4.268-14.746-2.619-8Z" transform="translate(-602.485 -158.188)" fill="#085572"/>
          </g>
        </g>
        <g id="Grupo_9784" data-name="Grupo 9784" transform="translate(89.64 51.739)">
          <path id="Trazado_1227" data-name="Trazado 1227" d="M641.382,160.473l.88.125a10.633,10.633,0,0,1,8.28,6.34L677.786,230.5,664.2,236.55l-24.37-55.828-.513-5.451a32.438,32.438,0,0,1,2.066-14.8Z" transform="translate(-639.174 -160.473)" fill="#21c3fd"/>
          <path id="Trazado_1228" data-name="Trazado 1228" d="M674.02,258.137l2.025,5.184,11.422-4.874-2.521-5.18Z" transform="translate(-647.526 -182.714)" fill="#e7faf9"/>
          <path id="Trazado_1229" data-name="Trazado 1229" d="M702.721,268.946a10.634,10.634,0,0,0-8.525-4.278h-4.609l-2.088-4.135-9.974,4.135.845,2.537a7.089,7.089,0,0,0,6.726,4.848h19.942Z" transform="translate(-648.366 -184.456)" fill="#f0bf9c"/>
        </g>
        <g id="Grupo_9788" data-name="Grupo 9788" transform="translate(29.782 113.195)">
          <g id="Grupo_9785" data-name="Grupo 9785">
            <path id="Trazado_1230" data-name="Trazado 1230" d="M595.625,241.3H575.216a14.769,14.769,0,0,0-14.733,15.805l4.353,61.881h22.6l-3.692-51.545h30.818a15.882,15.882,0,0,0,12.644-6.272l.846-1.113h0a8.163,8.163,0,0,0-2.773-6.131L622.4,251.4A40.546,40.546,0,0,0,595.625,241.3Z" transform="translate(-560.446 -241.303)" fill="#21c3fd"/>
            <path id="Trazado_1231" data-name="Trazado 1231" d="M590.64,269.487l.338,4.713H618.3Z" transform="translate(-567.683 -248.058)" fill="#3bcffd"/>
            <path id="Trazado_1232" data-name="Trazado 1232" d="M631.858,253.929l-2.876-2.53a40.545,40.545,0,0,0-26.773-10.1h-14.3l13.882,1.066a40.542,40.542,0,0,1,24.735,10.951l2.961,2.8a8.163,8.163,0,0,1,2.558,5.934v.173l-.113.989a15.88,15.88,0,0,0,1.852-2.041l.846-1.113A8.163,8.163,0,0,0,631.858,253.929Z" transform="translate(-567.029 -241.303)" fill="#1a94bf"/>
          </g>
          <g id="Grupo_9787" data-name="Grupo 9787" transform="translate(1.219 77.686)">
            <g id="Grupo_9786" data-name="Grupo 9786" transform="translate(0 0)">
              <path id="Trazado_1233" data-name="Trazado 1233" d="M565.9,372.374h0a5.817,5.817,0,0,0,4.887-.928l2.99-2.178a26.055,26.055,0,0,0,7.961-9.405l4.056-8.113-2.533-3.041a6.742,6.742,0,0,1-1.3-2.466l-.79-2.765H569.06l.252,2.362a13.544,13.544,0,0,1-1.919,8.507l-1.575,2.572a26.047,26.047,0,0,0-3.754,11.529,3.554,3.554,0,0,0,3.84,3.925Z" transform="translate(-562.049 -343.479)" fill="#fff"/>
            </g>
            <path id="Trazado_1235" data-name="Trazado 1235" d="M583.381,343.479H571.27l12.9,2.765Z" transform="translate(-564.259 -343.479)" fill="#422c4f"/>
          </g>
        </g>
      </g>
    </g>
    <ellipse id="Elipse_509" data-name="Elipse 509" cx="77" cy="76.5" rx="77" ry="76.5" transform="translate(758.761 182.714)" fill="#21c3fd"/>
    <g id="Grupo_9813" data-name="Grupo 9813" transform="translate(765.841 215.557)">
      <g id="Grupo_9812" data-name="Grupo 9812" transform="translate(0 0)">
        <g id="Grupo_9794" data-name="Grupo 9794" transform="translate(80.483 104.172)">
          <g id="Grupo_9791" data-name="Grupo 9791">
            <path id="Trazado_1236" data-name="Trazado 1236" d="M145,244.028h33.007a13,13,0,0,1,12.9,14.587L184.584,309.9H168.338l-.591-41.8H145Z" transform="translate(-145.002 -244.028)" fill="#bf5eea"/>
            <path id="Trazado_1237" data-name="Trazado 1237" d="M159.476,268.1h0A35.87,35.87,0,0,1,175.8,245.377l2.213-1.349H145V268.1Z" transform="translate(-145.002 -244.028)" fill="#6f308b"/>
          </g>
          <g id="Grupo_9793" data-name="Grupo 9793" transform="translate(24.522 65.871)">
            <g id="Grupo_9792" data-name="Grupo 9792">
              <path id="Trazado_1238" data-name="Trazado 1238" d="M193.4,348.524l.4-.129a2.363,2.363,0,0,0,1.213-3.6l-.141-.2-5.164-7.434v-6.5h-9.944l.394,6.6-1.223,2.227,7.262,7.293A7.088,7.088,0,0,0,193.4,348.524Z" transform="translate(-177.656 -330.664)" fill="#f0bf9c"/>
              <path id="Trazado_1239" data-name="Trazado 1239" d="M198,352.465l-3.533-5.087.141.2a2.363,2.363,0,0,1-1.213,3.6l-.4.129a7.088,7.088,0,0,1-7.208-1.743l-7.262-7.293-.542.987a5.908,5.908,0,0,0,.887,6.906l5.978,6.314a9.886,9.886,0,0,0,11.6,2.046A4.136,4.136,0,0,0,198,352.465Z" transform="translate(-177.255 -333.446)" fill="#fff"/>
            </g>
            <path id="Trazado_1240" data-name="Trazado 1240" d="M189.963,330.664h-9.945l.176,2.952,9.768-2.066Z" transform="translate(-177.917 -330.664)" fill="#422c4f"/>
          </g>
        </g>
        <path id="Trazado_1241" data-name="Trazado 1241" d="M116.079,162.8A53.31,53.31,0,0,0,126.3,123.96c-.594-4.414-1.858-8.953-4.928-12.18s-8.644-4.87-12.411-2.495a14.594,14.594,0,0,0-18.305,2.19c-3.946,4.321-4.83,10.631-4.572,16.477s1.463,11.679.931,17.507a29.672,29.672,0,0,1-4.56,13.276,9.4,9.4,0,0,0,.126,9.635,12.528,12.528,0,0,0,8.005,5.078,21,21,0,0,0,9.624-.584C106.065,171.267,112.416,167.632,116.079,162.8Z" transform="translate(-49.224 -107.016)" fill="#1d1d1d"/>
        <g id="Grupo_9795" data-name="Grupo 9795" transform="translate(75.313 47.459)">
          <path id="Trazado_1242" data-name="Trazado 1242" d="M175.176,197.408h5.563l4.578,5.268-1.657,2.342Z" transform="translate(-147.064 -176.14)" fill="#422c4f"/>
          <path id="Trazado_1243" data-name="Trazado 1243" d="M138.2,169.436h0a12.366,12.366,0,0,1,8.3,6.731l11.838,24.973,7.976-10.437,7.365,5.684a1.946,1.946,0,0,0,2.777-.417h0L167.592,208.5a11.263,11.263,0,0,1-19-.967l-7.78-13.774Z" transform="translate(-138.202 -169.436)" fill="#bf5eea"/>
          <path id="Trazado_1244" data-name="Trazado 1244" d="M163.677,210.808l-3.2,3.742.1-1.147a4.365,4.365,0,0,1,2.609-3.633h0Z" transform="translate(-143.541 -179.103)" fill="#6f308b"/>
          <path id="Trazado_1245" data-name="Trazado 1245" d="M139.212,178.842l7.23,15a7.312,7.312,0,0,1-1.731,8.64h0l-3.656-6.474Z" transform="translate(-138.444 -171.69)" fill="#6f308b"/>
          <path id="Trazado_1246" data-name="Trazado 1246" d="M176.268,197.4l2.037-2.709,5.871,3.655-1.794,3.772Z" transform="translate(-147.326 -175.489)" fill="#e7faf9"/>
          <path id="Trazado_1247" data-name="Trazado 1247" d="M179.734,192.657l.824-1.448a6.038,6.038,0,0,1,5.911-3.018l1.861.205,1.175-2.438a2.292,2.292,0,0,1,2.577-1.238l7.423,1.707-3.145,6.239a4.786,4.786,0,0,1-5.322,2.515l-5.662-1.271-.809,1.757Z" transform="translate(-148.156 -173.085)" fill="#f0bf9c"/>
        </g>
        <g id="Grupo_9796" data-name="Grupo 9796" transform="translate(0 45.538)">
          <path id="Trazado_1248" data-name="Trazado 1248" d="M68.213,264.205H57.875l1.208-5.317H69.421Z" transform="translate(-43.636 -188.956)" fill="#e7faf9"/>
          <path id="Trazado_1249" data-name="Trazado 1249" d="M53.386,265.881H46.314a4.135,4.135,0,0,0-3.446,1.85l-3.721,5.609h16.3A5.907,5.907,0,0,0,61.2,268.8l.693-2.917Z" transform="translate(-39.147 -190.632)" fill="#f0bf9c"/>
          <path id="Trazado_1250" data-name="Trazado 1250" d="M93.136,166.91l-10.8,1.819A15.359,15.359,0,0,0,69.88,180.61L57.7,236.842H70.842l8.927-45.415,1.759,4.53a27.769,27.769,0,0,1-.445,21.181l-3.678,8.406h46.671l-4.033-13.21a10.959,10.959,0,0,1,2.561-10.774h0a10.957,10.957,0,0,0,1.9-12.44h0a38.362,38.362,0,0,1-3.108-8.864l-2.489-11.425-8.6-1.921Z" transform="translate(-43.593 -166.91)" fill="#bf5eea"/>
          <path id="Trazado_1251" data-name="Trazado 1251" d="M89.419,181.285l-2.692,13.588,1.759,4.53.655-3.044a38.623,38.623,0,0,0,.514-13.328Z" transform="translate(-50.551 -170.355)" fill="#422c4f"/>
          <path id="Trazado_1252" data-name="Trazado 1252" d="M126.684,221.024c0,1.134-.628,2.054-1.4,2.054s-1.4-.919-1.4-2.054.628-2.054,1.4-2.054S126.684,219.889,126.684,221.024Z" transform="translate(-59.456 -179.388)" fill="#6f308b"/>
          <path id="Trazado_1253" data-name="Trazado 1253" d="M126.684,233.686c0,1.134-.628,2.054-1.4,2.054s-1.4-.919-1.4-2.054.628-2.054,1.4-2.054S126.684,232.552,126.684,233.686Z" transform="translate(-59.456 -182.423)" fill="#6f308b"/>
          <path id="Trazado_1254" data-name="Trazado 1254" d="M130.29,242.778l-44.935-3.967-1.736,3.967Z" transform="translate(-49.806 -184.143)" fill="#422c4f"/>
        </g>
        <g id="Grupo_9802" data-name="Grupo 9802" transform="translate(45.271 39.04)">
          <g id="Grupo_9797" data-name="Grupo 9797" transform="translate(8.701)">
            <path id="Trazado_1255" data-name="Trazado 1255" d="M110.134,158.363v8.788l7.237,9.231,5.686-5.464-1.407-2.252a5.319,5.319,0,0,1-.808-2.818v-7.485Z" transform="translate(-110.134 -158.363)" fill="#f0bf9c"/>
            <path id="Trazado_1256" data-name="Trazado 1256" d="M113.262,162.133a8.123,8.123,0,0,0,5.333.854,9.872,9.872,0,0,0,2.247-.675v-3.949H110.134v.7A9.61,9.61,0,0,0,113.262,162.133Z" transform="translate(-110.134 -158.363)" fill="#422c4f"/>
          </g>
          <g id="Grupo_9801" data-name="Grupo 9801" transform="translate(0 2.917)">
            <path id="Trazado_1257" data-name="Trazado 1257" d="M125.48,200.93l3.247-28.573,3.865,3.483a2.954,2.954,0,0,1,.218,4.17l-2.013,2.236,3.578,3.9a2.954,2.954,0,0,1,.1,3.878Z" transform="translate(-105.111 -164.634)" fill="#6f308b"/>
            <g id="Grupo_9798" data-name="Grupo 9798" transform="translate(19.409 0.332)">
              <path id="Trazado_1258" data-name="Trazado 1258" d="M126.433,171.942l3.688-3.545-5.9-5.76v4.235a5.319,5.319,0,0,0,.808,2.818Z" transform="translate(-124.217 -162.637)" fill="#e7faf9"/>
              <path id="Trazado_1259" data-name="Trazado 1259" d="M130.819,170.213l2.318,8.418-6.006-4.874Z" transform="translate(-124.915 -164.453)" fill="#e5acff"/>
            </g>
            <g id="Grupo_9799" data-name="Grupo 9799" transform="translate(10.569 9.637)">
              <path id="Trazado_1260" data-name="Trazado 1260" d="M117.228,176.025l.732,4.59,4.431,4.578-1.108,5.465,1.108,11.151-9.8-19.774Z" transform="translate(-112.591 -175.15)" fill="#e7faf9"/>
              <path id="Trazado_1261" data-name="Trazado 1261" d="M125.339,174.875l1.624,1.318-2.88,25.34-1.108-11.151,1.108-5.465-4.431-4.578Z" transform="translate(-114.283 -174.875)" fill="#e7faf9"/>
              <path id="Trazado_1262" data-name="Trazado 1262" d="M119.652,182.062l5.5,4.394-1.071,5.649v11.151l-1.108-11.151,1.108-5.465Z" transform="translate(-114.283 -176.597)" fill="#d1f4f5"/>
              <path id="Trazado_1263" data-name="Trazado 1263" d="M117.228,176.025l-3.438,8.43-1.2-2.42Z" transform="translate(-112.591 -175.15)" fill="#e5acfd"/>
            </g>
            <path id="Trazado_1264" data-name="Trazado 1264" d="M102.961,166.91l-3.84,7.074a3.544,3.544,0,0,0,2.117,5.092l1.994.585-2.844,4.621a3.545,3.545,0,0,0,1.2,4.9l17.471,10.441-9.8-19.774Z" transform="translate(-98.69 -163.329)" fill="#6f308b"/>
            <g id="Grupo_9800" data-name="Grupo 9800" transform="translate(4.271)">
              <path id="Trazado_1265" data-name="Trazado 1265" d="M104.307,165.886l3.175-3.249,8.492,9.231-7.237,9.378Z" transform="translate(-104.307 -162.305)" fill="#e7faf9"/>
              <path id="Trazado_1266" data-name="Trazado 1266" d="M108.483,162.532l1.255-.332v1.7Z" transform="translate(-105.308 -162.2)" fill="#d1f4f5"/>
            </g>
          </g>
        </g>
        <g id="Grupo_9805" data-name="Grupo 9805" transform="translate(30.186 104.172)">
          <path id="Trazado_1267" data-name="Trazado 1267" d="M82.476,244.028l-2.46,5.491A13.191,13.191,0,0,0,92.055,268.1H119.4l2.806,41.8h15.508l4.953-50.975a13.583,13.583,0,0,0-13.519-14.9H82.476Z" transform="translate(-78.849 -244.028)" fill="#bf5eea"/>
          <path id="Trazado_1268" data-name="Trazado 1268" d="M123.562,274.208l-.316-4.7-27.028,4.7Z" transform="translate(-83.012 -250.134)" fill="#422c4f"/>
          <g id="Grupo_9804" data-name="Grupo 9804" transform="translate(44.947 65.871)">
            <g id="Grupo_9803" data-name="Grupo 9803">
              <path id="Trazado_1269" data-name="Trazado 1269" d="M154.108,348.524l.4-.129a2.363,2.363,0,0,0,1.213-3.6l-.141-.2-5.164-7.434v-6.5h-9.944l.394,6.6-1.223,2.227,7.262,7.293A7.087,7.087,0,0,0,154.108,348.524Z" transform="translate(-138.366 -330.664)" fill="#f0bf9c"/>
              <path id="Trazado_1270" data-name="Trazado 1270" d="M158.708,352.465l-3.533-5.087.141.2a2.363,2.363,0,0,1-1.213,3.6l-.4.129a7.087,7.087,0,0,1-7.208-1.743l-7.262-7.293-.542.987a5.908,5.908,0,0,0,.887,6.906l5.978,6.314a9.886,9.886,0,0,0,11.6,2.046A4.136,4.136,0,0,0,158.708,352.465Z" transform="translate(-137.965 -333.446)" fill="#fff"/>
            </g>
            <path id="Trazado_1271" data-name="Trazado 1271" d="M150.673,330.664h-9.945l.176,2.952,9.768-2.066Z" transform="translate(-138.627 -330.664)" fill="#422c4f"/>
          </g>
        </g>
        <g id="Grupo_9811" data-name="Grupo 9811" transform="translate(47.714 13.264)">
          <path id="Trazado_1272" data-name="Trazado 1272" d="M116.043,124.462A24.44,24.44,0,0,1,101.9,139.673a13.027,13.027,0,0,0,26.054-.1V134.76a13.123,13.123,0,0,0-.122-1.757A20.812,20.812,0,0,0,116.043,124.462Z" transform="translate(-101.902 -124.462)" fill="#f0bf9c"/>
          <g id="Grupo_9810" data-name="Grupo 9810" transform="translate(7.392 7.425)">
            <g id="Grupo_9806" data-name="Grupo 9806" transform="translate(0.526 3.518)">
              <path id="Trazado_1273" data-name="Trazado 1273" d="M117.655,140.236a2.533,2.533,0,0,0-1.106-1.051,3.089,3.089,0,0,0-3.415.422,2.533,2.533,0,0,0-.817,1.288,5.151,5.151,0,0,1,5.339-.659Z" transform="translate(-112.316 -138.854)" fill="#422c4f"/>
            </g>
            <g id="Grupo_9807" data-name="Grupo 9807" transform="translate(12.344 3.518)">
              <path id="Trazado_1274" data-name="Trazado 1274" d="M127.859,140.236a2.359,2.359,0,0,1,.937-1.051,2.291,2.291,0,0,1,1.5-.309,2.467,2.467,0,0,1,1.392.731,2.63,2.63,0,0,1,.692,1.288,4.476,4.476,0,0,0-2.182-1.082A4.16,4.16,0,0,0,127.859,140.236Z" transform="translate(-127.859 -138.854)" fill="#422c4f"/>
            </g>
            <path id="Trazado_1275" data-name="Trazado 1275" d="M125.623,146.723a9.22,9.22,0,0,0-3.288.192,1.826,1.826,0,0,0,1.683,1.294A1.926,1.926,0,0,0,125.623,146.723Z" transform="translate(-114.191 -137.206)" fill="#a5856e"/>
            <path id="Trazado_1276" data-name="Trazado 1276" d="M125.687,151.029a24.132,24.132,0,0,1-9.669.13,4.3,4.3,0,0,0,2.435,3.67,4.93,4.93,0,0,0,4.317-.159A7.31,7.31,0,0,0,125.687,151.029Z" transform="translate(-112.677 -138.254)" fill="#fff"/>
            <g id="Grupo_9808" data-name="Grupo 9808">
              <path id="Trazado_1277" data-name="Trazado 1277" d="M114.124,134.321a3.633,3.633,0,0,0-2.5,2.055l5.647-1.3A3.632,3.632,0,0,0,114.124,134.321Z" transform="translate(-111.624 -134.227)" fill="#a5856e"/>
            </g>
            <g id="Grupo_9809" data-name="Grupo 9809" transform="translate(12.344)">
              <path id="Trazado_1278" data-name="Trazado 1278" d="M130.663,134.321a3.355,3.355,0,0,1,2.228,2.055l-5.032-1.3A2.98,2.98,0,0,1,130.663,134.321Z" transform="translate(-127.859 -134.227)" fill="#a5856e"/>
            </g>
          </g>
        </g>
      </g>
    </g>
    <path id="Polígono_3" data-name="Polígono 3" d="M6,0l6,10.157H0Z" transform="matrix(0.966, 0.259, -0.259, 0.966, 932.112, 247.356)" fill="#f9a828"/>
    <path id="Polígono_4" data-name="Polígono 4" d="M6,0l6,10.157H0Z" transform="matrix(0.966, 0.259, -0.259, 0.966, 1084.659, 317.811)" fill="#7c3be6"/>
    <path id="Polígono_5" data-name="Polígono 5" d="M6,0l6,10.157H0Z" transform="matrix(0.966, 0.259, -0.259, 0.966, 946.334, 338.457)" fill="#21c3fd"/>
    <g id="Elipse_510" data-name="Elipse 510" transform="translate(1067.761 243.714)" fill="none" stroke="#fff" stroke-width="1">
      <ellipse cx="6" cy="6.5" rx="6" ry="6.5" stroke="none"/>
      <ellipse cx="6" cy="6.5" rx="5.5" ry="6" fill="none"/>
    </g>
    <g id="Grupo_9823" data-name="Grupo 9823" transform="matrix(0.921, 0.391, -0.391, 0.921, 986.05, 179.156)">
      <g id="Grupo_9822" data-name="Grupo 9822" transform="translate(0 0)">
        <g id="Grupo_9820" data-name="Grupo 9820" transform="translate(0 0)">
          <rect id="Rectángulo_2660" data-name="Rectángulo 2660" width="40.659" height="29.179" transform="translate(6.195 45.011) rotate(-63.631)" fill="#2a0764"/>
          <g id="Grupo_9817" data-name="Grupo 9817" transform="translate(20.786 0)">
            <g id="Grupo_9816" data-name="Grupo 9816" transform="translate(0 0)">
              <path id="Trazado_1282" data-name="Trazado 1282" d="M34.763,21.753l.971-1.967c1.454-2.946-.921-7.088-5.3-9.253L11.7,1.286C7.314-.879,2.581-.246,1.127,2.7L.155,4.667C-.373,5.736.49,7.241,2.081,8.026l28.843,14.24C32.516,23.052,34.235,22.822,34.763,21.753Z" fill="#7c3be6"/>
            </g>
          </g>
          <g id="Grupo_9819" data-name="Grupo 9819" transform="translate(0 42.723)">
            <g id="Grupo_9818" data-name="Grupo 9818" transform="translate(0 0)">
              <path id="Trazado_1283" data-name="Trazado 1283" d="M36.243,18.313l-.985,1.979c-1.475,2.964-6.247,3.586-10.658,1.391L5.753,12.3C1.342,10.107-1.038,5.924.437,2.961L1.422.982C1.958-.094,3.69-.321,5.292.477l29.02,14.444C35.915,15.718,36.779,17.237,36.243,18.313Z" fill="#21c3fd"/>
            </g>
          </g>
          <path id="Trazado_1284" data-name="Trazado 1284" d="M30.457,43.148l1.148-3.491A84.915,84.915,0,0,1,42.43,17.891L44.362,15.1,13.9,0,12.63,4.91A51.991,51.991,0,0,1,3.291,23.833L0,28.05Z" transform="translate(6.114 11.703)" fill="#e6e6e6"/>
        </g>
        <g id="Grupo_9821" data-name="Grupo 9821" transform="translate(40.012 36.267)">
          <path id="Trazado_1285" data-name="Trazado 1285" d="M77.733,46.7,0,4.691,3.237,0l79.4,36.992c5.068,2.407,5.352,4.8,4,7.531S82.722,49.322,77.733,46.7Z" transform="translate(12.971 8.286)" fill="#7c3be6"/>
          <path id="Trazado_1286" data-name="Trazado 1286" d="M11.412,16.409c-.649-.323-.7-1.583-.177-2.981C6.936,13.64,2.261,12.593,0,8.941L.546,7.662,3.677,1.239,4.342.032c4.3-.385,7.979,2.756,10.389,6.354.806-1.3,1.866-2.046,2.525-1.718l.028.014c.755.376.7,2.021-.124,3.676L14.3,14.109c-.823,1.654-2.1,2.69-2.858,2.315Z" transform="translate(0 0)" fill="#7c3be6"/>
        </g>
      </g>
    </g>
    <path id="Polígono_6" data-name="Polígono 6" d="M6,0l6,10.157H0Z" transform="matrix(-0.259, 0.966, -0.966, -0.259, 1114.555, 287.191)" fill="#f9a828"/>
    <g id="Elipse_511" data-name="Elipse 511" transform="translate(965.761 292.714)" fill="none" stroke="#fff" stroke-width="1">
      <circle cx="6" cy="6" r="6" stroke="none"/>
      <circle cx="6" cy="6" r="5.5" fill="none"/>
    </g>
  </g>
</svg>
