<svg xmlns="http://www.w3.org/2000/svg" xmlns:xlink="http://www.w3.org/1999/xlink" width="339.511" height="345.925" viewBox="0 0 339.511 345.925">
  <defs>
    <linearGradient id="linear-gradient" x1="-0.538" y1="-0.982" x2="1.171" y2="1.492" gradientUnits="objectBoundingBox">
      <stop offset="0" stop-color="#ffc444"/>
      <stop offset="0.996" stop-color="#f36f56"/>
    </linearGradient>
    <linearGradient id="linear-gradient-2" x1="0.144" y1="0.004" x2="1.852" y2="2.479" xlink:href="#linear-gradient"/>
    <linearGradient id="linear-gradient-3" x1="0.168" y1="-0.519" x2="0.902" y2="1.657" xlink:href="#linear-gradient"/>
    <linearGradient id="linear-gradient-4" x1="0.243" y1="0.001" x2="0.685" y2="1.487" gradientUnits="objectBoundingBox">
      <stop offset="0" stop-color="#aa80f9"/>
      <stop offset="0.996" stop-color="#6165d7"/>
    </linearGradient>
    <linearGradient id="linear-gradient-5" x1="0.525" y1="3.978" x2="0.482" y2="-1.365" xlink:href="#linear-gradient-4"/>
    <linearGradient id="linear-gradient-6" x1="1.522" y1="0.577" x2="-0.194" y2="0.422" gradientUnits="objectBoundingBox">
      <stop offset="0" stop-color="#ff9085"/>
      <stop offset="1" stop-color="#fb6fbb"/>
    </linearGradient>
    <linearGradient id="linear-gradient-7" x1="1.524" y1="0.575" x2="-0.198" y2="0.428" xlink:href="#linear-gradient-6"/>
    <linearGradient id="linear-gradient-8" x1="0.589" y1="-1.51" x2="0.777" y2="-5.724" xlink:href="#linear-gradient-6"/>
    <linearGradient id="linear-gradient-9" x1="-0.225" y1="-3.694" x2="0.707" y2="1.7" xlink:href="#linear-gradient-6"/>
    <linearGradient id="linear-gradient-10" x1="-0.35" y1="-2.146" x2="0.91" y2="1.169" gradientUnits="objectBoundingBox">
      <stop offset="0" stop-color="#311944"/>
      <stop offset="1" stop-color="#a03976"/>
    </linearGradient>
    <linearGradient id="linear-gradient-11" x1="-0.665" y1="-0.607" x2="0.752" y2="0.747" xlink:href="#linear-gradient-10"/>
    <linearGradient id="linear-gradient-13" x1="-0.289" y1="-2.713" x2="0.917" y2="1.204" xlink:href="#linear-gradient-10"/>
    <linearGradient id="linear-gradient-14" x1="0.421" y1="0.95" x2="0.691" y2="-0.004" xlink:href="#linear-gradient-4"/>
    <linearGradient id="linear-gradient-15" x1="-6.575" y1="5.328" x2="-5.524" y2="6.777" gradientUnits="objectBoundingBox">
      <stop offset="0" stop-color="#444b8c"/>
      <stop offset="0.996" stop-color="#26264f"/>
    </linearGradient>
    <linearGradient id="linear-gradient-16" x1="-30.008" y1="4.033" x2="-30.008" y2="2.682" xlink:href="#linear-gradient"/>
    <linearGradient id="linear-gradient-17" x1="-8.829" y1="6.114" x2="-7.497" y2="7.902" xlink:href="#linear-gradient-15"/>
    <linearGradient id="linear-gradient-18" x1="-0.232" y1="-0.515" x2="0.863" y2="0.793" xlink:href="#linear-gradient-15"/>
    <linearGradient id="linear-gradient-19" x1="-14.067" y1="-14.388" x2="-13.106" y2="-13.789" xlink:href="#linear-gradient"/>
    <linearGradient id="linear-gradient-20" x1="-28.181" y1="1.222" x2="-28.181" y2="-0.193" xlink:href="#linear-gradient"/>
    <linearGradient id="linear-gradient-21" x1="-19.556" y1="1.09" x2="-20.213" y2="-0.252" xlink:href="#linear-gradient-15"/>
    <linearGradient id="linear-gradient-22" x1="-0.217" y1="0.072" x2="1.256" y2="0.961" xlink:href="#linear-gradient-4"/>
    <linearGradient id="linear-gradient-23" x1="-0.781" y1="-1.298" x2="0.579" y2="0.479" xlink:href="#linear-gradient-15"/>
    <linearGradient id="linear-gradient-24" x1="0.421" y1="0.29" x2="1.456" y2="1.505" xlink:href="#linear-gradient-4"/>
    <linearGradient id="linear-gradient-25" x1="-0.134" y1="-0.003" x2="1.214" y2="1.837" xlink:href="#linear-gradient"/>
    <linearGradient id="linear-gradient-26" x1="-3.538" y1="-2.784" x2="12.465" y2="10.461" xlink:href="#linear-gradient"/>
  </defs>
  <g id="Grupo_11359" data-name="Grupo 11359" transform="translate(-380.334 -341.583)">
    <path id="Trazado_2990" data-name="Trazado 2990" d="M403.726,876.609c77.559,107.927,316.227,13.936,316.12-15.084-.044-11.846-39.861-9.816-52.363-38.141C647.448,778,730.135,728.516,718.229,684.211c-15.084-56.131-184.354-112.7-278.856-25.938C378.637,714.035,361.274,817.535,403.726,876.609Z" transform="translate(0 -239.666)" fill="#f4f7fa"/>
    <g id="Grupo_11350" data-name="Grupo 11350" transform="translate(410.605 341.583)">
      <path id="Trazado_2991" data-name="Trazado 2991" d="M826.39,667.1a5.646,5.646,0,0,1-5.125,5.729L641.2,682.18a5.6,5.6,0,0,1-5.992-5.61V409.426a5.542,5.542,0,0,1,5.992-5.556l2.412-.129,177.65,11.114a5.709,5.709,0,0,1,5.125,5.776Z" transform="translate(-635.211 -396.359)" fill="url(#linear-gradient)"/>
      <path id="Trazado_2992" data-name="Trazado 2992" d="M856.26,666.926a5.646,5.646,0,0,1-5.124,5.729l-180.062,9.353a5.6,5.6,0,0,1-5.992-5.611V409.255a5.542,5.542,0,0,1,5.992-5.556l180.062,10.986a5.709,5.709,0,0,1,5.124,5.776Z" transform="translate(-661.534 -396.312)" fill="url(#linear-gradient-2)"/>
      <path id="Trazado_2993" data-name="Trazado 2993" d="M1084.337,461.308c-4.475,5.754-5.115,16.623,2.557,21.1,16.623,10.23,38.362,7.033,54.346-3.836,11.764-8.235,6.754-23.5,3.388-35.85l-35.414-2.161C1106.167,449.077,1089.95,453.824,1084.337,461.308Z" transform="translate(-1028.084 -428.805)" fill="url(#linear-gradient-3)"/>
      <path id="Trazado_2994" data-name="Trazado 2994" d="M921.052,854.008a4.975,4.975,0,0,1-4.553,5.05l-163.038,7.631a4.942,4.942,0,0,1-5.245-4.957V633.06a4.921,4.921,0,0,1,5.245-4.938L916.5,636.336a5,5,0,0,1,4.553,5.066Z" transform="translate(-734.795 -594.085)" fill="#fff"/>
      <path id="Trazado_2995" data-name="Trazado 2995" d="M1223.058,376.562a2.9,2.9,0,0,0-2.724-2.467l-8.58-.461a6.919,6.919,0,0,1-6.5-7.505l.426-9.414a3,3,0,0,0-2.793-3.24l-2.77-.172a3.532,3.532,0,0,1-3.216-4.214,6.293,6.293,0,0,0-5.717-7.49,7.748,7.748,0,0,0-7.892,6.621,4.514,4.514,0,0,1-1.562,2.758,4.171,4.171,0,0,1-2.919,1l-2.827-.176a3.81,3.81,0,0,0-3.8,2.874l-2.456,9.434a9.029,9.029,0,0,1-8.947,6.785l-9.027-.485a3.913,3.913,0,0,0-3.625,2.2l-6.479,13,.557.711,83.106,3.233Zm-33.1-26.868a1.845,1.845,0,0,1-1.683-2.2,2.271,2.271,0,0,1,2.309-1.94,1.845,1.845,0,0,1,1.68,2.2A2.271,2.271,0,0,1,1189.96,349.694Z" transform="translate(-1081.499 -341.583)" fill="#6165d7"/>
      <path id="Trazado_2996" data-name="Trazado 2996" d="M1227.747,382.553a2.9,2.9,0,0,0-2.724-2.467l-8.58-.461a6.92,6.92,0,0,1-6.5-7.506l.426-9.414a3,3,0,0,0-2.793-3.24l-2.77-.172a3.532,3.532,0,0,1-3.216-4.214,6.293,6.293,0,0,0-5.717-7.49,7.748,7.748,0,0,0-7.892,6.621,4.511,4.511,0,0,1-1.562,2.758,4.172,4.172,0,0,1-2.919,1l-2.827-.176a3.811,3.811,0,0,0-3.8,2.874l-2.456,9.434a9.03,9.03,0,0,1-8.947,6.785l-9.028-.485a3.914,3.914,0,0,0-3.626,2.2l-6.479,13L1230,395.548Zm-33.1-26.868a1.845,1.845,0,0,1-1.683-2.2,2.27,2.27,0,0,1,2.309-1.94,1.845,1.845,0,0,1,1.68,2.2A2.271,2.271,0,0,1,1194.649,355.685Z" transform="translate(-1085.631 -346.863)" fill="url(#linear-gradient-4)"/>
      <g id="Grupo_11349" data-name="Grupo 11349" transform="translate(29.989 59.031)">
        <path id="Trazado_2997" data-name="Trazado 2997" d="M1244.549,857.144l-77.2-3.118v-15.4l77.2,3.786Z" transform="translate(-1134.142 -838.622)" fill="#d8dee8"/>
        <g id="Grupo_11345" data-name="Grupo 11345" transform="translate(79.046 39.692)">
          <path id="Trazado_2998" data-name="Trazado 2998" d="M1618.8,1188.246a.929.929,0,0,1-.851,1.012l-63.746-1.427a1.032,1.032,0,0,1-.919-1.092v-12.864a.968.968,0,0,1,.919-1.043l63.746,1.979a.99.99,0,0,1,.851,1.058Z" transform="translate(-1553.282 -1172.832)" fill="#d8dee8"/>
          <path id="Trazado_2999" data-name="Trazado 2999" d="M1618.8,1381.39a.939.939,0,0,1-.851,1.02l-63.746-.881a1.021,1.021,0,0,1-.919-1.085v-3.573a.984.984,0,0,1,.919-1.056l63.746,1.091a.974.974,0,0,1,.851,1.046Z" transform="translate(-1553.282 -1351.707)" fill="#d8dee8"/>
          <path id="Trazado_3000" data-name="Trazado 3000" d="M1618.8,1495.155a.947.947,0,0,1-.851,1.026l-63.746-.381a1.012,1.012,0,0,1-.919-1.078v-3.573a.993.993,0,0,1,.919-1.064l63.746.592a.965.965,0,0,1,.851,1.039Z" transform="translate(-1553.282 -1452.407)" fill="#d8dee8"/>
          <path id="Trazado_3001" data-name="Trazado 3001" d="M1618.8,1608.919a.956.956,0,0,1-.851,1.033l-63.746.118a1,1,0,0,1-.919-1.07v-3.573a1,1,0,0,1,.919-1.071l63.746.092a.956.956,0,0,1,.851,1.033Z" transform="translate(-1553.282 -1553.106)" fill="#d8dee8"/>
          <path id="Trazado_3002" data-name="Trazado 3002" d="M1618.8,1719.657a.965.965,0,0,1-.851,1.04l-63.746.618a.993.993,0,0,1-.919-1.063v-3.573a1.012,1.012,0,0,1,.919-1.078l63.746-.408a.947.947,0,0,1,.851,1.026Z" transform="translate(-1553.282 -1650.779)" fill="#d8dee8"/>
        </g>
        <g id="Grupo_11346" data-name="Grupo 11346" transform="translate(0 36.856)">
          <path id="Trazado_3003" data-name="Trazado 3003" d="M944.772,1223.085l-53.421.534a3.822,3.822,0,0,1-3.635-4.027V1152.9a3.726,3.726,0,0,1,3.635-3.95l53.421,1.672a3.838,3.838,0,0,1,3.41,4.035v64.467A3.74,3.74,0,0,1,944.772,1223.085Z" transform="translate(-887.715 -1148.947)" fill="#d8dee8"/>
          <path id="Trazado_3004" data-name="Trazado 3004" d="M891.229,1150.747h.069l53.422,1.657a2.143,2.143,0,0,1,1.883,2.261v64.483a2.027,2.027,0,0,1-1.821,2.151l-53.421.52a2.143,2.143,0,0,1-2.038-2.254v-66.677A2.021,2.021,0,0,1,891.229,1150.747Zm0-1.8a3.742,3.742,0,0,0-3.514,3.951v66.693a3.822,3.822,0,0,0,3.635,4.027l53.421-.534h.021a3.744,3.744,0,0,0,3.389-3.961v-64.467a3.838,3.838,0,0,0-3.41-4.034l-53.421-1.672Z" transform="translate(-887.715 -1148.948)" fill="#d8dee8"/>
        </g>
        <g id="Grupo_11347" data-name="Grupo 11347" transform="translate(0.86 138.281)">
          <path id="Trazado_3005" data-name="Trazado 3005" d="M929.545,2008.83l-34.171.724a.429.429,0,0,1-.414-.454v-5.078a.449.449,0,0,1,.414-.469l34.171-.61a.42.42,0,0,1,.4.447v4.979A.44.44,0,0,1,929.545,2008.83Z" transform="translate(-894.96 -2002.943)" fill="#d8dee8"/>
          <path id="Trazado_3006" data-name="Trazado 3006" d="M953.474,2105.376l-58.1,1.625a.426.426,0,0,1-.414-.451v-5.078a.453.453,0,0,1,.414-.472l58.1-1.432a.409.409,0,0,1,.388.438v4.912A.435.435,0,0,1,953.474,2105.376Z" transform="translate(-894.96 -2088.093)" fill="#d8dee8"/>
          <path id="Trazado_3007" data-name="Trazado 3007" d="M953.474,2205.6l-58.1,2.019a.423.423,0,0,1-.414-.448v-5.078a.457.457,0,0,1,.414-.475l58.1-1.826a.405.405,0,0,1,.388.435v4.912A.439.439,0,0,1,953.474,2205.6Z" transform="translate(-894.96 -2176.413)" fill="#d8dee8"/>
          <path id="Trazado_3008" data-name="Trazado 3008" d="M953.474,2305.823l-58.1,2.414a.419.419,0,0,1-.414-.445v-5.077a.461.461,0,0,1,.414-.478l58.1-2.221a.4.4,0,0,1,.388.433v4.913A.442.442,0,0,1,953.474,2305.823Z" transform="translate(-894.96 -2264.732)" fill="#d8dee8"/>
        </g>
        <g id="Grupo_11348" data-name="Grupo 11348" transform="translate(79.046 136.615)">
          <path id="Trazado_3009" data-name="Trazado 3009" d="M1602.982,1994.5l-49.32,1.044a.4.4,0,0,1-.379-.434v-4.858a.424.424,0,0,1,.379-.449l49.32-.88a.39.39,0,0,1,.358.423v4.718A.409.409,0,0,1,1602.982,1994.5Z" transform="translate(-1553.282 -1988.918)" fill="#d8dee8"/>
          <path id="Trazado_3010" data-name="Trazado 3010" d="M1617.595,2087.67l-63.933,1.788a.4.4,0,0,1-.379-.432v-4.858a.427.427,0,0,1,.379-.452l63.933-1.576a.383.383,0,0,1,.352.417v4.677A.407.407,0,0,1,1617.595,2087.67Z" transform="translate(-1553.282 -2071.069)" fill="#d8dee8"/>
          <path id="Trazado_3011" data-name="Trazado 3011" d="M1617.595,2183.089l-63.933,2.222a.4.4,0,0,1-.379-.429v-4.858a.43.43,0,0,1,.379-.454l63.933-2.01a.38.38,0,0,1,.352.415v4.677A.411.411,0,0,1,1617.595,2183.089Z" transform="translate(-1553.282 -2155.155)" fill="#d8dee8"/>
          <path id="Trazado_3012" data-name="Trazado 3012" d="M1617.595,2278.508l-63.933,2.656a.4.4,0,0,1-.379-.427v-4.858a.434.434,0,0,1,.379-.457l63.933-2.444a.376.376,0,0,1,.352.413v4.677A.414.414,0,0,1,1617.595,2278.508Z" transform="translate(-1553.282 -2239.242)" fill="#d8dee8"/>
        </g>
      </g>
      <path id="Trazado_3013" data-name="Trazado 3013" d="M1225.023,589.866l-8.58-.461a6.714,6.714,0,0,1-5.738-3.778c-7.951,1.664-16.328-.075-24.7,1.6-5.754,1.279-5.115,10.23-11.508,10.869-9.171,1.239-18.245,1.326-27.224,1.413l-.934,1.873L1230,605.328l-2.251-13A2.9,2.9,0,0,0,1225.023,589.866Z" transform="translate(-1085.631 -556.643)" fill="url(#linear-gradient-5)"/>
    </g>
    <g id="Grupo_11351" data-name="Grupo 11351" transform="translate(435.993 507.748)">
      <path id="Trazado_3014" data-name="Trazado 3014" d="M867.509,2817.682h-6.546s-7.815,23.875-11.332,27.392,4.77,14.068,86.8,13.189c55.94-1.172,71.474-6.741,72.646-12.6s-6.294-12.6-6.224-16.12-9.743-11.858-9.743-11.858Z" transform="translate(-848.98 -2689.772)" fill="url(#linear-gradient-6)"/>
      <path id="Trazado_3015" data-name="Trazado 3015" d="M1070.286,2829.542c.069-3.517-9.743-11.858-9.743-11.858H928.4s-1.211,3.7-2.894,8.4c4.817,3.735,11.064,4.618,17.018,4.618,9.185.417,17.953-3.757,26.3-.835,15.03,5.01,29.643,12.525,45.926,8.35,10.02-2.505,19.622-6.68,30.06-6.263,6.263,0,12.943,6.68,8.35,12.108-12.943,13.778-33.4,5.428-50.936,8.768-10.438,2.087-20.04,1.252-30.061,1.252-1.253,0-2.923,1.253-4.175,1.253a127.619,127.619,0,0,1-18.645,1.236c12.917,1.232,30.575,1.949,54.516,1.692,55.94-1.172,71.474-6.741,72.646-12.6S1070.217,2833.059,1070.286,2829.542Z" transform="translate(-916.418 -2689.773)" opacity="0.3" fill="url(#linear-gradient-7)" style="mix-blend-mode: multiply;isolation: isolate"/>
      <ellipse id="Elipse_534" data-name="Elipse 534" cx="66.071" cy="6.29" rx="66.071" ry="6.29" transform="translate(11.983 121.62)" fill="url(#linear-gradient-8)"/>
      <ellipse id="Elipse_535" data-name="Elipse 535" cx="43.918" cy="4.092" rx="43.918" ry="4.092" transform="translate(34.136 121.62)" opacity="0.3" fill="url(#linear-gradient-9)" style="mix-blend-mode: multiply;isolation: isolate"/>
      <path id="Trazado_3016" data-name="Trazado 3016" d="M1755.115,2253.986s122.306,15.119,148.231,14.338,20.293,25.932,3.836,25.89-150.744-25.318-150.744-25.318Z" transform="translate(-1647.498 -2193.024)" fill="url(#linear-gradient-10)"/>
      <path id="Trazado_3017" data-name="Trazado 3017" d="M1251.722,1740.8a22.628,22.628,0,0,0-8.573,8.573c-4.243,7.857.024,12.9-3.517,22.422-3.136,8.429-7.373,6.864-9.774,14.983-2.625,8.877,2.086,11.942-1.449,19.556-2.66,5.728-6.35,6.2-7.111,11.8-.119.873-.027.844.968,10.156.8,7.5.861,8.631,0,10.046-1.4,2.3-3.491,2.476-5.172,5.818a10.673,10.673,0,0,0-1.131,3.555c-.3,5.589,15.48,12.095,30.262,15.312,6.445,1.4,26.222,5.664,29.934-.965.687-1.226.448-3.024.181-6.289-.421-5.155-1.706-6.01-1.505-8.576.36-4.585,4.725-5.151,7.714-10.31,3.112-5.374.09-7.718,1.778-16.162,1.983-9.917,6.683-9.332,8.727-19.07,1.821-8.674-1.635-10.439,1.157-17.366,2.419-6,5.789-6.6,7.841-12.231,2.087-5.728.912-11.447-.433-15.423a73.9,73.9,0,0,0-49.9-15.827Z" transform="translate(-1172.376 -1740.686)" fill="url(#linear-gradient-11)"/>
      <path id="Trazado_3018" data-name="Trazado 3018" d="M1301.621,1756.622a73.9,73.9,0,0,0-49.9-15.827,23.494,23.494,0,0,0-7.38,6.649c5.456-1.292,18.1-3.4,30.289,3.127,1.674.9,14.979,8.021,14.3,16.37-.438,5.376-6.187,5.292-9.451,12.721-3.861,8.789,2.387,13-.97,23.273-2.576,7.882-6.85,7.215-8.727,15.192-1.839,7.819,1.974,9.707-.323,16.485-2.963,8.74-11.719,12.723-12.929,13.252a27.55,27.55,0,0,1-10.869,2.02c-11.874.072-21.179-5.659-25.819-9.081a9.544,9.544,0,0,0-2.746,3.344,10.673,10.673,0,0,0-1.131,3.555c-.3,5.589,15.48,12.095,30.262,15.312,6.445,1.4,26.222,5.664,29.934-.965.687-1.226.448-3.024.181-6.289-.421-5.155-1.706-6.01-1.505-8.576.36-4.585,4.725-5.151,7.714-10.31,3.112-5.374.09-7.718,1.778-16.162,1.983-9.917,6.683-9.332,8.727-19.07,1.821-8.674-1.635-10.439,1.157-17.366,2.419-6,5.789-6.6,7.841-12.231C1304.141,1766.317,1302.965,1760.6,1301.621,1756.622Z" transform="translate(-1172.376 -1740.686)" opacity="0.3" fill="url(#linear-gradient-11)" style="mix-blend-mode: multiply;isolation: isolate"/>
      <path id="Trazado_3019" data-name="Trazado 3019" d="M2041.795,2351.522a17.094,17.094,0,0,1-.882,1.539c-8.54,13.9-26.11,12.3-40.514,11.912-19.278-.087-36.848-8.008-55.334-14.108-12.707-4.519-26.562-3.469-38.2,4.148,36.507,6.757,121.194,22.175,134.044,22.207C2056.278,2377.259,2062.2,2353.962,2041.795,2351.522Z" transform="translate(-1781.224 -2276.029)" opacity="0.3" fill="url(#linear-gradient-13)" style="mix-blend-mode: multiply;isolation: isolate"/>
    </g>
    <g id="Grupo_11358" data-name="Grupo 11358" transform="translate(573.285 452.084)">
      <path id="Trazado_3020" data-name="Trazado 3020" d="M2006.022,1382.256a1.412,1.412,0,0,0-.869.676,1.375,1.375,0,0,0-.108,1.086l8.073,25.308a1.42,1.42,0,0,0,1.747.92l18.749-5.385a1.391,1.391,0,0,0,.965-1.719l-7.269-25.186a1.418,1.418,0,0,0-1.735-.964Z" transform="translate(-2004.98 -1364.479)" fill="#26264f"/>
      <path id="Trazado_3021" data-name="Trazado 3021" d="M2019.419,1396.879a1.26,1.26,0,0,0-.775.6,1.227,1.227,0,0,0-.1.968l7.2,22.569a1.266,1.266,0,0,0,1.558.821l16.72-4.8a1.24,1.24,0,0,0,.861-1.533l-6.482-22.46a1.265,1.265,0,0,0-1.547-.859Z" transform="translate(-2016.886 -1377.872)" fill="#fff"/>
      <path id="Trazado_3022" data-name="Trazado 3022" d="M2695.243,1531.011c1.039.393,16.882,6.693,20.139,23.229.263,1.336,2.808,15.542-6.826,25.579-10.8,11.254-31.606,10.975-39.863,1.567a16.862,16.862,0,0,1-3.51-6.669h0l2.175-5.78c2.655-3.205,6.27-3.964,8.2-4.44,4.759-1.173,8.352.947,11.078-1.348,1.508-1.27,1.808-3.1,2.075-4.73.912-5.56-2.227-8.983-2.455-12.411-.17-2.563-1.068-8.18,2.278-11.842A10.8,10.8,0,0,1,2695.243,1531.011Z" transform="translate(-2586.773 -1500.249)" fill="url(#linear-gradient-14)"/>
      <path id="Trazado_3023" data-name="Trazado 3023" d="M2970.23,3073.3c.185-1.018,3.472-1.939,5.1-.576.808.677,1.365,2.049.9,2.669-.17.225.527.622-.141.63C2973.872,3076.045,2970.046,3074.308,2970.23,3073.3Z" transform="translate(-2855.587 -2858.253)" fill="url(#linear-gradient-15)"/>
      <path id="Trazado_3024" data-name="Trazado 3024" d="M2988.228,3023.68l3.381-.478c-1.566-1.886-1.277-7.891-1.277-7.891l-3.6.8s.409,1.648,1.107,4.08A15.948,15.948,0,0,1,2988.228,3023.68Z" transform="translate(-2870.139 -2808.265)" fill="url(#linear-gradient-16)"/>
      <path id="Trazado_3025" data-name="Trazado 3025" d="M2996.333,3078.874s4.071-.938,4.511-.13.782,2.969-1.8,2.9S2996.1,3079.558,2996.333,3078.874Z" transform="translate(-2878.543 -2863.875)" fill="url(#linear-gradient-17)"/>
      <path id="Trazado_3026" data-name="Trazado 3026" d="M2579.524,3108.186c.325-.982,3.709-1.434,5.13.144.705.783,1.064,2.22.515,2.768-.2.2.434.69-.228.6C2582.745,3111.418,2579.2,3109.162,2579.524,3108.186Z" transform="translate(-2511.27 -2889.325)" fill="url(#linear-gradient-18)"/>
      <path id="Trazado_3027" data-name="Trazado 3027" d="M2044.2,1588.857l-3.09-1.48a6.822,6.822,0,0,1-1.771-2.109,8.069,8.069,0,0,1-.89-3.58c.007,0-.141-2.5.92-2.924a.9.9,0,0,1,.484-.043l1.1,2.894s.176,1.259,2.162,2.566a12.249,12.249,0,0,1,2.761,3.282Z" transform="translate(-2034.472 -1542.28)" fill="url(#linear-gradient-19)"/>
      <path id="Trazado_3028" data-name="Trazado 3028" d="M2604.873,3062.648h3.415c-1.287-2.086-.16-7.993-.16-7.993l-3.672.292s.175,1.689.525,4.2A15.954,15.954,0,0,1,2604.873,3062.648Z" transform="translate(-2533.259 -2842.937)" fill="url(#linear-gradient-20)"/>
      <path id="Trazado_3029" data-name="Trazado 3029" d="M2485.854,2014.175a158,158,0,0,0-5.295,24.23c-4.147,30.169,4.668,31.132,3.022,64.563-.526,10.671,9.245,35.279,10.106,35.822a10.652,10.652,0,0,0,1.351.053,13.483,13.483,0,0,0,3.441-.573c1.548-.267,7.128-15.381,5.834-24.367-.916-6.36-.65-13.186-.119-26.838.086-2.212,5.745-43.036,5.745-43.036h0c1.722,15.111,3.7,27.95,5.418,37.9,5.515,31.982,23.445,51.339,24.38,51.65a3.8,3.8,0,0,0,3.243-.221,2.234,2.234,0,0,0,.82-.924c.48-.375-.141-31.93-5.61-55.678-7.938-34.47-4.481-42.535-7-57.931C2529.018,2005.506,2485.854,2014.175,2485.854,2014.175Z" transform="translate(-2423.089 -1923.587)" fill="url(#linear-gradient-21)"/>
      <path id="Trazado_3030" data-name="Trazado 3030" d="M2537.911,1505.8c-5.271-.155-15.478-1.876-22.15,4.127-.116.1-.656.7-1.329,1.484a43.644,43.644,0,0,0-4.711,6.76,45.412,45.412,0,0,0-3.959,9.794,84.14,84.14,0,0,0-3.125,17.087c-1.22,16.04-.01,23.44,1.087,28.473a55.513,55.513,0,0,0,31.673,4.651,49.43,49.43,0,0,0,15.791-5.2c-3.8-11.494-.818-17.645.587-23.313,2-8.084,2.036-7.473,3.686-13.894,2.722-10.6,3.168-21.422,1.3-23.638C2551.716,1506.151,2542.63,1505.935,2537.911,1505.8Z" transform="translate(-2443.083 -1477.724)" fill="url(#linear-gradient-22)"/>
      <path id="Trazado_3031" data-name="Trazado 3031" d="M2604.952,3117.575s4.162-.359,4.485.5.359,3.05-2.188,2.619S2604.629,3118.221,2604.952,3117.575Z" transform="translate(-2533.577 -2898.32)" fill="url(#linear-gradient-23)"/>
      <path id="Trazado_3032" data-name="Trazado 3032" d="M2116.783,1519.125c-5.764-3.75-20.837,8-25.4,11.241-17.7,12.566-15.574,20.405-23.61,16.492-5.434-2.646-6.171-10.622-15.458-13.622a19.852,19.852,0,0,0-3.963-.843c-.013.006-3.067,1.631-3.08,1.635a6.906,6.906,0,0,0-3.079,1.636,24.069,24.069,0,0,0-2.123,6.746,34.706,34.706,0,0,0,.693,4.359c.349,1.55,4.428,18.51,18.61,23.733a25.108,25.108,0,0,0,5.862,1.367c4.66.565,8.884-.125,16.1-2.614,12.231-4.214,21.569-8.168,29.825-17.831a13.111,13.111,0,0,0,1.029-1.4C2118.331,1540.612,2122.348,1522.745,2116.783,1519.125Z" transform="translate(-2035.901 -1489.131)" fill="url(#linear-gradient-24)"/>
      <g id="Grupo_11352" data-name="Grupo 11352" transform="translate(76.741)">
        <path id="Trazado_3033" data-name="Trazado 3033" d="M2654.4,1366.178a9.164,9.164,0,0,1-.741-6.594c.687-2.853.942-3.285,1.471-3.889l.749-.792s.047-.035.1-.068a10.73,10.73,0,0,1,2.884-.961c1.34-.067,4.069,4.74,5.63,12.147q.19.4.377.8c.775,1.68,1.44,3.333,2.01,4.944,9.059.766,10.316,1.829,10.356,2.443.085,1.292-5.076,2.785-8.958,3.353-8.465,1.24-17.168-.993-17.128-2.572.018-.687,1.7-1.583,8.877-2.523l-.5-3.563C2658.932,1368.777,2655.6,1368.212,2654.4,1366.178Z" transform="translate(-2651.142 -1344.149)" fill="url(#linear-gradient-25)"/>
        <path id="Trazado_3034" data-name="Trazado 3034" d="M2662.082,1281.374c.611,2.261,2.322,4.394,2.968,4.637a3.894,3.894,0,0,1,1.059.677,1.185,1.185,0,0,1,.2.233c.876,1.294-.944,3.577-.336,4.1.441.379,1.817-.652,2.107-.3.273.33-.8,1.451-.483,1.85.239.3.944-.22,1.58.168.317.194.3.419.773,1.143a7.463,7.463,0,0,0,.841,1.076c1.136,1.12,3.481,1.015,3.766.37.079-.18-.056-.277-.067-.807a4.114,4.114,0,0,1,.168-1.109c.256-.884,1.216-1.723,2.118-2.824a7.6,7.6,0,0,0,1.948-3.931c.019-.168.026-.294.03-.384a8.707,8.707,0,0,0-1.709-5.569c-1.93-2.189-4.444-.235-7.43-2.118-3.446-2.172-2.9-6.541-4.472-6.589C2663.412,1271.941,2660.952,1277.193,2662.082,1281.374Z" transform="translate(-2660.53 -1271.994)" fill="#26264f"/>
        <path id="Trazado_3035" data-name="Trazado 3035" d="M2700,1422.242c.351-.91,1.517-.454,1.786.531a1.861,1.861,0,0,1-1.392,2.317C2699.416,1425.143,2699.528,1423.467,2700,1422.242Z" transform="translate(-2693.887 -1403.965)" fill="url(#linear-gradient-26)"/>
      </g>
      <path id="Trazado_3036" data-name="Trazado 3036" d="M2670.026,1410.99l-.841,2.017s-.841,2.421-1.95,1.513c-.906-.742-1.073-.676-1.1-.626-.006.01,0,.021-.007.021s-.025-.483-.034-.908a7.791,7.791,0,0,0-.47,2.656,4.327,4.327,0,0,0,.874,3.227,3.322,3.322,0,0,0,2.286.975,8.788,8.788,0,0,0,2.421-.908s-2.623-1.009-2.757-1.378c-.366-1.006.914-1.943,1.412-4.337A8.76,8.76,0,0,0,2670.026,1410.99Z" transform="translate(-2587.161 -1394.482)" fill="#26264f"/>
      <g id="Grupo_11357" data-name="Grupo 11357" transform="translate(5.638 17.34)">
        <path id="Trazado_3037" data-name="Trazado 3037" d="M2079.323,1419.708l-8.547,2.223-.546-1.757,8.559-2.181Z" transform="translate(-2068.118 -1417.993)" fill="#d8dee8"/>
        <g id="Grupo_11353" data-name="Grupo 11353" transform="translate(8.528 3.283)">
          <path id="Trazado_3038" data-name="Trazado 3038" d="M2132.109,1447.189a.111.111,0,0,1-.06.147l-7.186,1.937a.125.125,0,0,1-.14-.1l-.462-1.484a.114.114,0,0,1,.063-.151l7.2-1.9a.122.122,0,0,1,.136.1Z" transform="translate(-2124.254 -1445.639)" fill="#d8dee8"/>
          <path id="Trazado_3039" data-name="Trazado 3039" d="M2139.057,1469.082a.111.111,0,0,1-.06.148l-7.175,1.972a.124.124,0,0,1-.14-.1l-.128-.412a.114.114,0,0,1,.063-.152l7.179-1.958a.122.122,0,0,1,.135.094Z" transform="translate(-2130.68 -1465.856)" fill="#d8dee8"/>
          <path id="Trazado_3040" data-name="Trazado 3040" d="M2143.153,1482a.112.112,0,0,1-.059.148l-7.165,2a.124.124,0,0,1-.14-.1l-.128-.412a.115.115,0,0,1,.063-.152l7.17-1.991a.121.121,0,0,1,.135.094Z" transform="translate(-2134.299 -1477.238)" fill="#d8dee8"/>
          <path id="Trazado_3041" data-name="Trazado 3041" d="M2147.248,1494.912a.113.113,0,0,1-.059.149l-7.155,2.036a.123.123,0,0,1-.14-.095l-.128-.412a.116.116,0,0,1,.063-.152l7.159-2.023a.12.12,0,0,1,.135.094Z" transform="translate(-2137.917 -1488.62)" fill="#d8dee8"/>
          <path id="Trazado_3042" data-name="Trazado 3042" d="M2151.344,1507.828a.113.113,0,0,1-.059.149l-7.146,2.069a.123.123,0,0,1-.14-.094l-.128-.412a.116.116,0,0,1,.063-.153l7.15-2.055a.119.119,0,0,1,.135.093Z" transform="translate(-2141.535 -1500.001)" fill="#d8dee8"/>
        </g>
        <g id="Grupo_11354" data-name="Grupo 11354" transform="translate(0 5.792)">
          <path id="Trazado_3043" data-name="Trazado 3043" d="M2061.092,1475.088l-5.74,1.663a.457.457,0,0,1-.528-.348l-2.347-7.541a.424.424,0,0,1,.245-.562l5.783-1.526a.459.459,0,0,1,.515.352l2.3,7.4A.426.426,0,0,1,2061.092,1475.088Z" transform="translate(-2052.451 -1466.763)" fill="#d8dee8"/>
          <path id="Trazado_3044" data-name="Trazado 3044" d="M2052.772,1468.508l.008,0,5.783-1.525a.256.256,0,0,1,.285.2l2.3,7.4a.231.231,0,0,1-.122.3l-5.739,1.664a.256.256,0,0,1-.3-.195l-2.347-7.542A.23.23,0,0,1,2052.772,1468.508Zm-.063-.2a.427.427,0,0,0-.232.558l2.347,7.541a.457.457,0,0,0,.528.348l5.74-1.663h0a.427.427,0,0,0,.229-.558l-2.3-7.4a.46.46,0,0,0-.515-.352l-5.783,1.526Z" transform="translate(-2052.452 -1466.763)" fill="#d8dee8"/>
        </g>
        <g id="Grupo_11355" data-name="Grupo 11355" transform="translate(3.583 17.882)">
          <path id="Trazado_3045" data-name="Trazado 3045" d="M2086.5,1569.237l-3.646,1.068a.052.052,0,0,1-.06-.039l-.179-.574a.05.05,0,0,1,.027-.065l3.648-1.061a.051.051,0,0,1,.059.039l.177.568A.05.05,0,0,1,2086.5,1569.237Z" transform="translate(-2082.616 -1568.564)" fill="#d8dee8"/>
          <path id="Trazado_3046" data-name="Trazado 3046" d="M2092.734,1574.39l-6.23,1.851a.052.052,0,0,1-.06-.039l-.178-.574a.05.05,0,0,1,.028-.065l6.233-1.839a.051.051,0,0,1,.058.039l.175.564A.049.049,0,0,1,2092.734,1574.39Z" transform="translate(-2085.83 -1573.109)" fill="#d8dee8"/>
          <path id="Trazado_3047" data-name="Trazado 3047" d="M2096.371,1585.895l-6.222,1.876a.052.052,0,0,1-.06-.039l-.179-.574a.05.05,0,0,1,.027-.065l6.226-1.864a.05.05,0,0,1,.058.039l.175.564A.049.049,0,0,1,2096.371,1585.895Z" transform="translate(-2089.041 -1583.248)" fill="#d8dee8"/>
          <path id="Trazado_3048" data-name="Trazado 3048" d="M2100.009,1597.4l-6.215,1.9a.051.051,0,0,1-.06-.039l-.179-.574a.05.05,0,0,1,.027-.065l6.218-1.888a.05.05,0,0,1,.058.039l.176.564A.049.049,0,0,1,2100.009,1597.4Z" transform="translate(-2092.254 -1593.386)" fill="#d8dee8"/>
        </g>
        <g id="Grupo_11356" data-name="Grupo 11356" transform="translate(12.023 14.889)">
          <path id="Trazado_3049" data-name="Trazado 3049" d="M2159.418,1544.014l-5.5,1.611a.05.05,0,0,1-.058-.039l-.174-.561a.048.048,0,0,1,.026-.063l5.5-1.6a.049.049,0,0,1,.056.039l.172.552A.047.047,0,0,1,2159.418,1544.014Z" transform="translate(-2153.682 -1543.36)" fill="#d8dee8"/>
          <path id="Trazado_3050" data-name="Trazado 3050" d="M2164.625,1551.148l-7.149,2.125a.05.05,0,0,1-.057-.039l-.174-.561a.048.048,0,0,1,.026-.063l7.154-2.111a.049.049,0,0,1,.055.038l.171.549A.047.047,0,0,1,2164.625,1551.148Z" transform="translate(-2156.819 -1549.65)" fill="#d8dee8"/>
          <path id="Trazado_3051" data-name="Trazado 3051" d="M2168.176,1562.344l-7.14,2.152a.05.05,0,0,1-.058-.038l-.174-.561a.048.048,0,0,1,.025-.063l7.145-2.139a.048.048,0,0,1,.055.038l.171.549A.048.048,0,0,1,2168.176,1562.344Z" transform="translate(-2159.955 -1559.517)" fill="#d8dee8"/>
          <path id="Trazado_3052" data-name="Trazado 3052" d="M2171.726,1573.541l-7.132,2.181a.049.049,0,0,1-.057-.038l-.174-.561a.048.048,0,0,1,.025-.063l7.135-2.167a.048.048,0,0,1,.056.037l.171.549A.048.048,0,0,1,2171.726,1573.541Z" transform="translate(-2163.092 -1569.383)" fill="#d8dee8"/>
        </g>
      </g>
    </g>
  </g>
</svg>
