<svg xmlns="http://www.w3.org/2000/svg" xmlns:xlink="http://www.w3.org/1999/xlink" width="397.133" height="353.14" viewBox="0 0 397.133 353.14">
  <defs>
    <linearGradient id="linear-gradient" x1="0.589" y1="-0.07" x2="0.336" y2="1.919" gradientUnits="objectBoundingBox">
      <stop offset="0.004" stop-color="#e38ddd"/>
      <stop offset="1" stop-color="#9571f6"/>
    </linearGradient>
    <linearGradient id="linear-gradient-2" y1="0.5" x2="1" y2="0.5" gradientUnits="objectBoundingBox">
      <stop offset="0" stop-color="#aa80f9"/>
      <stop offset="0.996" stop-color="#6165d7"/>
    </linearGradient>
    <linearGradient id="linear-gradient-3" x1="0.587" y1="-0.057" x2="0.341" y2="1.881" xlink:href="#linear-gradient"/>
    <clipPath id="clip-path">
      <rect id="Rectángulo_2690" data-name="Rectángulo 2690" width="312" height="275" transform="translate(264.808 2001.003)" fill="#fff" stroke="#707070" stroke-width="1"/>
    </clipPath>
    <clipPath id="clip-path-2">
      <path id="Trazado_1833" data-name="Trazado 1833" d="M1842.653,586.54c-4.017-2.8-9.863-4.03-14.715-3.975-34.393.387-33.511,72.269-26.958,87.811s3.588,21.067-22.655,31.635-12,25.6-7.947,34.738,11.208,16.554-7.655,27.517-11.565,16.195-11.565,16.195,39.246,34.058,36.272,22.366-.822-29.893,31.526-33.919c13.933-1.734,34.794-10.163,38.306-25.522.818-3.577,1.148-8.964.012-12.5-1.576-4.909-5.186-8.584-7.4-13.145-5.153-10.629,4.848-19.544,10.381-27.386a81.954,81.954,0,0,0,7.862-12.855c4.348-9.486,1.643-19.055-4.59-26.958-2.989-3.79-7.034-7.739-8.586-12.425-1.668-5.033-1.159-12.14-1.3-17.448a111.282,111.282,0,0,0-.627-12.457C1851.954,600.518,1849.37,591.226,1842.653,586.54Z" transform="translate(-1749.77 -582.563)" fill="url(#linear-gradient)"/>
    </clipPath>
    <clipPath id="clip-path-3">
      <path id="Trazado_1840" data-name="Trazado 1840" d="M1973.067,1284.742c-2.212-3.737-6.477-6.873-10.411-8.61-27.888-12.318-53.572,46-53.993,60.941s-4.841,18.312-29.894,17.2-19.082,16.243-19.167,25.106,2.963,17.471-16.28,19.388-15.277,8.818-15.277,8.818,19.155,41.888,21.049,31.364,10.314-24.417,37.889-15.787c11.877,3.717,31.8,4.579,40.275-6.523,1.973-2.585,4.218-6.811,4.6-10.083.531-4.539-1.031-8.829-1.14-13.32-.254-10.467,11.088-13.987,18.431-18.281a72.554,72.554,0,0,0,11.063-7.484c6.991-6.056,8.322-14.769,6.2-23.434-1.019-4.155-2.833-8.826-2.364-13.176.5-4.673,3.523-10.219,5.361-14.552a98.655,98.655,0,0,0,4.069-10.28C1975.437,1299.433,1976.764,1290.989,1973.067,1284.742Z" transform="translate(-1827.706 -1274.435)" fill="url(#linear-gradient-2)"/>
    </clipPath>
    <clipPath id="clip-path-4">
      <path id="Trazado_1847" data-name="Trazado 1847" d="M812.1,586.54c4.018-2.8,9.863-4.03,14.715-3.975,34.393.387,33.511,72.269,26.958,87.811s-3.588,21.067,22.655,31.635,12,25.6,7.947,34.738-11.208,16.554,7.655,27.517,11.565,16.195,11.565,16.195-39.246,34.058-36.272,22.366.822-29.893-31.526-33.919c-13.933-1.734-34.8-10.163-38.306-25.522-.818-3.577-1.148-8.964-.012-12.5,1.576-4.909,5.185-8.584,7.4-13.145,5.153-10.629-4.848-19.544-10.381-27.386A81.939,81.939,0,0,1,786.63,677.5c-4.348-9.486-1.643-19.055,4.59-26.958,2.989-3.79,7.034-7.739,8.587-12.425,1.668-5.033,1.158-12.14,1.3-17.448a111.224,111.224,0,0,1,.627-12.457C802.8,600.518,805.382,591.226,812.1,586.54Z" transform="translate(-784.503 -582.563)" fill="url(#linear-gradient-3)"/>
    </clipPath>
    <clipPath id="clip-path-5">
      <path id="Trazado_1854" data-name="Trazado 1854" d="M452.735,1284.742c2.212-3.737,6.477-6.873,10.411-8.61,27.888-12.318,53.572,46,53.993,60.941s4.841,18.312,29.893,17.2,19.083,16.243,19.167,25.106-2.963,17.471,16.28,19.388,15.277,8.818,15.277,8.818-19.155,41.888-21.049,31.364-10.314-24.417-37.889-15.787c-11.877,3.717-31.8,4.579-40.275-6.523-1.973-2.585-4.218-6.811-4.6-10.083-.531-4.539,1.031-8.829,1.14-13.32.254-10.467-11.088-13.987-18.431-18.281a72.6,72.6,0,0,1-11.063-7.484c-6.991-6.056-8.322-14.769-6.2-23.434,1.019-4.155,2.832-8.826,2.364-13.176-.5-4.673-3.523-10.219-5.361-14.552a98.574,98.574,0,0,1-4.069-10.28C450.365,1299.433,449.038,1290.989,452.735,1284.742Z" transform="translate(-450.395 -1274.435)" fill="url(#linear-gradient-2)"/>
    </clipPath>
    <clipPath id="clip-path-6">
      <circle id="Elipse_526" data-name="Elipse 526" cx="107.617" cy="107.617" r="107.617" fill="none"/>
    </clipPath>
    <clipPath id="clip-path-7">
      <path id="Trazado_1866" data-name="Trazado 1866" d="M731.543,539.17c7.882-71.793-61.721-96.736-111.064-78.354-49.744,18.531-61.276-12.188-131.223-3.411-70.826,8.887-34.866,120.065-34.866,120.065s11.269,96.676,24.621,141.239C492.288,763.031,619.4,747,650.318,745.673c30.743-1.315,57.457,1.223,84.205-47.441C761.222,649.656,723.686,610.726,731.543,539.17Z" transform="translate(-445.26 -455)" fill="none"/>
    </clipPath>
    <linearGradient id="linear-gradient-9" x1="-0.021" y1="1.326" x2="0.563" y2="0.279" gradientUnits="objectBoundingBox">
      <stop offset="0" stop-color="#ff9085"/>
      <stop offset="1" stop-color="#fb6fbb"/>
    </linearGradient>
    <linearGradient id="linear-gradient-10" x1="-0.198" y1="0.819" x2="-0.871" y2="-0.191" gradientUnits="objectBoundingBox">
      <stop offset="0" stop-color="#ffc444"/>
      <stop offset="0.996" stop-color="#f36f56"/>
    </linearGradient>
  </defs>
  <g id="Grupo_11438" data-name="Grupo 11438" transform="translate(-809.217 -808.86)">
    <path id="Trazado_1367" data-name="Trazado 1367" d="M-10359.906,3545.495h371.712" transform="translate(11169.124 -2384.495)" fill="none" stroke="#7c3be6" stroke-width="2"/>
    <path id="Trazado_1557" data-name="Trazado 1557" d="M95.646,293.943c-14.892-12.284-29.5-26.646-37.177-44.359s-7.477-39.946,4.853-54.8c6.271-7.553,15.225-12.821,20.255-21.252,5.529-9.268,5.386-20.832,3.749-31.5s-4.6-21.26-4.142-32.043a50.784,50.784,0,0,1,62.986-47.114C163.224,67.117,176.9,79.8,193.24,86.264c16.812,6.655,36.049,6.468,53.4,2.032,17.982-4.6,35.447-17.312,52.077-25.576,10.291-5.114,20.849-10.129,32.2-11.906s23.789.094,32.57,7.507c9.727,8.212,13.29,21.391,16.863,33.61s8.446,25.315,19.4,31.807c8.207,4.865,18.345,5.056,27.191,8.63a37.581,37.581,0,0,1,19.785,51.146c-4.957,10.3-14.544,18.25-17.525,29.284-2.46,9.1.012,18.721.114,28.148.226,21.142-17.49,43.949-36.6,53Z" transform="translate(755.945 758.669)" fill="#fffaf2"/>
    <g id="Grupo_3" data-name="Grupo 3" transform="translate(579.191 -1116.003)" clip-path="url(#clip-path)">
      <g id="Grupo_10075" data-name="Grupo 10075" transform="translate(273.313 1990.993)">
        <g id="Grupo_10047" data-name="Grupo 10047" transform="translate(138.619 13.555)">
          <g id="Grupo_10037" data-name="Grupo 10037" transform="translate(0 0)">
            <g id="Grupo_10036" data-name="Grupo 10036">
              <path id="Trazado_1827" data-name="Trazado 1827" d="M1842.653,586.54c-4.017-2.8-9.863-4.03-14.715-3.975-34.393.387-33.511,72.269-26.958,87.811s3.588,21.067-22.655,31.635-12,25.6-7.947,34.738,11.208,16.554-7.655,27.517-11.565,16.195-11.565,16.195,39.246,34.058,36.272,22.366-.822-29.893,31.526-33.919c13.933-1.734,34.794-10.163,38.306-25.522.818-3.577,1.148-8.964.012-12.5-1.576-4.909-5.186-8.584-7.4-13.145-5.153-10.629,4.848-19.544,10.381-27.386a81.954,81.954,0,0,0,7.862-12.855c4.348-9.486,1.643-19.055-4.59-26.958-2.989-3.79-7.034-7.739-8.586-12.425-1.668-5.033-1.159-12.14-1.3-17.448a111.282,111.282,0,0,0-.627-12.457C1851.954,600.518,1849.37,591.226,1842.653,586.54Z" transform="translate(-1749.77 -582.563)" fill="url(#linear-gradient)"/>
              <g id="Grupo_10035" data-name="Grupo 10035" clip-path="url(#clip-path-2)">
                <g id="Grupo_10034" data-name="Grupo 10034" transform="translate(-0.468 -9.076)" opacity="0.8" style="mix-blend-mode: soft-light;isolation: isolate">
                  <g id="Grupo_10029" data-name="Grupo 10029">
                    <path id="Trazado_1828" data-name="Trazado 1828" d="M1746.085,725.139a.507.507,0,0,1-.48-.891,244.781,244.781,0,0,0,30.646-23.962c14.667-13.453,33.5-34.314,39.932-57.295,5.372-19.193,9.136-50.5,10.329-85.9,1.069-31.74-.264-55.04-2.171-59.23a.507.507,0,1,1,.924-.42c2.231,4.9,3.224,31.117,2.261,59.684-1.2,35.474-4.974,66.87-10.366,86.137-6.5,23.216-25.467,44.236-40.237,57.782a245.8,245.8,0,0,1-30.777,24.06A.461.461,0,0,1,1746.085,725.139Z" transform="translate(-1745.369 -497.146)" fill="#fff"/>
                  </g>
                  <g id="Grupo_10030" data-name="Grupo 10030" transform="translate(47.829 24.922)">
                    <path id="Trazado_1829" data-name="Trazado 1829" d="M2229.239,772.805a.455.455,0,0,1-.643-.189c-.156-.335-15.719-33.582-32.793-39.975a.487.487,0,0,1-.29-.638.507.507,0,0,1,.656-.29c17.464,6.538,32.7,39.088,33.346,40.472a.458.458,0,0,1-.273.618Z" transform="translate(-2195.479 -731.68)" fill="#fff"/>
                  </g>
                  <g id="Grupo_10031" data-name="Grupo 10031" transform="translate(77.923 78.169)">
                    <path id="Trazado_1830" data-name="Trazado 1830" d="M2479.4,1260.933a.508.508,0,0,1-.564-.826,160.829,160.829,0,0,1,19.889-15.966c14.928-10.014,26.719-13.436,35.044-10.17a.507.507,0,1,1-.371.945c-19.153-7.513-53.51,25.584-53.855,25.919A.506.506,0,0,1,2479.4,1260.933Z" transform="translate(-2478.683 -1232.774)" fill="#fff"/>
                  </g>
                  <g id="Grupo_10032" data-name="Grupo 10032" transform="translate(14.164 125.028)">
                    <path id="Trazado_1831" data-name="Trazado 1831" d="M1908.961,1739.7a.507.507,0,0,1-.715-.412,193.461,193.461,0,0,0-5.837-30.09c-3.991-13.982-11.285-31.309-23.363-34.447a.507.507,0,0,1,.255-.982c10.071,2.617,18.175,14.448,24.087,35.164a194.57,194.57,0,0,1,5.867,30.257A.506.506,0,0,1,1908.961,1739.7Z" transform="translate(-1878.666 -1673.753)" fill="#fff"/>
                  </g>
                  <g id="Grupo_10033" data-name="Grupo 10033" transform="translate(62.681 133.332)">
                    <path id="Trazado_1832" data-name="Trazado 1832" d="M2335.965,1784.058a.507.507,0,0,1-.544-.844c1.529-1.337,37.617-32.728,52.816-31.262a.507.507,0,1,1-.1,1.01c-14.768-1.424-51.68,30.692-52.051,31.016A.48.48,0,0,1,2335.965,1784.058Z" transform="translate(-2335.247 -1751.902)" fill="#fff"/>
                  </g>
                </g>
              </g>
            </g>
          </g>
          <g id="Grupo_10046" data-name="Grupo 10046" transform="translate(8.282 73.519)">
            <g id="Grupo_10045" data-name="Grupo 10045">
              <path id="Trazado_1834" data-name="Trazado 1834" d="M1973.067,1284.742c-2.212-3.737-6.477-6.873-10.411-8.61-27.888-12.318-53.572,46-53.993,60.941s-4.841,18.312-29.894,17.2-19.082,16.243-19.167,25.106,2.963,17.471-16.28,19.388-15.277,8.818-15.277,8.818,19.155,41.888,21.049,31.364,10.314-24.417,37.889-15.787c11.877,3.717,31.8,4.579,40.275-6.523,1.973-2.585,4.218-6.811,4.6-10.083.531-4.539-1.031-8.829-1.14-13.32-.254-10.467,11.088-13.987,18.431-18.281a72.554,72.554,0,0,0,11.063-7.484c6.991-6.056,8.322-14.769,6.2-23.434-1.019-4.155-2.833-8.826-2.364-13.176.5-4.673,3.523-10.219,5.361-14.552a98.655,98.655,0,0,0,4.069-10.28C1975.437,1299.433,1976.764,1290.989,1973.067,1284.742Z" transform="translate(-1827.706 -1274.435)" fill="url(#linear-gradient-2)"/>
              <g id="Grupo_10044" data-name="Grupo 10044" clip-path="url(#clip-path-3)">
                <g id="Grupo_10043" data-name="Grupo 10043" transform="translate(-8.749 -5.375)" opacity="0.8" style="mix-blend-mode: soft-light;isolation: isolate">
                  <g id="Grupo_10038" data-name="Grupo 10038">
                    <path id="Trazado_1835" data-name="Trazado 1835" d="M1745.823,1378.917a.45.45,0,0,1-.061-.9,216.935,216.935,0,0,0,33.523-8.077c16.772-5.468,39.627-15.381,53.254-31.558,11.382-13.511,25.915-37.387,39.875-65.5,12.518-25.213,20-44.5,20-48.58a.45.45,0,0,1,.9,0c0,4.772-8.825,26.287-20.092,48.98-13.991,28.179-28.568,52.12-39.993,65.684-13.767,16.343-36.79,26.335-53.679,31.839a217.87,217.87,0,0,1-33.663,8.108A.43.43,0,0,1,1745.823,1378.917Z" transform="translate(-1745.374 -1223.853)" fill="#fff"/>
                  </g>
                  <g id="Grupo_10039" data-name="Grupo 10039" transform="translate(112.803 8.677)">
                    <path id="Trazado_1836" data-name="Trazado 1836" d="M2819.3,1350.872c-.247,0-.448-.1-.45-.35,0-.327-.349-32.845-11.776-44.272a.423.423,0,0,1,0-.612.45.45,0,0,1,.636.012c11.688,11.688,12.03,43.507,12.039,44.86,0,.249-.2.362-.446.362Z" transform="translate(-2806.941 -1305.512)" fill="#fff"/>
                  </g>
                  <g id="Grupo_10040" data-name="Grupo 10040" transform="translate(107.54 77.862)">
                    <path id="Trazado_1837" data-name="Trazado 1837" d="M2757.86,1964.257a.45.45,0,0,1-.152-.873,142.518,142.518,0,0,1,21.908-5.577c15.721-2.6,26.489-1.028,32.006,4.664a.45.45,0,0,1-.646.626c-12.691-13.094-52.563.99-52.964,1.134A.454.454,0,0,1,2757.86,1964.257Z" transform="translate(-2757.41 -1956.592)" fill="#fff"/>
                  </g>
                  <g id="Grupo_10041" data-name="Grupo 10041" transform="translate(48.881 77.082)">
                    <path id="Trazado_1838" data-name="Trazado 1838" d="M2205.832,2013.44a.461.461,0,0,1-.145-.024.45.45,0,0,1-.28-.571,171.378,171.378,0,0,0,6.341-26.418c1.915-12.746,2.394-29.4-6.2-36.369a.45.45,0,0,1,.566-.7c7.164,5.81,9.358,18.33,6.52,37.213a172.544,172.544,0,0,1-6.377,26.564A.449.449,0,0,1,2205.832,2013.44Z" transform="translate(-2205.383 -1949.259)" fill="#fff"/>
                  </g>
                  <g id="Grupo_10042" data-name="Grupo 10042" transform="translate(73.52 118.897)">
                    <path id="Trazado_1839" data-name="Trazado 1839" d="M2437.7,2351.529a.45.45,0,0,1-.129-.88c1.724-.517,42.365-12.59,54.088-5.826a.45.45,0,1,1-.45.778c-11.391-6.572-52.961,5.784-53.381,5.909A.461.461,0,0,1,2437.7,2351.529Z" transform="translate(-2437.252 -2342.77)" fill="#fff"/>
                  </g>
                </g>
              </g>
            </g>
          </g>
        </g>
        <g id="Grupo_10066" data-name="Grupo 10066" transform="translate(0.546 13.555)">
          <g id="Grupo_10056" data-name="Grupo 10056" transform="translate(35.503 0)">
            <g id="Grupo_10055" data-name="Grupo 10055">
              <path id="Trazado_1841" data-name="Trazado 1841" d="M812.1,586.54c4.018-2.8,9.863-4.03,14.715-3.975,34.393.387,33.511,72.269,26.958,87.811s-3.588,21.067,22.655,31.635,12,25.6,7.947,34.738-11.208,16.554,7.655,27.517,11.565,16.195,11.565,16.195-39.246,34.058-36.272,22.366.822-29.893-31.526-33.919c-13.933-1.734-34.8-10.163-38.306-25.522-.818-3.577-1.148-8.964-.012-12.5,1.576-4.909,5.185-8.584,7.4-13.145,5.153-10.629-4.848-19.544-10.381-27.386A81.939,81.939,0,0,1,786.63,677.5c-4.348-9.486-1.643-19.055,4.59-26.958,2.989-3.79,7.034-7.739,8.587-12.425,1.668-5.033,1.158-12.14,1.3-17.448a111.224,111.224,0,0,1,.627-12.457C802.8,600.518,805.382,591.226,812.1,586.54Z" transform="translate(-784.503 -582.563)" fill="url(#linear-gradient-3)"/>
              <g id="Grupo_10054" data-name="Grupo 10054" clip-path="url(#clip-path-4)">
                <g id="Grupo_10053" data-name="Grupo 10053" transform="translate(-12.384 -9.076)" opacity="0.8" style="mix-blend-mode: soft-light;isolation: isolate">
                  <g id="Grupo_10048" data-name="Grupo 10048" transform="translate(50.806)">
                    <path id="Trazado_1842" data-name="Trazado 1842" d="M1227.9,725.139a.507.507,0,0,0,.481-.891,244.725,244.725,0,0,1-30.646-23.962c-14.667-13.453-33.5-34.314-39.932-57.295-5.372-19.193-9.136-50.5-10.329-85.9-1.069-31.74.264-55.04,2.171-59.23a.507.507,0,1,0-.924-.42c-2.23,4.9-3.224,31.117-2.262,59.684,1.2,35.474,4.974,66.87,10.366,86.137,6.5,23.216,25.468,44.236,40.237,57.782a245.764,245.764,0,0,0,30.776,24.06A.48.48,0,0,0,1227.9,725.139Z" transform="translate(-1146.09 -497.146)" fill="#fff"/>
                  </g>
                  <g id="Grupo_10049" data-name="Grupo 10049" transform="translate(51.424 24.922)">
                    <path id="Trazado_1843" data-name="Trazado 1843" d="M1152.217,772.805a.455.455,0,0,0,.643-.189c.156-.335,15.719-33.582,32.792-39.975a.487.487,0,0,0,.29-.638.507.507,0,0,0-.656-.29c-17.464,6.538-32.7,39.088-33.345,40.472a.457.457,0,0,0,.272.618Z" transform="translate(-1151.899 -731.68)" fill="#fff"/>
                  </g>
                  <g id="Grupo_10050" data-name="Grupo 10050" transform="translate(0 78.169)">
                    <path id="Trazado_1844" data-name="Trazado 1844" d="M722.652,1260.933a.508.508,0,0,0,.564-.826,160.877,160.877,0,0,0-19.889-15.966c-14.929-10.014-26.719-13.436-35.044-10.17a.507.507,0,0,0,.371.945c19.152-7.513,53.51,25.584,53.855,25.919A.505.505,0,0,0,722.652,1260.933Z" transform="translate(-667.961 -1232.774)" fill="#fff"/>
                  </g>
                  <g id="Grupo_10051" data-name="Grupo 10051" transform="translate(88.575 125.028)">
                    <path id="Trazado_1845" data-name="Trazado 1845" d="M1501.818,1739.7a.507.507,0,0,0,.715-.412,193.477,193.477,0,0,1,5.837-30.09c3.992-13.982,11.285-31.309,23.363-34.447a.507.507,0,0,0-.255-.982c-10.071,2.617-18.176,14.448-24.087,35.164a194.57,194.57,0,0,0-5.867,30.257A.507.507,0,0,0,1501.818,1739.7Z" transform="translate(-1501.521 -1673.753)" fill="#fff"/>
                  </g>
                  <g id="Grupo_10052" data-name="Grupo 10052" transform="translate(17.202 133.332)">
                    <path id="Trazado_1846" data-name="Trazado 1846" d="M882.576,1784.058a.507.507,0,0,0,.544-.844c-1.529-1.337-37.617-32.728-52.816-31.262a.507.507,0,1,0,.1,1.01c14.769-1.424,51.68,30.692,52.051,31.016A.494.494,0,0,0,882.576,1784.058Z" transform="translate(-829.846 -1751.902)" fill="#fff"/>
                  </g>
                </g>
              </g>
            </g>
          </g>
          <g id="Grupo_10065" data-name="Grupo 10065" transform="translate(0 73.519)">
            <g id="Grupo_10064" data-name="Grupo 10064">
              <path id="Trazado_1848" data-name="Trazado 1848" d="M452.735,1284.742c2.212-3.737,6.477-6.873,10.411-8.61,27.888-12.318,53.572,46,53.993,60.941s4.841,18.312,29.893,17.2,19.083,16.243,19.167,25.106-2.963,17.471,16.28,19.388,15.277,8.818,15.277,8.818-19.155,41.888-21.049,31.364-10.314-24.417-37.889-15.787c-11.877,3.717-31.8,4.579-40.275-6.523-1.973-2.585-4.218-6.811-4.6-10.083-.531-4.539,1.031-8.829,1.14-13.32.254-10.467-11.088-13.987-18.431-18.281a72.6,72.6,0,0,1-11.063-7.484c-6.991-6.056-8.322-14.769-6.2-23.434,1.019-4.155,2.832-8.826,2.364-13.176-.5-4.673-3.523-10.219-5.361-14.552a98.574,98.574,0,0,1-4.069-10.28C450.365,1299.433,449.038,1290.989,452.735,1284.742Z" transform="translate(-450.395 -1274.435)" fill="url(#linear-gradient-2)"/>
              <g id="Grupo_10063" data-name="Grupo 10063" clip-path="url(#clip-path-5)">
                <g id="Grupo_10062" data-name="Grupo 10062" transform="translate(-5.429 -5.375)" opacity="0.8" style="mix-blend-mode: soft-light;isolation: isolate">
                  <g id="Grupo_10057" data-name="Grupo 10057" transform="translate(13.94)">
                    <path id="Trazado_1849" data-name="Trazado 1849" d="M677.975,1378.917a.45.45,0,0,0,.061-.9,216.933,216.933,0,0,1-33.522-8.077c-16.773-5.468-39.627-15.381-53.255-31.558-11.381-13.511-25.915-37.387-39.876-65.5-12.518-25.213-20-44.5-20-48.58a.45.45,0,0,0-.9,0c0,4.772,8.826,26.287,20.092,48.98,13.991,28.179,28.568,52.12,39.993,65.684,13.767,16.343,36.79,26.335,53.679,31.839a217.876,217.876,0,0,0,33.663,8.108A.427.427,0,0,0,677.975,1378.917Z" transform="translate(-530.485 -1223.853)" fill="#fff"/>
                  </g>
                  <g id="Grupo_10058" data-name="Grupo 10058" transform="translate(36.269 8.677)">
                    <path id="Trazado_1850" data-name="Trazado 1850" d="M741.069,1350.872c.247,0,.448-.1.45-.35,0-.327.349-32.845,11.776-44.272a.421.421,0,0,0,0-.612.45.45,0,0,0-.636.012c-11.688,11.688-12.03,43.507-12.039,44.86,0,.249.2.362.447.362Z" transform="translate(-740.619 -1305.512)" fill="#fff"/>
                  </g>
                  <g id="Grupo_10059" data-name="Grupo 10059" transform="translate(0 77.862)">
                    <path id="Trazado_1851" data-name="Trazado 1851" d="M453.192,1964.257a.45.45,0,0,0,.152-.873,142.527,142.527,0,0,0-21.908-5.577c-15.721-2.6-26.489-1.028-32.006,4.664a.45.45,0,0,0,.646.626c12.692-13.094,52.563.99,52.964,1.134A.452.452,0,0,0,453.192,1964.257Z" transform="translate(-399.303 -1956.592)" fill="#fff"/>
                  </g>
                  <g id="Grupo_10060" data-name="Grupo 10060" transform="translate(104.543 77.082)">
                    <path id="Trazado_1852" data-name="Trazado 1852" d="M1391.139,2013.44a.46.46,0,0,0,.146-.024.45.45,0,0,0,.28-.571,171.534,171.534,0,0,1-6.341-26.418c-1.914-12.746-2.393-29.4,6.2-36.369a.45.45,0,0,0-.567-.7c-7.164,5.81-9.357,18.33-6.519,37.213a172.462,172.462,0,0,0,6.377,26.564A.45.45,0,0,0,1391.139,2013.44Z" transform="translate(-1383.135 -1949.259)" fill="#fff"/>
                  </g>
                  <g id="Grupo_10061" data-name="Grupo 10061" transform="translate(33.725 118.897)">
                    <path id="Trazado_1853" data-name="Trazado 1853" d="M770.862,2351.529a.45.45,0,0,0,.129-.88c-1.724-.517-42.365-12.59-54.089-5.826a.449.449,0,1,0,.449.778c11.392-6.572,52.962,5.784,53.381,5.909A.468.468,0,0,0,770.862,2351.529Z" transform="translate(-716.677 -2342.77)" fill="#fff"/>
                  </g>
                </g>
              </g>
            </g>
          </g>
        </g>
        <g id="Grupo_10072" data-name="Grupo 10072" transform="translate(44.238 46.313)">
          <g id="Grupo_10071" data-name="Grupo 10071" transform="translate(0 0)">
            <g id="Grupo_10070" data-name="Grupo 10070" clip-path="url(#clip-path-6)">
              <g id="Grupo_10069" data-name="Grupo 10069" transform="translate(-1.375 -1.279)">
                <path id="Trazado_1855" data-name="Trazado 1855" d="M1066.565,987.794a108.159,108.159,0,0,1-19.523,62.063c-.048.072-.221.142-.221.214v0c-19.269,28.233-52.286,46.525-89.323,46.525a64.164,64.164,0,0,1-8.9-.552h0c-.012,0-.018.18-.03.18-1.46-.12-2.909-.177-4.351-.354-.513-.06-1.026-.081-1.536-.153-.452-.06-.9-.1-1.352-.17-.392-.057-.781-.106-1.168-.17-.087-.015-.175-.025-.262-.036-.951-.157-1.9-.32-2.842-.5l-.015,0a109.329,109.329,0,0,1-83.609-139.332c.495-1.6,1.111-3.18,1.521-4.746v0c1.23-2.61,2.054-5.172,3.186-7.685.456-1,.959-2,1.439-2.993a109.034,109.034,0,0,1,9.245-15.506c.317-.443.645-.884.969-1.325q1.937-2.634,4.035-5.145,3.137-3.765,6.6-7.238A109.443,109.443,0,0,1,900.4,895.027q3.372-2.086,6.907-3.928A109.076,109.076,0,0,1,1026.118,903a109.815,109.815,0,0,1,32,42.055c1.575,3.687,2.639,7.477,4.279,11.357v0c0,.018-.187.03-.182.048A108.806,108.806,0,0,1,1066.565,987.794Z" transform="translate(-848.638 -878.806)" fill="#d8dee8"/>
                <g id="Grupo_10068" data-name="Grupo 10068" transform="translate(4.798 4.036)" style="mix-blend-mode: soft-light;isolation: isolate">
                  <path id="Trazado_1856" data-name="Trazado 1856" d="M1789.341,2926.639v0h.009l-.006,0Z" transform="translate(-1694.179 -2713.068)" fill="#fff"/>
                  <path id="Trazado_1857" data-name="Trazado 1857" d="M1021.732,1058.488c-2.339,3.295-9.574,7.525-4.665,15.835,4.867,8.289-.338,9.843-3.687,9.067-3.364-.767-13.822-1.195-12.078,3.557s4.734,6.542.9,8.379-5.45,6.605-9.369,13.18c-3.892,6.587-13.143.89-10.4,7.492s4.867,5.965,4.61,10.567c-.061,1.264.778,2.562,1.913,3.8-1.46-.121-2.927-.268-4.381-.447-.513-.06-1.026-.127-1.536-.2-.453-.061-.9-.124-1.351-.193q-.589-.086-1.168-.181c-.088-.015-.065-.03-.152-.042-.935-.156-1.421-.326-2.651-.5v0c-.82-.779-.306-1.624-.182-2.535,1.222-8.5-10.5-14.335-12.465-20.288-1.931-5.938-.025-9.48-.471-14.4s1.148-11.426-1.679-15.566c-2.828-4.125-14.225-5.507-16.394-13.832-2.184-8.306,2.9-20.746,4.87-22.865,1.949-2.118-9.437-11.755-14.856-12.063-5.443-.332-3.266-11.291-12.468-9.622-9.221,1.617-25.786-3.527-22.365-9.061,2.824-4.559,7.564-14.616-7.911-19.1.495-1.6,1.108-3.18,1.518-4.746v0c1.23-2.61,2.054-5.172,3.186-7.685.456-1,.959-2,1.439-2.993a109.628,109.628,0,0,1,9.245-15.506c.317-.443.646-.884.969-1.325q1.941-2.634,4.036-5.145,3.137-3.766,6.6-7.238a109.434,109.434,0,0,1,19.973-15.841c3.066,2.148,6.566,3.473,9.59,1.841,7.414-4.149,2.526-4.785-.51-4.939a3.915,3.915,0,0,1-2.172-.83,107.9,107.9,0,0,1,17.929-7.4c-.462,4.185-6.149,10.907-1.964,10.087,4.87-.926,6.858-14.085,10.434-9.713,3.627,4.39-3.968,10.144,3.165,6.81,7.142-3.3,8.1-10.669,16.055-7.085,8,3.63,7.269,7.926,9.5,7.5s9.417,4.414,5.066,8.391c-4.391,3.989-8.415-1.092-15-2.625-6.584-1.515-6.424,3.871-9.453,5.1-3.081,1.189-17.941-5.992-21.589.5-3.687,6.439-5.256,10.932.217,10.766s5.821-1.569,5.392,2.474.558,7.075,5.512,3.271c4.939-3.8,3.832-7.5,7.694-5.693s4.321.172,8.431-2.812,9.51-3.295,10.926,3.4-1,8.2-8.228,8.539-8.044-1.928-10.347,4.112-11.849,13.8-20.24,17-11.659,7.938-11.466,14.326-2.951,13.149-5.054,7.875c-2.112-5.289-8.032-14.2-14.073-8.243s-16.586,16.51-4.946,18.439c11.617,1.964,5.555-8.919,11.427-6.744,5.863,2.191-3.714,6.988.205,8.72s5.57.929,5.54,6.279,1.3,10.54,6.065,8.271,10.877-12.742,17.766-6.541c6.9,6.216,6.409,5.407,10.026,3.6s5.917,3.612,7.4,6.08,7.293-.051,12,7.293,6.553,8.654,11.921,6.01,7.556-.679,8.956,3.029,4.7.085,6.294,4.985S1024.055,1055.191,1021.732,1058.488Z" transform="translate(-893.793 -916.792)" fill="#fff"/>
                  <g id="Grupo_10067" data-name="Grupo 10067" transform="translate(140.332 20.162)">
                    <path id="Trazado_1858" data-name="Trazado 1858" d="M2266.536,1139.092c-3.8-8.165,15.048-7.248,18.379-6.62,3.352.558,11.215-5.588,12.214-8.445,1.026-2.879,2.71-1.512,8.675-1.593,5.963-.063.694-1.412-5.868-3.576s-.95-2.375-6.988-7.142c-2.6-2.088-1.78-3.862-.049-5.181a109.337,109.337,0,0,1,31.806,42.055,2.075,2.075,0,0,0-.562-.1c-4.176-.024-5.1-9.257-7.248-11.055-2.121-1.8.06,5.072.58,7.893s-1.143.45-3.226,3.042-5.865,2.643-6.207-1.249-3.083-7.7-8.638-9.471-10.361-.317-14.875,1.424C2280.039,1140.787,2270.368,1147.193,2266.536,1139.092Z" transform="translate(-2260.548 -1106.535)" fill="#fff"/>
                    <path id="Trazado_1859" data-name="Trazado 1859" d="M2267.746,1608.243c.377-2.8.993-5.7-.178-6.759-2.845-2.64-3.467-9.833-2.481-13.478s8.651-3.446,3.449-9.514c-5.217-6.086-9.918-13.309-7.727-17.44s1.527-4.427-2.58-4.4-5.914.2-10.008-3.452c-4.1-3.705-9.734,8.745-25.155-1.24-15.419-10.084-6.638-27.08-.86-27.122,5.814-.1,12.607-3.032,7.842-10.123-4.75-7.118,2.674-8.122,6.3-6.505,3.633,1.6,10.074-2.7,16.64-4.635,6.581-1.928,6.291,8.793,9.945,10.938,3.675,2.148,10.56.443,14.139-2.99,2.556-2.45,3.114.408,5.639,3.12a109.214,109.214,0,0,1-14.966,93.6Z" transform="translate(-2214.429 -1461.177)" fill="#fff"/>
                    <path id="Trazado_1860" data-name="Trazado 1860" d="M2422.075,1140.769c0-.006,4.808-2.176,3.066-5.67-1.725-3.5-4.462-14.207-6.462-10.832-2.012,3.391.955,9.975.307,12.816S2418.315,1141.423,2422.075,1140.769Z" transform="translate(-2396.34 -1121.802)" fill="#fff"/>
                    <path id="Trazado_1861" data-name="Trazado 1861" d="M2360.4,1207.492c-.068-1.126.641-5.7-2.958-5.556.007-.007-5.206,2.168-2.156,5.863S2360.48,1208.616,2360.4,1207.492Z" transform="translate(-2339.465 -1191.796)" fill="#fff"/>
                  </g>
                </g>
              </g>
              <path id="Trazado_1862" data-name="Trazado 1862" d="M1069.194,989.932a108.042,108.042,0,0,1-19.378,62.063.387.387,0,0,0-.077.214v0a108.633,108.633,0,0,1-89.468,46.438,66.327,66.327,0,0,1-9.042-.641h0c-.012,0-.018.27-.03.27-1.46-.121-2.909-.135-4.351-.313-.513-.06-1.026-.058-1.536-.131-.452-.06-.9-.09-1.352-.159-.392-.058-.782-.1-1.168-.163-.088-.015-.175-.022-.263-.035-.95-.157-1.9-.319-2.842-.5h-.015a109.076,109.076,0,0,1-87.767-95.232,94.623,94.623,0,0,0,71.118,61.417h.012a7.728,7.728,0,0,0,2.453.463c.076.009.154.035.23.047.332.054.67.11,1.008.158.386.06.775.109,1.168.161.44.063.881.1,1.325.152,1.246.154,2.5.438,3.756.54.012,0,.018.118.027.118h0c2.562,0,5.114.206,7.73.206a93.96,93.96,0,0,0,77.183-40.4c0-.063.1-.148.142-.212a94.1,94.1,0,0,0,12.861-80.661c0-.015-.038-.033-.038-.049v0a64.374,64.374,0,0,0-3.5-9.806A94.262,94.262,0,0,0,970.4,881.412a108.45,108.45,0,0,1,58.349,23.731,109.667,109.667,0,0,1,31.942,42.055c1.575,3.687,2.58,7.477,4.219,11.357v0c0,.018-.127.03-.122.048A108.809,108.809,0,0,1,1069.194,989.932Z" transform="translate(-852.931 -882.414)" fill="#d8dee8" opacity="0.5" style="mix-blend-mode: multiply;isolation: isolate"/>
            </g>
          </g>
        </g>
        <g id="Grupo_10074" data-name="Grupo 10074" transform="translate(0 0)">
          <g id="Grupo_10073" data-name="Grupo 10073" transform="translate(0 0)" clip-path="url(#clip-path-7)">
            <path id="Trazado_1863" data-name="Trazado 1863" d="M898.5,1712.074c5.364-3.332,13.49-.017,18.221,3.234,1.559,1.071,2.57,2.339,4.216,3.2,1.617.848,2.341,1.222,2.841,1.042.919-.332,1.26-1.572,1.39-2.073,1.784-6.907-1.385-17.572-1.385-17.572-2.059-6.93-3.563-14.015-5.459-20.992-.748-2.751-1.895-6.94-.2-8.176,1.091-.8,2.9-.03,3.34.156,4.653,1.969,5.325,8.2,8.235,16.185,2.071,5.682,6.46,15.5,8.49,15.1,3.807-.76-2.845-37.069,4.682-39.473,1.441-.46,2.992.453,3.766.983.886,5.658,1.609,11.868,2.024,18.565a200.023,200.023,0,0,1,.224,20.332,51.818,51.818,0,0,0,5.53-11.428c3.128-9.258,2.542-16.463,7.309-18.951l.041-.021a3.346,3.346,0,0,1,4.725,2.086q.059.208.115.427c1.686,6.58-1.09,11.7-3.931,20.662a124.065,124.065,0,0,0-3.319,12.859c4.063-1.14,4.684-8.136,6.48-11.383,1.443-2.61,4.771-9.293,8.026-10.231,4.8-1.382,3.22,4.043,2.25,6.671-1.958,5.3-4.128,10.6-6.195,15.872a91.336,91.336,0,0,0-5.015,18.512,95.487,95.487,0,0,1-2.422,9.268,15.551,15.551,0,0,1-7.577,9.764v86.416H928.02v-86.568a19.849,19.849,0,0,1-3.174-3.066c-.18-.3-.343-.61-.527-.909a78.7,78.7,0,0,0-15.034-17.751C905.438,1721.385,898.067,1718.009,898.5,1712.074Z" transform="translate(-850.319 -1534.26)" fill="url(#linear-gradient-9)"/>
            <path id="Trazado_1864" data-name="Trazado 1864" d="M2229.907,1711.43c-5.365-3.332-13.49-.017-18.222,3.234-1.558,1.071-2.57,2.338-4.215,3.2-1.617.848-2.341,1.222-2.842,1.042-.918-.331-1.259-1.571-1.389-2.074-1.784-6.907,1.385-17.572,1.385-17.572,2.059-6.93,3.563-14.015,5.459-20.992.747-2.752,1.895-6.94.2-8.176-1.091-.8-2.9-.03-3.34.156-4.654,1.969-5.325,8.2-8.236,16.186-2.071,5.682-6.46,15.5-8.49,15.1-3.807-.76,2.844-37.069-4.683-39.473-1.441-.46-2.992.454-3.766.983-.885,5.659-1.609,11.868-2.023,18.566a200.164,200.164,0,0,0-.224,20.332,51.8,51.8,0,0,1-5.53-11.428c-3.128-9.258-2.541-16.463-7.309-18.951l-.042-.021a3.346,3.346,0,0,0-4.725,2.085c-.039.139-.078.281-.115.427-1.685,6.58,1.09,11.7,3.931,20.662a123.969,123.969,0,0,1,3.32,12.859c-4.063-1.14-4.685-8.136-6.48-11.383-1.443-2.609-4.771-9.293-8.026-10.23-4.8-1.382-3.22,4.043-2.25,6.671,1.957,5.3,4.128,10.6,6.194,15.872a91.351,91.351,0,0,1,5.015,18.512,94.581,94.581,0,0,0,2.282,9.268,16.664,16.664,0,0,0,7.438,9.765v86.484h27.246V1745.9c.736-.869,2.173-1.884,3.129-3.065.179-.3.32-.61.5-.909a78.627,78.627,0,0,1,15.023-17.751C2222.977,1720.74,2230.337,1717.365,2229.907,1711.43Z" transform="translate(-1969.971 -1533.684)" fill="url(#linear-gradient-10)"/>
            <path id="Trazado_1865" data-name="Trazado 1865" d="M1571.5,1382.181c-6.392-3.97-16.075-.02-21.713,3.853-1.857,1.277-3.063,2.787-5.023,3.816-1.927,1.011-2.79,1.456-3.385,1.242-1.1-.4-1.5-1.873-1.656-2.471-2.126-8.231,1.651-20.94,1.651-20.94,2.454-8.258,4.246-16.7,6.505-25.015.891-3.279,2.258-8.271.238-9.742-1.3-.948-3.455-.036-3.981.186-5.545,2.347-6.345,9.772-9.813,19.287-2.468,6.771-7.7,18.472-10.117,17.989-4.537-.906,3.39-44.173-5.579-47.038-1.718-.548-3.566.54-4.488,1.171-1.056,6.743-1.917,14.142-2.411,22.124a238.225,238.225,0,0,0-.267,24.228,61.759,61.759,0,0,1-6.59-13.618c-3.727-11.033-3.028-19.618-8.709-22.583l-.049-.026a3.987,3.987,0,0,0-5.63,2.486c-.047.165-.093.335-.137.508-2.009,7.842,1.3,13.944,4.685,24.622a147.877,147.877,0,0,1,3.956,15.323c-4.842-1.358-5.582-9.695-7.722-13.564-1.72-3.11-5.686-11.074-9.564-12.191-5.72-1.647-3.837,4.818-2.681,7.949,2.333,6.317,4.919,12.63,7.382,18.914,3.131,7.99,4.407,13.7,5.976,22.06a113.734,113.734,0,0,0,2.891,11.044,20.014,20.014,0,0,0,9.034,11.636v103.044h32.033V1423.251a18.522,18.522,0,0,0,3.775-3.653c.214-.36.4-.727.624-1.083a93.782,93.782,0,0,1,17.914-21.153C1563.225,1393.275,1572.007,1389.252,1571.5,1382.181Z" transform="translate(-1368.05 -1230.943)" fill="#370c7d"/>
          </g>
        </g>
      </g>
    </g>
  </g>
</svg>