<svg xmlns="http://www.w3.org/2000/svg" xmlns:xlink="http://www.w3.org/1999/xlink" width="325.63" height="318.257" viewBox="0 0 325.63 318.257">
  <defs>
    <linearGradient id="linear-gradient" y1="0.5" x2="1" y2="0.5" gradientUnits="objectBoundingBox">
      <stop offset="0" stop-color="#dae3fe"/>
      <stop offset="1" stop-color="#e9effd"/>
    </linearGradient>
    <linearGradient id="linear-gradient-3" x1="0.334" y1="0.736" x2="1.312" y2="-0.654" gradientUnits="objectBoundingBox">
      <stop offset="0" stop-color="#09005d"/>
      <stop offset="1" stop-color="#1a0f91"/>
    </linearGradient>
    <linearGradient id="linear-gradient-4" x1="0.425" y1="1.36" x2="0.158" y2="4.436" gradientUnits="objectBoundingBox">
      <stop offset="0" stop-color="#4f52ff"/>
      <stop offset="1" stop-color="#4042e2"/>
    </linearGradient>
    <linearGradient id="linear-gradient-5" x1="0.316" y1="1.294" x2="-0.396" y2="4.369" xlink:href="#linear-gradient-4"/>
    <linearGradient id="linear-gradient-6" x1="0.354" y1="-4.136" x2="0.442" y2="-1.091" gradientUnits="objectBoundingBox">
      <stop offset="0" stop-color="#ff928e"/>
      <stop offset="1" stop-color="#fe7062"/>
    </linearGradient>
    <linearGradient id="linear-gradient-7" x1="0.412" y1="-4.123" x2="0.464" y2="-1.09" xlink:href="#linear-gradient-6"/>
    <linearGradient id="linear-gradient-8" x1="0.451" y1="-4.157" x2="0.487" y2="-1.111" xlink:href="#linear-gradient-6"/>
    <linearGradient id="linear-gradient-9" x1="4.271" y1="-0.042" x2="2.842" y2="0.176" xlink:href="#linear-gradient-4"/>
    <linearGradient id="linear-gradient-10" x1="0.645" y1="-2.917" x2="0.457" y2="1.516" xlink:href="#linear-gradient-4"/>
    <linearGradient id="linear-gradient-11" x1="0.519" y1="-0.944" x2="0.577" y2="-5.275" xlink:href="#linear-gradient-4"/>
    <linearGradient id="linear-gradient-12" x1="0.576" y1="-6.357" x2="0.457" y2="4.351" xlink:href="#linear-gradient-4"/>
    <linearGradient id="linear-gradient-13" x1="0.581" y1="-7.086" x2="0.419" y2="8.086" xlink:href="#linear-gradient-4"/>
    <linearGradient id="linear-gradient-14" x1="0" y1="0.5" x2="1" y2="0.5" xlink:href="#linear-gradient-3"/>
    <linearGradient id="linear-gradient-15" x1="0.695" y1="0.04" x2="0.305" y2="0.96" xlink:href="#linear-gradient-4"/>
    <linearGradient id="linear-gradient-17" x1="0.446" y1="0.624" x2="1.194" y2="-1.098" xlink:href="#linear-gradient-4"/>
    <linearGradient id="linear-gradient-19" x1="0.506" y1="1.074" x2="0.5" y2="-0.051" xlink:href="#linear-gradient-4"/>
    <linearGradient id="linear-gradient-20" x1="0.501" y1="0.347" x2="0.54" y2="-4.341" xlink:href="#linear-gradient-4"/>
    <linearGradient id="linear-gradient-21" x1="0.482" y1="1.045" x2="0.501" y2="-0.073" xlink:href="#linear-gradient-4"/>
    <linearGradient id="linear-gradient-22" x1="0.496" y1="0.945" x2="0.544" y2="-4.216" xlink:href="#linear-gradient-4"/>
    <linearGradient id="linear-gradient-23" x1="-45.104" y1="0.5" x2="-44.104" y2="0.5" gradientUnits="objectBoundingBox">
      <stop offset="0" stop-color="#febbba"/>
      <stop offset="1" stop-color="#ff928e"/>
    </linearGradient>
    <linearGradient id="linear-gradient-24" x1="-57.33" y1="-2.927" x2="-57.297" y2="1.776" xlink:href="#linear-gradient-3"/>
    <linearGradient id="linear-gradient-25" x1="-58.554" y1="21.693" x2="-58.188" y2="-3.795" xlink:href="#linear-gradient-4"/>
    <linearGradient id="linear-gradient-26" x1="-154.14" y1="-0.843" x2="-154.646" y2="2.39" xlink:href="#linear-gradient-23"/>
    <linearGradient id="linear-gradient-27" x1="-37.297" y1="22.792" x2="-37.048" y2="-1.623" xlink:href="#linear-gradient-4"/>
    <linearGradient id="linear-gradient-28" x1="-37.253" y1="-3.408" x2="-37.23" y2="1.872" xlink:href="#linear-gradient-3"/>
    <linearGradient id="linear-gradient-29" x1="-148.184" y1="-0.224" x2="-148.699" y2="2.539" xlink:href="#linear-gradient-23"/>
    <linearGradient id="linear-gradient-30" x1="-21.074" y1="-0.312" x2="-23.519" y2="1.239" xlink:href="#linear-gradient-3"/>
    <linearGradient id="linear-gradient-31" x1="1.298" y1="-0.434" x2="-0.004" y2="0.929" xlink:href="#linear-gradient-6"/>
    <linearGradient id="linear-gradient-32" x1="-64.112" y1="-0.222" x2="-64.93" y2="2.966" xlink:href="#linear-gradient-23"/>
    <linearGradient id="linear-gradient-33" x1="-51.977" y1="-33.241" x2="-53.049" y2="-31.959" xlink:href="#linear-gradient-23"/>
    <linearGradient id="linear-gradient-34" x1="-37.272" y1="-21.606" x2="-36.366" y2="-21.606" xlink:href="#linear-gradient-3"/>
    <linearGradient id="linear-gradient-35" x1="-155.028" y1="-109.237" x2="-152.571" y2="-111.886" xlink:href="#linear-gradient-23"/>
    <linearGradient id="linear-gradient-36" x1="25.553" y1="-3.564" x2="0.724" y2="0.459" gradientUnits="objectBoundingBox">
      <stop offset="0" stop-color="#e1473d"/>
      <stop offset="1" stop-color="#e9605a"/>
    </linearGradient>
    <linearGradient id="linear-gradient-37" x1="-103.722" y1="-0.866" x2="-104.645" y2="0.839" xlink:href="#linear-gradient-3"/>
    <linearGradient id="linear-gradient-38" x1="0.5" y1="1.339" x2="0.5" y2="0.415" xlink:href="#linear-gradient-4"/>
    <linearGradient id="linear-gradient-39" x1="-123.747" y1="252.621" x2="-124.1" y2="243.39" xlink:href="#linear-gradient-4"/>
    <linearGradient id="linear-gradient-40" x1="-417.969" y1="119.475" x2="-419.158" y2="115.139" xlink:href="#linear-gradient-4"/>
    <linearGradient id="linear-gradient-41" x1="-118.033" y1="251.619" x2="-118.386" y2="242.388" xlink:href="#linear-gradient-4"/>
    <linearGradient id="linear-gradient-42" x1="-398.743" y1="109.482" x2="-399.932" y2="105.495" xlink:href="#linear-gradient-4"/>
    <linearGradient id="linear-gradient-43" x1="-0.198" y1="2.189" x2="0.914" y2="-0.414" xlink:href="#linear-gradient-4"/>
    <linearGradient id="linear-gradient-44" x1="0.49" y1="0.618" x2="0.676" y2="-1.02" xlink:href="#linear-gradient-4"/>
    <linearGradient id="linear-gradient-45" x1="-82.019" y1="-1.393" x2="-82.281" y2="1.019" xlink:href="#linear-gradient-3"/>
    <linearGradient id="linear-gradient-46" x1="0" y1="0.5" x2="1" y2="0.5" xlink:href="#linear-gradient-4"/>
    <linearGradient id="linear-gradient-47" x1="3.241" y1="-0.902" x2="-0.424" y2="0.948" xlink:href="#linear-gradient-6"/>
    <linearGradient id="linear-gradient-48" x1="-73.495" y1="-1.584" x2="-75.048" y2="4.445" xlink:href="#linear-gradient-23"/>
    <linearGradient id="linear-gradient-49" x1="-5.246" y1="-0.346" x2="-4.882" y2="0.297" xlink:href="#linear-gradient-3"/>
    <linearGradient id="linear-gradient-50" x1="-4.752" y1="1.441" x2="-4.2" y2="2.517" xlink:href="#linear-gradient-23"/>
    <linearGradient id="linear-gradient-51" x1="2.255" y1="-2.192" x2="-0.9" y2="2.631" xlink:href="#linear-gradient-4"/>
    <linearGradient id="linear-gradient-52" x1="-12.026" y1="1.602" x2="-10.991" y2="-1.187" xlink:href="#linear-gradient-23"/>
    <linearGradient id="linear-gradient-53" x1="2.222" y1="-1.331" x2="-0.592" y2="2.29" xlink:href="#linear-gradient-4"/>
    <linearGradient id="linear-gradient-54" x1="-5.151" y1="1.698" x2="-4.687" y2="-1.193" xlink:href="#linear-gradient-23"/>
    <linearGradient id="linear-gradient-55" x1="3.443" y1="-0.959" x2="-0.292" y2="0.895" xlink:href="#linear-gradient-6"/>
    <linearGradient id="linear-gradient-56" x1="2.208" y1="-1.492" x2="0.555" y2="0.438" xlink:href="#linear-gradient-36"/>
    <linearGradient id="linear-gradient-57" x1="-15.773" y1="1.857" x2="-15.518" y2="0.807" xlink:href="#linear-gradient-23"/>
    <linearGradient id="linear-gradient-58" x1="-9.439" y1="0.5" x2="-8.439" y2="0.5" xlink:href="#linear-gradient-23"/>
    <linearGradient id="linear-gradient-59" x1="-12.956" y1="4.144" x2="-11.422" y2="1.89" xlink:href="#linear-gradient-23"/>
    <linearGradient id="linear-gradient-60" x1="-10.464" y1="2.195" x2="-9.833" y2="3.598" xlink:href="#linear-gradient-3"/>
    <linearGradient id="linear-gradient-61" x1="-50.675" y1="12.369" x2="-44.882" y2="5.228" xlink:href="#linear-gradient-23"/>
    <linearGradient id="linear-gradient-62" x1="-13.295" y1="4.764" x2="-11.705" y2="7.77" xlink:href="#linear-gradient-23"/>
    <linearGradient id="linear-gradient-63" x1="-110.458" y1="0.5" x2="-109.458" y2="0.5" xlink:href="#linear-gradient-23"/>
  </defs>
  <g id="Grupo_11104" data-name="Grupo 11104" transform="translate(-422.567 -455)">
    <path id="Trazado_2708" data-name="Trazado 2708" d="M704.332,728.71a122.475,122.475,0,0,1-21.509,17.459c-55.7,37.193-119.378,26.474-139.065,22.809-31.762-5.912-58.574-10.082-81.61-30.894-52.345-47.291-49.8-145.945-9.8-207.056,4.743-7.246,44.68-66.445,108.493-74.787,1.561-.2,2.725-.32,3.745-.428,9.872-1.045,71.045-6.561,120.925,35.228A148.8,148.8,0,0,1,714.8,524.27C753.758,584.443,753.882,677.637,704.332,728.71Z" transform="translate(0 0)" fill="url(#linear-gradient)"/>
    <g id="Grupo_11080" data-name="Grupo 11080" transform="translate(431.831 535.806)">
      <path id="Trazado_2709" data-name="Trazado 2709" d="M621.021,1331.907a3.664,3.664,0,0,0,3.465-5.168c-9.739-23.059-50.138-112.864-106.89-159.229-4.4-3.595-11.124-.748-11.841,5.031C501.036,1210.6,497.7,1323.015,621.021,1331.907Z" transform="translate(-504.072 -1165.918)" fill="#91b3fa"/>
      <path id="Trazado_2710" data-name="Trazado 2710" d="M748.881,1614.827a.324.324,0,0,1-.339.549c-12.856-6.7-63.854-41.7-92.537-124.131-.092-.265.293-.439.408-.183C664.858,1509.857,698.258,1578.769,748.881,1614.827Z" transform="translate(-638.724 -1453.994)" fill="#fff" opacity="0.24"/>
    </g>
    <g id="Grupo_11081" data-name="Grupo 11081" transform="translate(469.69 475.014)">
      <path id="Trazado_2711" data-name="Trazado 2711" d="M851.019,632.3c-7.654,20.82-47.462,143.882,56.351,203.656,0,0,46.168-73.968-53.255-204.161A1.772,1.772,0,0,0,851.019,632.3Z" transform="translate(-837.154 -631.083)" fill="#bdd0fb"/>
      <path id="Trazado_2712" data-name="Trazado 2712" d="M1009.965,833.878c-.089,7.486.121,14.988.473,22.472s.889,14.963,1.6,22.421a414.489,414.489,0,0,0,6.542,44.409,268.077,268.077,0,0,0,12.381,42.948c1.339,3.468,2.8,6.88,4.351,10.249s3.209,6.679,4.993,9.914a120.679,120.679,0,0,0,12.24,18.322l0,0a.725.725,0,0,1-.077.99.653.653,0,0,1-.948-.08l0,0a122.1,122.1,0,0,1-12.3-18.587q-2.679-4.909-4.991-10.02c-1.544-3.4-3-6.843-4.337-10.338a269.241,269.241,0,0,1-12.25-43.191,415.411,415.411,0,0,1-6.366-44.541q-1.016-11.212-1.5-22.465c-.32-7.5-.5-15-.376-22.52a.285.285,0,1,1,.569.01Z" transform="translate(-989.784 -810.555)" fill="url(#linear-gradient)"/>
    </g>
    <g id="Grupo_11086" data-name="Grupo 11086" transform="translate(666.578 499.48)">
      <g id="Grupo_11082" data-name="Grupo 11082" transform="translate(0 32.087)" opacity="0.6">
        <path id="Trazado_2713" data-name="Trazado 2713" d="M3128.253,1440.947a.693.693,0,0,1-.169.813q-.423.373-.857.735a.693.693,0,0,1-.885-1.066q.419-.348.826-.707a.692.692,0,0,1,.978.061A.682.682,0,0,1,3128.253,1440.947Z" transform="translate(-3062.81 -1405.093)" fill="#91b3fa"/>
        <path id="Trazado_2714" data-name="Trazado 2714" d="M2631.02,1204.709a.693.693,0,0,1-.239.866c-.632.431-1.286.848-1.942,1.24a.693.693,0,0,1-.711-1.19c.633-.378,1.263-.781,1.873-1.2a.693.693,0,0,1,.963.182A.767.767,0,0,1,2631.02,1204.709Zm-5.151,2.952a.692.692,0,0,1-.33.919l-.227.107c-.614.287-1.247.563-1.882.821a.693.693,0,0,1-.522-1.284c.613-.249,1.224-.516,1.816-.793l.219-.1a.693.693,0,0,1,.924.328Zm-5.539,2.133a.742.742,0,0,1,.036.095.693.693,0,0,1-.465.863c-.733.221-1.482.422-2.224.6a.693.693,0,0,1-.32-1.349c.716-.17,1.438-.364,2.146-.577A.693.693,0,0,1,2620.33,1209.794Zm-5.8,1.266a.693.693,0,0,1-.533.981c-.756.1-1.526.188-2.29.249a.693.693,0,0,1-.109-1.382c.737-.058,1.48-.139,2.209-.24A.693.693,0,0,1,2614.531,1211.06Zm-5.924.357a.694.694,0,0,1-.64.986c-.765-.013-1.54-.05-2.3-.109a.693.693,0,1,1,.106-1.382c.737.056,1.485.091,2.222.1A.694.694,0,0,1,2608.608,1211.417Zm-5.912-.563a.693.693,0,0,1-.747.975c-.755-.131-1.515-.286-2.259-.461a.693.693,0,1,1,.317-1.349c.718.169,1.45.318,2.179.445A.693.693,0,0,1,2602.7,1210.854Zm-5.754-1.464a.693.693,0,0,1-.85.95c-.726-.245-1.452-.514-2.161-.8a.693.693,0,1,1,.52-1.285c.683.276,1.385.536,2.084.772A.692.692,0,0,1,2596.941,1209.391Zm-5.463-2.325a.693.693,0,0,1-.947.909c-.679-.353-1.356-.73-2.012-1.12a.693.693,0,0,1,.709-1.191c.633.377,1.286.74,1.941,1.081A.688.688,0,0,1,2591.479,1207.066Zm-5.042-3.13a.693.693,0,0,1-1.037.853c-.616-.451-1.227-.927-1.816-1.414a.693.693,0,0,1,.883-1.068c.568.47,1.158.929,1.752,1.364A.687.687,0,0,1,2586.436,1203.937Zm-15.722-32.833a.688.688,0,0,1,.064.324c-.033.737-.045,1.484-.035,2.223a.693.693,0,0,1-1.386.019c-.011-.766,0-1.541.036-2.3a.693.693,0,0,1,1.321-.261Zm11.22,28.969a.693.693,0,0,1-1.118.783c-.54-.541-1.07-1.1-1.576-1.676a.693.693,0,1,1,1.037-.919c.488.55,1,1.094,1.52,1.616A.691.691,0,0,1,2581.934,1200.073Zm-11.028-23.036a.69.69,0,0,1,.061.217c.081.734.185,1.474.309,2.2a.693.693,0,0,1-1.366.233c-.128-.754-.236-1.521-.32-2.282a.693.693,0,0,1,1.317-.37Zm7.177,18.527a.693.693,0,0,1-1.189.7c-.45-.619-.888-1.259-1.3-1.9a.693.693,0,0,1,1.167-.748c.4.62.819,1.237,1.254,1.834A.72.72,0,0,1,2578.083,1195.564Zm-6.071-12.694a.724.724,0,0,1,.041.113c.193.712.409,1.428.644,2.128a.693.693,0,0,1-1.314.439c-.243-.725-.467-1.467-.667-2.205a.693.693,0,0,1,1.3-.476Zm2.959,7.64a.693.693,0,0,1-1.244.61c-.348-.677-.681-1.374-.993-2.078a.693.693,0,0,1,1.268-.561c.3.68.623,1.353.958,2.006Z" transform="translate(-2569.354 -1165.92)" fill="#91b3fa"/>
        <path id="Trazado_2715" data-name="Trazado 2715" d="M2574.236,1129.022a.69.69,0,0,1,.055.411c-.061.357-.118.715-.168,1.075a.693.693,0,0,1-1.373-.2q.08-.559.175-1.115a.693.693,0,0,1,1.311-.175Z" transform="translate(-2572.357 -1128.622)" fill="#91b3fa"/>
      </g>
      <g id="Grupo_11083" data-name="Grupo 11083" transform="translate(15.606 0)" opacity="0.64">
        <path id="Trazado_2716" data-name="Trazado 2716" d="M2708.87,907.861a.693.693,0,0,1-.232.862q-.448.311-.884.635a.693.693,0,1,1-.825-1.114q.453-.336.916-.659a.693.693,0,0,1,.965.173A.662.662,0,0,1,2708.87,907.861Z" transform="translate(-2706.65 -900.512)" fill="#91b3fa"/>
        <path id="Trazado_2717" data-name="Trazado 2717" d="M2797.095,869.6l.005.012c.273.613.533,1.241.775,1.867l.088.23a.693.693,0,0,1-1.3.491l-.085-.222c-.233-.6-.484-1.21-.748-1.8a.693.693,0,0,1,1.261-.576Zm-1.624-3.232a.693.693,0,0,1-1.232.633c-.356-.633-.735-1.264-1.126-1.874a.693.693,0,1,1,1.167-.748c.406.633.8,1.286,1.167,1.943C2795.456,866.334,2795.464,866.349,2795.471,866.365Zm3.6,8.732a.689.689,0,0,1,.04.11c.2.728.382,1.469.54,2.2a.693.693,0,1,1-1.355.291c-.152-.708-.328-1.423-.521-2.125a.693.693,0,0,1,1.3-.479Zm-6.837-13.591a.693.693,0,0,1-1.174.72c-.448-.571-.918-1.137-1.4-1.681a.693.693,0,0,1,1.04-.917c.5.564.985,1.15,1.449,1.743A.725.725,0,0,1,2792.229,861.506Zm7.961,19.326a.69.69,0,0,1,.06.213c.088.748.155,1.508.2,2.26a.693.693,0,0,1-1.384.082c-.043-.725-.108-1.457-.193-2.179a.693.693,0,0,1,1.316-.375Zm-11.9-23.636a.693.693,0,0,1-1.1.8c-.528-.5-1.079-.983-1.635-1.448a.693.693,0,1,1,.888-1.064c.577.482,1.148.987,1.7,1.5A.691.691,0,0,1,2788.286,857.2Zm12.143,29.474a.68.68,0,0,1,.064.318c-.026.753-.075,1.514-.146,2.263a.693.693,0,0,1-1.38-.129c.068-.722.115-1.457.141-2.183a.693.693,0,0,1,1.321-.268Zm-16.691-33.134a.693.693,0,0,1-1.02.865c-.6-.412-1.217-.81-1.837-1.186a.693.693,0,1,1,.718-1.186c.642.389,1.283.8,1.9,1.229A.692.692,0,0,1,2783.738,853.536Zm-5.049-2.935a.693.693,0,0,1-.93.918c-.654-.317-1.325-.619-1.995-.9a.693.693,0,1,1,.532-1.28c.694.288,1.39.6,2.067.929A.691.691,0,0,1,2778.689,850.6Zm-5.434-2.144a.693.693,0,0,1-.833.955c-.693-.215-1.4-.413-2.107-.587a.693.693,0,1,1,.333-1.345c.731.181,1.466.386,2.185.609A.69.69,0,0,1,2773.255,848.457Zm-5.7-1.3a.693.693,0,0,1-.731.978c-.718-.108-1.448-.2-2.173-.263a.693.693,0,1,1,.126-1.38c.751.069,1.509.16,2.253.272A.692.692,0,0,1,2767.56,847.154Zm-5.828-.427a.694.694,0,0,1-.626.986c-.727,0-1.463.026-2.189.07a.693.693,0,1,1-.085-1.383c.753-.046,1.516-.071,2.269-.073A.694.694,0,0,1,2761.733,846.727Zm-5.826.464a.7.7,0,0,1,.057.186.693.693,0,0,1-.577.792c-.717.113-1.44.248-2.149.4a.693.693,0,1,1-.294-1.354c.735-.159,1.485-.3,2.228-.416A.693.693,0,0,1,2755.906,847.19Zm-5.685,1.341a.725.725,0,0,1,.033.085.693.693,0,0,1-.451.87c-.692.22-1.387.462-2.066.721a.693.693,0,0,1-.493-1.3c.7-.268,1.423-.519,2.139-.746A.693.693,0,0,1,2750.222,848.531Zm-5.42,2.178a.693.693,0,0,1-.323.916c-.651.32-1.3.663-1.935,1.02a.693.693,0,1,1-.682-1.207c.655-.37,1.33-.726,2.005-1.058a.693.693,0,0,1,.927.317Z" transform="translate(-2737.548 -846.327)" fill="#91b3fa"/>
        <path id="Trazado_2718" data-name="Trazado 2718" d="M3242.072,1249.427a.693.693,0,0,1,.053.422q-.106.555-.227,1.105a.693.693,0,0,1-1.354-.3q.117-.531.219-1.066a.693.693,0,0,1,1.309-.163Z" transform="translate(-3179.846 -1203.255)" fill="#91b3fa"/>
      </g>
      <g id="Grupo_11085" data-name="Grupo 11085" transform="translate(9.838 10.23)">
        <path id="Trazado_2719" data-name="Trazado 2719" d="M2713.283,975.337a.463.463,0,0,0-.091-.53l-4-3.969a24.557,24.557,0,0,0,.451-7.942l4.42-3.491a.464.464,0,0,0,.15-.516l-2.231-6.382a.464.464,0,0,0-.439-.31l-5.633.024a24.558,24.558,0,0,0-5.3-5.931l.658-5.6a.463.463,0,0,0-.259-.471l-6.09-2.935a.463.463,0,0,0-.53.091l-3.968,4a24.561,24.561,0,0,0-7.942-.451l-3.491-4.42a.462.462,0,0,0-.516-.15l-6.382,2.231a.464.464,0,0,0-.31.439l.024,5.633a24.544,24.544,0,0,0-5.931,5.3l-5.6-.658a.463.463,0,0,0-.471.259l-2.935,6.091a.462.462,0,0,0,.092.53l4,3.968a24.559,24.559,0,0,0-.451,7.942l-4.42,3.491a.463.463,0,0,0-.15.516l2.231,6.382a.464.464,0,0,0,.44.31l5.633-.024a24.56,24.56,0,0,0,5.3,5.931l-.658,5.6a.463.463,0,0,0,.259.471l6.09,2.935a.464.464,0,0,0,.53-.091l3.968-4a24.553,24.553,0,0,0,7.942.451l3.491,4.421a.464.464,0,0,0,.516.15l6.382-2.231a.463.463,0,0,0,.31-.439l-.024-5.633a24.547,24.547,0,0,0,5.931-5.3l5.6.658a.463.463,0,0,0,.471-.259Z" transform="translate(-2655.911 -936.333)" fill="#91b3fa"/>
        <g id="Grupo_11084" data-name="Grupo 11084" transform="translate(22.607 22.607)">
          <path id="Trazado_2720" data-name="Trazado 2720" d="M2867.307,1139.019a6.567,6.567,0,1,1-.476-.848A6.626,6.626,0,0,1,2867.307,1139.019Zm-10.885,5.07a5.449,5.449,0,1,0,1.935-6.851A5.411,5.411,0,0,0,2856.422,1144.089Z" transform="translate(-2854.804 -1135.229)" fill="#bdd0fb"/>
        </g>
        <path id="Trazado_2721" data-name="Trazado 2721" d="M2796.945,1056.033a16.724,16.724,0,0,1,1.287,4,.178.178,0,0,0,0,.02c.007.036.013.072.02.109,0,.005,0,.01,0,.015h0s0,.009,0,.014.006.035.01.052a.026.026,0,0,0,0,.008c0,.007,0,.014,0,.021a.037.037,0,0,0,0,.007c.009.053.018.106.026.158,0,.019.006.037.009.056.018.114.035.229.051.343.009.066.018.132.026.2a.278.278,0,0,1-.157.285.27.27,0,0,1-.083.024.277.277,0,0,1-.309-.241,16.2,16.2,0,0,0-.781-3.324,16.037,16.037,0,0,0-20.431-9.845,16.028,16.028,0,0,0-9.845,20.43,16.041,16.041,0,0,0,27.454,4.982.274.274,0,0,1,.1-.074.277.277,0,0,1,.33.428,16.592,16.592,0,1,1,2.283-17.667Z" transform="translate(-2752.892 -1033.96)" fill="#bdd0fb"/>
      </g>
    </g>
    <g id="Grupo_11091" data-name="Grupo 11091" transform="translate(630.401 472.001)">
      <g id="Grupo_11087" data-name="Grupo 11087" transform="translate(0 21.478)" opacity="0.6">
        <path id="Trazado_2722" data-name="Trazado 2722" d="M2623.4,1002.728a.694.694,0,0,1-.17.813c-.282.249-.574.5-.869.734a.693.693,0,1,1-.872-1.078c.279-.226.557-.46.824-.7a.694.694,0,0,1,1.087.227Z" transform="translate(-2579.158 -978.595)" fill="#91b3fa"/>
        <path id="Trazado_2723" data-name="Trazado 2723" d="M2291.54,856.963a.694.694,0,0,1-.272.887c-.643.385-1.311.748-1.988,1.079a.693.693,0,0,1-.609-1.245c.641-.313,1.275-.657,1.883-1.022a.694.694,0,0,1,.951.238A.679.679,0,0,1,2291.54,856.963Zm-5.248,2.4q.017.037.031.077a.693.693,0,0,1-.442.875c-.714.235-1.446.442-2.174.616a.693.693,0,0,1-.321-1.348c.69-.164,1.384-.361,2.061-.584A.694.694,0,0,1,2286.292,859.36Zm-5.645,1.184a.693.693,0,0,1-.563.984c-.749.071-1.509.109-2.258.116a.693.693,0,0,1-.011-1.386c.709-.006,1.429-.043,2.139-.11A.694.694,0,0,1,2280.647,860.544Zm-5.769-.107a.694.694,0,0,1-.719.98c-.745-.1-1.494-.229-2.227-.391a.693.693,0,1,1,.3-1.354c.694.152,1.4.277,2.111.37A.693.693,0,0,1,2274.879,860.437Zm-5.6-1.388a.693.693,0,0,1-.868.944c-.7-.26-1.405-.554-2.085-.874a.693.693,0,1,1,.589-1.254c.645.3,1.31.581,1.977.828A.69.69,0,0,1,2269.278,859.049Zm-5.154-2.59a.693.693,0,0,1-1.006.875c-.63-.41-1.249-.851-1.84-1.312a.693.693,0,0,1,.852-1.093c.561.437,1.147.856,1.744,1.244A.693.693,0,0,1,2264.124,856.459ZM2252.4,835.152a.693.693,0,0,1,.065.285c.009.711.049,1.431.119,2.139a.693.693,0,1,1-1.379.137c-.074-.748-.117-1.507-.126-2.258a.693.693,0,0,1,1.321-.3Zm7.274,17.643a.693.693,0,0,1-1.126.776c-.523-.54-1.028-1.108-1.5-1.688a.693.693,0,1,1,1.074-.876c.449.55.927,1.088,1.423,1.6A.685.685,0,0,1,2259.673,852.8Zm-6.554-11.92a.687.687,0,0,1,.046.131c.167.691.367,1.384.593,2.06a.693.693,0,1,1-1.314.439c-.238-.713-.448-1.444-.626-2.173a.693.693,0,0,1,1.3-.458Zm3.031,7.354a.693.693,0,0,1-1.221.652c-.388-.64-.753-1.307-1.087-1.981l-.007-.014a.693.693,0,0,1,1.249-.6c.316.64.663,1.272,1.031,1.878A.7.7,0,0,1,2256.15,848.23Z" transform="translate(-2251.077 -830.067)" fill="#91b3fa"/>
        <path id="Trazado_2724" data-name="Trazado 2724" d="M2254.379,793.93a.688.688,0,0,1,.055.411c-.061.352-.115.711-.16,1.066a.693.693,0,0,1-1.375-.176c.048-.375.1-.754.169-1.125a.693.693,0,0,1,1.311-.175Z" transform="translate(-2252.687 -793.53)" fill="#91b3fa"/>
      </g>
      <g id="Grupo_11088" data-name="Grupo 11088" transform="translate(10.444 0)" opacity="0.64">
        <path id="Trazado_2725" data-name="Trazado 2725" d="M2345.185,644.066a.693.693,0,0,1-.24.867c-.3.2-.595.412-.88.623a.693.693,0,0,1-.825-1.114c.3-.223.614-.445.93-.658a.693.693,0,0,1,.962.186A.671.671,0,0,1,2345.185,644.066Z" transform="translate(-2342.959 -639.222)" fill="#91b3fa"/>
        <path id="Trazado_2726" data-name="Trazado 2726" d="M2413.838,619.836c.123.267.25.546.369.824a.693.693,0,0,1-1.264.567c0-.007-.007-.014-.01-.021q-.168-.392-.347-.776l0-.007c-.176-.376-.364-.753-.558-1.121a.693.693,0,1,1,1.225-.649C2413.454,619.041,2413.652,619.439,2413.838,619.836Zm1.522,4.124a.734.734,0,0,1,.04.11c.2.713.366,1.442.5,2.167a.693.693,0,0,1-1.362.256c-.129-.687-.289-1.379-.475-2.054a.693.693,0,0,1,1.3-.479Zm-3.951-8.264a.693.693,0,0,1-1.191.7c-.409-.568-.847-1.125-1.3-1.656a.693.693,0,0,1,1.053-.9c.48.561.943,1.149,1.375,1.749A.682.682,0,0,1,2411.409,615.7Zm4.85,13.87a.69.69,0,0,1,.064.26c.035.738.04,1.487.013,2.225a.693.693,0,1,1-1.385-.051c.026-.7.021-1.408-.012-2.108a.693.693,0,0,1,1.32-.326Zm-8.654-18.08a.693.693,0,0,1-1.088.812c-.523-.464-1.072-.911-1.634-1.33a.693.693,0,0,1,.829-1.111c.593.442,1.173.914,1.725,1.4A.691.691,0,0,1,2407.605,611.487Zm-4.635-3.275a.693.693,0,0,1-.963.9c-.613-.339-1.247-.656-1.886-.943a.693.693,0,0,1,.568-1.265c.673.3,1.343.637,1.989.995A.689.689,0,0,1,2402.97,608.212Zm-5.237-2.189a.693.693,0,0,1-.823.958c-.672-.2-1.36-.37-2.045-.51a.693.693,0,1,1,.279-1.358c.723.149,1.449.33,2.158.539A.69.69,0,0,1,2397.733,606.023Zm-5.588-1a.694.694,0,0,1-.674.984c-.7-.046-1.407-.063-2.108-.05a.693.693,0,1,1-.026-1.386c.739-.014,1.488,0,2.225.053A.693.693,0,0,1,2392.145,605.027Zm-5.674.254a.693.693,0,0,1-.52.978c-.69.108-1.385.248-2.066.414a.693.693,0,0,1-.329-1.346c.719-.176,1.452-.323,2.18-.437A.693.693,0,0,1,2386.471,605.281Zm-5.476,1.491c.006.013.012.027.018.041a.693.693,0,0,1-.391.9c-.493.194-.984.4-1.46.627-.157.074-.313.148-.468.225a.693.693,0,0,1-.928-.315l-.006-.014a.693.693,0,0,1,.321-.914q.245-.121.494-.238c.5-.235,1.021-.457,1.541-.662A.692.692,0,0,1,2380.995,606.772Z" transform="translate(-2373.745 -604.571)" fill="#91b3fa"/>
        <path id="Trazado_2727" data-name="Trazado 2727" d="M2701.862,871.356a.691.691,0,0,1,.054.413c-.066.373-.14.749-.221,1.117a.693.693,0,1,1-1.353-.3c.077-.348.147-.7.209-1.057a.693.693,0,0,1,1.311-.173Z" transform="translate(-2659.707 -840.677)" fill="#91b3fa"/>
      </g>
      <g id="Grupo_11090" data-name="Grupo 11090" transform="translate(6.813 7.077)">
        <path id="Trazado_2728" data-name="Trazado 2728" d="M2349.417,692.942a.31.31,0,0,0-.061-.355l-2.679-2.656a16.438,16.438,0,0,0,.3-5.316l2.959-2.337a.31.31,0,0,0,.1-.345l-1.493-4.272a.311.311,0,0,0-.294-.208l-3.77.016a16.434,16.434,0,0,0-3.549-3.97l.44-3.747a.31.31,0,0,0-.173-.315l-4.077-1.965a.31.31,0,0,0-.355.061l-2.656,2.679a16.43,16.43,0,0,0-5.316-.3l-2.337-2.959a.31.31,0,0,0-.345-.1l-4.272,1.494a.31.31,0,0,0-.208.294l.016,3.77a16.437,16.437,0,0,0-3.97,3.549l-3.747-.44a.31.31,0,0,0-.315.173l-1.965,4.077a.31.31,0,0,0,.061.355l2.679,2.656a16.43,16.43,0,0,0-.3,5.316l-2.959,2.337a.31.31,0,0,0-.1.346l1.494,4.272a.31.31,0,0,0,.294.208l3.771-.016a16.435,16.435,0,0,0,3.549,3.97l-.441,3.747a.309.309,0,0,0,.174.315l4.076,1.965a.31.31,0,0,0,.355-.061l2.656-2.679a16.427,16.427,0,0,0,5.316.3l2.337,2.959a.31.31,0,0,0,.346.1l4.272-1.494a.31.31,0,0,0,.208-.294l-.017-3.77a16.434,16.434,0,0,0,3.97-3.549l3.747.44a.311.311,0,0,0,.316-.173Z" transform="translate(-2311.014 -666.834)" fill="#91b3fa"/>
        <g id="Grupo_11089" data-name="Grupo 11089" transform="translate(14.669 14.669)">
          <path id="Trazado_2729" data-name="Trazado 2729" d="M2449.323,798.7a4.869,4.869,0,1,1-.352-.628A4.894,4.894,0,0,1,2449.323,798.7Zm-7.289,3.389a3.289,3.289,0,0,0,.231.412,3.187,3.187,0,0,0,5.318-3.512h0a3.187,3.187,0,0,0-5.549,3.1Z" transform="translate(-2440.073 -795.892)" fill="#bdd0fb"/>
        </g>
        <path id="Trazado_2730" data-name="Trazado 2730" d="M2404.787,746.2q.238.511.429,1.054h0a11.3,11.3,0,0,1,.545,2.321.277.277,0,0,1-.55.068A10.644,10.644,0,1,0,2398.159,761a10.65,10.65,0,0,0,4.661-3.227.274.274,0,0,1,.1-.074.277.277,0,0,1,.331.429,11.2,11.2,0,1,1-13.351-17.313,11.2,11.2,0,0,1,14.893,5.39Z" transform="translate(-2375.215 -731.467)" fill="#bdd0fb"/>
      </g>
    </g>
    <g id="Grupo_11094" data-name="Grupo 11094" transform="translate(448.067 696.438)">
      <g id="Grupo_11092" data-name="Grupo 11092" transform="translate(0)">
        <path id="Rectángulo_2721" data-name="Rectángulo 2721" d="M14.433,0H206.149a14.434,14.434,0,0,1,14.434,14.434V38.811a14.434,14.434,0,0,1-14.434,14.434H14.434A14.434,14.434,0,0,1,0,38.811V14.433A14.433,14.433,0,0,1,14.433,0Z" fill="url(#linear-gradient-3)"/>
        <rect id="Rectángulo_2722" data-name="Rectángulo 2722" width="25.913" height="41.006" rx="4.886" transform="translate(180.21 4.776)" opacity="0.56" fill="url(#linear-gradient-4)"/>
        <rect id="Rectángulo_2723" data-name="Rectángulo 2723" width="9.723" height="41.006" rx="3.974" transform="translate(158.515 5.843)" opacity="0.56" fill="url(#linear-gradient-5)"/>
      </g>
      <g id="Grupo_11093" data-name="Grupo 11093" transform="translate(62.083 12.285)">
        <path id="Trazado_2731" data-name="Trazado 2731" d="M1193.12,2718.443v-30.121h5.6v25.218h7.767v4.9Z" transform="translate(-1193.12 -2688.198)" fill="url(#linear-gradient-6)"/>
        <path id="Trazado_2732" data-name="Trazado 2732" d="M1335.83,2717.479l-1.731-7.6h-7.849l-1.73,7.6h-5.6l7.458-30.245h7.6l7.479,30.245Zm-2.781-12.567-1.607-7.005q-.144-.638-.649-3.2t-.608-3.43q-.268,1.772-.68,3.9t-2.143,9.735Z" transform="translate(-1304.617 -2687.234)" fill="url(#linear-gradient-7)"/>
        <path id="Trazado_2733" data-name="Trazado 2733" d="M1547.735,2718.443h-7l-2.946-15.781a55.116,55.116,0,0,1-.968-7.644l-.165,1.525-.845,6.2-2.864,15.7h-7.005l-5.459-30.121h5.5l2.7,17q.391,2.555,1.051,8.014.515-5.521.968-7.891l3.214-17.121h5.81l3.214,17.121q.638,3.812,1.01,7.932.721-6.1,1.051-8.056l2.616-17h5.542Z" transform="translate(-1483.269 -2688.198)" fill="url(#linear-gradient-8)"/>
      </g>
    </g>
    <g id="Grupo_11095" data-name="Grupo 11095" transform="translate(430.337 470.792)">
      <path id="Trazado_2734" data-name="Trazado 2734" d="M1489.6,820.078h-20.573l9.241-226.14,1.277.159Z" transform="translate(-1357.85 -593.939)" fill="url(#linear-gradient-9)"/>
      <rect id="Rectángulo_2724" data-name="Rectángulo 2724" width="96.349" height="9.657" transform="translate(73.145 197.17)" fill="url(#linear-gradient-10)"/>
      <rect id="Rectángulo_2725" data-name="Rectángulo 2725" width="113.461" height="9.657" transform="translate(64.961 206.826)" fill="url(#linear-gradient-11)"/>
      <rect id="Rectángulo_2726" data-name="Rectángulo 2726" width="130.573" height="9.657" transform="translate(56.033 216.483)" fill="url(#linear-gradient-12)"/>
      <rect id="Rectángulo_2727" data-name="Rectángulo 2727" width="152.621" height="3.828" transform="translate(48.883 50.013)" fill="url(#linear-gradient-13)"/>
      <path id="Trazado_2735" data-name="Trazado 2735" d="M523.977,1082.858l-1.255-.94L570.6,1018.03,606.742,1082l-1.365.771-34.963-61.882Z" transform="translate(-519.108 -969.826)" fill="url(#linear-gradient-14)"/>
      <circle id="Elipse_530" data-name="Elipse 530" cx="5.077" cy="5.077" r="5.077" transform="translate(44.219 51.232) rotate(-45)" fill="url(#linear-gradient-15)"/>
      <path id="Trazado_2736" data-name="Trazado 2736" d="M1826.546,1094.787l-1.255-.94,47.877-63.888,36.144,63.973-1.365.771-34.963-61.882Z" transform="translate(-1673.622 -980.399)" fill="url(#linear-gradient-14)"/>
      <circle id="Elipse_531" data-name="Elipse 531" cx="14.686" cy="14.686" r="14.686" transform="translate(100.457 54.233) rotate(-45)" fill="url(#linear-gradient-17)"/>
      <circle id="Elipse_532" data-name="Elipse 532" cx="5.077" cy="5.077" r="5.077" transform="translate(192.114 55.301) rotate(-76.717)" fill="url(#linear-gradient-15)"/>
      <path id="Trazado_2737" data-name="Trazado 2737" d="M1872.167,1637.532a41.355,41.355,0,0,0,41.355-41.355h-82.71A41.355,41.355,0,0,0,1872.167,1637.532Z" transform="translate(-1678.516 -1482.259)" fill="url(#linear-gradient-19)"/>
      <rect id="Rectángulo_2728" data-name="Rectángulo 2728" width="90.181" height="6.298" rx="3.149" transform="translate(148.054 109.659)" fill="url(#linear-gradient-20)"/>
      <path id="Trazado_2738" data-name="Trazado 2738" d="M569.6,1625.6a41.355,41.355,0,0,0,41.355-41.355h-82.71A41.355,41.355,0,0,0,569.6,1625.6Z" transform="translate(-524.002 -1471.686)" fill="url(#linear-gradient-21)"/>
      <rect id="Rectángulo_2729" data-name="Rectángulo 2729" width="90.181" height="6.298" rx="3.149" transform="translate(0 108.303)" fill="url(#linear-gradient-22)"/>
    </g>
    <g id="Grupo_11100" data-name="Grupo 11100" transform="translate(687.24 609.147)">
      <path id="Trazado_2739" data-name="Trazado 2739" d="M3119.1,2338.371a22.473,22.473,0,0,0,5.228,3.822,43.437,43.437,0,0,1-9.556,8.5l-1.182,2.653-3.788-4.539S3116.6,2345.422,3119.1,2338.371Z" transform="translate(-3069.037 -2278.448)" fill="url(#linear-gradient-23)"/>
      <path id="Trazado_2740" data-name="Trazado 2740" d="M3013.28,3032.35a.935.935,0,0,1,.025-.247c1.227-4.863,7.315-7.893,7.315-7.893l2.413.189c1.387,4.287,1.209,6.916.986,8.087-.006.033-.016.064-.025.1A57.289,57.289,0,0,1,3013.28,3032.35Z" transform="translate(-2983.483 -2886.333)" fill="url(#linear-gradient-24)"/>
      <path id="Trazado_2741" data-name="Trazado 2741" d="M3024,3096.048a1.047,1.047,0,0,1-.766.773c-2.831.6-7.331.116-9.22-.132a.878.878,0,0,1-.729-.875A57.257,57.257,0,0,0,3024,3096.048Z" transform="translate(-2983.484 -2949.798)" fill="url(#linear-gradient-25)"/>
      <path id="Trazado_2742" data-name="Trazado 2742" d="M3075.591,2994.258l-1.022,4.919a.8.8,0,0,1-.687.662,6.827,6.827,0,0,1-1.583-.025,1.011,1.011,0,0,1-.8-1.188l.71-4.367Z" transform="translate(-3035.071 -2859.785)" fill="url(#linear-gradient-26)"/>
      <path id="Trazado_2743" data-name="Trazado 2743" d="M2835.647,3092.127a14.384,14.384,0,0,0,4.756-.679c0,.265,0,.535-.009.815a.525.525,0,0,1-.5.534l-14.631-.094a.668.668,0,0,1-.537-.972C2826.642,3091.888,2831.528,3092.243,2835.647,3092.127Z" transform="translate(-2816.3 -2945.928)" fill="url(#linear-gradient-27)"/>
      <path id="Trazado_2744" data-name="Trazado 2744" d="M2825.251,3038.029a.731.731,0,0,1,.058-.11,18.649,18.649,0,0,1,11.086-6.959l3.119-.1a14.967,14.967,0,0,1,1.416,6.886,14.405,14.405,0,0,1-4.755.68C2832.055,3038.542,2827.169,3038.187,2825.251,3038.029Z" transform="translate(-2816.826 -2892.227)" fill="url(#linear-gradient-28)"/>
      <path id="Trazado_2745" data-name="Trazado 2745" d="M2924.3,2983.368c-.034.232-.462,3.767-.627,5.137a.679.679,0,0,1-.573.613,7.155,7.155,0,0,1-2.143-.033.923.923,0,0,1-.7-.926v-5.547Z" transform="translate(-2901.037 -2849.461)" fill="url(#linear-gradient-29)"/>
      <path id="Trazado_2746" data-name="Trazado 2746" d="M2920.219,2421.839a277.79,277.79,0,0,0-7.388,64.578,1.392,1.392,0,0,0,1.1,1.357,16.207,16.207,0,0,0,3.488.4,1.292,1.292,0,0,0,1.231-1.079c1.055-6.187,7.109-41.041,10.559-46.7,0,0,2.269,31.042,1.544,47.147a.763.763,0,0,0,.673.794,12.793,12.793,0,0,0,2.8-.008,1.023,1.023,0,0,0,.91-.867c.751-5.237,5.077-36.4,4.893-58.855-.01-1.267-3.349-6.772-3.349-6.772Z" transform="translate(-2894.451 -2352.428)" fill="url(#linear-gradient-30)"/>
      <path id="Trazado_2747" data-name="Trazado 2747" d="M2930.008,2041.52a10.854,10.854,0,0,1,9.524-12.993c7.128-.754,14.254.829,17.776,1.273a7.282,7.282,0,0,1,4.6,2.469c4.671,5.406,14.922,20.206,2.856,35.12a22.449,22.449,0,0,1-5.228-3.822c1.334-3.763,1.444-8.572-1.354-14.468a13.64,13.64,0,0,1-.357,1.386,85.817,85.817,0,0,0-4.053,24.719.765.765,0,0,1-.467.718c-5.069,2.044-14.857.831-18.14.342a1.1,1.1,0,0,1-.923-1.251C2935.336,2067.095,2932.094,2051.528,2930.008,2041.52Z" transform="translate(-2909.472 -2003.643)" fill="url(#linear-gradient-31)"/>
      <path id="Trazado_2748" data-name="Trazado 2748" d="M3026.741,1952.724l.978,9.992s-5.621,1.693-9.709-1.192l2.874-9.081Z" transform="translate(-2987.676 -1936.386)" fill="url(#linear-gradient-32)"/>
      <g id="Grupo_11096" data-name="Grupo 11096" transform="translate(25.078 0)">
        <path id="Trazado_2749" data-name="Trazado 2749" d="M2992.922,1851.439c-.135.127-5.709,11.074-5.709,11.074l6.318,3.05,6.824-9.59S2995.187,1849.307,2992.922,1851.439Z" transform="translate(-2985.458 -1846.489)" fill="url(#linear-gradient-33)"/>
        <path id="Trazado_2750" data-name="Trazado 2750" d="M2983.874,1820.923a1.01,1.01,0,0,1-.076.885l-3.151,5.253a.992.992,0,0,1-.173.215c-.375.349-1.658,1.365-2.651-.018a8.9,8.9,0,0,0-2.489-2.692,1.007,1.007,0,0,0-1.36.448,37.652,37.652,0,0,0-2.156,5.115,1,1,0,0,0,.584,1.23,27.952,27.952,0,0,0,6.052,1.765,1.007,1.007,0,0,0,.953-.405c.965-1.323,3.686-5.018,4.615-5.943.863-.86,2.455-.535,3.172-.329a1.012,1.012,0,0,0,.805-.106,2.22,2.22,0,0,0,.836-3.379,1.009,1.009,0,0,1,.312-1.37,2.229,2.229,0,0,0,.854-3.163,3.144,3.144,0,0,0-3.4-1.667,1.046,1.046,0,0,1-1.1-.61.667.667,0,0,0-.52-.41.978.978,0,0,1-.792-1.149,2.581,2.581,0,0,0-1.441-2.957c-2.726-1.5-5.114.943-5.721,3.005s2.441,3.519,4.358,3.761C2982.791,1818.582,2983.563,1820.119,2983.874,1820.923Z" transform="translate(-2971.772 -1811.174)" fill="url(#linear-gradient-34)"/>
        <path id="Trazado_2751" data-name="Trazado 2751" d="M3069.127,1938.745s1.212-3.547,2.764-3.417,2.773,1.676.85,3.413C3070.349,1940.9,3069.127,1938.745,3069.127,1938.745Z" transform="translate(-3058.061 -1921.214)" fill="url(#linear-gradient-35)"/>
      </g>
      <path id="Trazado_2752" data-name="Trazado 2752" d="M3180.04,2106.167c2.045-5.6,1.3-12.356,1.3-12.424l-.563.064c.008.066.734,6.7-1.265,12.165Z" transform="translate(-3130.817 -2061.626)" fill="url(#linear-gradient-36)"/>
      <path id="Trazado_2753" data-name="Trazado 2753" d="M3057.205,2533.323a.284.284,0,0,0,.274-.212c.624-2.406,5.3-5.051,5.343-5.078a.284.284,0,0,0-.278-.495c-.2.112-4.93,2.79-5.615,5.43a.284.284,0,0,0,.2.346A.29.29,0,0,0,3057.205,2533.323Z" transform="translate(-3022.165 -2446.082)" fill="url(#linear-gradient-37)"/>
      <g id="Grupo_11099" data-name="Grupo 11099" transform="translate(0 27.214)">
        <g id="Grupo_11097" data-name="Grupo 11097" transform="translate(0 50.91)">
          <path id="Trazado_2754" data-name="Trazado 2754" d="M2785.384,2610.327l-.324,10.061a3.274,3.274,0,0,1-3.259,3.161l-24.092.142a2.361,2.361,0,0,1-2.354-2.01,44.2,44.2,0,0,1-.316-11.353Z" transform="translate(-2754.38 -2597.616)" fill="url(#linear-gradient-38)"/>
          <path id="Trazado_2755" data-name="Trazado 2755" d="M2763.8,2622.761a.036.036,0,0,1,.036-.036l.218,0h0a.036.036,0,0,1,0,.073h-.218A.036.036,0,0,1,2763.8,2622.761Zm.726,0a.037.037,0,0,1,.037-.037h.218a.036.036,0,0,1,0,.073h-.218A.036.036,0,0,1,2764.526,2622.757Zm.726,0a.036.036,0,0,1,.036-.037h.218a.036.036,0,0,1,.036.036.036.036,0,0,1-.036.037h-.218A.036.036,0,0,1,2765.252,2622.753Zm.726,0a.036.036,0,0,1,.036-.036l.218,0h0a.037.037,0,0,1,.037.036.036.036,0,0,1-.036.036l-.218,0h0A.036.036,0,0,1,2765.978,2622.749Zm.726,0a.036.036,0,0,1,.036-.036h.218a.04.04,0,0,1,.037.036.037.037,0,0,1-.037.037h-.218A.037.037,0,0,1,2766.7,2622.744Zm.725,0a.037.037,0,0,1,.037-.037h.218a.036.036,0,0,1,.036.036.036.036,0,0,1-.036.036h-.218A.037.037,0,0,1,2767.429,2622.74Zm.726,0a.036.036,0,0,1,.036-.036h.218a.036.036,0,0,1,.036.036.036.036,0,0,1-.035.036h-.219A.036.036,0,0,1,2768.156,2622.736Zm.726,0a.036.036,0,0,1,.036-.037h.218a.036.036,0,0,1,0,.073h-.218A.036.036,0,0,1,2768.882,2622.732Zm.726,0a.036.036,0,0,1,.036-.037h.218a.037.037,0,0,1,.036.036.036.036,0,0,1-.036.036h-.218A.036.036,0,0,1,2769.607,2622.728Zm.726,0a.036.036,0,0,1,.036-.036h.218a.036.036,0,0,1,.037.036.037.037,0,0,1-.037.037h-.218A.037.037,0,0,1,2770.333,2622.723Zm.726,0a.036.036,0,0,1,.036-.037h.218a.037.037,0,0,1,.037.036.036.036,0,0,1-.036.037h-.218A.036.036,0,0,1,2771.059,2622.719Zm-7.734.034a2.1,2.1,0,0,1-.214-.053.036.036,0,1,1,.021-.07c.068.02.138.038.208.052a.036.036,0,0,1-.007.072Zm8.46-.039a.036.036,0,0,1,.036-.037h.218a.036.036,0,0,1,.036.036.037.037,0,0,1-.036.037h-.218A.036.036,0,0,1,2771.785,2622.714Zm.726,0a.036.036,0,0,1,.036-.036h.218a.036.036,0,0,1,.036.036.036.036,0,0,1-.036.037h-.218A.037.037,0,0,1,2772.51,2622.71Zm.726,0a.037.037,0,0,1,.036-.037l.219,0h0a.037.037,0,0,1,.037.036.038.038,0,0,1-.037.037h-.218A.037.037,0,0,1,2773.236,2622.706Zm.726,0a.036.036,0,0,1,.036-.037h.218a.036.036,0,1,1,0,.073H2774A.036.036,0,0,1,2773.962,2622.7Zm.726,0a.036.036,0,0,1,.035-.036h.219a.036.036,0,0,1,0,.073h-.218A.036.036,0,0,1,2774.688,2622.7Zm.725,0a.036.036,0,0,1,.036-.037h.218a.036.036,0,1,1,0,.073h-.218A.036.036,0,0,1,2775.413,2622.693Zm.726,0a.036.036,0,0,1,.036-.036l.218,0h0a.036.036,0,0,1,.036.036.035.035,0,0,1-.036.036l-.218,0h0A.036.036,0,0,1,2776.139,2622.688Zm.726,0a.037.037,0,0,1,.036-.036h.218a.04.04,0,0,1,.036.036.037.037,0,0,1-.036.037h-.218A.036.036,0,0,1,2776.865,2622.684Zm.726,0a.036.036,0,0,1,.036-.037h.218a.036.036,0,0,1,0,.073h-.218A.036.036,0,0,1,2777.591,2622.68Zm.726,0a.036.036,0,0,1,.035-.036l.218,0h0a.037.037,0,0,1,.037.036.036.036,0,0,1-.036.036l-.218,0h0A.036.036,0,0,1,2778.317,2622.676Zm.726,0a.036.036,0,0,1,.036-.036h.218a.037.037,0,0,1,0,.073h-.218A.036.036,0,0,1,2779.043,2622.672Zm.725,0a.037.037,0,0,1,.037-.037h.218a.036.036,0,0,1,0,.073h-.218A.036.036,0,0,1,2779.768,2622.667Zm.726,0a.036.036,0,0,1,.036-.036l.218,0h0a.037.037,0,0,1,.037.036.037.037,0,0,1-.036.037h-.219A.037.037,0,0,1,2780.494,2622.663Zm.726,0a.036.036,0,0,1,.036-.036h.218a.036.036,0,1,1,0,.073h-.218A.036.036,0,0,1,2781.22,2622.658Zm.726,0a.036.036,0,0,1,.036-.037h.218a.036.036,0,0,1,.036.036.036.036,0,0,1-.036.036h-.218A.036.036,0,0,1,2781.946,2622.655Zm.726,0a.036.036,0,0,1,.036-.036h.218a.035.035,0,0,1,.037.036.037.037,0,0,1-.036.036l-.218,0h0A.036.036,0,0,1,2782.671,2622.65Zm.726,0a.036.036,0,0,1,.036-.037h.218a.036.036,0,1,1,0,.073h-.218A.036.036,0,0,1,2783.4,2622.646Zm.726,0a.036.036,0,0,1,.036-.037h.218a.037.037,0,0,1,.036.036.036.036,0,0,1-.036.036h-.218A.036.036,0,0,1,2784.123,2622.642Zm.726,0a.036.036,0,0,1,.036-.036h.218a.036.036,0,0,1,.036.036.036.036,0,0,1-.036.037h-.218A.036.036,0,0,1,2784.849,2622.637Zm.726,0a.037.037,0,0,1,.036-.036h.219a.036.036,0,0,1,0,.073l-.218,0h0A.037.037,0,0,1,2785.574,2622.633Zm.726,0a.036.036,0,0,1,.036-.036l.218,0h0a.036.036,0,0,1,.037.036.037.037,0,0,1-.037.036h-.218A.036.036,0,0,1,2786.3,2622.629Zm.725-.02a.036.036,0,0,1,.032-.04c.071-.008.143-.019.212-.032a.036.036,0,1,1,.014.071c-.072.014-.145.024-.217.033h0A.037.037,0,0,1,2787.025,2622.609Zm-24.389-.113c-.064-.037-.127-.077-.187-.119a.036.036,0,0,1,.042-.059c.058.041.119.08.181.115a.036.036,0,0,1,.014.05.036.036,0,0,1-.031.018A.035.035,0,0,1,2762.637,2622.5Zm25.095-.046a.036.036,0,0,1,.022-.046c.066-.024.134-.052.2-.08a.036.036,0,0,1,.048.018.037.037,0,0,1-.019.048c-.067.029-.135.058-.2.082l-.013,0A.037.037,0,0,1,2787.732,2622.451Zm.651-.316a.037.037,0,0,1,.01-.051c.06-.039.12-.081.176-.124a.036.036,0,0,1,.051.007.037.037,0,0,1-.007.051c-.058.044-.118.087-.18.127a.038.038,0,0,1-.02.006A.036.036,0,0,1,2788.383,2622.135Zm-26.317-.1c-.049-.055-.1-.113-.14-.172a.036.036,0,0,1,.008-.051.035.035,0,0,1,.05.008c.042.057.088.113.135.166a.036.036,0,0,1-.027.06A.034.034,0,0,1,2762.066,2622.036Zm26.878-.359a.037.037,0,0,1,0-.052c.049-.052.1-.106.143-.161a.036.036,0,0,1,.051-.005.036.036,0,0,1,0,.051c-.046.056-.1.112-.146.165a.037.037,0,0,1-.051,0Zm-27.273-.26a2.128,2.128,0,0,1-.077-.208.036.036,0,0,1,.069-.022,2.068,2.068,0,0,0,.075.2.036.036,0,0,1-.019.047.03.03,0,0,1-.015,0A.036.036,0,0,1,2761.67,2621.417Zm27.713-.315a.037.037,0,0,1-.013-.05c.036-.062.071-.126.1-.19a.037.037,0,0,1,.049-.017.037.037,0,0,1,.017.049c-.032.065-.067.131-.1.194a.036.036,0,0,1-.031.019A.043.043,0,0,1,2789.384,2621.1Zm-27.894-.395c-.01-.07-.021-.142-.031-.215a.036.036,0,0,1,.031-.041.036.036,0,0,1,.041.031c.01.073.021.146.031.216a.037.037,0,0,1-.031.041h0A.036.036,0,0,1,2761.49,2620.708Zm28.19-.267a.037.037,0,0,1-.025-.045c.021-.068.039-.138.055-.208a.037.037,0,0,1,.043-.028.037.037,0,0,1,.027.044q-.024.107-.055.213a.036.036,0,0,1-.035.026Zm-28.289-.453c-.009-.071-.018-.142-.028-.216a.036.036,0,1,1,.072-.009c.009.073.019.145.028.216a.036.036,0,0,1-.031.041h0A.036.036,0,0,1,2761.39,2619.988Zm28.422-.259a.036.036,0,0,1-.035-.038c0-.024,0-.049,0-.073l.005-.144a.037.037,0,0,1,.038-.035.036.036,0,0,1,.035.038l0,.144c0,.025,0,.05,0,.074a.036.036,0,0,1-.036.034Zm-28.511-.461-.024-.217a.036.036,0,0,1,.032-.04.036.036,0,0,1,.04.032c.008.073.017.145.025.217a.036.036,0,0,1-.032.04h0A.037.037,0,0,1,2761.3,2619.267Zm28.536-.264a.035.035,0,0,1-.035-.037l.007-.218a.036.036,0,0,1,.038-.035.037.037,0,0,1,.035.037l-.007.218a.036.036,0,0,1-.036.034Zm-28.614-.458c-.007-.072-.015-.144-.022-.217a.037.037,0,0,1,.033-.04.036.036,0,0,1,.04.032c.007.073.015.145.021.217a.035.035,0,0,1-.032.039h0A.036.036,0,0,1,2761.222,2618.545Zm28.638-.267a.037.037,0,0,1-.035-.038l.007-.218a.038.038,0,0,1,.038-.034.035.035,0,0,1,.035.037l-.007.218a.037.037,0,0,1-.036.036Zm-28.706-.457c-.006-.072-.012-.144-.019-.217a.037.037,0,0,1,.033-.039.037.037,0,0,1,.039.033c.006.073.012.145.019.217a.036.036,0,0,1-.033.039h0A.036.036,0,0,1,2761.154,2617.821Zm28.729-.269a.037.037,0,0,1-.035-.038l.007-.218a.039.039,0,0,1,.038-.035.036.036,0,0,1,.035.038l-.007.218a.036.036,0,0,1-.036.035Zm-28.787-.455c-.005-.072-.01-.145-.015-.218a.036.036,0,0,1,.033-.039.037.037,0,0,1,.039.033c.005.073.01.146.015.217a.037.037,0,0,1-.034.04h0A.037.037,0,0,1,2761.1,2617.1Zm28.81-.27a.036.036,0,0,1-.035-.038l.007-.217a.037.037,0,0,1,.038-.035.036.036,0,0,1,.035.037l-.007.218a.036.036,0,0,1-.036.035Zm-28.857-.455c0-.072-.008-.145-.012-.218a.036.036,0,0,1,.035-.038.034.034,0,0,1,.038.034c0,.073.008.145.012.218a.036.036,0,0,1-.034.038h0A.036.036,0,0,1,2761.049,2616.372Zm28.88-.271a.036.036,0,0,1-.035-.037l.007-.218a.037.037,0,0,1,.037-.035.036.036,0,0,1,.035.037l-.007.218a.037.037,0,0,1-.037.035Zm-28.916-.455c0-.073-.006-.145-.009-.218a.036.036,0,0,1,.036-.037.036.036,0,0,1,.037.034c0,.073.006.146.009.218a.037.037,0,0,1-.035.038h0A.036.036,0,0,1,2761.014,2615.647Zm28.939-.27a.037.037,0,0,1-.035-.038l.007-.218a.036.036,0,0,1,.073,0l-.007.218a.037.037,0,0,1-.036.036Zm-28.962-.456c0-.073,0-.145,0-.218a.037.037,0,0,1,.036-.037h0a.036.036,0,0,1,.036.036c0,.073,0,.145.005.217a.037.037,0,0,1-.036.038h0A.036.036,0,0,1,2760.99,2614.921Zm28.986-.27a.037.037,0,0,1-.034-.038l.007-.218a.038.038,0,0,1,.037-.035.037.037,0,0,1,.035.038l-.007.218a.037.037,0,0,1-.037.035Zm-29-.457c0-.073,0-.145,0-.218a.036.036,0,0,1,.036-.037.036.036,0,0,1,.036.037c0,.073,0,.145,0,.218a.036.036,0,0,1-.036.036h0A.036.036,0,0,1,2760.979,2614.194Zm29.02-.269a.036.036,0,0,1-.034-.038l.007-.217a.038.038,0,0,1,.038-.036.036.036,0,0,1,.035.038l-.007.218a.036.036,0,0,1-.036.035Zm-28.981-.421a.036.036,0,0,1-.036-.037c0-.073,0-.145,0-.218a.039.039,0,0,1,.037-.035.037.037,0,0,1,.036.037c0,.073,0,.146,0,.218a.036.036,0,0,1-.036.036Zm29-.3a.036.036,0,0,1-.035-.037l.007-.218a.036.036,0,0,1,.073,0l-.007.218a.037.037,0,0,1-.037.035Zm-28.988-.421a.037.037,0,0,1-.035-.038c0-.073,0-.145.008-.218a.036.036,0,0,1,.038-.035.037.037,0,0,1,.035.038c0,.072-.006.145-.008.217a.037.037,0,0,1-.037.035Zm29.011-.3a.037.037,0,0,1-.035-.038l.007-.218a.037.037,0,0,1,.038-.035.035.035,0,0,1,.034.037l-.007.218a.036.036,0,0,1-.036.036Zm-28.979-.421a.037.037,0,0,1-.034-.039c0-.073.009-.145.012-.218a.036.036,0,1,1,.073,0c0,.073-.009.145-.012.217a.036.036,0,0,1-.037.034Zm29-.3a.037.037,0,0,1-.035-.038l.007-.218a.038.038,0,0,1,.037-.035.036.036,0,0,1,.035.038l-.007.218a.036.036,0,0,1-.036.035Zm-28.955-.419a.037.037,0,0,1-.033-.04l.018-.217a.037.037,0,0,1,.04-.033.036.036,0,0,1,.032.039c-.006.072-.012.144-.018.217a.037.037,0,0,1-.037.033Zm28.978-.307a.036.036,0,0,1-.035-.037l.008-.217a.036.036,0,1,1,.073,0l-.008.218a.036.036,0,0,1-.036.034Zm-28.912-.417a.036.036,0,0,1-.032-.04c.008-.073.015-.145.023-.217a.037.037,0,0,1,.041-.032.036.036,0,0,1,.031.04c-.008.073-.016.145-.023.217a.036.036,0,0,1-.036.032Zm28.936-.308a.036.036,0,0,1-.035-.037l.007-.218a.039.039,0,0,1,.037-.035.036.036,0,0,1,.035.037l-.007.218a.036.036,0,0,1-.036.035Zm-28.711-.254a.036.036,0,0,1,.037-.036h.218a.036.036,0,0,1,.036.036.037.037,0,0,1-.036.036h-.218A.037.037,0,0,1,2761.405,2610.044Zm.726,0a.036.036,0,0,1,.036-.036h.218a.036.036,0,0,1,.036.036.037.037,0,0,1-.036.036h-.218A.036.036,0,0,1,2762.131,2610.044Zm.726,0a.036.036,0,0,1,.036-.036h.218a.036.036,0,0,1,.037.036.037.037,0,0,1-.037.036h-.218A.036.036,0,0,1,2762.857,2610.044Zm.725,0a.036.036,0,0,1,.037-.036h.218a.036.036,0,0,1,.036.036.037.037,0,0,1-.036.036h-.218A.037.037,0,0,1,2763.582,2610.044Zm.726,0a.036.036,0,0,1,.037-.036h.218a.036.036,0,0,1,.036.036.036.036,0,0,1-.036.036h-.218A.037.037,0,0,1,2764.308,2610.044Zm.726,0a.036.036,0,0,1,.036-.036h.218a.036.036,0,0,1,.036.036.036.036,0,0,1-.036.036h-.218A.037.037,0,0,1,2765.034,2610.044Zm.726,0a.036.036,0,0,1,.036-.036h.218a.036.036,0,0,1,.037.036.037.037,0,0,1-.037.036h-.218A.036.036,0,0,1,2765.76,2610.044Zm.726,0a.036.036,0,0,1,.036-.036h.218a.036.036,0,0,1,.037.036.037.037,0,0,1-.037.036h-.218A.036.036,0,0,1,2766.486,2610.044Zm.726,0a.036.036,0,0,1,.036-.036h.218a.036.036,0,0,1,.036.036.036.036,0,0,1-.036.036h-.218A.037.037,0,0,1,2767.212,2610.044Zm.726,0a.036.036,0,0,1,.037-.036h.218a.036.036,0,0,1,.036.036.036.036,0,0,1-.036.036h-.218A.037.037,0,0,1,2767.938,2610.044Zm.726,0a.036.036,0,0,1,.037-.036h.218a.036.036,0,0,1,.036.036.037.037,0,0,1-.036.036h-.218A.037.037,0,0,1,2768.664,2610.044Zm.726,0a.036.036,0,0,1,.037-.036h.217a.036.036,0,0,1,.037.036.037.037,0,0,1-.037.036h-.217A.037.037,0,0,1,2769.389,2610.044Zm.726,0a.036.036,0,0,1,.036-.036h.218a.036.036,0,0,1,.036.036.037.037,0,0,1-.036.036h-.218A.036.036,0,0,1,2770.115,2610.044Zm.726,0a.036.036,0,0,1,.036-.036h.218a.036.036,0,0,1,.036.036.037.037,0,0,1-.036.036h-.218A.037.037,0,0,1,2770.841,2610.044Zm.726,0a.036.036,0,0,1,.037-.036h.218a.036.036,0,0,1,.036.036.036.036,0,0,1-.036.036h-.218A.037.037,0,0,1,2771.567,2610.044Zm.726,0a.036.036,0,0,1,.037-.036h.218a.036.036,0,0,1,.036.036.036.036,0,0,1-.036.036h-.218A.037.037,0,0,1,2772.292,2610.044Zm.726,0a.036.036,0,0,1,.036-.036h.218a.036.036,0,0,1,.036.036.036.036,0,0,1-.036.036h-.218A.037.037,0,0,1,2773.018,2610.044Zm.726,0a.036.036,0,0,1,.036-.036H2774a.036.036,0,0,1,.036.036.037.037,0,0,1-.036.036h-.218A.036.036,0,0,1,2773.744,2610.044Zm.726,0a.036.036,0,0,1,.036-.036h.218a.036.036,0,0,1,.037.036.037.037,0,0,1-.037.036h-.218A.036.036,0,0,1,2774.47,2610.044Zm.725,0a.036.036,0,0,1,.037-.036h.218a.036.036,0,0,1,.036.036.036.036,0,0,1-.036.036h-.218A.037.037,0,0,1,2775.2,2610.044Zm.727,0a.036.036,0,0,1,.036-.036h.218a.036.036,0,0,1,.036.036.037.037,0,0,1-.036.036h-.218A.037.037,0,0,1,2775.922,2610.044Zm.726,0a.036.036,0,0,1,.036-.036h.218a.036.036,0,0,1,.036.036.036.036,0,0,1-.036.036h-.218A.036.036,0,0,1,2776.647,2610.044Zm.726,0a.036.036,0,0,1,.036-.036h.218a.036.036,0,0,1,.037.036.037.037,0,0,1-.037.036h-.218A.036.036,0,0,1,2777.373,2610.044Zm.726,0a.036.036,0,0,1,.036-.036h.218a.037.037,0,0,1,.037.036.037.037,0,0,1-.037.036h-.218A.036.036,0,0,1,2778.1,2610.044Zm.726,0a.036.036,0,0,1,.036-.036h.218a.036.036,0,0,1,.037.036.037.037,0,0,1-.037.036h-.218A.036.036,0,0,1,2778.825,2610.044Zm.725,0a.036.036,0,0,1,.036-.036h.218a.036.036,0,0,1,.036.036.036.036,0,0,1-.036.036h-.218A.037.037,0,0,1,2779.551,2610.044Zm.726,0a.036.036,0,0,1,.037-.036h.218a.036.036,0,0,1,.036.036.036.036,0,0,1-.036.036h-.218A.037.037,0,0,1,2780.276,2610.044Zm.726,0a.036.036,0,0,1,.037-.036h.217a.036.036,0,0,1,.037.036.037.037,0,0,1-.037.036h-.217A.037.037,0,0,1,2781,2610.044Zm.726,0a.036.036,0,0,1,.036-.036h.218a.036.036,0,0,1,.036.036.037.037,0,0,1-.036.036h-.218A.036.036,0,0,1,2781.728,2610.044Zm.726,0a.036.036,0,0,1,.036-.036h.218a.036.036,0,0,1,.036.036.037.037,0,0,1-.036.036h-.218A.036.036,0,0,1,2782.454,2610.044Zm.726,0a.036.036,0,0,1,.036-.036h.218a.036.036,0,0,1,.036.036.037.037,0,0,1-.036.036h-.218A.036.036,0,0,1,2783.18,2610.044Zm.725,0a.036.036,0,0,1,.037-.036h.218a.036.036,0,0,1,.036.036.036.036,0,0,1-.036.036h-.218A.037.037,0,0,1,2783.905,2610.044Zm.726,0a.036.036,0,0,1,.036-.036h.218a.036.036,0,0,1,.036.036.036.036,0,0,1-.036.036h-.218A.037.037,0,0,1,2784.631,2610.044Zm.726,0a.036.036,0,0,1,.036-.036h.218a.036.036,0,0,1,.036.036.037.037,0,0,1-.036.036h-.218A.037.037,0,0,1,2785.357,2610.044Zm.726,0a.036.036,0,0,1,.036-.036h.218a.036.036,0,0,1,.036.036.037.037,0,0,1-.036.036h-.218A.036.036,0,0,1,2786.083,2610.044Zm.726,0a.036.036,0,0,1,.036-.036h.218a.036.036,0,0,1,.036.036.036.036,0,0,1-.036.036h-.218A.036.036,0,0,1,2786.809,2610.044Zm.726,0a.036.036,0,0,1,.036-.036h.218a.036.036,0,0,1,.036.036.036.036,0,0,1-.036.036h-.218A.037.037,0,0,1,2787.534,2610.044Zm.726,0a.036.036,0,0,1,.036-.036h.218a.036.036,0,0,1,.036.036.036.036,0,0,1-.036.036h-.218A.037.037,0,0,1,2788.26,2610.044Zm.726,0a.036.036,0,0,1,.037-.036h.217a.036.036,0,0,1,.037.036.037.037,0,0,1-.037.036h-.217A.037.037,0,0,1,2788.986,2610.044Zm.726,0a.036.036,0,0,1,.036-.036h.218a.036.036,0,0,1,.037.036.037.037,0,0,1-.037.036h-.218A.036.036,0,0,1,2789.712,2610.044Z" transform="translate(-2759.86 -2597.333)" fill="#fff"/>
          <path id="Trazado_2756" data-name="Trazado 2756" d="M2929.292,2536.308l-.073-.776a.594.594,0,0,0-.453-.348c-.75-.119-2.612-.329-3.508.34l-.134.9Z" transform="translate(-2905.348 -2530.901)" fill="url(#linear-gradient-39)"/>
          <path id="Trazado_2757" data-name="Trazado 2757" d="M2938.357,2517.01a1.076,1.076,0,0,0,.52,0,.469.469,0,0,0,.358-.454v-2.43H2938v2.427A.47.47,0,0,0,2938.357,2517.01Z" transform="translate(-2916.759 -2512.349)" fill="url(#linear-gradient-40)"/>
          <path id="Trazado_2758" data-name="Trazado 2758" d="M2823.932,2536.308l-.073-.776a.6.6,0,0,0-.452-.348c-.75-.119-2.612-.329-3.508.34l-.134.9Z" transform="translate(-2811.964 -2530.901)" fill="url(#linear-gradient-41)"/>
          <path id="Trazado_2759" data-name="Trazado 2759" d="M2833,2515.014a1.072,1.072,0,0,0,.52,0,.469.469,0,0,0,.358-.454v-2.686h-1.236v2.684A.47.47,0,0,0,2833,2515.014Z" transform="translate(-2823.375 -2510.353)" fill="url(#linear-gradient-42)"/>
          <path id="Trazado_2760" data-name="Trazado 2760" d="M2840.82,2500.87l-13.3-.263c-.3-.006-.56-.137-.613-.315a1.959,1.959,0,0,1-.041-1.007c.109-.439.741-.766,1.487-.776,2.48-.035,8.8-.034,12.276.789a1.008,1.008,0,0,1,.734.5,1.079,1.079,0,0,1,.031.807A.6.6,0,0,1,2840.82,2500.87Z" transform="translate(-2818.218 -2498.498)" fill="url(#linear-gradient-43)"/>
          <path id="Trazado_2761" data-name="Trazado 2761" d="M2919.54,2504.3c.037,0,.069-.016.073-.039a1.15,1.15,0,0,0-.08-.6,1.01,1.01,0,0,0-.765-.465,23.609,23.609,0,0,0-3.316-.37c-.042,0-.073.018-.074.042s.031.044.071.045a23.466,23.466,0,0,1,3.28.367.877.877,0,0,1,.665.4,1.11,1.11,0,0,1,.076.571c0,.023.025.045.065.048Z" transform="translate(-2896.708 -2502.329)" fill="#fff"/>
          <path id="Trazado_2762" data-name="Trazado 2762" d="M2781.247,2542.865c-4.3-.055-22.879-.25-28.277.4a1.1,1.1,0,0,0-.945.851,36.287,36.287,0,0,0-.885,8.112.962.962,0,0,0,.788.918l12.322,2.331h4.377l13.129-2.61a1.027,1.027,0,0,0,.828-.953,42.659,42.659,0,0,0-.233-8.113A1.135,1.135,0,0,0,2781.247,2542.865Z" transform="translate(-2751.135 -2537.76)" fill="url(#linear-gradient-44)"/>
          <path id="Trazado_2763" data-name="Trazado 2763" d="M2776.485,2562.42a.037.037,0,0,1,.029-.043l.214-.042a.037.037,0,0,1,.043.029.036.036,0,0,1-.029.043l-.214.042h-.007A.037.037,0,0,1,2776.485,2562.42Zm-4.1-.007a.036.036,0,0,1,.036-.036h.218a.037.037,0,0,1,.036.036.036.036,0,0,1-.036.036h-.218A.036.036,0,0,1,2772.382,2562.413Zm.726,0a.036.036,0,0,1,.036-.036h.218a.036.036,0,1,1,0,.073h-.218A.036.036,0,0,1,2773.107,2562.413Zm.726,0a.037.037,0,0,1,.036-.036h.218a.037.037,0,0,1,.036.036.036.036,0,0,1-.036.036h-.218A.036.036,0,0,1,2773.833,2562.413Zm.726,0a.037.037,0,0,1,.036-.036h.218a.037.037,0,0,1,.036.036.036.036,0,0,1-.036.036h-.218A.036.036,0,0,1,2774.559,2562.413Zm.726,0a.037.037,0,0,1,.036-.036h.218a.036.036,0,0,1,.036.036.036.036,0,0,1-.036.036h-.218A.036.036,0,0,1,2775.285,2562.413Zm.726,0a.037.037,0,0,1,.037-.036h.217a.036.036,0,1,1,0,.073h-.217A.036.036,0,0,1,2776.01,2562.413Zm-4.1-.046-.214-.041a.036.036,0,1,1,.014-.071l.214.04a.037.037,0,0,1-.007.072Zm5.287-.089a.036.036,0,0,1,.028-.043l.213-.042a.036.036,0,1,1,.014.071l-.214.042h-.005A.036.036,0,0,1,2777.2,2562.279Zm-6-.046-.214-.041a.036.036,0,0,1-.029-.042.037.037,0,0,1,.043-.03l.214.041a.037.037,0,0,1,.029.042.036.036,0,0,1-.036.03Zm6.711-.095a.036.036,0,0,1,.029-.043l.213-.042a.036.036,0,0,1,.043.029.036.036,0,0,1-.029.043l-.214.042h-.007A.037.037,0,0,1,2777.909,2562.137Zm-7.424-.04-.214-.04a.037.037,0,0,1-.029-.043.036.036,0,0,1,.042-.029l.214.041a.036.036,0,0,1-.007.072Zm8.136-.1a.036.036,0,0,1,.029-.042l.214-.043a.036.036,0,0,1,.014.071l-.214.043h0A.037.037,0,0,1,2778.621,2562Zm-8.85-.033-.214-.04a.037.037,0,0,1-.029-.042.036.036,0,0,1,.042-.029l.214.04a.036.036,0,0,1-.007.072Zm9.561-.108a.036.036,0,0,1,.029-.042l.214-.043a.038.038,0,0,1,.043.029.036.036,0,0,1-.029.042l-.213.042h-.007A.036.036,0,0,1,2779.333,2561.854Zm-10.275-.026-.214-.041a.037.037,0,0,1-.029-.042.037.037,0,0,1,.043-.029l.214.041a.036.036,0,0,1-.007.072Zm10.986-.115a.037.037,0,0,1,.029-.043l.213-.042a.036.036,0,0,1,.043.028.037.037,0,0,1-.029.043l-.214.042h-.007A.037.037,0,0,1,2780.044,2561.713Zm-11.7-.02-.213-.041a.036.036,0,0,1-.029-.042.036.036,0,0,1,.042-.029l.214.04a.037.037,0,0,1,.029.042.036.036,0,0,1-.036.03Zm12.412-.122a.036.036,0,0,1,.029-.042l.214-.043a.036.036,0,0,1,.043.029.037.037,0,0,1-.029.043l-.214.042h0A.037.037,0,0,1,2780.756,2561.571Zm-13.125-.013-.214-.041a.035.035,0,0,1-.029-.042.036.036,0,0,1,.042-.029l.214.04a.036.036,0,0,1-.007.072Zm13.837-.128a.036.036,0,0,1,.028-.043l.213-.042a.036.036,0,1,1,.014.071l-.213.042h-.007A.036.036,0,0,1,2781.469,2561.43Zm-14.55-.007-.214-.041a.036.036,0,1,1,.014-.071l.214.041a.036.036,0,0,1-.007.072Zm15.261-.135a.037.037,0,0,1,.029-.043l.214-.042a.036.036,0,0,1,.043.028.036.036,0,0,1-.029.042l-.213.043h-.005A.037.037,0,0,1,2782.18,2561.288Zm-15.974,0-.214-.04a.036.036,0,0,1-.029-.042.037.037,0,0,1,.043-.03l.214.041a.036.036,0,0,1,.029.042.037.037,0,0,1-.036.03Zm16.686-.141a.037.037,0,0,1,.028-.043l.214-.042a.035.035,0,0,1,.042.029.036.036,0,0,1-.029.043l-.213.042h-.007A.037.037,0,0,1,2782.892,2561.147Zm-17.4.006-.214-.04a.036.036,0,0,1,.013-.072l.214.041a.036.036,0,0,1-.007.072Zm18.111-.148a.036.036,0,0,1,.029-.043l.214-.043a.036.036,0,0,1,.042.029.036.036,0,0,1-.028.043l-.214.042h0A.037.037,0,0,1,2783.6,2561.005Zm-18.825.013-.214-.04a.036.036,0,0,1-.029-.042.035.035,0,0,1,.042-.029l.214.041a.035.035,0,0,1,.029.042.036.036,0,0,1-.035.03Zm19.536-.155a.036.036,0,0,1,.029-.042l.213-.042a.036.036,0,1,1,.014.071l-.214.042h-.007A.037.037,0,0,1,2784.316,2560.864Zm-20.25.02-.214-.041a.036.036,0,0,1-.029-.042.037.037,0,0,1,.043-.029l.214.04a.036.036,0,0,1,.029.042.037.037,0,0,1-.036.03Zm20.962-.161a.037.037,0,0,1,.029-.043l.214-.042a.035.035,0,0,1,.042.028.036.036,0,0,1-.028.042l-.213.043h-.007A.036.036,0,0,1,2785.028,2560.722Zm-21.675.026-.213-.041a.037.037,0,0,1-.029-.042.036.036,0,0,1,.043-.029l.214.04a.036.036,0,0,1-.007.072Zm-.713-.135-.214-.041a.036.036,0,1,1,.013-.071l.214.041a.035.035,0,0,1,.029.042.036.036,0,0,1-.035.03Zm23.1-.033a.036.036,0,0,1,.028-.042l.214-.042a.036.036,0,0,1,.014.071l-.213.042h-.007A.036.036,0,0,1,2785.74,2560.58Zm-23.813-.1-.214-.04a.036.036,0,0,1,.014-.072l.214.041a.036.036,0,0,1-.007.072Zm24.525-.039a.036.036,0,0,1,.028-.042l.214-.043a.037.037,0,0,1,.015.072l-.214.042h-.007A.037.037,0,0,1,2786.451,2560.439Zm-25.238-.1-.214-.04a.036.036,0,1,1,.014-.071l.214.041a.036.036,0,0,1,.029.042.037.037,0,0,1-.036.03Zm25.95-.045a.036.036,0,0,1,.029-.043l.213-.042a.036.036,0,1,1,.014.071l-.214.043h0A.037.037,0,0,1,2787.163,2560.3Zm-26.663-.089-.214-.04a.036.036,0,0,1-.029-.042.036.036,0,0,1,.042-.029l.214.041a.036.036,0,0,1-.007.072Zm27.375-.052a.036.036,0,0,1,.028-.043l.213-.042a.036.036,0,0,1,.043.029.037.037,0,0,1-.028.043l-.214.042h-.007A.036.036,0,0,1,2787.875,2560.156Zm.712-.141a.036.036,0,0,1,.029-.043l.214-.042a.036.036,0,0,1,.014.072l-.214.042h0A.037.037,0,0,1,2788.587,2560.015Zm.712-.141a.036.036,0,0,1,.028-.043l.161-.032a.035.035,0,0,1,.038-.032.036.036,0,0,1,.034.038l0,.054-.217.043h-.007A.036.036,0,0,1,2789.3,2559.873Zm-29.141-.17v-.021c0-.066,0-.131,0-.2a.039.039,0,0,1,.036-.036.037.037,0,0,1,.036.037c0,.065,0,.131,0,.2v.021a.036.036,0,0,1-.072,0Zm29.388-.371a.037.037,0,0,1-.035-.038q.005-.106.009-.218a.036.036,0,0,1,.073,0c0,.075-.006.148-.009.218a.036.036,0,0,1-.036.035Zm-29.343-.318a.037.037,0,0,1-.035-.037c0-.073,0-.145.007-.218a.036.036,0,1,1,.073,0c0,.072-.005.145-.007.217a.037.037,0,0,1-.036.036Zm29.37-.407a.036.036,0,0,1-.035-.037c0-.072,0-.144.007-.218a.035.035,0,0,1,.037-.035.036.036,0,0,1,.036.037c0,.074,0,.147-.007.218a.037.037,0,0,1-.036.035Zm-29.341-.318a.036.036,0,0,1-.034-.038c0-.073.008-.146.012-.218a.036.036,0,1,1,.073,0c0,.072-.009.145-.013.217a.036.036,0,0,1-.036.034Zm29.361-.408a.036.036,0,0,1-.035-.037c0-.072,0-.144,0-.218a.036.036,0,1,1,.073,0c0,.074,0,.146,0,.218a.036.036,0,0,1-.036.035Zm-29.314-.316a.037.037,0,0,1-.033-.039c.006-.073.012-.145.017-.217a.037.037,0,0,1,.039-.033.036.036,0,0,1,.033.039c-.006.072-.011.145-.017.217a.036.036,0,0,1-.036.033Zm29.325-.409a.036.036,0,0,1-.036-.037q0-.107,0-.217a.036.036,0,0,1,.036-.036h0a.036.036,0,0,1,.036.037c0,.073,0,.146,0,.218a.037.037,0,0,1-.036.036Zm-29.262-.314a.036.036,0,0,1-.032-.04c.007-.073.015-.145.022-.217a.035.035,0,0,1,.04-.032.036.036,0,0,1,.032.04q-.011.108-.022.217a.037.037,0,0,1-.036.033Zm29.228-.448c0-.073,0-.145,0-.218a.036.036,0,0,1,.036-.037h0a.037.037,0,0,1,.036.036c0,.073,0,.146,0,.218a.036.036,0,0,1-.036.036h0A.036.036,0,0,1,2789.571,2556.393Zm-29.149-.274a.036.036,0,0,1-.031-.04c.009-.073.017-.145.027-.217a.036.036,0,0,1,.041-.031.037.037,0,0,1,.032.04c-.01.072-.018.144-.027.216a.036.036,0,0,1-.036.032Zm29.141-.451c0-.073,0-.145,0-.218a.036.036,0,0,1,.035-.037.037.037,0,0,1,.037.035c0,.073,0,.145,0,.218a.036.036,0,0,1-.036.037h0A.037.037,0,0,1,2789.562,2555.668Zm-29.048-.269a.036.036,0,0,1-.031-.041l.031-.216a.038.038,0,0,1,.042-.031.036.036,0,0,1,.031.042c-.01.071-.02.143-.031.215a.037.037,0,0,1-.036.031Zm29.028-.457c0-.073-.005-.145-.008-.218a.036.036,0,0,1,.034-.038.038.038,0,0,1,.038.035c0,.073.006.145.008.218a.037.037,0,0,1-.035.038h0A.037.037,0,0,1,2789.542,2554.942Zm-28.921-.262a.037.037,0,0,1-.03-.042c.012-.073.023-.144.035-.215a.036.036,0,1,1,.072.012q-.017.106-.034.215a.037.037,0,0,1-.036.031Zm28.887-.463c0-.073-.009-.145-.013-.217a.036.036,0,0,1,.072,0q.008.108.014.218a.036.036,0,0,1-.034.038h0A.036.036,0,0,1,2789.508,2554.218Zm-28.768-.254a.035.035,0,0,1-.029-.042c.012-.073.025-.145.038-.215a.036.036,0,0,1,.071.013c-.012.07-.025.141-.038.214a.037.037,0,0,1-.036.03Zm28.717-.469c-.006-.073-.012-.145-.019-.217a.036.036,0,0,1,.033-.04.036.036,0,0,1,.039.033c.007.072.014.145.02.218a.036.036,0,0,1-.033.039h0A.037.037,0,0,1,2789.457,2553.495Zm-28.585-.245a.037.037,0,0,1-.029-.042c.014-.074.029-.145.042-.214a.036.036,0,0,1,.042-.029.037.037,0,0,1,.029.043q-.021.1-.042.213a.036.036,0,0,1-.036.029Zm28.511-.477c-.009-.073-.018-.145-.028-.216a.037.037,0,0,1,.031-.041.036.036,0,0,1,.041.031q.014.107.028.217a.036.036,0,0,1-.032.04h0A.037.037,0,0,1,2789.383,2552.773Zm-28.366-.235a.037.037,0,0,1-.028-.043l.035-.16a.075.075,0,0,1,.066-.054h.008c.021,0,.032.011.034.031a.04.04,0,0,1-.038.04l-.035.16a.035.035,0,0,1-.035.029Zm.554-.274a.036.036,0,0,1,.033-.039l.217-.02a.036.036,0,0,1,.04.033.037.037,0,0,1-.033.04l-.217.02h0A.037.037,0,0,1,2761.571,2552.265Zm.723-.062a.036.036,0,0,1,.034-.039l.217-.016a.035.035,0,0,1,.039.034.036.036,0,0,1-.033.039l-.217.016h0A.036.036,0,0,1,2762.295,2552.2Zm.724-.051a.037.037,0,0,1,.035-.038l.217-.013a.035.035,0,0,1,.038.034.036.036,0,0,1-.034.038l-.217.013h0A.037.037,0,0,1,2763.019,2552.152Zm.725-.042a.036.036,0,0,1,.034-.038l.218-.011a.037.037,0,0,1,.038.035.036.036,0,0,1-.035.038l-.217.011h0A.036.036,0,0,1,2763.744,2552.11Zm.725-.036a.035.035,0,0,1,.035-.037l.218-.01a.038.038,0,0,1,.038.035.036.036,0,0,1-.034.038l-.217.01h0A.036.036,0,0,1,2764.469,2552.073Zm24.811-.017-.012-.064a.038.038,0,0,0-.037-.033h-.047a.036.036,0,0,1-.036-.037.036.036,0,0,1,.036-.036h.048a.11.11,0,0,1,.108.092l.011.065a.036.036,0,0,1-.029.042h-.006A.036.036,0,0,1,2789.28,2552.057Zm-24.086-.014a.036.036,0,0,1,.035-.038l.218-.009a.036.036,0,0,1,0,.073l-.218.009h0A.036.036,0,0,1,2765.194,2552.043Zm.725-.027a.036.036,0,0,1,.035-.038l.218-.008a.038.038,0,0,1,.038.035.037.037,0,0,1-.035.038l-.218.007h0A.036.036,0,0,1,2765.919,2552.016Zm.726-.024a.036.036,0,0,1,.035-.038l.218-.006a.039.039,0,0,1,.038.035.036.036,0,0,1-.035.037l-.218.007h0A.035.035,0,0,1,2766.645,2551.992Zm.725-.021a.037.037,0,0,1,.035-.038l.218-.006h0a.036.036,0,0,1,0,.073l-.218.006h0A.037.037,0,0,1,2767.37,2551.972Zm.726-.019a.036.036,0,0,1,.035-.037l.218,0h0a.036.036,0,0,1,.036.035.037.037,0,0,1-.035.037l-.218,0h0A.036.036,0,0,1,2768.1,2551.953Zm.726-.016a.037.037,0,0,1,.036-.037l.218,0a.036.036,0,0,1,0,.073l-.218,0h0A.036.036,0,0,1,2768.821,2551.937Zm.726-.014a.036.036,0,0,1,.036-.037l.218,0a.036.036,0,0,1,.037.036.036.036,0,0,1-.036.037l-.218,0h0A.037.037,0,0,1,2769.547,2551.923Zm19.128.03-.218,0a.036.036,0,0,1,0-.073l.218,0a.036.036,0,1,1,0,.073Zm-18.4-.042a.036.036,0,0,1,.036-.037l.218,0h0a.037.037,0,0,1,0,.073l-.218,0h0A.036.036,0,0,1,2770.273,2551.91Zm17.676.034-.218,0a.036.036,0,0,1-.036-.036.036.036,0,0,1,.036-.036h0l.218,0a.036.036,0,0,1,0,.073Zm-.726-.008-.218,0a.036.036,0,0,1-.036-.036.037.037,0,0,1,.037-.036h0l.218,0a.036.036,0,1,1,0,.073ZM2771,2551.9a.036.036,0,0,1,.035-.037l.218,0h0a.036.036,0,1,1,0,.073l-.218,0h0A.036.036,0,0,1,2771,2551.9Zm15.5.03-.218,0a.036.036,0,0,1,0-.073h0l.218,0a.037.037,0,0,1,.036.037.036.036,0,0,1-.036.036Zm-14.772-.04a.036.036,0,0,1,.036-.037l.218,0h0a.036.036,0,0,1,.036.036.036.036,0,0,1-.036.036l-.218,0h0A.036.036,0,0,1,2771.725,2551.89Zm14.046.033-.218,0a.036.036,0,0,1-.036-.036.036.036,0,0,1,.036-.036h0l.218,0a.036.036,0,0,1,0,.072Zm-13.32-.041a.036.036,0,0,1,.036-.037l.218,0h0a.036.036,0,0,1,0,.073l-.218,0h0A.036.036,0,0,1,2772.45,2551.882Zm12.594.035-.218,0a.036.036,0,0,1-.036-.036.035.035,0,0,1,.037-.036l.218,0a.036.036,0,0,1,.036.036.037.037,0,0,1-.036.036Zm-.726-.005h-.218a.037.037,0,0,1-.036-.037.036.036,0,0,1,.036-.036h.218a.036.036,0,0,1,0,.073Zm-11.143-.037a.036.036,0,0,1,.036-.037l.218,0a.036.036,0,0,1,.036.036.037.037,0,0,1-.036.037h-.218A.037.037,0,0,1,2773.176,2551.875Zm10.416.032h-.218a.036.036,0,0,1,0-.073h.218a.036.036,0,1,1,0,.073Zm-9.69-.038a.036.036,0,0,1,.036-.037l.218,0a.035.035,0,0,1,.037.036.036.036,0,0,1-.036.036l-.217,0h0A.036.036,0,0,1,2773.9,2551.869Zm8.964.033h-.218a.036.036,0,0,1-.036-.036.036.036,0,0,1,.036-.036h.218a.036.036,0,0,1,0,.073Zm-8.238-.039a.036.036,0,0,1,.036-.036h.218a.036.036,0,0,1,0,.072h-.218A.036.036,0,0,1,2774.628,2551.863Zm7.512.035h-.218a.036.036,0,0,1-.036-.037.037.037,0,0,1,.037-.036h.218a.036.036,0,0,1,0,.072Zm-6.787-.038a.036.036,0,0,1,.036-.037h.218a.037.037,0,0,1,.037.036.036.036,0,0,1-.036.036h-.218A.036.036,0,0,1,2775.354,2551.86Zm6.061.035h-.218a.036.036,0,0,1,0-.073h.218a.036.036,0,0,1,0,.073Zm-5.335-.039a.037.037,0,0,1,.037-.036h.218a.036.036,0,0,1,0,.073h-.218A.037.037,0,0,1,2776.079,2551.857Zm4.609.036h-.218a.036.036,0,1,1,0-.073h.218a.035.035,0,0,1,.036.036.036.036,0,0,1-.036.036Zm-3.883-.038a.036.036,0,0,1,.036-.036h.218a.036.036,0,0,1,.036.036.037.037,0,0,1-.036.037h-.218A.037.037,0,0,1,2776.8,2551.855Zm3.157.036h-.218a.036.036,0,0,1,0-.073h.218a.036.036,0,0,1,.036.036.037.037,0,0,1-.036.036Zm-2.431-.038a.036.036,0,0,1,.036-.036h.218a.036.036,0,0,1,0,.073h-.218A.036.036,0,0,1,2777.531,2551.853Zm1.7.036h-.218a.036.036,0,0,1-.036-.036.036.036,0,0,1,.036-.037h.218a.036.036,0,1,1,0,.073Zm-.943,0a.036.036,0,0,1,0-.073h.218a.037.037,0,0,1,.037.036.036.036,0,0,1-.037.036Z" transform="translate(-2759.133 -2545.756)" fill="#fff"/>
          <path id="Trazado_2764" data-name="Trazado 2764" d="M2859.849,2626.373h3.835a.991.991,0,0,0,.985-.871l.443-3.689a.99.99,0,0,0-.985-1.105h-4.606a.99.99,0,0,0-.989,1.075l.329,3.69A.991.991,0,0,0,2859.849,2626.373Z" transform="translate(-2846.321 -2606.817)" fill="url(#linear-gradient-45)"/>
          <path id="Trazado_2765" data-name="Trazado 2765" d="M2866.461,2630.956h2.919a.754.754,0,0,0,.75-.663l.337-2.808a.753.753,0,0,0-.75-.841h-3.507a.753.753,0,0,0-.752.818l.25,2.809A.754.754,0,0,0,2866.461,2630.956Z" transform="translate(-2852.461 -2612.078)" fill="url(#linear-gradient-46)"/>
        </g>
        <g id="Grupo_11098" data-name="Grupo 11098" transform="translate(13.414)">
          <path id="Trazado_2766" data-name="Trazado 2766" d="M2886.084,2085.6c.315-8.46.882-19.4,1.8-23.994,1.6-7.982,7.24-11,7.24-11,12.029,1.771.209,22.707.209,22.707l-3.818,13.217A11.394,11.394,0,0,0,2886.084,2085.6Z" transform="translate(-2884.159 -2050.601)" fill="url(#linear-gradient-47)"/>
          <path id="Trazado_2767" data-name="Trazado 2767" d="M2871.075,2358.293a11.4,11.4,0,0,1,5.432.929l-3.1,10.729s.532,5.854.054,6.5-4.311.419-4.311-.645a55.216,55.216,0,0,1,1.6-6.386S2870.843,2364.53,2871.075,2358.293Z" transform="translate(-2869.151 -2323.298)" fill="url(#linear-gradient-48)"/>
        </g>
      </g>
    </g>
    <g id="Grupo_11103" data-name="Grupo 11103" transform="translate(615.133 608.229)">
      <path id="Trazado_2768" data-name="Trazado 2768" d="M2474.6,1916.426s3.047,1.482,3.607,3.185c.449,1.366,3.819,1.542,4.152,4.229a3.083,3.083,0,0,0,2.58,2.709c3.44.527,8.744,2.314,9.592,8.289.648,4.56-1.677,6.289-4.117,6.888a3.455,3.455,0,0,0-2.62,3.991c.347,1.735-.171,3.741-3.177,5.328-6.737,3.554-13.464-8.421-13.464-8.421l-1.379-20.91Z" transform="translate(-2429.648 -1903.544)" fill="url(#linear-gradient-49)"/>
      <path id="Trazado_2769" data-name="Trazado 2769" d="M2183.413,1872.813s13.45,21.274,29.444,25.384c0,0-3.116,8.876-5.522,9.892,0,0-19.677-16.418-24.734-32.253Z" transform="translate(-2175.116 -1864.888)" fill="url(#linear-gradient-50)"/>
      <path id="Trazado_2770" data-name="Trazado 2770" d="M2755.768,3059.258l.436,3.584a1.481,1.481,0,0,0,1.3,1.295,22.9,22.9,0,0,0,4.8.075,1.268,1.268,0,0,0,1.064-1.644,13.052,13.052,0,0,0-2.4-4.682h-3.975A1.225,1.225,0,0,0,2755.768,3059.258Z" transform="translate(-2683.127 -2915.262)" fill="url(#linear-gradient-51)"/>
      <path id="Trazado_2771" data-name="Trazado 2771" d="M2458.61,2700.626l-.671,3.947s2.247,22.76,2.647,31.864a7.136,7.136,0,0,1-1.056,4.054l-3.907,6.345,9.93-5.86.2-1.211-1.625-2.235,2.13-25.5a7.822,7.822,0,0,0-.891-4.327l-2.054-3.858Z" transform="translate(-2417.105 -2598.609)" fill="url(#linear-gradient-52)"/>
      <path id="Trazado_2772" data-name="Trazado 2772" d="M2443.336,3041.8h3.169a1.908,1.908,0,0,0,1.515-.743c.988-1.283,3.035-3.788,4.013-3.853,1.318-.088,1.149,4.6,1.149,4.6h.739l.935-5.82a3.445,3.445,0,0,0-1.808-3.6h0a4.871,4.871,0,0,1-1.934,3.212c-1.634.985-6.646,4.513-6.646,4.513a4.524,4.524,0,0,0-1.288.034A.838.838,0,0,0,2443.336,3041.8Z" transform="translate(-2405.472 -2892.653)" fill="url(#linear-gradient-53)"/>
      <path id="Trazado_2773" data-name="Trazado 2773" d="M2601.562,2704.327s13.163,24.97,15.256,30.671a54.791,54.791,0,0,1,2.854,10.907c.044.7.919,1.379,3.332,1.379a2.314,2.314,0,0,0,2.153-.982,1.408,1.408,0,0,0,.053-1.363c-.762-1.541-3.178-6.465-4.073-8.7-1.068-2.667-3.367-14.752-4.627-18.955s-2.685-8.76-8.175-12.958C2608.335,2704.327,2604.567,2700.636,2601.562,2704.327Z" transform="translate(-2546.456 -2600.436)" fill="url(#linear-gradient-54)"/>
      <path id="Trazado_2774" data-name="Trazado 2774" d="M2383.986,2122.386c-3.4-14.388,5.207-22.526,5.207-22.526-5.428-5.21-15.317-7.581-15.317-7.581s-9.436,6.9-8.317,12.3c.656,3.165,6.633,18.957,6.633,18.957A13.132,13.132,0,0,0,2383.986,2122.386Z" transform="translate(-2337.196 -2059.409)" fill="url(#linear-gradient-55)"/>
      <path id="Trazado_2775" data-name="Trazado 2775" d="M2438.616,2364.281c-1.382-4.163-7.529-7.123-7.529-7.123a13.135,13.135,0,0,1-11.795,1.149,23.659,23.659,0,0,0-.384,9.14c.856,4.4,6.222,32.7,6.222,32.7,8.457,1.714,21.463-1.724,21.463-1.724C2441.207,2388.857,2440,2368.444,2438.616,2364.281Z" transform="translate(-2384.297 -2294.181)" fill="url(#linear-gradient-56)"/>
      <path id="Trazado_2776" data-name="Trazado 2776" d="M2452.12,1999.405l2.761,12.4c.264,1.092-.731.913-1.836.705-1.809-.341-4.139-1.043-4.918-2.45a1.354,1.354,0,0,1-.142-.467l-1.186-8.6a1.544,1.544,0,0,1,.9-1.623l2.289-1.015A1.545,1.545,0,0,1,2452.12,1999.405Z" transform="translate(-2409.271 -1976.044)" fill="url(#linear-gradient-57)"/>
      <path id="Trazado_2777" data-name="Trazado 2777" d="M2539.745,2158.974s19.269,13.785,2.465,28.271a4.341,4.341,0,0,1-1.9,1.1,20.89,20.89,0,0,0-3.473,2.357.654.654,0,0,1-.957-.172h0a.893.893,0,0,1-.05-.856l2.385-5.044a1.84,1.84,0,0,1,2.39-.1h0a.908.908,0,0,0,1.376-.312c1.3-2.646,3.752-10.427-6.287-19.219a1.086,1.086,0,0,1-.241-1.322C2536.156,2162.319,2537.769,2159.628,2539.745,2158.974Z" transform="translate(-2487.749 -2118.523)" fill="url(#linear-gradient-58)"/>
      <g id="Grupo_11101" data-name="Grupo 11101" transform="translate(32.971 7.277)">
        <path id="Trazado_2778" data-name="Trazado 2778" d="M2411.417,1905.727s-2.939,1.99-4.2,7.056.789,6.884,2.893,6.772a9.761,9.761,0,0,0,7.8-4.4C2420.549,1911.524,2415.269,1903.3,2411.417,1905.727Z" transform="translate(-2406.828 -1900.946)" fill="url(#linear-gradient-59)"/>
        <path id="Trazado_2779" data-name="Trazado 2779" d="M2423.2,1879.283s1.076-7.26-4.951-6.149l-1.219,1.269s-2.95-3.323.314-5.834,7.8-1.869,10.3,2.7,3.416,7.785,1.315,10.626-3.681.4-3.681.4.963-2.459.164-3.514-1.831.614-1.831.614Z" transform="translate(-2414.784 -1867.114)" fill="url(#linear-gradient-60)"/>
        <path id="Trazado_2780" data-name="Trazado 2780" d="M2488.087,1957.347s.532-3.735,2.439-2.667-.688,3.489-1.728,4.313Z" transform="translate(-2478.851 -1944.556)" fill="url(#linear-gradient-61)"/>
      </g>
      <g id="Grupo_11102" data-name="Grupo 11102" transform="translate(0 0)">
        <path id="Trazado_2781" data-name="Trazado 2781" d="M2125.138,1815.4c-.041.439,1.591.742,2.111-1.129-.143-.812-.4-4.369-1.019-4.922a65.764,65.764,0,0,0-9.232-6.254,1.21,1.21,0,0,0,.206,1.675l2.952,1.993a11.955,11.955,0,0,0-.808,3.087,3.455,3.455,0,0,0,.873,2.414c.588.671,1.379,1.538,2.092,2.2A3.414,3.414,0,0,0,2125.138,1815.4Z" transform="translate(-2116.749 -1803.093)" fill="url(#linear-gradient-62)"/>
        <path id="Trazado_2782" data-name="Trazado 2782" d="M2156.367,1851.208l.452-.186a25.2,25.2,0,0,0-2.162-4.305,1.039,1.039,0,0,1-.375-.692.5.5,0,0,1,.152-.3l2.389,1.277,1.055,1.652.411-.263-1.124-1.76-2.8-1.5-.126.1a1.063,1.063,0,0,0-.447.76,1.454,1.454,0,0,0,.509,1.06A24.077,24.077,0,0,1,2156.367,1851.208Z" transform="translate(-2149.582 -1840.354)" fill="url(#linear-gradient-63)"/>
      </g>
    </g>
  </g>
</svg>
