<svg xmlns="http://www.w3.org/2000/svg" xmlns:xlink="http://www.w3.org/1999/xlink" width="325.63" height="272.544" viewBox="0 0 325.63 272.544">
  <defs>
    <clipPath id="clip-path">
      <path id="Trazado_2988" data-name="Trazado 2988" d="M590.635,216.813c-62.042-30.308-130.941-95.541-198.629-43.724-83.781,64.138-23.212,162.937,45.7,187.9,58.046,21.027,156.627,42.131,208.873-6.667,22.818-21.312,38.267-57.421,25.957-93.1C657.414,217.4,621.832,232.052,590.635,216.813Z" transform="translate(-351.25 -153.724)" fill="none"/>
    </clipPath>
  </defs>
  <g id="Grupo_11344" data-name="Grupo 11344" transform="translate(-351.25 -128.107)">
    <g id="Grupo_11125" data-name="Grupo 11125" transform="translate(351.25 155.139)">
      <path id="Trazado_2854" data-name="Trazado 2854" d="M590.635,216.813c-62.042-30.308-130.941-95.541-198.629-43.724-83.781,64.138-23.212,162.937,45.7,187.9,58.046,21.027,156.627,42.131,208.873-6.667,22.818-21.312,38.267-57.421,25.957-93.1C657.414,217.4,621.832,232.052,590.635,216.813Z" transform="translate(-351.25 -153.724)" fill="#e0d4ff"/>
    </g>
    <g id="Grupo_11144" data-name="Grupo 11144" transform="translate(374.202 128.107)">
      <g id="Grupo_11130" data-name="Grupo 11130" transform="translate(242.409 86.376)">
        <g id="Grupo_11126" data-name="Grupo 11126">
          <path id="Trazado_2855" data-name="Trazado 2855" d="M623.711,239.255h-6.346a14.647,14.647,0,0,1-14.647-14.647h0a14.646,14.646,0,0,1,14.647-14.647h19.627a14.647,14.647,0,0,1,14.647,14.647h0a14.647,14.647,0,0,1-14.647,14.647h-6.065l-7.224,8.832Z" transform="translate(-602.718 -209.961)" fill="#ffb034"/>
        </g>
        <g id="Grupo_11129" data-name="Grupo 11129" transform="translate(17.179 2.869)">
          <g id="Grupo_11127" data-name="Grupo 11127" transform="translate(4.146 18.191)">
            <path id="Trazado_2856" data-name="Trazado 2856" d="M625.375,229.919a2.449,2.449,0,1,0,0,4.9,2.352,2.352,0,0,0,1.727-.726,2.492,2.492,0,0,0,0-3.445A2.35,2.35,0,0,0,625.375,229.919Z" transform="translate(-622.926 -229.919)" fill="#fff"/>
          </g>
          <g id="Grupo_11128" data-name="Grupo 11128">
            <path id="Trazado_2857" data-name="Trazado 2857" d="M632.86,216.272h0a5.812,5.812,0,0,0-1.507-1.928,7.027,7.027,0,0,0-2.211-1.227,8.286,8.286,0,0,0-2.715-.436,8.554,8.554,0,0,0-4.079,1.013,9.213,9.213,0,0,0-3.194,2.877.869.869,0,0,0,.225,1.218l1.67,1.132a.865.865,0,0,0,1.189-.208,6.04,6.04,0,0,1,1.9-1.751,4.383,4.383,0,0,1,2.2-.575,3.708,3.708,0,0,1,2.361.742,1.941,1.941,0,0,1,.857,1.61,2.4,2.4,0,0,1-.369,1.335,6.407,6.407,0,0,1-1.514,1.485l-1.254.925a6.555,6.555,0,0,0-2.188,2.586,7.447,7.447,0,0,0-.489,3.477.868.868,0,0,0,.866.813h1.878a.869.869,0,0,0,.867-.928,3.886,3.886,0,0,1,.253-1.851,3.481,3.481,0,0,1,1.161-1.333l.945-.709a11.215,11.215,0,0,0,2.825-2.716,5.85,5.85,0,0,0,.323-5.551Z" transform="translate(-618.997 -212.68)" fill="#fff"/>
          </g>
        </g>
      </g>
      <g id="Grupo_11135" data-name="Grupo 11135" transform="translate(0 72.16)">
        <g id="Grupo_11131" data-name="Grupo 11131">
          <path id="Trazado_2858" data-name="Trazado 2858" d="M393.993,225.783h-6.346A14.646,14.646,0,0,1,373,211.136h0a14.646,14.646,0,0,1,14.647-14.647h19.628a14.646,14.646,0,0,1,14.646,14.647h0a14.646,14.646,0,0,1-14.646,14.647h-6.066l-.14,8.832Z" transform="translate(-373 -196.489)" fill="#fff"/>
        </g>
        <g id="Grupo_11134" data-name="Grupo 11134" transform="translate(17.179 2.87)">
          <g id="Grupo_11132" data-name="Grupo 11132" transform="translate(4.146 18.191)">
            <path id="Trazado_2859" data-name="Trazado 2859" d="M395.657,216.448a2.449,2.449,0,1,0,0,4.9,2.353,2.353,0,0,0,1.727-.727,2.492,2.492,0,0,0,0-3.445A2.353,2.353,0,0,0,395.657,216.448Z" transform="translate(-393.208 -216.448)" fill="#804cff"/>
          </g>
          <g id="Grupo_11133" data-name="Grupo 11133">
            <path id="Trazado_2860" data-name="Trazado 2860" d="M403.142,202.8h0a5.8,5.8,0,0,0-1.507-1.928,7.027,7.027,0,0,0-2.211-1.227,8.285,8.285,0,0,0-2.715-.436,8.558,8.558,0,0,0-4.078,1.012,9.2,9.2,0,0,0-3.194,2.877.868.868,0,0,0,.224,1.218l1.67,1.133a.866.866,0,0,0,1.189-.208,6.027,6.027,0,0,1,1.9-1.751,4.383,4.383,0,0,1,2.2-.575,3.708,3.708,0,0,1,2.361.742,1.939,1.939,0,0,1,.857,1.61,2.4,2.4,0,0,1-.369,1.334,6.408,6.408,0,0,1-1.514,1.486l-1.254.924a6.562,6.562,0,0,0-2.187,2.586,7.461,7.461,0,0,0-.489,3.477.868.868,0,0,0,.866.813h1.879a.869.869,0,0,0,.866-.927,3.892,3.892,0,0,1,.253-1.852,3.5,3.5,0,0,1,1.161-1.332l.944-.709a11.258,11.258,0,0,0,2.826-2.717,5.591,5.591,0,0,0,.872-3.114A5.528,5.528,0,0,0,403.142,202.8Z" transform="translate(-389.279 -199.209)" fill="#804cff"/>
          </g>
        </g>
      </g>
      <g id="Grupo_11143" data-name="Grupo 11143" transform="translate(49.477)">
        <g id="Grupo_11136" data-name="Grupo 11136" transform="translate(0.989 0.989)">
          <path id="Trazado_2861" data-name="Trazado 2861" d="M481.74,201.879h-24.5a36.418,36.418,0,0,1-36.418-36.418h0a36.418,36.418,0,0,1,36.418-36.418h66.239A36.418,36.418,0,0,1,559.9,165.462h0a36.418,36.418,0,0,1-36.418,36.418h-23.8V223.84Z" transform="translate(-420.824 -129.044)" fill="#fff"/>
        </g>
        <g id="Grupo_11141" data-name="Grupo 11141" transform="translate(35.804 22.753)">
          <g id="Grupo_11137" data-name="Grupo 11137" transform="translate(0 12.784)">
            <path id="Trazado_2862" data-name="Trazado 2862" d="M521.258,165.791H455.82a2,2,0,1,1,0-4.007h65.438a2,2,0,0,1,0,4.007Z" transform="translate(-453.816 -161.784)" fill="#804cff"/>
          </g>
          <g id="Grupo_11138" data-name="Grupo 11138">
            <path id="Trazado_2863" data-name="Trazado 2863" d="M470.282,153.676H455.82a2,2,0,1,1,0-4.007h14.462a2,2,0,0,1,0,4.007Z" transform="translate(-453.816 -149.669)" fill="#804cff"/>
          </g>
          <g id="Grupo_11139" data-name="Grupo 11139" transform="translate(29.321)">
            <path id="Trazado_2864" data-name="Trazado 2864" d="M519.723,153.676H483.606a2,2,0,1,1,0-4.007h36.117a2,2,0,0,1,0,4.007Z" transform="translate(-481.602 -149.669)" fill="#804cff"/>
          </g>
          <g id="Grupo_11140" data-name="Grupo 11140" transform="translate(0 25.568)">
            <path id="Trazado_2865" data-name="Trazado 2865" d="M521.258,177.9H455.82a2,2,0,1,1,0-4.007h65.438a2,2,0,0,1,0,4.007Z" transform="translate(-453.816 -173.898)" fill="#804cff"/>
          </g>
        </g>
        <g id="Grupo_11142" data-name="Grupo 11142">
          <path id="Trazado_2866" data-name="Trazado 2866" d="M499.734,224.882a.988.988,0,0,1-.766-.364l-17.645-21.6h-24.03a37.406,37.406,0,0,1,0-74.813h66.239a37.406,37.406,0,1,1,0,74.813H500.723v20.972a.989.989,0,0,1-.657.932A.975.975,0,0,1,499.734,224.882Zm-42.441-94.8a35.428,35.428,0,1,0,0,70.856h24.5a.987.987,0,0,1,.765.364l16.186,19.812V201.931a.99.99,0,0,1,.99-.99h23.8a35.428,35.428,0,1,0,0-70.856Z" transform="translate(-419.887 -128.107)" fill="#e0d4ff"/>
        </g>
      </g>
    </g>
    <g id="Grupo_11342" data-name="Grupo 11342" transform="translate(351.25 155.139)">
      <g id="Grupo_11341" data-name="Grupo 11341" clip-path="url(#clip-path)">
        <g id="Grupo_11340" data-name="Grupo 11340" transform="translate(4.879 72.47)">
          <g id="Grupo_11151" data-name="Grupo 11151" transform="translate(196.304 49.763)">
            <g id="Grupo_11146" data-name="Grupo 11146">
              <g id="Grupo_11145" data-name="Grupo 11145">
                <path id="Trazado_2867" data-name="Trazado 2867" d="M574.756,270.218a736.673,736.673,0,0,1,83.13,1.17,396.822,396.822,0,0,1,.359,89.918q-34.326,2.37-68.652,1.788l.009.328q-22.567-.386-45.133-2.057a368.4,368.4,0,0,1-2.221-59.433C543.1,285.56,558.426,270.971,574.756,270.218Z" transform="translate(-541.9 -269.557)" fill="#b799ff"/>
              </g>
            </g>
            <g id="Grupo_11148" data-name="Grupo 11148" transform="translate(85.968 1.723)">
              <g id="Grupo_11147" data-name="Grupo 11147">
                <path id="Trazado_2868" data-name="Trazado 2868" d="M623.367,362.735c.125.187,25.464,5.417,31.846-.666,3-2.672,5.2-25.115,3.731-47.156-1-22-5.677-43.6-5.559-43.615l-.219-.017c-16.348-1.336-29.031,12.3-28.883,29.579Q624.839,331.8,623.367,362.735Z" transform="translate(-623.367 -271.19)" fill="#2500aa"/>
              </g>
            </g>
            <g id="Grupo_11149" data-name="Grupo 11149" transform="translate(92.232 3.062)">
              <path id="Trazado_2869" data-name="Trazado 2869" d="M629.65,364.233h-.017a.348.348,0,0,1-.33-.364c.971-20.47,1.276-41.223.908-61.683-.131-15.163,9.572-27.662,23.071-29.722a.347.347,0,0,1,.106.686c-13.155,2.009-22.61,14.216-22.482,29.027.369,20.472.063,41.24-.908,61.726A.348.348,0,0,1,629.65,364.233Z" transform="translate(-629.303 -272.458)" fill="#130068"/>
            </g>
            <g id="Grupo_11150" data-name="Grupo 11150" transform="translate(85.968 10.544)">
              <path id="Trazado_2870" data-name="Trazado 2870" d="M658.945,314.451a294.375,294.375,0,0,0-4-34.9c1.235,27.447.976,62.571-7.641,71.834-3.959,4.257-15.924,4.543-23.65,4.19q-.135,3.349-.291,6.7c.125.187,25.464,5.417,31.846-.666C658.211,358.935,660.416,336.492,658.945,314.451Z" transform="translate(-623.367 -279.549)" fill="#130068"/>
            </g>
          </g>
          <g id="Grupo_11158" data-name="Grupo 11158" transform="translate(0 49.616)">
            <g id="Grupo_11153" data-name="Grupo 11153" transform="translate(3.289)">
              <g id="Grupo_11152" data-name="Grupo 11152">
                <path id="Trazado_2871" data-name="Trazado 2871" d="M444.86,270.078a736.924,736.924,0,0,0-83.13,1.17,396.762,396.762,0,0,0-.36,89.918q34.326,2.37,68.652,1.789l-.008.327q22.565-.385,45.133-2.057a368.515,368.515,0,0,0,2.22-59.432C476.515,285.421,461.189,270.831,444.86,270.078Z" transform="translate(-358.991 -269.417)" fill="#b799ff"/>
              </g>
            </g>
            <g id="Grupo_11155" data-name="Grupo 11155" transform="translate(0 1.724)">
              <g id="Grupo_11154" data-name="Grupo 11154">
                <path id="Trazado_2872" data-name="Trazado 2872" d="M391.919,362.595c-.125.187-25.464,5.417-31.846-.665-3-2.673-5.2-25.115-3.731-47.157,1-22,5.677-43.6,5.56-43.615l.218-.016c16.348-1.336,29.032,12.3,28.883,29.578Q390.448,331.658,391.919,362.595Z" transform="translate(-355.874 -271.051)" fill="#2500aa"/>
              </g>
            </g>
            <g id="Grupo_11156" data-name="Grupo 11156" transform="translate(5.403 3.062)">
              <path id="Trazado_2873" data-name="Trazado 2873" d="M385.026,364.093a.349.349,0,0,1-.348-.33c-.97-20.487-1.277-41.255-.908-61.729.127-14.808-9.328-27.015-22.482-29.024a.348.348,0,0,1,.105-.687c13.5,2.06,23.2,14.559,23.071,29.719-.367,20.463-.062,41.217.909,61.687a.349.349,0,0,1-.331.364Z" transform="translate(-360.994 -272.319)" fill="#130068"/>
            </g>
            <g id="Grupo_11157" data-name="Grupo 11157" transform="translate(0 10.544)">
              <path id="Trazado_2874" data-name="Trazado 2874" d="M356.341,314.311a294.386,294.386,0,0,1,4-34.9c-1.234,27.447-.976,62.572,7.641,71.835,3.959,4.256,15.924,4.542,23.65,4.189q.135,3.349.291,6.7c-.125.187-25.464,5.417-31.846-.665C357.075,358.8,354.87,336.353,356.341,314.311Z" transform="translate(-355.874 -279.409)" fill="#130068"/>
            </g>
          </g>
          <g id="Grupo_11229" data-name="Grupo 11229" transform="translate(211.273 8.677)">
            <g id="Grupo_11227" data-name="Grupo 11227">
              <g id="Grupo_11226" data-name="Grupo 11226">
                <g id="Grupo_11163" data-name="Grupo 11163" transform="translate(5.968 94.761)">
                  <g id="Grupo_11161" data-name="Grupo 11161">
                    <g id="Grupo_11159" data-name="Grupo 11159" transform="translate(4.008 49.713)">
                      <path id="Trazado_2875" data-name="Trazado 2875" d="M565.756,367.676l.02-.143C565.478,367.582,565.45,367.629,565.756,367.676Z" transform="translate(-565.539 -367.532)" fill="#573b9c"/>
                    </g>
                    <g id="Grupo_11160" data-name="Grupo 11160">
                      <path id="Trazado_2876" data-name="Trazado 2876" d="M614.041,320.422l-42.078,7.729-2.185,15.35-6.931.789-1.106,22.482c5.841.529,11.715.815,17.578.949,9.216.212,20.382.823,29.123-2.476,4.388-1.656,7.5-3.9,8.933-8.408a33.574,33.574,0,0,0,1.135-11.265A100.862,100.862,0,0,0,615,323.9C614.7,322.736,614.394,321.572,614.041,320.422Z" transform="translate(-561.741 -320.422)" fill="#130068"/>
                    </g>
                  </g>
                  <g id="Grupo_11162" data-name="Grupo 11162" transform="translate(5.996)">
                    <path id="Trazado_2877" data-name="Trazado 2877" d="M618.228,348.754c.021-1.067.005-2.131-.032-3.183a100.865,100.865,0,0,0-3.506-21.672c-.3-1.164-.611-2.329-.963-3.478l-42.078,7.729-2.185,15.35-2.041.232C588.166,350.363,608.612,349.642,618.228,348.754Z" transform="translate(-567.423 -320.422)" fill="#0c004d"/>
                  </g>
                </g>
                <g id="Grupo_11168" data-name="Grupo 11168" transform="translate(0 41.55)">
                  <g id="Grupo_11167" data-name="Grupo 11167">
                    <g id="Grupo_11166" data-name="Grupo 11166">
                      <g id="Grupo_11165" data-name="Grupo 11165">
                        <g id="Grupo_11164" data-name="Grupo 11164">
                          <path id="Trazado_2878" data-name="Trazado 2878" d="M556.085,300.963l16.176,10.017,14.219-28.875A9.86,9.86,0,0,0,580.391,270h0C570.472,269.65,556.085,300.963,556.085,300.963Z" transform="translate(-556.085 -269.996)" fill="#ccc"/>
                        </g>
                      </g>
                    </g>
                  </g>
                </g>
                <g id="Grupo_11173" data-name="Grupo 11173" transform="translate(12.439 39.715)">
                  <g id="Grupo_11169" data-name="Grupo 11169" transform="translate(0 0.111)">
                    <path id="Trazado_2879" data-name="Trazado 2879" d="M610.858,271.533c-7-3.1-28.611-5.159-35.142-.141-3.307,2.54-4.375,29.454-4.823,39.358-.352,7.815-3.021,33.261-3.021,33.261,28.764,9.417,51.751,1.849,51.751,1.849S619.738,275.469,610.858,271.533Z" transform="translate(-567.873 -268.363)" fill="#fff"/>
                  </g>
                  <g id="Grupo_11170" data-name="Grupo 11170" transform="translate(7.734 42.63)">
                    <path id="Trazado_2880" data-name="Trazado 2880" d="M601.939,308.656c-4.215,1.985-8.9,4.142-13.557,4.264-4.507.119-8.983-1.737-13.18-3.386l8.645.6a45.612,45.612,0,0,0,9.263-.3Z" transform="translate(-575.202 -308.656)" fill="#ccc"/>
                  </g>
                  <g id="Grupo_11171" data-name="Grupo 11171" transform="translate(12.189)">
                    <path id="Trazado_2881" data-name="Trazado 2881" d="M579.424,269.466c6.408-1.7,16.339-1.558,23.781.132-1.516,4.445-8.788,9.768-16,9.557C582.849,279.029,580.149,275.034,579.424,269.466Z" transform="translate(-579.424 -268.258)" fill="#ff9680"/>
                  </g>
                  <g id="Grupo_11172" data-name="Grupo 11172" transform="translate(16.717 48.044)">
                    <path id="Trazado_2882" data-name="Trazado 2882" d="M618.023,313.787a30.357,30.357,0,0,1-34.308,31.562c20.459,2.8,35.034-2,35.034-2S618.771,329.525,618.023,313.787Z" transform="translate(-583.715 -313.787)" fill="#ccc"/>
                  </g>
                </g>
                <g id="Grupo_11174" data-name="Grupo 11174" transform="translate(10.548 42.855)">
                  <path id="Trazado_2883" data-name="Trazado 2883" d="M575.816,271.233c-4.608,4.126-19.466,35.339.14,39.052" transform="translate(-566.08 -271.233)" fill="#fff"/>
                </g>
                <g id="Grupo_11192" data-name="Grupo 11192" transform="translate(8.689 42.865)">
                  <g id="Grupo_11176" data-name="Grupo 11176" transform="translate(38.522 6.775)">
                    <g id="Grupo_11175" data-name="Grupo 11175">
                      <path id="Trazado_2884" data-name="Trazado 2884" d="M600.865,281.228l10.595,47.241s1.627,5.926,4.806,5.489h0a6.345,6.345,0,0,0,5.348-6.839l-6.762-45.585C614.45,276.587,599.962,276.27,600.865,281.228Z" transform="translate(-600.825 -277.663)" fill="#ff9680"/>
                    </g>
                  </g>
                  <g id="Grupo_11178" data-name="Grupo 11178" transform="translate(14.52 51.376)">
                    <g id="Grupo_11177" data-name="Grupo 11177">
                      <path id="Trazado_2885" data-name="Trazado 2885" d="M619.859,330.678C610.3,336.012,580.01,348.8,580.01,348.8l-1.931-5.828s24.756-19.76,35.239-22.581c3.182-.856,6.533-.684,8.3,2A5.825,5.825,0,0,1,619.859,330.678Z" transform="translate(-578.079 -319.929)" fill="#ff9680"/>
                    </g>
                  </g>
                  <g id="Grupo_11185" data-name="Grupo 11185" transform="translate(0 73.792)">
                    <g id="Grupo_11179" data-name="Grupo 11179" transform="translate(7.229)">
                      <path id="Trazado_2886" data-name="Trazado 2886" d="M571.17,345.428c.9,4.39,5.255,7.388,5.255,7.388s5.1-5.595,8.162-8.745c-.99-1.14-5.062-2.9-5.062-2.9S575.513,343.042,571.17,345.428Z" transform="translate(-571.17 -341.171)" fill="#ff9680"/>
                    </g>
                    <g id="Grupo_11180" data-name="Grupo 11180" transform="translate(2.936 0.575)">
                      <path id="Trazado_2887" data-name="Trazado 2887" d="M579.079,341.716c-6.545.148-11.074,2.489-11.9,3.423-.748.842,4.447.848,4.447.848" transform="translate(-567.102 -341.716)" fill="#ff9680"/>
                    </g>
                    <g id="Grupo_11181" data-name="Grupo 11181" transform="translate(7.361 9.076)">
                      <path id="Trazado_2888" data-name="Trazado 2888" d="M574.38,349.772l2.039,2.568s-4.046,5.122-4.924,4.744C570.368,356.6,574.38,349.772,574.38,349.772Z" transform="translate(-571.295 -349.772)" fill="#ff9680"/>
                    </g>
                    <g id="Grupo_11182" data-name="Grupo 11182" transform="translate(2.612 7.494)">
                      <path id="Trazado_2889" data-name="Trazado 2889" d="M573.439,348.273l1.762,2.7c-2.61,1.743-7.482,7.8-8.361,7.018C566.262,357.478,571.295,349.629,573.439,348.273Z" transform="translate(-566.794 -348.273)" fill="#ff9680"/>
                    </g>
                    <g id="Grupo_11183" data-name="Grupo 11183" transform="translate(0.739 5.394)">
                      <path id="Trazado_2890" data-name="Trazado 2890" d="M571.768,346.283c.73-.041,2.317,2.069,2.317,2.069-2.648,1.8-7.865,7.571-8.946,7.1C564.012,354.971,571.221,346.315,571.768,346.283Z" transform="translate(-565.02 -346.282)" fill="#ff9680"/>
                    </g>
                    <g id="Grupo_11184" data-name="Grupo 11184" transform="translate(0 3.109)">
                      <path id="Trazado_2891" data-name="Trazado 2891" d="M573.328,344.117l-.815,3.064c-2.415,1.1-7.475,5.886-8.069,5.137C563.263,350.83,570.849,344.885,573.328,344.117Z" transform="translate(-564.32 -344.117)" fill="#ff9680"/>
                    </g>
                  </g>
                  <g id="Grupo_11186" data-name="Grupo 11186" transform="translate(39.155 6.775)">
                    <path id="Trazado_2892" data-name="Trazado 2892" d="M618.146,303.975l-3.328-22.44c-.308-3.793-8.889-4.864-12.475-2.926a14.2,14.2,0,0,0-.918,5.266l5.1,22.755Z" transform="translate(-601.425 -277.663)" fill="#cd7362"/>
                  </g>
                  <g id="Grupo_11189" data-name="Grupo 11189" transform="translate(37.917)">
                    <g id="Grupo_11188" data-name="Grupo 11188">
                      <g id="Grupo_11187" data-name="Grupo 11187">
                        <path id="Trazado_2893" data-name="Trazado 2893" d="M602.432,304.461l18.439-4.214s-3.98-24.621-11.511-28.493c-3.318-1.706-9.99.538-9.013,11.48Z" transform="translate(-600.251 -271.242)" fill="#fff"/>
                      </g>
                    </g>
                  </g>
                  <g id="Grupo_11191" data-name="Grupo 11191" transform="translate(10.904 37.06)">
                    <g id="Grupo_11190" data-name="Grupo 11190">
                      <path id="Trazado_2894" data-name="Trazado 2894" d="M623.059,325.534l-2.844-19.172.778,18.722a6.385,6.385,0,0,1-4.3,6.594c-9.3,4.92-31.471,14.407-37.19,16.839-1.218,1.3-3.134,4.759-4.847,8.115.88-1.008,1.58-1.893,1.58-1.893s2.688-2.95,5.333-5.772c5.719-2.431,27.889-11.919,37.19-16.839A6.387,6.387,0,0,0,623.059,325.534Z" transform="translate(-574.653 -306.362)" fill="#cd7362"/>
                    </g>
                  </g>
                </g>
                <g id="Grupo_11222" data-name="Grupo 11222" transform="translate(17.196)">
                  <g id="Grupo_11195" data-name="Grupo 11195" transform="translate(0 0.315)">
                    <g id="Grupo_11193" data-name="Grupo 11193">
                      <path id="Trazado_2895" data-name="Trazado 2895" d="M602,234.344c-4.182-4.827-16.489-4.291-21.57-.017-4.508,3.79-9,30.751-7.869,32.666,1.461,2.478,34.988,3.112,37.19.785C610.734,266.736,609.241,242.7,602,234.344Z" transform="translate(-572.381 -230.92)" fill="#0c004d"/>
                    </g>
                    <g id="Grupo_11194" data-name="Grupo 11194" transform="translate(5.631)">
                      <path id="Trazado_2896" data-name="Trazado 2896" d="M601.7,234.344c-4.182-4.827-16.489-4.291-21.57-.017a11.054,11.054,0,0,0-2.414,4.056l16.441.808-1.477,30.026c8.106.075,15.758-.368,16.772-1.439C610.439,266.736,608.946,242.7,601.7,234.344Z" transform="translate(-577.717 -230.92)" fill="#130068"/>
                    </g>
                  </g>
                  <g id="Grupo_11201" data-name="Grupo 11201" transform="translate(12.503 20.966)">
                    <g id="Grupo_11199" data-name="Grupo 11199">
                      <g id="Grupo_11198" data-name="Grupo 11198">
                        <g id="Grupo_11197" data-name="Grupo 11197">
                          <g id="Grupo_11196" data-name="Grupo 11196">
                            <path id="Trazado_2897" data-name="Trazado 2897" d="M584.819,271.366l-.59-12.726,14.609-8.15-2.4,20.775C595.492,278.178,585.093,277.669,584.819,271.366Z" transform="translate(-584.229 -250.49)" fill="#ff9680"/>
                          </g>
                        </g>
                      </g>
                    </g>
                    <g id="Grupo_11200" data-name="Grupo 11200">
                      <path id="Trazado_2898" data-name="Trazado 2898" d="M584.734,269.538a14.627,14.627,0,0,0,8.678-4.09c2.383-2.653,3.9-6.552,4.86-10.064l.565-4.894-14.609,8.15Z" transform="translate(-584.229 -250.49)" fill="#cd7362"/>
                    </g>
                  </g>
                  <g id="Grupo_11203" data-name="Grupo 11203" transform="translate(2.886 18.373)">
                    <g id="Grupo_11202" data-name="Grupo 11202">
                      <path id="Trazado_2899" data-name="Trazado 2899" d="M589.584,249.2l-9.357-1.126a4.482,4.482,0,0,0-5.057,3.26c-.382,2.081,1.267,4.02,3.667,4.31l9.878,1.188Z" transform="translate(-575.116 -248.034)" fill="#cd7362"/>
                    </g>
                  </g>
                  <g id="Grupo_11205" data-name="Grupo 11205" transform="translate(17.567 18.715)">
                    <g id="Grupo_11204" data-name="Grupo 11204">
                      <path id="Trazado_2900" data-name="Trazado 2900" d="M589.028,256.038l9.424.115a4.481,4.481,0,0,0,4.677-3.784c.157-2.111-1.692-3.861-4.107-3.891l-9.95-.121Z" transform="translate(-589.028 -248.357)" fill="#ff9680"/>
                    </g>
                  </g>
                  <g id="Grupo_11211" data-name="Grupo 11211" transform="translate(4.546 2.131)">
                    <g id="Grupo_11207" data-name="Grupo 11207" transform="translate(0.347 0.346)">
                      <g id="Grupo_11206" data-name="Grupo 11206">
                        <path id="Trazado_2901" data-name="Trazado 2901" d="M601.717,245.15c1.078-5.871-3.505-11.82-10.342-12.155-15.739-.775-14.339,16.532-14.317,21.7.077,18.39,14.622,12.756,18.295,8.667C600.706,257.4,601.717,245.15,601.717,245.15Z" transform="translate(-577.017 -232.969)" fill="#ff9680"/>
                      </g>
                    </g>
                    <g id="Grupo_11210" data-name="Grupo 11210">
                      <g id="Grupo_11209" data-name="Grupo 11209">
                        <g id="Grupo_11208" data-name="Grupo 11208">
                          <path id="Trazado_2902" data-name="Trazado 2902" d="M586.293,267.914a9.132,9.132,0,0,1-4.373-1.032c-3.419-1.85-5.165-5.944-5.191-12.169,0-.33-.008-.71-.017-1.133-.078-4.205-.241-12.953,4.638-17.685,2.425-2.352,5.8-3.432,10.061-3.229a.347.347,0,0,1,.329.364.336.336,0,0,1-.365.33c-4.049-.2-7.259.822-9.541,3.034-4.662,4.521-4.5,13.066-4.428,17.173.008.426.016.809.017,1.144.024,5.951,1.648,9.84,4.828,11.559,3.541,1.915,8.345.687,11.536-1.381a.347.347,0,0,1,.377.584A15.071,15.071,0,0,1,586.293,267.914Z" transform="translate(-576.689 -232.641)" fill="#cd7362"/>
                        </g>
                      </g>
                    </g>
                  </g>
                  <g id="Grupo_11216" data-name="Grupo 11216" transform="translate(7.16 19.926)">
                    <g id="Grupo_11212" data-name="Grupo 11212" transform="translate(0 0.263)">
                      <path id="Trazado_2903" data-name="Trazado 2903" d="M580.155,249.756a1.061,1.061,0,1,0,1.13.988A1.061,1.061,0,0,0,580.155,249.756Z" transform="translate(-579.166 -249.754)" fill="#0c004d"/>
                    </g>
                    <g id="Grupo_11213" data-name="Grupo 11213" transform="translate(1.145)">
                      <path id="Trazado_2904" data-name="Trazado 2904" d="M580.755,249.506a.541.541,0,1,0,.576.5A.541.541,0,0,0,580.755,249.506Z" transform="translate(-580.251 -249.505)" fill="#fff"/>
                    </g>
                    <g id="Grupo_11214" data-name="Grupo 11214" transform="translate(8.694 0.343)">
                      <path id="Trazado_2905" data-name="Trazado 2905" d="M588.394,249.832a1.061,1.061,0,1,0,1.13.987A1.06,1.06,0,0,0,588.394,249.832Z" transform="translate(-587.405 -249.83)" fill="#0c004d"/>
                    </g>
                    <g id="Grupo_11215" data-name="Grupo 11215" transform="translate(9.839 0.079)">
                      <path id="Trazado_2906" data-name="Trazado 2906" d="M588.994,249.581a.542.542,0,1,0,.577.5A.542.542,0,0,0,588.994,249.581Z" transform="translate(-588.49 -249.58)" fill="#fff"/>
                    </g>
                  </g>
                  <g id="Grupo_11217" data-name="Grupo 11217" transform="translate(9.67 18.613)">
                    <path id="Trazado_2907" data-name="Trazado 2907" d="M581.892,255.469a.347.347,0,0,1-.341-.414l1.259-6.514a.342.342,0,0,1,.407-.274.347.347,0,0,1,.275.406l-1.178,6.089,1.212-.035h.011a.347.347,0,0,1,.009.694l-1.645.047Z" transform="translate(-581.545 -248.26)" fill="#cd7362"/>
                  </g>
                  <g id="Grupo_11218" data-name="Grupo 11218" transform="translate(14.448 18.066)">
                    <path id="Trazado_2908" data-name="Trazado 2908" d="M586.125,248a9.574,9.574,0,0,1,1.518-.24,7.5,7.5,0,0,1,2.529.234,7.735,7.735,0,0,1,1.485.559l.038.093a10.065,10.065,0,0,1-1.4.1q-.711.011-1.432-.045a12.482,12.482,0,0,1-1.427-.219,8.336,8.336,0,0,1-1.363-.4Z" transform="translate(-586.072 -247.742)" fill="#0c004d"/>
                  </g>
                  <g id="Grupo_11219" data-name="Grupo 11219" transform="translate(5.41 17.937)">
                    <path id="Trazado_2909" data-name="Trazado 2909" d="M577.549,248.221a9.725,9.725,0,0,1,1.474-.438,7.692,7.692,0,0,1,1.243-.157,7.921,7.921,0,0,1,1.295.057,7.783,7.783,0,0,1,1.545.36l.05.088a10.282,10.282,0,0,1-1.375.287c-.469.069-.945.116-1.426.142a12.667,12.667,0,0,1-1.444-.03,8.4,8.4,0,0,1-1.4-.221Z" transform="translate(-577.507 -247.62)" fill="#0c004d"/>
                  </g>
                  <g id="Grupo_11220" data-name="Grupo 11220" transform="translate(9.712 26.998)">
                    <path id="Trazado_2910" data-name="Trazado 2910" d="M584.483,257.234a16.376,16.376,0,0,1-2.613-.2.347.347,0,0,1-.281-.4.344.344,0,0,1,.4-.282,16.577,16.577,0,0,0,5.65-.137.342.342,0,0,1,.414.265.346.346,0,0,1-.265.413A15.557,15.557,0,0,1,584.483,257.234Z" transform="translate(-581.584 -256.207)" fill="#cd7362"/>
                  </g>
                  <g id="Grupo_11221" data-name="Grupo 11221" transform="translate(1.564)">
                    <path id="Trazado_2911" data-name="Trazado 2911" d="M600.527,234.292c-16.547-10.207-25.907,3.249-26.664,11.562,15.267,2.131,21.36-2.776,21.36-2.776s.036,9.019,2.595,10.913c2.014,1.49,5.909,1,8.4-.979C606.081,247.2,604.322,236.633,600.527,234.292Z" transform="translate(-573.863 -230.622)" fill="#130068"/>
                  </g>
                </g>
                <g id="Grupo_11223" data-name="Grupo 11223" transform="translate(21.729 9.661)">
                  <path id="Trazado_2912" data-name="Trazado 2912" d="M581.935,243.752a19.666,19.666,0,0,1-5-.594.347.347,0,1,1,.177-.671c5.132,1.359,12.512.238,17.555-2.663a.348.348,0,0,1,.346.6A27.436,27.436,0,0,1,581.935,243.752Z" transform="translate(-576.676 -239.777)" fill="#0c004d"/>
                </g>
                <g id="Grupo_11224" data-name="Grupo 11224" transform="translate(23.252 9.338)">
                  <path id="Trazado_2913" data-name="Trazado 2913" d="M587,241.326a32.3,32.3,0,0,1-8.629-1.172.348.348,0,0,1,.186-.67,31.624,31.624,0,0,0,16.074.213.348.348,0,0,1,.169.674A32.32,32.32,0,0,1,587,241.326Z" transform="translate(-578.12 -239.471)" fill="#0c004d"/>
                </g>
                <g id="Grupo_11225" data-name="Grupo 11225" transform="translate(25.832 48.505)">
                  <path id="Trazado_2914" data-name="Trazado 2914" d="M588.308,280.959a9.442,9.442,0,0,1-7.666-3.806.347.347,0,1,1,.541-.435c5.794,7.245,14.89,1.311,16.655.049a.347.347,0,1,1,.4.565C597.072,278.169,592.831,280.959,588.308,280.959Z" transform="translate(-580.565 -276.587)" fill="#ccc"/>
                </g>
              </g>
            </g>
            <g id="Grupo_11228" data-name="Grupo 11228" transform="translate(47.256 58.054)">
              <path id="Trazado_2915" data-name="Trazado 2915" d="M603.227,304.3,600.87,286.03a.347.347,0,1,1,.688-.089l2.248,17.419c3.065-1.027,9.436-2.5,13.715-3.495,1.248-.289,2.333-.541,3.129-.732a.347.347,0,1,1,.164.675c-.8.192-1.885.444-3.135.734-4.465,1.034-11.21,2.6-14.044,3.612Z" transform="translate(-600.867 -285.637)" fill="#ccc"/>
            </g>
          </g>
          <g id="Grupo_11292" data-name="Grupo 11292" transform="translate(41.797)">
            <g id="Grupo_11232" data-name="Grupo 11232" transform="translate(2 113.141)">
              <g id="Grupo_11230" data-name="Grupo 11230" transform="translate(44.91 16.055)">
                <path id="Trazado_2916" data-name="Trazado 2916" d="M495.407,344.831l-46.027.641c-7.654-.066-9.722,5.5-9.414,13.415h0a13.686,13.686,0,0,0,12.892,13.345l45.987,1.9Z" transform="translate(-439.937 -344.831)" fill="#130068"/>
              </g>
              <g id="Grupo_11231" data-name="Grupo 11231">
                <path id="Trazado_2917" data-name="Trazado 2917" d="M472.119,349.835,462.1,347.079l-63.75-17.462s-3.293,36.308,2.24,42.831c9.373,11.048,85.488,5.212,85.488,5.212S494.072,355.42,472.119,349.835Z" transform="translate(-397.378 -329.617)" fill="#2500aa"/>
              </g>
            </g>
            <g id="Grupo_11240" data-name="Grupo 11240" transform="translate(40.73 45.827)">
              <g id="Grupo_11234" data-name="Grupo 11234" transform="translate(1.253 10.84)">
                <g id="Grupo_11233" data-name="Grupo 11233">
                  <path id="Trazado_2918" data-name="Trazado 2918" d="M454.365,280.3,465.2,324.82a6.377,6.377,0,0,1-4.316,7.739h0a6.742,6.742,0,0,1-8.165-4.294l-17.34-48.708C433.612,274.586,453.078,275.1,454.365,280.3Z" transform="translate(-435.268 -276.099)" fill="#cd7362"/>
                </g>
              </g>
              <g id="Grupo_11236" data-name="Grupo 11236" transform="translate(19.201 54.765)">
                <g id="Grupo_11235" data-name="Grupo 11235">
                  <path id="Trazado_2919" data-name="Trazado 2919" d="M453.8,329.325c9.918,6.417,43.3,20.443,43.3,20.443l2.218-6.136-36.783-25a6.764,6.764,0,0,0-8.878,1.883C451.65,323.382,451.948,328.129,453.8,329.325Z" transform="translate(-452.276 -317.725)" fill="#cd7362"/>
                </g>
              </g>
              <g id="Grupo_11239" data-name="Grupo 11239">
                <g id="Grupo_11238" data-name="Grupo 11238">
                  <g id="Grupo_11237" data-name="Grupo 11237">
                    <path id="Trazado_2920" data-name="Trazado 2920" d="M463.267,306.313,444.128,310.9l-9.992-32.711c-.655-5.608,4.649-11.367,8.234-12.182C456.873,262.709,463.185,305.963,463.267,306.313Z" transform="translate(-434.081 -265.827)" fill="#ccc"/>
                  </g>
                </g>
              </g>
            </g>
            <g id="Grupo_11245" data-name="Grupo 11245" transform="translate(1.838 44.951)">
              <g id="Grupo_11241" data-name="Grupo 11241">
                <path id="Trazado_2921" data-name="Trazado 2921" d="M402.495,273.989a11.717,11.717,0,0,1,8.818-6.521c10.436-1.563,33.538-4.462,38.745-.4,8.683,6.769,17.153,82.476,16.917,82.54C438.8,357.368,403.7,359.658,403.7,359.658,401.186,359.321,391.2,297.471,402.495,273.989Z" transform="translate(-397.224 -264.997)" fill="#fff"/>
              </g>
              <g id="Grupo_11242" data-name="Grupo 11242" transform="translate(32.169 45.342)">
                <path id="Trazado_2922" data-name="Trazado 2922" d="M427.709,313.051c8.988,2.236,18.866.286,25.766-5.086Z" transform="translate(-427.709 -307.965)" fill="#ccc"/>
              </g>
              <g id="Grupo_11243" data-name="Grupo 11243" transform="translate(21.939 0.001)">
                <path id="Trazado_2923" data-name="Trazado 2923" d="M439.39,265.034a150.592,150.592,0,0,0-21.375,1.363c.75,4.13,3.816,7.586,10.912,7.4C436.768,273.592,439.076,269.9,439.39,265.034Z" transform="translate(-418.015 -264.997)" fill="#ccc"/>
              </g>
              <g id="Grupo_11244" data-name="Grupo 11244" transform="translate(1.032 64.516)">
                <path id="Trazado_2924" data-name="Trazado 2924" d="M403.643,356.28s35.107-2.29,63.278-10.051c.031-.008-.09-1.335-.341-3.63-29.782,2.847-52.186-2.7-68.378-16.464C399.714,342.764,402.48,356.124,403.643,356.28Z" transform="translate(-398.202 -326.135)" fill="#ccc"/>
              </g>
            </g>
            <g id="Grupo_11265" data-name="Grupo 11265" transform="translate(0 48.934)">
              <g id="Grupo_11247" data-name="Grupo 11247" transform="translate(4.253 7.802)">
                <g id="Grupo_11246" data-name="Grupo 11246">
                  <path id="Trazado_2925" data-name="Trazado 2925" d="M417.457,279.018l-5.028,51.339a6.38,6.38,0,0,1-6.652,5.856h0a6.743,6.743,0,0,1-6.264-6.774l.857-47.64C400.36,276.523,417.979,273.689,417.457,279.018Z" transform="translate(-399.513 -276.165)" fill="#ff9680"/>
                </g>
              </g>
              <g id="Grupo_11249" data-name="Grupo 11249" transform="translate(4.565 55.34)">
                <g id="Grupo_11248" data-name="Grupo 11248">
                  <path id="Trazado_2926" data-name="Trazado 2926" d="M403.2,332.927c10.588,4.81,43.792,15.689,43.792,15.689l1.533-6.356s-27.951-18.738-39.3-20.805c-3.445-.628-6.979-.151-8.618,2.844A6.188,6.188,0,0,0,403.2,332.927Z" transform="translate(-399.809 -321.214)" fill="#ff9680"/>
                </g>
              </g>
              <g id="Grupo_11256" data-name="Grupo 11256" transform="translate(48.177 76.387)">
                <g id="Grupo_11250" data-name="Grupo 11250">
                  <path id="Trazado_2927" data-name="Trazado 2927" d="M455.465,344.934c-.571,4.729-4.917,8.285-4.917,8.285s-5.888-5.478-9.411-8.544c.948-1.294,5.106-3.515,5.106-3.515S450.656,342.788,455.465,344.934Z" transform="translate(-441.137 -341.159)" fill="#ff9680"/>
                </g>
                <g id="Grupo_11251" data-name="Grupo 11251" transform="translate(5.866 0.495)">
                  <path id="Trazado_2928" data-name="Trazado 2928" d="M446.7,341.683c6.945-.418,11.946,1.664,12.908,2.581.865.825-4.636,1.288-4.636,1.288" transform="translate(-446.696 -341.628)" fill="#ff9680"/>
                </g>
                <g id="Grupo_11252" data-name="Grupo 11252" transform="translate(9.411 9.162)">
                  <path id="Trazado_2929" data-name="Trazado 2929" d="M451.988,349.841l-1.933,2.9s4.735,5.069,5.631,4.592C456.837,356.717,451.988,349.841,451.988,349.841Z" transform="translate(-450.055 -349.841)" fill="#ff9680"/>
                </g>
                <g id="Grupo_11253" data-name="Grupo 11253" transform="translate(10.836 7.381)">
                  <path id="Trazado_2930" data-name="Trazado 2930" d="M453.034,348.154l-1.628,3.018c2.917,1.617,8.608,7.606,9.47,6.7C461.444,357.271,455.424,349.4,453.034,348.154Z" transform="translate(-451.406 -348.154)" fill="#ff9680"/>
                </g>
                <g id="Grupo_11254" data-name="Grupo 11254" transform="translate(11.882 5.002)">
                  <path id="Trazado_2931" data-name="Trazado 2931" d="M454.669,345.9c-.777.021-2.272,2.394-2.272,2.394,2.961,1.674,8.993,7.329,10.1,6.739C463.646,354.419,455.251,345.884,454.669,345.9Z" transform="translate(-452.397 -345.899)" fill="#ff9680"/>
                </g>
                <g id="Grupo_11255" data-name="Grupo 11255" transform="translate(12.343 2.715)">
                  <path id="Trazado_2932" data-name="Trazado 2932" d="M452.834,343.732l1.131,3.173c2.655.958,8.434,5.578,9,4.733C464.082,349.958,455.527,344.328,452.834,343.732Z" transform="translate(-452.834 -343.732)" fill="#ff9680"/>
                </g>
              </g>
              <g id="Grupo_11257" data-name="Grupo 11257" transform="translate(4.253 10.967)">
                <path id="Trazado_2933" data-name="Trazado 2933" d="M448.43,349.867s-45.176-14.6-46.219-18.418c-3.278-12.015-.452-49.815-.452-49.815-.005-3.138-1.4-3.442-1.39,0l-.857,47.64a6.786,6.786,0,0,0,5.136,6.6c10.873,4.646,37.439,13.441,41.761,14.864,3.137,2.83,6.437,5.9,6.437,5.9s4.735,5.069,5.631,4.592C458.67,361.134,448.43,349.867,448.43,349.867Z" transform="translate(-399.513 -279.164)" fill="#cd7362"/>
              </g>
              <g id="Grupo_11258" data-name="Grupo 11258" transform="translate(4.523 7.802)">
                <path id="Trazado_2934" data-name="Trazado 2934" d="M400.356,281.8l-.587,32.629,14.137.7,3.537-36.108C417.965,273.689,400.346,276.523,400.356,281.8Z" transform="translate(-399.769 -276.165)" fill="#cd7362"/>
              </g>
              <g id="Grupo_11261" data-name="Grupo 11261" transform="translate(0.348)">
                <g id="Grupo_11260" data-name="Grupo 11260">
                  <g id="Grupo_11259" data-name="Grupo 11259">
                    <path id="Trazado_2935" data-name="Trazado 2935" d="M417.129,312.706l-21.316-1.186s-.224-40.772,12.163-42.744c0,0,11.067-.7,10.485,14.472Z" transform="translate(-395.813 -268.771)" fill="#fff"/>
                  </g>
                </g>
              </g>
              <g id="Grupo_11264" data-name="Grupo 11264" transform="translate(0 3.349)">
                <g id="Grupo_11263" data-name="Grupo 11263">
                  <g id="Grupo_11262" data-name="Grupo 11262">
                    <path id="Trazado_2936" data-name="Trazado 2936" d="M417.148,312.877h-.02l-21.317-1.185a.349.349,0,0,1-.328-.366.327.327,0,0,1,.367-.328l20.966,1.166,1.315-29.106c.176-4.565-.7-8.115-2.6-10.55a.348.348,0,0,1,.549-.429c2,2.571,2.929,6.274,2.747,11.008l-1.33,29.459a.349.349,0,0,1-.347.331Z" transform="translate(-395.483 -271.945)" fill="#ccc"/>
                  </g>
                </g>
              </g>
            </g>
            <g id="Grupo_11291" data-name="Grupo 11291" transform="translate(19.05)">
              <g id="Grupo_11267" data-name="Grupo 11267" transform="translate(7.951 26.641)">
                <g id="Grupo_11266" data-name="Grupo 11266">
                  <path id="Trazado_2937" data-name="Trazado 2937" d="M421.488,247.648a5.818,5.818,0,0,1,1.93.476c2.22.7,4.53,1.176,6.783,1.761l3.684.958,1,.262c.169.044.563.076.673.243.129.194.055.648.063.869q.016.461.031.922c.083,2.535.551,13.659.175,14.726-.8,2.272-3.2,3.167-5.418,3.4-2.143.225-5.054.146-6.617-1.574-1.375-1.512-1.762-10.986-1.974-13.527-.2-2.371-.27-4.8-.6-7.15C421.153,248.551,420.8,247.691,421.488,247.648Z" transform="translate(-421.07 -247.645)" fill="#ff9680"/>
                </g>
              </g>
              <g id="Grupo_11269" data-name="Grupo 11269" transform="translate(17.886 20.574)">
                <g id="Grupo_11268" data-name="Grupo 11268">
                  <path id="Trazado_2938" data-name="Trazado 2938" d="M430.484,243.01l9.861-1.087a4.624,4.624,0,0,1,1.012,9.193l-10.411,1.147Z" transform="translate(-430.484 -241.896)" fill="#cd7362"/>
                </g>
              </g>
              <g id="Grupo_11270" data-name="Grupo 11270" transform="translate(9.708 26.917)">
                <path id="Trazado_2939" data-name="Trazado 2939" d="M435.875,266.094c.065-3.5-.244-10.951-.31-12.969q-.014-.462-.031-.922c-.009-.222.065-.675-.063-.869-.111-.167-.5-.2-.673-.243l-1-.262-3.684-.958c-2.253-.586-4.563-1.066-6.783-1.761-.188-.059-.387-.132-.591-.2.2,3.652.379,7.015.379,7.017a13.335,13.335,0,0,0,3.021,7.541C428.4,265.18,432.062,266.211,435.875,266.094Z" transform="translate(-422.735 -247.907)" fill="#cd7362"/>
              </g>
              <g id="Grupo_11271" data-name="Grupo 11271" transform="translate(23.182 10.555)">
                <path id="Trazado_2940" data-name="Trazado 2940" d="M442.546,232.4a10.24,10.24,0,0,1,3.526,8.3,10.479,10.479,0,0,1-4.645,7.811c-.934-5.321-3.477-10.236-5.923-15.131" transform="translate(-435.503 -232.402)" fill="#0c004d"/>
              </g>
              <g id="Grupo_11274" data-name="Grupo 11274" transform="translate(4.676 6.75)">
                <g id="Grupo_11273" data-name="Grupo 11273">
                  <g id="Grupo_11272" data-name="Grupo 11272">
                    <path id="Trazado_2941" data-name="Trazado 2941" d="M418.86,254.242s-.871-16.12-.871-16.12c-.391-7.261,4.184-8.4,11.416-9.173,12.094-1.288,12.944,5.844,13.764,10.907.778,4.8,3,20.677-3.285,23.59-5.806,2.69-14.053,3.082-18-1.662A13.338,13.338,0,0,1,418.86,254.242Z" transform="translate(-417.966 -228.796)" fill="#ff9680"/>
                  </g>
                </g>
              </g>
              <g id="Grupo_11275" data-name="Grupo 11275" transform="translate(17.439 10.888)">
                <path id="Trazado_2942" data-name="Trazado 2942" d="M430.409,265.9a.347.347,0,0,1-.012-.694,24.646,24.646,0,0,0,8.672-2.294c4.632-2.146,5.292-11.612,2.078-29.789a.348.348,0,0,1,.685-.121c3.323,18.79,2.561,28.21-2.47,30.541a25.384,25.384,0,0,1-8.942,2.357Z" transform="translate(-430.061 -232.717)" fill="#cd7362"/>
              </g>
              <g id="Grupo_11277" data-name="Grupo 11277" transform="translate(0.407 20.653)">
                <g id="Grupo_11276" data-name="Grupo 11276">
                  <path id="Trazado_2943" data-name="Trazado 2943" d="M429.245,251.111l-9.671,2.21a4.625,4.625,0,0,1-2.06-9.017l10.211-2.332Z" transform="translate(-413.92 -241.971)" fill="#ff9680"/>
                </g>
              </g>
              <g id="Grupo_11278" data-name="Grupo 11278" transform="translate(0 6.599)">
                <path id="Trazado_2944" data-name="Trazado 2944" d="M424.857,232.559c.1-3.248-14.495-9.929-10.689,8.389.576,2.771,2.388,8.813,5.126,9.767C422.5,251.828,424.522,243.176,424.857,232.559Z" transform="translate(-413.535 -228.653)" fill="#130068"/>
              </g>
              <g id="Grupo_11279" data-name="Grupo 11279" transform="translate(5.288 0.183)">
                <path id="Trazado_2945" data-name="Trazado 2945" d="M418.835,228.276a7.668,7.668,0,0,1,3.835-3.813c7.431-3.87,16.649-1.665,22.549,5.392a8.15,8.15,0,0,1,2,3.835c.25,1.518-1.282,3.149-2.457,3.565a22.983,22.983,0,0,1-22.109-.165C420.269,235.783,417.666,231.174,418.835,228.276Z" transform="translate(-418.546 -222.573)" fill="#130068"/>
              </g>
              <g id="Grupo_11280" data-name="Grupo 11280" transform="translate(18.975 32.857)">
                <path id="Trazado_2946" data-name="Trazado 2946" d="M434.589,254.716a11.528,11.528,0,0,1-2.809-.328.348.348,0,1,1,.171-.674,13.474,13.474,0,0,0,6.232-.162.347.347,0,0,1,.2.666A14.6,14.6,0,0,1,434.589,254.716Z" transform="translate(-431.517 -253.536)" fill="#cd7362"/>
              </g>
              <g id="Grupo_11281" data-name="Grupo 11281" transform="translate(4.086)">
                <path id="Trazado_2947" data-name="Trazado 2947" d="M420.042,232.066a.347.347,0,0,1-.237-.094c-1.941-1.82-2.71-3.536-2.284-5.1.858-3.15,6.322-4.413,6.554-4.466a.348.348,0,0,1,.152.679c-1.825.41-5.436,1.769-6.036,3.97-.353,1.3.349,2.778,2.089,4.409a.348.348,0,0,1-.238.6Z" transform="translate(-417.407 -222.399)" fill="#130068"/>
              </g>
              <g id="Grupo_11286" data-name="Grupo 11286" transform="translate(16.538 23.386)">
                <g id="Grupo_11282" data-name="Grupo 11282" transform="translate(0 0.732)">
                  <path id="Trazado_2948" data-name="Trazado 2948" d="M430.134,245.263a1.061,1.061,0,1,0,1.187.919A1.061,1.061,0,0,0,430.134,245.263Z" transform="translate(-429.207 -245.255)" fill="#0c004d"/>
                </g>
                <g id="Grupo_11283" data-name="Grupo 11283" transform="translate(1.098 0.434)">
                  <path id="Trazado_2949" data-name="Trazado 2949" d="M430.721,244.976a.541.541,0,1,0,.6.469A.542.542,0,0,0,430.721,244.976Z" transform="translate(-430.248 -244.972)" fill="#fff"/>
                </g>
                <g id="Grupo_11284" data-name="Grupo 11284" transform="translate(8.684 0.299)">
                  <path id="Trazado_2950" data-name="Trazado 2950" d="M438.364,244.852a1.061,1.061,0,1,0,1.186.919A1.061,1.061,0,0,0,438.364,244.852Z" transform="translate(-437.436 -244.844)" fill="#0c004d"/>
                </g>
                <g id="Grupo_11285" data-name="Grupo 11285" transform="translate(9.782)">
                  <path id="Trazado_2951" data-name="Trazado 2951" d="M438.95,244.565a.541.541,0,1,0,.6.469A.541.541,0,0,0,438.95,244.565Z" transform="translate(-438.477 -244.561)" fill="#fff"/>
                </g>
              </g>
              <g id="Grupo_11287" data-name="Grupo 11287" transform="translate(14.632 20.62)">
                <path id="Trazado_2952" data-name="Trazado 2952" d="M430.209,242.11a2.164,2.164,0,0,1,2.78,1.043c-.415.529-5.111,1.183-5.588.791A12.221,12.221,0,0,1,430.209,242.11Z" transform="translate(-427.401 -241.94)" fill="#0c004d"/>
              </g>
              <g id="Grupo_11288" data-name="Grupo 11288" transform="translate(22.972 19.925)">
                <path id="Trazado_2953" data-name="Trazado 2953" d="M438.112,241.451a2.165,2.165,0,0,1,2.781,1.043c-.415.529-5.111,1.183-5.589.793A12.234,12.234,0,0,1,438.112,241.451Z" transform="translate(-435.304 -241.281)" fill="#0c004d"/>
              </g>
              <g id="Grupo_11289" data-name="Grupo 11289" transform="translate(21.263 21.832)">
                <path id="Trazado_2954" data-name="Trazado 2954" d="M435.518,252.337a5.39,5.39,0,0,1-1.6-.23.348.348,0,1,1,.221-.66,4.076,4.076,0,0,0,2.682-.06.631.631,0,0,0,.345-.39.845.845,0,0,0-.082-.686,1.834,1.834,0,0,0-1.039-.627.349.349,0,0,1-.276-.3s-.44-3.919-.693-5.9a.346.346,0,0,1,.3-.389.34.34,0,0,1,.388.3c.218,1.7.571,4.807.67,5.679a2.325,2.325,0,0,1,1.237.866,1.521,1.521,0,0,1,.171,1.228,1.316,1.316,0,0,1-.685.83A3.5,3.5,0,0,1,435.518,252.337Z" transform="translate(-433.684 -243.088)" fill="#cd7362"/>
              </g>
              <g id="Grupo_11290" data-name="Grupo 11290" transform="translate(4.465 7.528)">
                <path id="Trazado_2955" data-name="Trazado 2955" d="M433.536,237.555a24.607,24.607,0,0,1-3.3-.217c-5.285-.713-9.927-3.43-12.418-7.267a.348.348,0,1,1,.584-.379c2.382,3.67,6.84,6.271,11.927,6.957,4.141.559,8.642.017,14.175-1.708a.348.348,0,0,1,.207.664A37.6,37.6,0,0,1,433.536,237.555Z" transform="translate(-417.766 -229.533)" fill="#0c004d"/>
              </g>
            </g>
          </g>
          <g id="Grupo_11339" data-name="Grupo 11339" transform="translate(117.958 2.485)">
            <g id="Grupo_11333" data-name="Grupo 11333">
              <g id="Grupo_11318" data-name="Grupo 11318" transform="translate(22.308)">
                <g id="Grupo_11293" data-name="Grupo 11293" transform="translate(52.225 23.826)">
                  <path id="Trazado_2956" data-name="Trazado 2956" d="M542.225,256.716h-3.591a.348.348,0,0,1-.347-.347V247.68a.348.348,0,0,1,.347-.347h7.3a.347.347,0,0,1,.347.347v4.982A4.059,4.059,0,0,1,542.225,256.716Zm-3.244-.7h3.244a3.364,3.364,0,0,0,3.36-3.359v-4.635h-6.6Z" transform="translate(-538.287 -247.333)" fill="#0c004d"/>
                </g>
                <g id="Grupo_11294" data-name="Grupo 11294" transform="translate(54.127 24.26)">
                  <path id="Trazado_2957" data-name="Trazado 2957" d="M542.771,247.744c1.112.8,3,9.19,2.2,9.989-.873.873-4.881.751-4.881.751" transform="translate(-540.089 -247.744)" fill="#cd7362"/>
                </g>
                <g id="Grupo_11298" data-name="Grupo 11298" transform="translate(28.449 24.413)">
                  <g id="Grupo_11296" data-name="Grupo 11296">
                    <g id="Grupo_11295" data-name="Grupo 11295">
                      <path id="Trazado_2958" data-name="Trazado 2958" d="M515.883,247.976l-.11,34.924c-.593,4.923,14.543,1.83,14.543,1.83,3.693.131.916-36.841.916-36.841Z" transform="translate(-515.756 -247.889)" fill="#ff9680"/>
                    </g>
                  </g>
                  <g id="Grupo_11297" data-name="Grupo 11297" transform="translate(0.056 13.391)">
                    <path id="Trazado_2959" data-name="Trazado 2959" d="M515.837,260.579,532,260.8c.041,1.01.078,2.04.111,3.077a14.756,14.756,0,0,1-7.935,5.724,18.29,18.29,0,0,1-8.362.266Z" transform="translate(-515.809 -260.579)" fill="#cd7362"/>
                  </g>
                </g>
                <g id="Grupo_11299" data-name="Grupo 11299" transform="translate(43.19 13.469)">
                  <path id="Trazado_2960" data-name="Trazado 2960" d="M529.725,270.811l4.859-27.832c.6-1.927,9.424-5.461,9.424-5.461s2.4,28.08-2.816,32.25C537.5,272.721,529.725,270.811,529.725,270.811Z" transform="translate(-529.725 -237.518)" fill="#ff9680"/>
                </g>
                <g id="Grupo_11301" data-name="Grupo 11301" transform="translate(18.813)">
                  <g id="Grupo_11300" data-name="Grupo 11300">
                    <path id="Trazado_2961" data-name="Trazado 2961" d="M516.38,269.732c10.524.115,20.636,2.6,24.7-7.968,2.028-5.279-5.916-9.041,5.909-18.743,4.883-4.007,3.021-11.256-1.043-14.248-7.216-5.311-22.728-4.682-29.414-1.989-6.8,2.739-10.394,9.816-9.854,16.827C507.559,255.058,516.38,269.732,516.38,269.732Z" transform="translate(-506.624 -224.754)" fill="#130068"/>
                  </g>
                </g>
                <g id="Grupo_11304" data-name="Grupo 11304" transform="translate(44.515 6.691)">
                  <g id="Grupo_11302" data-name="Grupo 11302" transform="translate(0 4.242)">
                    <path id="Trazado_2962" data-name="Trazado 2962" d="M535.935,239.847a14.921,14.921,0,0,1-4.717-.749.348.348,0,0,1,.221-.66,15.134,15.134,0,0,0,14.749-3.229.348.348,0,0,1,.476.508A15.855,15.855,0,0,1,535.935,239.847Z" transform="translate(-530.981 -235.115)" fill="#0c004d"/>
                  </g>
                  <g id="Grupo_11303" data-name="Grupo 11303" transform="translate(0.103)">
                    <path id="Trazado_2963" data-name="Trazado 2963" d="M531.426,239.409a.347.347,0,0,1-.051-.691c6.209-.908,10.13-3.271,12.341-7.438a.348.348,0,0,1,.614.326c-2.324,4.379-6.409,6.858-12.854,7.8A.28.28,0,0,1,531.426,239.409Z" transform="translate(-531.079 -231.095)" fill="#0c004d"/>
                  </g>
                </g>
                <g id="Grupo_11306" data-name="Grupo 11306" transform="translate(18.812 9.931)">
                  <g id="Grupo_11305" data-name="Grupo 11305">
                    <path id="Trazado_2964" data-name="Trazado 2964" d="M506.677,243.09a17.838,17.838,0,0,1,1.613-8.925c-4.379,22.488,18.851,33.257,32.885,22.47a8.828,8.828,0,0,1-.1,4.608c-4.062,10.571-14.174,8.083-24.7,7.968C516.38,269.212,507.559,254.538,506.677,243.09Z" transform="translate(-506.624 -234.165)" fill="#130068"/>
                  </g>
                </g>
                <g id="Grupo_11307" data-name="Grupo 11307" transform="translate(50.051 23.735)">
                  <path id="Trazado_2965" data-name="Trazado 2965" d="M536.432,249.4c1.852-6.506,5.4,3.6,5.338,5.6C541.485,264.728,535,254.418,536.432,249.4Z" transform="translate(-536.227 -247.247)" fill="#ff9680"/>
                </g>
                <g id="Grupo_11308" data-name="Grupo 11308" transform="translate(48.277 14.866)">
                  <path id="Trazado_2966" data-name="Trazado 2966" d="M543.319,238.842c-3.4,4.64,2.849,20.694-6.36,14.209C530.744,248.673,537.868,242.494,543.319,238.842Z" transform="translate(-534.546 -238.842)" fill="#130068"/>
                </g>
                <g id="Grupo_11309" data-name="Grupo 11309" transform="translate(24.772 13.749)">
                  <path id="Trazado_2967" data-name="Trazado 2967" d="M512.271,243.864a6.081,6.081,0,1,0,6.081-6.081A6.081,6.081,0,0,0,512.271,243.864Z" transform="translate(-512.271 -237.783)" fill="#ffb034"/>
                </g>
                <g id="Grupo_11310" data-name="Grupo 11310" transform="translate(8.842 6.158)">
                  <circle id="Elipse_533" data-name="Elipse 533" cx="10.773" cy="10.773" r="10.773" transform="translate(0 15.235) rotate(-45)" fill="#130068"/>
                </g>
                <g id="Grupo_11311" data-name="Grupo 11311" transform="translate(13.305 19.656)">
                  <path id="Trazado_2968" data-name="Trazado 2968" d="M512.176,252.416a10.773,10.773,0,0,0,10.632-9.035,10.773,10.773,0,1,1-21.262,0A10.773,10.773,0,0,0,512.176,252.416Z" transform="translate(-501.404 -243.381)" fill="#0c004d"/>
                </g>
                <g id="Grupo_11312" data-name="Grupo 11312" transform="translate(48.503 25.6)">
                  <path id="Trazado_2969" data-name="Trazado 2969" d="M536.6,250.751c2.846,1,4.565.095,5.7-1.737.05,4.087-.535,6.87-5.356,3.475a5.58,5.58,0,0,1-2.188-2.624A8.009,8.009,0,0,0,536.6,250.751Z" transform="translate(-534.76 -249.014)" fill="#0c004d"/>
                </g>
                <g id="Grupo_11313" data-name="Grupo 11313" transform="translate(51.877 25.563)">
                  <path id="Trazado_2970" data-name="Trazado 2970" d="M538.305,252.8a.348.348,0,0,1-.132-.669l7.645-3.128a.348.348,0,0,1,.264.644l-7.645,3.127A.342.342,0,0,1,538.305,252.8Z" transform="translate(-537.957 -248.979)" fill="#0c004d"/>
                </g>
                <g id="Grupo_11317" data-name="Grupo 11317" transform="translate(0 49.884)">
                  <g id="Grupo_11314" data-name="Grupo 11314" transform="translate(21.89)">
                    <path id="Trazado_2971" data-name="Trazado 2971" d="M509.54,294.088c11.132-4.5,21.979-6.26,32.26-9,0,0-5.567-8.744-7.119-13.065a134.325,134.325,0,0,0-22.1,3.217A91.957,91.957,0,0,0,509.54,294.088Z" transform="translate(-509.54 -272.027)" fill="#df8d28"/>
                  </g>
                  <g id="Grupo_11315" data-name="Grupo 11315" transform="translate(5.043 4.435)">
                    <path id="Trazado_2972" data-name="Trazado 2972" d="M535.25,276.884c-53.181-8.236-40.522,63.769-39.984,78.506,44.083,4.511,54.222-3.686,54.258-3.813C554.08,335.554,559.358,280.441,535.25,276.884Z" transform="translate(-493.575 -276.23)" fill="#ffb034"/>
                  </g>
                  <g id="Grupo_11316" data-name="Grupo 11316" transform="translate(0 16.719)">
                    <path id="Trazado_2973" data-name="Trazado 2973" d="M494.215,319.036c-1.275,17.922-5.419,61-5.419,61h27.8s2.75-64.163,2.75-92.16Z" transform="translate(-488.796 -287.871)" fill="#df8d28"/>
                  </g>
                </g>
              </g>
              <g id="Grupo_11332" data-name="Grupo 11332" transform="translate(0 47.451)">
                <g id="Grupo_11325" data-name="Grupo 11325">
                  <g id="Grupo_11319" data-name="Grupo 11319" transform="translate(8.311 6.903)">
                    <path id="Trazado_2974" data-name="Trazado 2974" d="M482.978,276.366c-4.851,1.876-7.446,7.433-7.446,7.433s7.381,4.758,11.575,7.662a7.817,7.817,0,0,1,3.464-1.968S487.792,274.9,482.978,276.366Z" transform="translate(-475.532 -276.263)" fill="#ff9680"/>
                  </g>
                  <g id="Grupo_11320" data-name="Grupo 11320" transform="translate(14.718 2.072)">
                    <path id="Trazado_2975" data-name="Trazado 2975" d="M488.331,284.707c-1.426-7.462-4.974-12.194-6.2-12.966-1.107-.694-.116,5.253-.116,5.253" transform="translate(-481.603 -271.685)" fill="#ff9680"/>
                  </g>
                  <g id="Grupo_11321" data-name="Grupo 11321" transform="translate(1.929 9.375)">
                    <path id="Trazado_2976" data-name="Trazado 2976" d="M478.414,280.844l-2.547,2.826s-6.64-3.647-6.375-4.724C469.831,277.562,478.414,280.844,478.414,280.844Z" transform="translate(-469.484 -278.606)" fill="#ff9680"/>
                  </g>
                  <g id="Grupo_11322" data-name="Grupo 11322" transform="translate(0 4.174)">
                    <path id="Trazado_2977" data-name="Trazado 2977" d="M480.1,279.451l-2.756,2.536c-2.5-2.652-10.367-7.064-9.638-8.22C468.185,273,478.133,277.259,480.1,279.451Z" transform="translate(-467.656 -273.677)" fill="#ff9680"/>
                  </g>
                  <g id="Grupo_11323" data-name="Grupo 11323" transform="translate(2.722 1.506)">
                    <path id="Trazado_2978" data-name="Trazado 2978" d="M482.018,277.164c.187.826-1.923,3.049-1.923,3.049-2.567-2.685-10.176-7.546-9.85-8.874C470.585,269.954,481.876,276.542,482.018,277.164Z" transform="translate(-470.235 -271.148)" fill="#ff9680"/>
                  </g>
                  <g id="Grupo_11324" data-name="Grupo 11324" transform="translate(6.261)">
                    <path id="Trazado_2979" data-name="Trazado 2979" d="M484.74,278.544l-3.663-.344c-1.729-2.553-8.172-7.425-7.429-8.249C475.124,268.314,483.385,275.854,484.74,278.544Z" transform="translate(-473.589 -269.721)" fill="#ff9680"/>
                  </g>
                </g>
                <g id="Grupo_11326" data-name="Grupo 11326" transform="translate(12.305 18.615)">
                  <path id="Trazado_2980" data-name="Trazado 2980" d="M492.1,287.838l-11.536-.477-1.247,6.028,12.46.513Z" transform="translate(-479.317 -287.361)" fill="#fff"/>
                </g>
                <g id="Grupo_11328" data-name="Grupo 11328" transform="translate(6.336 11.702)">
                  <g id="Grupo_11327" data-name="Grupo 11327">
                    <path id="Trazado_2981" data-name="Trazado 2981" d="M505.21,285.346l-30.173,45.945c-2.033,3.23-1.938,8.406,1.123,10.525h0a7.363,7.363,0,0,0,9.938-1.656l32-40.983C525.9,288.279,514.426,273.129,505.21,285.346Z" transform="translate(-473.66 -280.811)" fill="#ffb034"/>
                  </g>
                </g>
                <g id="Grupo_11330" data-name="Grupo 11330" transform="translate(6.372 20.595)">
                  <g id="Grupo_11329" data-name="Grupo 11329">
                    <path id="Trazado_2982" data-name="Trazado 2982" d="M477.009,289.238l15.75,1.624s-1.163,21.778-1.39,25.716c-.577,10.028-.207,10.424-3.648,18.979-1.455,3.616-4.025,6.9-7.8,6.426-7.856-.982-6.339-10.04-5.611-21.14C475.26,306.409,477.009,289.238,477.009,289.238Z" transform="translate(-473.694 -289.238)" fill="#ffb034"/>
                  </g>
                </g>
                <g id="Grupo_11331" data-name="Grupo 11331" transform="translate(5.978 43.453)">
                  <path id="Trazado_2983" data-name="Trazado 2983" d="M478.7,335.354c-2.973-1.9-3.769-12.813-3.728-24.455-.231,2.92-.45,5.887-.637,8.748-.232,3.545-1.012,12.418-1.013,13.737,0,3.2.615,5.218,2.858,6.77a7.363,7.363,0,0,0,9.938-1.656l6.382-8.174C486.793,334.829,481.723,337.289,478.7,335.354Z" transform="translate(-473.321 -310.899)" fill="#df8d28"/>
                </g>
              </g>
            </g>
            <g id="Grupo_11338" data-name="Grupo 11338" transform="translate(30.772 60.288)">
              <g id="Grupo_11334" data-name="Grupo 11334">
                <path id="Trazado_2984" data-name="Trazado 2984" d="M497.693,388a212.43,212.43,0,0,0,61-.975c3.04-30.07,5.241-59.716,4.983-88.63-.119-8.22-6.792-16.05-14-16.369a210.219,210.219,0,0,0-35.817,1.744c-6.208.862-11.7,7.421-13.063,15.8C497.312,329.9,495.68,359.492,497.693,388Z" transform="translate(-496.817 -281.886)" fill="#b799ff"/>
              </g>
              <g id="Grupo_11335" data-name="Grupo 11335" transform="translate(11.832 0)">
                <path id="Trazado_2985" data-name="Trazado 2985" d="M508.324,388.3a216.749,216.749,0,0,0,60.6-3.085c3.96-29.47,6.326-58.258,5.477-86.058-.287-7.88-7.2-15.733-14.423-16.45a211.091,211.091,0,0,0-35.9-.111c-6.225.527-11.544,6.926-12.248,14.358C509.063,327.97,507.3,358.532,508.324,388.3Z" transform="translate(-508.03 -281.886)" fill="#2500aa"/>
              </g>
              <g id="Grupo_11336" data-name="Grupo 11336" transform="translate(15.884 3.988)">
                <path id="Trazado_2986" data-name="Trazado 2986" d="M527.467,389.4q-7.593,0-15.167-.532a.345.345,0,0,1-.322-.339c-.616-31.4,1.51-62.9,3.672-89.566.556-6.782,5.41-12.394,11.051-12.778a236.062,236.062,0,0,1,31.92.042c6.589.514,12.74,7.511,12.909,14.681.377,24.5-1.431,51.454-5.687,84.832a.349.349,0,0,1-.285.3A217.605,217.605,0,0,1,527.467,389.4Zm-14.8-1.2a216.569,216.569,0,0,0,52.52-2.8c4.228-33.226,6.023-60.077,5.65-84.477-.161-6.838-6.008-13.514-12.265-14a235.84,235.84,0,0,0-31.823-.041c-5.3.361-9.875,5.694-10.4,12.141C514.189,325.579,512.071,356.929,512.666,388.2Z" transform="translate(-511.87 -285.665)" fill="#130068"/>
              </g>
              <g id="Grupo_11337" data-name="Grupo 11337" transform="translate(0 1.843)">
                <path id="Trazado_2987" data-name="Trazado 2987" d="M502.209,387.524c-2.025-28.823-.408-58.736,3.064-89.4,1.043-6.519,4.539-11.944,8.924-14.494l-.337.043c-6.208.862-11.7,7.421-13.063,15.8-3.487,30.332-5.118,59.922-3.106,88.432a210.909,210.909,0,0,0,45.835.906A208.37,208.37,0,0,1,502.209,387.524Z" transform="translate(-496.817 -283.632)" fill="#b799ff"/>
              </g>
            </g>
          </g>
        </g>
      </g>
    </g>
    <g id="Grupo_11343" data-name="Grupo 11343" transform="translate(360.756 314.299)">
      <path id="Trazado_2989" data-name="Trazado 2989" d="M536.836,390.9c-113.692,0-160.382-56.9-176.446-84.87a.989.989,0,0,1,1.716-.985c18.907,32.925,80.789,106.352,246.681,77.158a.988.988,0,1,1,.343,1.947A417.551,417.551,0,0,1,536.836,390.9Z" transform="translate(-360.258 -304.551)" fill="#e0d4ff"/>
    </g>
  </g>
</svg>
