<svg xmlns="http://www.w3.org/2000/svg" xmlns:xlink="http://www.w3.org/1999/xlink" width="235.085" height="234.109" viewBox="0 0 235.085 234.109">
  <defs>
    <linearGradient id="linear-gradient" x1="0.734" y1="0.396" x2="0.361" y2="0.565" gradientUnits="objectBoundingBox">
      <stop offset="0.004" stop-color="#e38ddd"/>
      <stop offset="1" stop-color="#9571f6"/>
    </linearGradient>
    <linearGradient id="linear-gradient-2" x1="1.344" y1="0.101" x2="0.029" y2="0.866" gradientUnits="objectBoundingBox">
      <stop offset="0" stop-color="#ffc444"/>
      <stop offset="0.996" stop-color="#f36f56"/>
    </linearGradient>
    <linearGradient id="linear-gradient-3" y1="0.5" x2="1" y2="0.5" gradientUnits="objectBoundingBox">
      <stop offset="0" stop-color="#ff9085"/>
      <stop offset="1" stop-color="#fb6fbb"/>
    </linearGradient>
    <linearGradient id="linear-gradient-4" x1="1.209" y1="0.059" x2="-0.143" y2="0.922" xlink:href="#linear-gradient"/>
    <clipPath id="clip-path">
      <path id="Trazado_1877" data-name="Trazado 1877" d="M495.267,1403.669a2.761,2.761,0,0,0,1.228-.429c1.069-1.013,3.194-2.78,3.33-4.331.023-.265-1.115-.682-1.244-.947a3.147,3.147,0,0,1-1.34-1.283c-1.246-2.151,2.775-5.253-1.1-7.122-2.836-1.369-5.5-.714-4.5-5.283s-1.422-13.518-6.77-11.016c-3.069,1.436-.808,5.779-2.673,8.462-1.773,2.55-.94,4.986,1.74,7.068s.931,3.121-.3,5.61c-1.483,2.99,3.266,4.258,5.509,4.656C490.954,1399.376,495.336,1401.411,495.267,1403.669Z" transform="translate(-481.266 -1372.825)" fill="url(#linear-gradient)"/>
    </clipPath>
    <clipPath id="clip-path-2">
      <path id="Trazado_1884" data-name="Trazado 1884" d="M570.964,1318.136a2.887,2.887,0,0,0,1.362,0c1.407-.631,4.119-1.643,4.79-3.13.115-.254-.866-1.059-.9-1.366a3.3,3.3,0,0,1-.881-1.731c-.488-2.557,4.56-4.234,1.379-7.42-2.33-2.334-5.188-2.608-2.62-6.778s3.269-13.854-2.883-13.23c-3.53.358-2.8,5.433-5.569,7.44-2.634,1.907-2.653,4.6-.724,7.588s-.159,3.407-2.24,5.441c-2.5,2.443,1.756,5.338,3.835,6.507C568.185,1312.4,571.813,1315.928,570.964,1318.136Z" transform="translate(-561.912 -1284.455)" fill="url(#linear-gradient-2)"/>
    </clipPath>
    <linearGradient id="linear-gradient-7" x1="4.981" y1="1.674" x2="4.329" y2="1.975" xlink:href="#linear-gradient"/>
    <clipPath id="clip-path-3">
      <path id="Trazado_1892" data-name="Trazado 1892" d="M1112.578,1046.258a5.227,5.227,0,0,1-2.308.865c-2.787-.179-8.026-.176-10.105-2.271-.355-.358.8-2.345.664-2.888a5.968,5.968,0,0,0,.4-3.494c-.793-4.646-10.415-4.29-7.04-11.709,2.472-5.434,7.145-7.709.148-13.154s-14.323-21.422-3.5-24.263c6.214-1.63,8.186,7.441,14.158,9.088,5.676,1.565,7.418,6.126,6.038,12.408s2.428,5.677,7.246,7.807c5.787,2.559.4,10.166-2.379,13.466C1113.656,1034.772,1109.739,1043.051,1112.578,1046.258Z" transform="translate(-1085.337 -989.149)" fill="url(#linear-gradient-3)"/>
    </clipPath>
    <clipPath id="clip-path-4">
      <path id="Trazado_1899" data-name="Trazado 1899" d="M1254.377,1091.755a5.47,5.47,0,0,1-2.532-.5c-2.382-1.7-7.048-4.582-7.744-7.594-.119-.515,2-1.648,2.183-2.205a6.249,6.249,0,0,0,2.28-2.892c1.856-4.574-6.907-9.562.188-14.306,5.2-3.475,10.612-2.924,7.385-11.629s-.94-26.97,10.266-23.529c6.431,1.975,3.185,11.138,7.594,15.9,4.19,4.523,3.226,9.543-1.467,14.376s-.969,6.393,2.146,10.946c3.741,5.469-5.245,9.274-9.543,10.677C1261.671,1082.122,1253.618,1087.334,1254.377,1091.755Z" transform="translate(-1244.097 -1028.67)" fill="url(#linear-gradient-4)"/>
    </clipPath>
    <linearGradient id="linear-gradient-10" x1="1.74" y1="0.831" x2="0.566" y2="0.511" gradientUnits="objectBoundingBox">
      <stop offset="0" stop-color="#311944"/>
      <stop offset="1" stop-color="#a03976"/>
    </linearGradient>
    <linearGradient id="linear-gradient-11" x1="2.229" y1="0.823" x2="0.272" y2="0.477" xlink:href="#linear-gradient-10"/>
    <linearGradient id="linear-gradient-14" x1="0.239" y1="2.846" x2="0.605" y2="-0.259" gradientUnits="objectBoundingBox">
      <stop offset="0" stop-color="#444b8c"/>
      <stop offset="0.996" stop-color="#26264f"/>
    </linearGradient>
    <linearGradient id="linear-gradient-15" x1="0.438" y1="3.177" x2="0.516" y2="-0.32" gradientUnits="objectBoundingBox">
      <stop offset="0.1" stop-color="#311944"/>
      <stop offset="0.267" stop-color="#361b47"/>
      <stop offset="0.48" stop-color="#462050"/>
      <stop offset="0.719" stop-color="#602a5f"/>
      <stop offset="0.974" stop-color="#843773"/>
      <stop offset="1" stop-color="#893976"/>
    </linearGradient>
    <linearGradient id="linear-gradient-16" x1="0.988" y1="0.557" x2="18.414" y2="2.438" xlink:href="#linear-gradient-15"/>
    <linearGradient id="linear-gradient-17" x1="0.15" y1="2.888" x2="0.63" y2="-0.295" xlink:href="#linear-gradient-14"/>
    <linearGradient id="linear-gradient-18" x1="0.885" y1="7.14" x2="-0.953" y2="-22.479" gradientUnits="objectBoundingBox">
      <stop offset="0.1" stop-color="#311944"/>
      <stop offset="0.685" stop-color="#6d2e66"/>
      <stop offset="1" stop-color="#893976"/>
    </linearGradient>
    <linearGradient id="linear-gradient-19" x1="2.507" y1="0.836" x2="-0.59" y2="0.309" gradientUnits="objectBoundingBox">
      <stop offset="0" stop-color="#311944"/>
      <stop offset="1" stop-color="#893976"/>
    </linearGradient>
    <linearGradient id="linear-gradient-20" x1="-0.722" y1="0.099" x2="0.536" y2="0.581" xlink:href="#linear-gradient-19"/>
    <linearGradient id="linear-gradient-21" x1="0.437" y1="-0.479" x2="0.53" y2="0.935" xlink:href="#linear-gradient-18"/>
    <linearGradient id="linear-gradient-22" x1="0.203" y1="0.325" x2="0.951" y2="0.917" xlink:href="#linear-gradient-19"/>
    <linearGradient id="linear-gradient-23" x1="0.152" y1="0.495" x2="0.441" y2="0.472" xlink:href="#linear-gradient-18"/>
    <linearGradient id="linear-gradient-24" x1="0.592" y1="2.528" x2="0.488" y2="0.167" xlink:href="#linear-gradient-15"/>
    <linearGradient id="linear-gradient-25" x1="0.642" y1="3.142" x2="0.466" y2="-0.185" xlink:href="#linear-gradient-19"/>
    <linearGradient id="linear-gradient-26" x1="2.625" y1="1.517" x2="-0.622" y2="-0.008" xlink:href="#linear-gradient-2"/>
    <linearGradient id="linear-gradient-27" x1="-0.331" y1="0.234" x2="2.97" y2="1.286" xlink:href="#linear-gradient-2"/>
    <linearGradient id="linear-gradient-28" y1="0.5" x2="1" y2="0.5" gradientUnits="objectBoundingBox">
      <stop offset="0" stop-color="#ab316d"/>
      <stop offset="1" stop-color="#792d3d"/>
    </linearGradient>
    <linearGradient id="linear-gradient-29" x1="0" y1="0.5" x2="1" y2="0.5" xlink:href="#linear-gradient-2"/>
    <linearGradient id="linear-gradient-31" x1="1.191" y1="-0.116" x2="-0.382" y2="1.376" xlink:href="#linear-gradient-28"/>
    <linearGradient id="linear-gradient-33" x1="0.845" y1="-0.181" x2="-0.064" y2="1.596" xlink:href="#linear-gradient-28"/>
    <linearGradient id="linear-gradient-34" x1="0.5" y1="-0.237" x2="0.5" y2="1.925" xlink:href="#linear-gradient"/>
    <linearGradient id="linear-gradient-35" x1="0.5" y1="-0.231" x2="0.5" y2="1.856" xlink:href="#linear-gradient"/>
    <linearGradient id="linear-gradient-36" x1="0.5" y1="-0.234" x2="0.5" y2="1.89" xlink:href="#linear-gradient"/>
    <linearGradient id="linear-gradient-38" x1="0.506" y1="-0.108" x2="0.495" y2="0.526" xlink:href="#linear-gradient-3"/>
    <linearGradient id="linear-gradient-39" x1="0.506" y1="-0.108" x2="0.495" y2="0.526" xlink:href="#linear-gradient-2"/>
    <linearGradient id="linear-gradient-41" x1="-0.017" y1="0.5" x2="1" y2="0.5" xlink:href="#linear-gradient-3"/>
    <linearGradient id="linear-gradient-42" x1="0.913" y1="1.611" x2="-0.159" y2="-1.285" gradientUnits="objectBoundingBox">
      <stop offset="0" stop-color="#aa80f9"/>
      <stop offset="0.996" stop-color="#6165d7"/>
    </linearGradient>
    <linearGradient id="linear-gradient-43" x1="1.084" y1="1.527" x2="-2.138" y2="-3.616" xlink:href="#linear-gradient-2"/>
    <linearGradient id="linear-gradient-44" x1="0.543" y1="0.407" x2="0.331" y2="1.214" xlink:href="#linear-gradient-2"/>
    <linearGradient id="linear-gradient-45" x1="0.433" y1="1.072" x2="0.523" y2="-0.13" xlink:href="#linear-gradient-42"/>
    <linearGradient id="linear-gradient-46" x1="1.355" y1="3.664" x2="1.043" y2="5.109" xlink:href="#linear-gradient-2"/>
    <linearGradient id="linear-gradient-47" x1="-25.657" y1="2.552" x2="-26.358" y2="1.024" gradientUnits="objectBoundingBox">
      <stop offset="0" stop-color="#311944"/>
      <stop offset="1" stop-color="#6b3976"/>
    </linearGradient>
    <linearGradient id="linear-gradient-48" x1="13.539" y1="2.82" x2="13.501" y2="5.976" xlink:href="#linear-gradient-2"/>
    <linearGradient id="linear-gradient-49" x1="-31.371" y1="2.923" x2="-32.239" y2="0.867" xlink:href="#linear-gradient-47"/>
    <linearGradient id="linear-gradient-50" x1="-141.447" y1="15.69" x2="-141.261" y2="20.874" gradientUnits="objectBoundingBox">
      <stop offset="0" stop-color="#ffc444"/>
      <stop offset="1" stop-color="#f36f56"/>
    </linearGradient>
    <linearGradient id="linear-gradient-51" x1="0.278" y1="1.264" x2="0.609" y2="0.1" xlink:href="#linear-gradient-2"/>
    <linearGradient id="linear-gradient-52" x1="0.414" y1="2.224" x2="0.535" y2="-0.364" xlink:href="#linear-gradient-42"/>
    <linearGradient id="linear-gradient-53" x1="-5.149" y1="1.264" x2="-4.817" y2="0.1" xlink:href="#linear-gradient-2"/>
    <linearGradient id="linear-gradient-54" x1="-2.191" y1="2.231" x2="-2.066" y2="-0.366" xlink:href="#linear-gradient-42"/>
    <linearGradient id="linear-gradient-55" x1="0.403" y1="2.83" x2="0.572" y2="-1.062" xlink:href="#linear-gradient"/>
  </defs>
  <g id="Grupo_10123" data-name="Grupo 10123" transform="translate(-449.167 -455)">
    <path id="Trazado_1869" data-name="Trazado 1869" d="M627.739,469.071c7.9,11.3-1.362,29.627,10.353,38.128,11.4,8.275,25.414-5.289,36.162,1.834,15.944,10.566,13.032,58.916-10.278,88.957-7.01,9.034-12.868,12.549-15.462,22.767-5.571,21.939,14.007,34.99,10.282,45.841-8.389,24.432-137.4,44.933-189.169-28.493-24.177-34.293-27.794-83.812-6.193-121.422C502.467,448.721,610.023,443.71,627.739,469.071Z" transform="translate(0 0)" fill="#370b7d"/>
    <g id="Grupo_10122" data-name="Grupo 10122" transform="translate(451.851 487.692)">
      <g id="Grupo_10081" data-name="Grupo 10081" transform="translate(0 44.048)">
        <g id="Grupo_10080" data-name="Grupo 10080">
          <g id="Grupo_10079" data-name="Grupo 10079">
            <path id="Trazado_1871" data-name="Trazado 1871" d="M495.267,1403.669a2.761,2.761,0,0,0,1.228-.429c1.069-1.013,3.194-2.78,3.33-4.331.023-.265-1.115-.682-1.244-.947a3.147,3.147,0,0,1-1.34-1.283c-1.246-2.151,2.775-5.253-1.1-7.122-2.836-1.369-5.5-.714-4.5-5.283s-1.422-13.518-6.77-11.016c-3.069,1.436-.808,5.779-2.673,8.462-1.773,2.55-.94,4.986,1.74,7.068s.931,3.121-.3,5.61c-1.483,2.99,3.266,4.258,5.509,4.656C490.954,1399.376,495.336,1401.411,495.267,1403.669Z" transform="translate(-481.266 -1372.825)" fill="url(#linear-gradient)"/>
            <g id="Grupo_10078" data-name="Grupo 10078" clip-path="url(#clip-path)">
              <g id="Grupo_10077" data-name="Grupo 10077" transform="translate(-0.579 -0.787)" style="mix-blend-mode: soft-light;isolation: isolate">
                <g id="Grupo_10076" data-name="Grupo 10076">
                  <path id="Trazado_1872" data-name="Trazado 1872" d="M549.655,1392.58l.04-.059c-9.042-6.182-13.437-17.058-11.756-29.094l-.07-.01a32.957,32.957,0,0,0,1.727,16.365A27.271,27.271,0,0,0,549.655,1392.58Z" transform="translate(-532.243 -1363.417)" fill="#fcfdfe"/>
                  <path id="Trazado_1873" data-name="Trazado 1873" d="M500.446,1642.22a20.775,20.775,0,0,1,10.508,1.49l.03-.064a20.86,20.86,0,0,0-10.551-1.5Z" transform="translate(-498.252 -1618.688)" fill="#fcfdfe"/>
                  <path id="Trazado_1874" data-name="Trazado 1874" d="M648.28,1582.271l.055-.045a6.334,6.334,0,0,1-1.079-5.156,18.563,18.563,0,0,1,1.763-5.277l-.064-.031a18.638,18.638,0,0,0-1.769,5.3A6.4,6.4,0,0,0,648.28,1582.271Z" transform="translate(-632.629 -1554.342)" fill="#fcfdfe"/>
                  <path id="Trazado_1875" data-name="Trazado 1875" d="M481.447,1506.779l.057-.042c-1.836-2.471-4.9-3.512-7.151-3.949l-.014.069C476.576,1503.292,479.624,1504.326,481.447,1506.779Z" transform="translate(-474.339 -1491.135)" fill="#fcfdfe"/>
                  <path id="Trazado_1876" data-name="Trazado 1876" d="M540.046,1385.728l.071.005c.256-3.459,2.669-6.185,4.085-7.5l-.048-.052C542.73,1379.5,540.3,1382.245,540.046,1385.728Z" transform="translate(-534.552 -1376.945)" fill="#fcfdfe"/>
                </g>
              </g>
            </g>
          </g>
        </g>
      </g>
      <g id="Grupo_10087" data-name="Grupo 10087" transform="translate(6.743 36.66)">
        <g id="Grupo_10086" data-name="Grupo 10086">
          <g id="Grupo_10085" data-name="Grupo 10085">
            <path id="Trazado_1878" data-name="Trazado 1878" d="M570.964,1318.136a2.887,2.887,0,0,0,1.362,0c1.407-.631,4.119-1.643,4.79-3.13.115-.254-.866-1.059-.9-1.366a3.3,3.3,0,0,1-.881-1.731c-.488-2.557,4.56-4.234,1.379-7.42-2.33-2.334-5.188-2.608-2.62-6.778s3.269-13.854-2.883-13.23c-3.53.358-2.8,5.433-5.569,7.44-2.634,1.907-2.653,4.6-.724,7.588s-.159,3.407-2.24,5.441c-2.5,2.443,1.756,5.338,3.835,6.507C568.185,1312.4,571.813,1315.928,570.964,1318.136Z" transform="translate(-561.912 -1284.455)" fill="url(#linear-gradient-2)"/>
            <g id="Grupo_10084" data-name="Grupo 10084" clip-path="url(#clip-path-2)">
              <g id="Grupo_10083" data-name="Grupo 10083" transform="translate(-0.391 -0.68)" style="mix-blend-mode: soft-light;isolation: isolate">
                <g id="Grupo_10082" data-name="Grupo 10082">
                  <path id="Trazado_1879" data-name="Trazado 1879" d="M653.229,1309.22l.06-.044c-6.8-9.237-7.383-21.508-1.56-32.824l-.066-.034a34.518,34.518,0,0,0-3.952,16.774A28.559,28.559,0,0,0,653.229,1309.22Z" transform="translate(-640.132 -1276.318)" fill="#fcfdfe"/>
                  <path id="Trazado_1880" data-name="Trazado 1880" d="M557.234,1539.522a21.758,21.758,0,0,1,9.872,5.107l.052-.053a21.849,21.849,0,0,0-9.912-5.127Z" transform="translate(-557.234 -1517.448)" fill="#fcfdfe"/>
                  <path id="Trazado_1881" data-name="Trazado 1881" d="M694.636,1536.671l.07-.026a6.634,6.634,0,0,1,.716-5.469,19.434,19.434,0,0,1,3.568-4.607l-.053-.053a19.522,19.522,0,0,0-3.581,4.625A6.7,6.7,0,0,0,694.636,1536.671Z" transform="translate(-682.854 -1505.597)" fill="#fcfdfe"/>
                  <path id="Trazado_1882" data-name="Trazado 1882" d="M585.81,1397.266l.071-.022c-.96-3.078-3.631-5.166-5.7-6.377l-.038.064C582.2,1392.135,584.857,1394.21,585.81,1397.266Z" transform="translate(-578.226 -1381.29)" fill="#fcfdfe"/>
                  <path id="Trazado_1883" data-name="Trazado 1883" d="M657.246,1313.393l.068.03c1.449-3.331,4.777-5.191,6.632-6l-.03-.068C662.052,1308.168,658.705,1310.039,657.246,1313.393Z" transform="translate(-648.884 -1304.756)" fill="#fcfdfe"/>
                </g>
              </g>
            </g>
          </g>
        </g>
      </g>
      <g id="Grupo_10093" data-name="Grupo 10093" transform="translate(50.507 11.969)">
        <g id="Grupo_10092" data-name="Grupo 10092">
          <path id="Trazado_1885" data-name="Trazado 1885" d="M1112.578,1046.258a5.227,5.227,0,0,1-2.308.865c-2.787-.179-8.026-.176-10.105-2.271-.355-.358.8-2.345.664-2.888a5.968,5.968,0,0,0,.4-3.494c-.793-4.646-10.415-4.29-7.04-11.709,2.472-5.434,7.145-7.709.148-13.154s-14.323-21.422-3.5-24.263c6.214-1.63,8.186,7.441,14.158,9.088,5.676,1.565,7.418,6.126,6.038,12.408s2.428,5.677,7.246,7.807c5.787,2.559.4,10.166-2.379,13.466C1113.656,1034.772,1109.739,1043.051,1112.578,1046.258Z" transform="translate(-1085.337 -989.149)" fill="url(#linear-gradient-7)"/>
          <g id="Grupo_10091" data-name="Grupo 10091">
            <path id="Trazado_1886" data-name="Trazado 1886" d="M1112.578,1046.258a5.227,5.227,0,0,1-2.308.865c-2.787-.179-8.026-.176-10.105-2.271-.355-.358.8-2.345.664-2.888a5.968,5.968,0,0,0,.4-3.494c-.793-4.646-10.415-4.29-7.04-11.709,2.472-5.434,7.145-7.709.148-13.154s-14.323-21.422-3.5-24.263c6.214-1.63,8.186,7.441,14.158,9.088,5.676,1.565,7.418,6.126,6.038,12.408s2.428,5.677,7.246,7.807c5.787,2.559.4,10.166-2.379,13.466C1113.656,1034.772,1109.739,1043.051,1112.578,1046.258Z" transform="translate(-1085.337 -989.149)" fill="url(#linear-gradient-3)"/>
            <g id="Grupo_10090" data-name="Grupo 10090" clip-path="url(#clip-path-3)">
              <g id="Grupo_10089" data-name="Grupo 10089" transform="translate(-2.377 0.16)" style="mix-blend-mode: soft-light;isolation: isolate">
                <g id="Grupo_10088" data-name="Grupo 10088">
                  <path id="Trazado_1887" data-name="Trazado 1887" d="M1125.571,1047.854l-.13-.037c5.678-19.974-1.109-41.153-18.157-56.652l.091-.1a62.482,62.482,0,0,1,17.331,25.941A51.705,51.705,0,0,1,1125.571,1047.854Z" transform="translate(-1103.072 -991.065)" fill="#fcfdfe"/>
                  <path id="Trazado_1888" data-name="Trazado 1888" d="M1360.189,1350.1c-4.92,2.839-10.978,9.53-13.505,14.917l-.122-.057c2.537-5.407,8.62-12.126,13.56-14.976Z" transform="translate(-1322.344 -1319.977)" fill="#fcfdfe"/>
                  <path id="Trazado_1889" data-name="Trazado 1889" d="M1187.705,1464.364h-.135c-.012-3.093-1.587-6.061-4.681-8.821a35.193,35.193,0,0,0-8.969-5.551l.055-.123a35.317,35.317,0,0,1,9,5.573C1186.1,1458.23,1187.693,1461.231,1187.705,1464.364Z" transform="translate(-1164.136 -1411.508)" fill="#fcfdfe"/>
                  <path id="Trazado_1890" data-name="Trazado 1890" d="M1307.769,1127.146l-.135.007c-.322-5.828,2.884-11.063,5.63-14.428l.1.085C1310.637,1116.158,1307.449,1121.361,1307.769,1127.146Z" transform="translate(-1286.65 -1102.554)" fill="#fcfdfe"/>
                  <path id="Trazado_1891" data-name="Trazado 1891" d="M1072.053,1076.26l-.1.094c-4.568-4.73-11.391-5.775-15.052-5.977l.007-.135C1060.592,1070.445,1067.453,1071.5,1072.053,1076.26Z" transform="translate(-1056.904 -1063.622)" fill="#fcfdfe"/>
                </g>
              </g>
            </g>
          </g>
        </g>
      </g>
      <g id="Grupo_10099" data-name="Grupo 10099" transform="translate(63.781 15.273)">
        <g id="Grupo_10098" data-name="Grupo 10098">
          <g id="Grupo_10097" data-name="Grupo 10097">
            <path id="Trazado_1893" data-name="Trazado 1893" d="M1254.377,1091.755a5.47,5.47,0,0,1-2.532-.5c-2.382-1.7-7.048-4.582-7.744-7.594-.119-.515,2-1.648,2.183-2.205a6.249,6.249,0,0,0,2.28-2.892c1.856-4.574-6.907-9.562.188-14.306,5.2-3.475,10.612-2.924,7.385-11.629s-.94-26.97,10.266-23.529c6.431,1.975,3.185,11.138,7.594,15.9,4.19,4.523,3.226,9.543-1.467,14.376s-.969,6.393,2.146,10.946c3.741,5.469-5.245,9.274-9.543,10.677C1261.671,1082.122,1253.618,1087.334,1254.377,1091.755Z" transform="translate(-1244.097 -1028.67)" fill="url(#linear-gradient-4)"/>
            <g id="Grupo_10096" data-name="Grupo 10096" clip-path="url(#clip-path-4)">
              <g id="Grupo_10095" data-name="Grupo 10095" transform="translate(2.804 -1.575)" style="mix-blend-mode: soft-light;isolation: isolate">
                <g id="Grupo_10094" data-name="Grupo 10094">
                  <path id="Trazado_1894" data-name="Trazado 1894" d="M1291.264,1070.422l-.1-.1c16.069-14.652,21.7-37.25,15.072-60.449l.136-.039a65.432,65.432,0,0,1,1.127,32.651A54.144,54.144,0,0,1,1291.264,1070.422Z" transform="translate(-1290.037 -1009.83)" fill="#fcfdfe"/>
                  <path id="Trazado_1895" data-name="Trazado 1895" d="M1408.781,1550.172c-5.945-.185-15.028,2.432-20.248,5.834l-.077-.119c5.24-3.415,14.36-6.042,20.329-5.856Z" transform="translate(-1379.19 -1504.856)" fill="#fcfdfe"/>
                  <path id="Trazado_1896" data-name="Trazado 1896" d="M1281.98,1475.284l-.12-.074c1.695-2.76,1.929-6.271.7-10.434a36.858,36.858,0,0,0-4.924-9.888l.117-.079a36.991,36.991,0,0,1,4.943,9.927C1283.936,1468.939,1283.7,1472.488,1281.98,1475.284Z" transform="translate(-1277.632 -1417.604)" fill="#fcfdfe"/>
                  <path id="Trazado_1897" data-name="Trazado 1897" d="M1488.578,1275.088l-.124-.068c2.927-5.367,8.667-8.259,12.968-9.741l.046.134C1497.191,1266.887,1491.483,1269.762,1488.578,1275.088Z" transform="translate(-1470.827 -1243.922)" fill="#fcfdfe"/>
                  <path id="Trazado_1898" data-name="Trazado 1898" d="M1392.94,1065.7l-.138.03c-1.459-6.73-6.957-11.423-10.1-13.621l.081-.116C1385.942,1054.2,1391.471,1058.922,1392.94,1065.7Z" transform="translate(-1373.912 -1048.467)" fill="#fcfdfe"/>
                </g>
              </g>
            </g>
          </g>
        </g>
      </g>
      <g id="Grupo_10100" data-name="Grupo 10100" transform="translate(130.537 3.5)">
        <path id="Trazado_1900" data-name="Trazado 1900" d="M2090.118,932.412a4.739,4.739,0,0,0,4.278-8.425c-.112-.057-.225-.1-.339-.149a27.292,27.292,0,0,0,.9-3.883c.123,0,.247,0,.372-.014a4.943,4.943,0,0,0,4.345-5.031,4.186,4.186,0,0,0-4.531-4.24c-.128.011-.254.032-.379.054a24.987,24.987,0,0,0-1.049-3.708c.113-.066.225-.134.335-.211a4.943,4.943,0,0,0,1.5-6.477,4.186,4.186,0,0,0-6.1-1.156c-.107.075-.208.157-.309.239a22.143,22.143,0,0,0-2.72-2.539c.069-.113.137-.228.2-.349,1.181-2.326,2.724-4.868.559-5.925-5.009-2.445-7.159-.352-8.34,1.974-.061.121-.114.243-.165.366a22.178,22.178,0,0,0-3.655-.7c.008-.129.013-.259.011-.39-.051-2.56.708-3.946-1.752-3.993-5.366-.1-7.176,2.224-7.125,4.785,0,.134.014.265.027.395a25,25,0,0,0-3.613,1.341c-.055-.114-.113-.228-.18-.338a4.186,4.186,0,0,0-6.1-1.156,4.943,4.943,0,0,0-1.5,6.477c.065.108.136.209.208.309a27.269,27.269,0,0,0-2.6,3.019c-.1-.065-.209-.129-.32-.185a4.739,4.739,0,0,0-4.278,8.425c.111.057.225.1.339.15a27.29,27.29,0,0,0-.9,3.882c-.123,0-.247,0-.372.014a4.943,4.943,0,0,0-4.345,5.031,4.186,4.186,0,0,0,4.531,4.24c.128-.011.254-.032.379-.054a24.933,24.933,0,0,0,1.05,3.708c-.113.066-.225.134-.335.211a4.943,4.943,0,0,0-1.5,6.477c1.27,2.108,5.475,3.087,7.573,1.618.107-.075-1.267-.618-1.167-.7a22.131,22.131,0,0,0,2.72,2.539c-.069.113-.137.228-.2.349a4.377,4.377,0,1,0,7.781,3.95c.061-.121.114-.243.165-.366a22.127,22.127,0,0,0,3.655.7c-.008.129-.014.259-.011.39a4.187,4.187,0,0,0,4.532,4.24,4.943,4.943,0,0,0,4.345-5.031c0-.134-.014-.265-.027-.395a25.005,25.005,0,0,0,3.612-1.34c.056.114.114.228.18.338a4.186,4.186,0,0,0,6.1,1.156,4.943,4.943,0,0,0,1.5-6.477c-.065-.108-.136-.209-.209-.309a27.217,27.217,0,0,0,2.6-3.019C2089.9,932.291,2090.007,932.355,2090.118,932.412Zm-26.784.34c-7.8-3.961-10.648-14.019-6.36-22.466s14.089-12.084,21.89-8.123,10.648,14.019,6.359,22.466S2071.135,936.712,2063.334,932.751Z" transform="translate(-2042.521 -887.854)" fill="url(#linear-gradient-10)"/>
        <path id="Trazado_1901" data-name="Trazado 1901" d="M2345.983,972.776a4.944,4.944,0,0,0,4.345-5.031,4.186,4.186,0,0,0-4.531-4.24c-.128.011-.254.032-.379.054a24.989,24.989,0,0,0-1.05-3.708c.113-.066.225-.134.334-.211,2.1-1.469,4.692-5.02,3.212-6.986-2.808-3.732-5.715-2.117-7.812-.647-.107.075-.208.156-.309.239a22.139,22.139,0,0,0-2.72-2.539c.069-.113.137-.228.2-.349a4.879,4.879,0,0,0,.275-3.849q-3.038,5.348-5.986,10.745c6.223,4.56,8.2,13.547,4.315,21.209a17.177,17.177,0,0,1-16.247,9.681c-.285.74-.566,1.484-.871,2.218-.83,1.989-1.772,3.938-2.715,5.883q.89.168,1.787.263c-.007.129-.013.259-.011.39.052,2.56,1.606,4.735,6.048,4.5,2.458-.13,2.88-2.731,2.829-5.291,0-.134-.014-.265-.027-.395a24.967,24.967,0,0,0,3.612-1.341c.056.114.114.228.18.338,1.27,2.108,5.677,3,7.773,1.534s1.092-4.747-.178-6.855c-.065-.108-.136-.209-.209-.308a27.243,27.243,0,0,0,2.6-3.019c.1.065.209.129.321.185a4.739,4.739,0,0,0,4.277-8.425c-.111-.056-.225-.1-.339-.149a27.269,27.269,0,0,0,.9-3.883C2345.734,972.789,2345.858,972.787,2345.983,972.776Z" transform="translate(-2293.174 -940.688)" fill="url(#linear-gradient-11)"/>
        <path id="Trazado_1902" data-name="Trazado 1902" d="M2117.757,932.7a4.739,4.739,0,0,0,4.278-8.425c-.111-.057-.225-.1-.339-.149a27.191,27.191,0,0,0,.9-3.883c.123,0,.246,0,.373-.014a4.943,4.943,0,0,0,4.345-5.031,4.186,4.186,0,0,0-4.531-4.24c-.128.011-.254.032-.379.054a24.938,24.938,0,0,0-1.049-3.708c.113-.066.225-.134.334-.211a4.943,4.943,0,0,0,1.5-6.477,4.186,4.186,0,0,0-6.1-1.156c-.107.075-.208.157-.308.239a22.142,22.142,0,0,0-2.72-2.539c.069-.113.137-.228.2-.349a4.377,4.377,0,1,0-7.781-3.95c-.062.12-.114.243-.165.365a22.164,22.164,0,0,0-3.655-.7c.008-.129.014-.259.011-.39a4.186,4.186,0,0,0-4.531-4.24,4.944,4.944,0,0,0-4.345,5.031c0,.134.014.265.027.394a25.041,25.041,0,0,0-3.613,1.341c-.056-.114-.114-.228-.18-.338a4.186,4.186,0,0,0-6.1-1.156,4.943,4.943,0,0,0-1.5,6.477c.065.108.137.209.209.309a27.185,27.185,0,0,0-2.6,3.019c-.1-.065-.209-.129-.321-.185a4.739,4.739,0,0,0-4.278,8.425c.111.057.225.1.339.15a27.218,27.218,0,0,0-.9,3.882c-.124,0-.247,0-.373.014a4.944,4.944,0,0,0-4.346,5.031,4.187,4.187,0,0,0,4.531,4.24c.128-.012.254-.032.379-.054a25.023,25.023,0,0,0,1.049,3.708c-.112.066-.225.134-.334.211a4.943,4.943,0,0,0-1.5,6.477,4.186,4.186,0,0,0,6.1,1.157c.107-.076.208-.157.309-.239a22.135,22.135,0,0,0,2.72,2.539c-.069.113-.137.228-.2.349a4.377,4.377,0,1,0,7.781,3.95c.062-.12.114-.243.165-.365a22.178,22.178,0,0,0,3.655.7c-.007.129-.013.259-.011.39a4.187,4.187,0,0,0,4.532,4.24,4.943,4.943,0,0,0,4.345-5.031c0-.134-.014-.265-.027-.394a25.008,25.008,0,0,0,3.613-1.341c.056.114.114.228.18.338a4.186,4.186,0,0,0,6.1,1.156,4.943,4.943,0,0,0,1.5-6.477c-.065-.108-.136-.209-.209-.309a27.244,27.244,0,0,0,2.6-3.019C2117.54,932.582,2117.646,932.646,2117.757,932.7Zm-26.784.34c-7.8-3.961-10.648-14.019-6.359-22.466s14.089-12.084,21.89-8.123,10.648,14.019,6.36,22.466S2098.774,937,2090.973,933.042Z" transform="translate(-2067.849 -887.881)" fill="#fff"/>
      </g>
      <g id="Grupo_10101" data-name="Grupo 10101" transform="translate(101.42 0)">
        <path id="Trazado_1903" data-name="Trazado 1903" d="M1718.616,868.785a2.424,2.424,0,0,0,2.188-4.309c-.057-.029-.115-.053-.174-.077a13.946,13.946,0,0,0,.462-1.986c.063,0,.126,0,.19-.007a2.528,2.528,0,0,0,2.222-2.573,2.141,2.141,0,0,0-2.318-2.168c-.066.006-.13.016-.194.028a12.8,12.8,0,0,0-.537-1.9c.058-.034.115-.069.171-.108a2.528,2.528,0,0,0,.766-3.312,2.141,2.141,0,0,0-3.118-.591c-.055.039-.107.08-.158.122a11.315,11.315,0,0,0-1.391-1.3c.035-.058.07-.117.1-.178.6-1.19,1.393-2.49.286-3.03-2.562-1.251-3.661-.18-4.265,1.01-.031.062-.058.124-.084.187a11.317,11.317,0,0,0-1.869-.357c0-.066.007-.132.006-.2-.026-1.309.362-2.018-.9-2.042-2.744-.053-3.67,1.138-3.644,2.447,0,.068.007.135.014.2a12.779,12.779,0,0,0-1.847.686c-.029-.058-.058-.116-.092-.173a2.141,2.141,0,0,0-3.118-.591,2.528,2.528,0,0,0-.766,3.312c.033.055.07.107.107.158a13.915,13.915,0,0,0-1.331,1.544c-.053-.033-.107-.066-.164-.095a2.424,2.424,0,0,0-2.187,4.309c.057.029.115.053.173.076a13.944,13.944,0,0,0-.461,1.986c-.063,0-.126,0-.19.007a2.528,2.528,0,0,0-2.223,2.573,2.141,2.141,0,0,0,2.318,2.168c.065-.006.13-.016.194-.028a12.747,12.747,0,0,0,.537,1.9c-.058.034-.115.069-.171.108a2.528,2.528,0,0,0-.766,3.313,3.136,3.136,0,0,0,3.873.827c.055-.039-.648-.316-.6-.358a11.329,11.329,0,0,0,1.391,1.3c-.035.058-.07.117-.1.178a2.238,2.238,0,1,0,3.979,2.02c.031-.062.058-.124.084-.187a11.322,11.322,0,0,0,1.869.357c0,.066-.007.132-.006.2a2.141,2.141,0,0,0,2.318,2.168,2.528,2.528,0,0,0,2.222-2.573c0-.068-.007-.135-.014-.2a12.778,12.778,0,0,0,1.848-.686c.029.058.058.117.092.173a2.141,2.141,0,0,0,3.118.591,2.528,2.528,0,0,0,.766-3.312c-.033-.055-.07-.107-.107-.158a13.96,13.96,0,0,0,1.331-1.544C1718.506,868.723,1718.56,868.756,1718.616,868.785Zm-13.7.174c-3.99-2.026-5.446-7.169-3.252-11.489s7.206-6.18,11.195-4.154,5.446,7.17,3.253,11.489S1708.908,870.984,1704.919,868.959Z" transform="translate(-1694.275 -845.997)" fill="url(#linear-gradient-10)"/>
        <path id="Trazado_1904" data-name="Trazado 1904" d="M1849.47,889.428a2.528,2.528,0,0,0,2.223-2.573,2.141,2.141,0,0,0-2.318-2.169c-.066.006-.13.016-.194.028a12.769,12.769,0,0,0-.537-1.9c.058-.034.115-.069.171-.108,1.072-.752,2.4-2.567,1.642-3.573-1.436-1.909-2.922-1.083-3.995-.331-.055.039-.106.08-.157.122a11.338,11.338,0,0,0-1.391-1.3c.035-.058.07-.117.1-.178a2.5,2.5,0,0,0,.141-1.968q-1.554,2.735-3.062,5.5a8.587,8.587,0,0,1,2.207,10.846,8.784,8.784,0,0,1-8.309,4.951c-.146.379-.289.759-.446,1.134-.424,1.017-.906,2.014-1.389,3.009q.455.086.914.134c0,.066-.007.132-.006.2.026,1.309.821,2.422,3.093,2.3,1.257-.067,1.473-1.4,1.447-2.706,0-.068-.007-.135-.014-.2a12.778,12.778,0,0,0,1.848-.686c.029.058.058.116.092.173a3.268,3.268,0,0,0,3.976.785c1.073-.752.558-2.428-.092-3.506-.033-.055-.07-.107-.107-.158a13.951,13.951,0,0,0,1.331-1.544c.053.033.107.066.164.095a2.424,2.424,0,0,0,2.187-4.308c-.057-.029-.115-.053-.173-.076a13.918,13.918,0,0,0,.461-1.986C1849.343,889.434,1849.406,889.433,1849.47,889.428Z" transform="translate(-1822.462 -873.018)" fill="url(#linear-gradient-11)"/>
        <path id="Trazado_1905" data-name="Trazado 1905" d="M1732.752,868.933a2.424,2.424,0,0,0,2.188-4.309c-.057-.029-.115-.053-.173-.076a13.914,13.914,0,0,0,.461-1.986c.063,0,.126,0,.19-.007a2.528,2.528,0,0,0,2.223-2.573,2.141,2.141,0,0,0-2.318-2.168c-.066.006-.13.016-.194.028a12.791,12.791,0,0,0-.537-1.9c.058-.034.115-.069.171-.108a2.528,2.528,0,0,0,.766-3.312,2.141,2.141,0,0,0-3.118-.591c-.055.039-.107.08-.158.122a11.331,11.331,0,0,0-1.391-1.3c.035-.058.07-.117.1-.178a2.238,2.238,0,1,0-3.979-2.02c-.031.062-.058.124-.084.187a11.326,11.326,0,0,0-1.869-.357c0-.066.007-.132.006-.2a2.141,2.141,0,0,0-2.318-2.168,2.528,2.528,0,0,0-2.222,2.573c0,.068.007.135.014.2a12.782,12.782,0,0,0-1.848.686c-.029-.058-.058-.116-.092-.173a2.141,2.141,0,0,0-3.118-.591,2.528,2.528,0,0,0-.766,3.313c.033.055.07.107.107.158a13.952,13.952,0,0,0-1.331,1.544c-.053-.033-.107-.066-.164-.095a2.424,2.424,0,0,0-2.187,4.309c.057.029.115.053.173.076a13.9,13.9,0,0,0-.461,1.986c-.063,0-.127,0-.191.007a2.528,2.528,0,0,0-2.222,2.573,2.141,2.141,0,0,0,2.318,2.168c.065-.006.13-.016.194-.028a12.785,12.785,0,0,0,.537,1.9c-.057.034-.115.069-.171.108a2.528,2.528,0,0,0-.766,3.313,2.141,2.141,0,0,0,3.118.591c.055-.038.107-.08.158-.122a11.333,11.333,0,0,0,1.391,1.3c-.035.058-.07.117-.1.178a2.238,2.238,0,1,0,3.979,2.02c.031-.062.058-.124.084-.187a11.31,11.31,0,0,0,1.869.357c0,.066-.007.132-.005.2a2.141,2.141,0,0,0,2.317,2.168,2.528,2.528,0,0,0,2.222-2.573c0-.068-.007-.135-.014-.2a12.777,12.777,0,0,0,1.848-.686c.029.058.058.116.092.173a2.141,2.141,0,0,0,3.118.591,2.528,2.528,0,0,0,.766-3.313c-.033-.055-.07-.107-.107-.158a13.916,13.916,0,0,0,1.331-1.544C1732.641,868.872,1732.695,868.9,1732.752,868.933Zm-13.7.174c-3.99-2.026-5.446-7.169-3.252-11.489s7.206-6.18,11.195-4.154,5.446,7.17,3.252,11.489S1723.043,871.132,1719.054,869.107Z" transform="translate(-1707.228 -846.011)" fill="#fff"/>
      </g>
      <g id="Grupo_10104" data-name="Grupo 10104" transform="translate(158.349 25.656)">
        <path id="Trazado_1906" data-name="Trazado 1906" d="M2801.581,1171.944s3.617,1.22,4,7.526c-.592-.049-1.97,0-1.97,0s.255-4.586-2.317-5.477A10.476,10.476,0,0,0,2801.581,1171.944Z" transform="translate(-2765.665 -1170.348)" fill="url(#linear-gradient-14)"/>
        <path id="Trazado_1907" data-name="Trazado 1907" d="M2646.009,1154.07q.135,1.722.271,3.445a25.8,25.8,0,0,1,5.843-1.224,25.373,25.373,0,0,1,7.466.729,2.656,2.656,0,0,0,.406-1.061,3.732,3.732,0,0,0-.154-1.809,21.91,21.91,0,0,0-3.688-1.016A20.584,20.584,0,0,0,2646.009,1154.07Z" transform="translate(-2623.363 -1152.852)" fill="url(#linear-gradient-15)"/>
        <path id="Trazado_1908" data-name="Trazado 1908" d="M2643.985,1168.346c.006-.415.035-.934.168-.995s.294.318.367.527a3.645,3.645,0,0,1,.138.967,5.4,5.4,0,0,1-.066,1.549c-.034.157-.088.4-.169.4-.064,0-.12-.146-.2-.437A6.931,6.931,0,0,1,2643.985,1168.346Z" transform="translate(-2621.508 -1166.134)" fill="url(#linear-gradient-16)"/>
        <path id="Trazado_1909" data-name="Trazado 1909" d="M2604.6,1181.361c.749.148,2.571.593,2.571.593s-1.188-4.034,1.052-5.9a4.459,4.459,0,0,0,.046-1.37,4.285,4.285,0,0,0-.267-1.058C2607.047,1174.2,2604.977,1176.112,2604.6,1181.361Z" transform="translate(-2585.412 -1171.894)" fill="url(#linear-gradient-17)"/>
        <path id="Trazado_1910" data-name="Trazado 1910" d="M2419.234,1255.581s.092-2.118,3.217-2.118c.492.386.517,2.118.517,2.118Z" transform="translate(-2415.548 -1245.051)" fill="url(#linear-gradient-18)"/>
        <path id="Trazado_1911" data-name="Trazado 1911" d="M2376.067,1312.047l8.552,5.583,5.182-20.5-8.538-27.486-2.421.765-3.674,39.474A2.336,2.336,0,0,0,2376.067,1312.047Z" transform="translate(-2375.156 -1259.877)" fill="url(#linear-gradient-19)"/>
        <path id="Trazado_1912" data-name="Trazado 1912" d="M2430.193,1297.128l-8.538-27.486-2.421.765a57.648,57.648,0,0,1,1.017,8.575c.572,9.358,2.473,11.962,1.552,18.491-.766,5.428-2.438,6.165-2.291,9.817.159,3.978,2.311,7.308,4.869,9.928l.631.412Z" transform="translate(-2415.548 -1259.877)" opacity="0.3" fill="url(#linear-gradient-20)" style="mix-blend-mode: multiply;isolation: isolate"/>
        <path id="Trazado_1913" data-name="Trazado 1913" d="M2448.189,1269.642h46.958l7.393,43.568-50.994,4.42Z" transform="translate(-2442.083 -1259.877)" fill="url(#linear-gradient-21)"/>
        <g id="Grupo_10102" data-name="Grupo 10102" transform="translate(11.375 9.765)" opacity="0.2" style="mix-blend-mode: multiply;isolation: isolate">
          <path id="Trazado_1914" data-name="Trazado 1914" d="M2552.894,1269.642h-15.819a31.6,31.6,0,0,1-1.387,3.525c-7.074,15.208-23.27,17.124-22.977,19.623.438,3.736,36.5-1.567,37.422,3.567.445,2.478-7.171,8.111-15.129,10.244-9.528,2.554-16.531-.665-21.187,5.073a13.907,13.907,0,0,0-2.612,5.758l49.082-4.221Z" transform="translate(-2511.205 -1269.642)" fill="url(#linear-gradient-22)"/>
        </g>
        <path id="Trazado_1915" data-name="Trazado 1915" d="M2429.982,1253.426a3.418,3.418,0,0,0-2.073.438,3.283,3.283,0,0,0-.456.35l.37-.142a1.48,1.48,0,0,1,1.724.707,13.886,13.886,0,0,1,.6,3.533c.234,2.583,1.675,18.651,1.675,18.651a2.351,2.351,0,0,0,2.189,2.354l43.68-2.45a1.509,1.509,0,0,0,.933-.345,2.222,2.222,0,0,0,.7-2.069l-2.213-19.137a2.091,2.091,0,0,0-1.92-1.89Z" transform="translate(-2423.08 -1245.014)" fill="url(#linear-gradient-23)"/>
        <path id="Trazado_1916" data-name="Trazado 1916" d="M2436.125,1253.3a6.057,6.057,0,0,0-1.856.125,1.859,1.859,0,0,0-.623.276,1.75,1.75,0,0,1,2.044.952,15.757,15.757,0,0,1,.595,3.533c.235,2.582,1.676,18.651,1.676,18.651a2.351,2.351,0,0,0,2.189,2.355l44.172-1.024a1.51,1.51,0,0,0,.934-.345,2.222,2.222,0,0,0,.7-2.069l-2.705-20.563a2.091,2.091,0,0,0-1.92-1.89Z" transform="translate(-2428.756 -1244.889)" fill="url(#linear-gradient-24)"/>
        <path id="Trazado_1917" data-name="Trazado 1917" d="M2485.953,1275.754l-2.705-20.563a2.091,2.091,0,0,0-1.92-1.89h-45.2a6.058,6.058,0,0,0-1.856.125,1.859,1.859,0,0,0-.623.276,1.75,1.75,0,0,1,2.044.952,3.7,3.7,0,0,1,.149.454c4.293.183,8.586.052,12.878.35,8.486.575,17.068.575,25.077,4.258,2.562,1.178,4.318,5.41,3.623,7.365-.5,1.41-2.211,1.3-2.808,3.148-.627,1.946.877,3.267.246,4.633-.662,1.431-2.671.749-5.924,1.771a15.094,15.094,0,0,0-4.026,1.985l19.417-.45a1.51,1.51,0,0,0,.934-.345A2.222,2.222,0,0,0,2485.953,1275.754Z" transform="translate(-2428.756 -1244.889)" opacity="0.1" fill="url(#linear-gradient-25)" style="mix-blend-mode: multiply;isolation: isolate"/>
        <g id="Grupo_10103" data-name="Grupo 10103" transform="translate(28.577 29.143)">
          <path id="Trazado_1918" data-name="Trazado 1918" d="M2724.427,1510.359l-5.532,1.43-.584.051a1.142,1.142,0,0,1-1.121-1.214l-.243-6.805a1.187,1.187,0,0,1,1.03-1.326l.587-.009,5.56.759c.531-.008.979-.312,1,.363l.228,6.382C2725.38,1510.665,2724.957,1510.312,2724.427,1510.359Z" transform="translate(-2716.947 -1502.395)" fill="url(#linear-gradient-26)"/>
          <path id="Trazado_1919" data-name="Trazado 1919" d="M2729.318,1510.319l-6.128.539a1.143,1.143,0,0,1-1.121-1.214l-.243-6.805a1.188,1.188,0,0,1,1.03-1.326l6.144-.1a1.148,1.148,0,0,1,1.006,1.212l.228,6.382A1.194,1.194,0,0,1,2729.318,1510.319Z" transform="translate(-2721.417 -1501.413)" fill="url(#linear-gradient-27)"/>
        </g>
      </g>
      <g id="Grupo_10118" data-name="Grupo 10118" transform="translate(3.81 28.321)">
        <path id="Trazado_1920" data-name="Trazado 1920" d="M638.5,1697.953v-8.568l-71.571-.1v8.495l15.539,3.672Z" transform="translate(-563.579 -1647.099)" fill="url(#linear-gradient-28)"/>
        <g id="Grupo_10105" data-name="Grupo 10105" transform="translate(74.764 22.674)">
          <path id="Trazado_1921" data-name="Trazado 1921" d="M1421.026,1455.908v1.071l4.766.044-1.055-1.1Z" transform="translate(-1421.026 -1455.908)" fill="#d8dee8"/>
        </g>
        <g id="Grupo_10106" data-name="Grupo 10106" transform="translate(3.352 22.699)">
          <path id="Trazado_1922" data-name="Trazado 1922" d="M582.317,1479.2l-15.386-3.31V1456.2l15.386.149Z" transform="translate(-566.931 -1456.202)" fill="url(#linear-gradient-29)"/>
        </g>
        <path id="Trazado_1923" data-name="Trazado 1923" d="M810.683,1224.3l-3.552.068v19.787l-35.659,2.036-14.771.843-5.755.328v-22.85l24.758-7.053,14.758-14.248Zm-10.118,18.115v-19.6l-21.735-.037v20.756l21.735-1.116Z" transform="translate(-732.207 -1201.667)" fill="url(#linear-gradient-29)"/>
        <g id="Grupo_10107" data-name="Grupo 10107" transform="translate(14.981 1.097)" opacity="0.2">
          <path id="Trazado_1924" data-name="Trazado 1924" d="M769.857,1219.453l-20.013-20.972-.613-.642-.609.584-14.672,14.1-24.574,6.922-3.37.949v.519h3.757v-.335l24.672-6.95,14.844-14.246,19.174,20.068Z" transform="translate(-706.006 -1197.839)" fill="#d8dee8"/>
        </g>
        <g id="Grupo_10108" data-name="Grupo 10108" transform="translate(14.981 0)">
          <path id="Trazado_1925" data-name="Trazado 1925" d="M749.231,1184.718l.613.643,20.256,21.2.523.547v1.389l-.067.006-1.048-1.095-20.228-21.148-14.844,14.246-24.46,7.251-3.97,1.1v-1.586l3.37-.949,24.574-6.922,14.673-14.1Z" transform="translate(-706.006 -1184.718)" fill="#fff"/>
        </g>
        <g id="Grupo_10109" data-name="Grupo 10109" transform="translate(46.015 20.544)">
          <path id="Trazado_1926" data-name="Trazado 1926" d="M1108.666,1440.67v19.069l-21.269,1.077V1440.65Zm-1.129,17.252v-16.008l-5.112.012v16.229l5.112-.233Zm-6.5.3v-16.289l-5.293.013v16.517l5.293-.241Zm-6.732.307v-16.579l-5.485.013v16.816l5.485-.25Z" transform="translate(-1086.543 -1439.795)" fill="#fff"/>
          <path id="Trazado_1927" data-name="Trazado 1927" d="M1077.181,1452.344v-21.919l22.978.022v20.734Zm1.708-2.059v.262l19.561-.99v-.163Zm1.424-16.845v15.07l3.777-.172v-14.907Zm6.924-.017V1448.2l3.585-.163v-14.617Zm6.681-.016v14.483l3.4-.155V1433.4Z" transform="translate(-1077.181 -1430.425)" fill="#fff"/>
        </g>
        <g id="Grupo_10110" data-name="Grupo 10110" transform="translate(25.131)">
          <path id="Trazado_1928" data-name="Trazado 1928" d="M860.487,1184.718l-.609.585-14.672,14.1-17.793.931L840.8,1188l.558-.513Z" transform="translate(-827.413 -1184.718)" fill="url(#linear-gradient-31)"/>
        </g>
        <path id="Trazado_1929" data-name="Trazado 1929" d="M886.889,1577.288l7.534-.1,0,16.666-7.529.428Z" transform="translate(-856.785 -1544.376)" fill="#f4f7fa"/>
        <g id="Grupo_10111" data-name="Grupo 10111" transform="translate(28.714 33.413)">
          <path id="Trazado_1930" data-name="Trazado 1930" d="M870.261,1600.029v-15.586l8.37-.1v15.05Z" transform="translate(-870.261 -1584.343)" fill="url(#linear-gradient-28)"/>
        </g>
        <g id="Grupo_10112" data-name="Grupo 10112" transform="translate(23.639 29.917)">
          <path id="Trazado_1931" data-name="Trazado 1931" d="M819.78,1572.416V1553l14.745-.149v18.61l-1.605.091v-16.632l-7.529.115V1572.1Z" transform="translate(-818.926 -1551.991)" fill="#fff"/>
          <path id="Trazado_1932" data-name="Trazado 1932" d="M809.564,1563.864V1542.7l16.454-.166v20.28L822.7,1563v-16.669l-5.821.089v17.025Zm1.708-19.471v17.663l3.9-.221v-17.094l9.134-.139v-.341Z" transform="translate(-809.564 -1542.536)" fill="#fff"/>
        </g>
        <g id="Grupo_10113" data-name="Grupo 10113" transform="translate(0 14.689)">
          <path id="Trazado_1933" data-name="Trazado 1933" d="M569.76,1360.4l-24.574,6.922-3.37.948-14.98-.109,3.006-.817,22.125-6.013Z" transform="translate(-526.836 -1360.398)" fill="url(#linear-gradient-33)"/>
        </g>
        <g id="Grupo_10114" data-name="Grupo 10114" transform="translate(0 22.45)">
          <path id="Trazado_1934" data-name="Trazado 1934" d="M541.818,1454.92l-14.98-.331v-1.365l14.98.109Z" transform="translate(-526.838 -1453.224)" fill="#fff"/>
        </g>
        <g id="Grupo_10115" data-name="Grupo 10115" transform="translate(61.999 22.785)">
          <path id="Trazado_1935" data-name="Trazado 1935" d="M1273.271,1457.228V1473l-4.911.222v-15.977Z" transform="translate(-1268.36 -1457.228)" fill="url(#linear-gradient-34)"/>
        </g>
        <g id="Grupo_10116" data-name="Grupo 10116" transform="translate(48.401 22.821)">
          <path id="Trazado_1936" data-name="Trazado 1936" d="M1110.993,1457.659v16.331l-5.271.239v-16.556Z" transform="translate(-1105.722 -1457.659)" fill="url(#linear-gradient-35)"/>
        </g>
        <g id="Grupo_10117" data-name="Grupo 10117" transform="translate(55.321 22.802)">
          <path id="Trazado_1937" data-name="Trazado 1937" d="M1193.573,1457.44v16.045l-5.086.23v-16.261Z" transform="translate(-1188.486 -1457.44)" fill="url(#linear-gradient-36)"/>
        </g>
        <path id="Trazado_1938" data-name="Trazado 1938" d="M819.78,1775.238l14.745-1.037,3.444,3.856-18.189.831Z" transform="translate(-795.287 -1724.914)" fill="url(#linear-gradient-28)"/>
      </g>
      <g id="Grupo_10121" data-name="Grupo 10121" transform="translate(17.658 49.169)">
        <path id="Trazado_1939" data-name="Trazado 1939" d="M1138.25,2504.818l70.46-18.789,3.524,18.249-64.5,31.738-51.075-13.45-30.811-32.25Z" transform="translate(-1034.626 -2398.074)" fill="url(#linear-gradient-38)"/>
        <path id="Trazado_1940" data-name="Trazado 1940" d="M1138.25,2504.818l70.46-18.789,3.524,18.249-64.5,31.738-51.075-13.45-30.811-32.25Z" transform="translate(-1034.626 -2398.074)" fill="url(#linear-gradient-39)"/>
        <path id="Trazado_1941" data-name="Trazado 1941" d="M1905.338,2478.182a191.024,191.024,0,0,0,31.368-22.318c13.813-12.124,20.149-21.27,34.133-24.884,2.5-.646,16.739-4.326,21.333,2.415,5.087,7.463-4.8,23.07-6,24.966-17.866,28.191-63.363,26.876-77.633,25.961Z" transform="translate(-1803.929 -2346.178)" fill="url(#linear-gradient-29)"/>
        <path id="Trazado_1942" data-name="Trazado 1942" d="M2008.227,2438.2a9.239,9.239,0,0,0-5.975-3.559,12.825,12.825,0,0,1-.129,8.322c-2.792,6.761-11.059,4.678-16.865,12.613-5.7,7.792-1.755,15.3-6.8,18.516-5.778,3.683-12.941-4.923-19.13-.805-4.208,2.8-2.9,8.11-7.8,11-3.389,2-6.711,1.054-10.572.536a51.269,51.269,0,0,0-18.1.975l1.731,3.327c14.271.914,59.767,2.229,77.633-25.962C2003.424,2461.267,2013.314,2445.66,2008.227,2438.2Z" transform="translate(-1819.983 -2350.98)" opacity="0.3" fill="url(#linear-gradient-41)" style="mix-blend-mode: multiply;isolation: isolate"/>
        <path id="Trazado_1943" data-name="Trazado 1943" d="M2029.566,3051.285a6.881,6.881,0,0,1,6.29-.625c3.724,1.336,9.636,2.416,9.627,4.356s-5.925,3.156-10.013,2.358C2031.56,3056.611,2028.484,3052.988,2029.566,3051.285Z" transform="translate(-1917.569 -2915.069)" fill="url(#linear-gradient-42)"/>
        <path id="Trazado_1944" data-name="Trazado 1944" d="M1984.153,3023.62l6.853,2.35s1.113,1.977-.389,3.23-6.723-1.4-6.723-1.4Z" transform="translate(-1875.917 -2890.717)" fill="url(#linear-gradient-43)"/>
        <path id="Trazado_1945" data-name="Trazado 1945" d="M846.5,2491.859c-2.024,12.559,23.4,26.145,29.223,29.255,11.863,6.339,34.183,15.287,67.311,11.868q.661-4.226,1.322-8.453a151.638,151.638,0,0,1-18.387-8.142c-12.843-6.735-17.72-11.545-35.542-23.031-19.721-12.71-25.465-14.341-31.341-12.768C854.061,2481.933,847.44,2486.023,846.5,2491.859Z" transform="translate(-833.516 -2392.633)" fill="url(#linear-gradient-44)"/>
        <path id="Trazado_1946" data-name="Trazado 1946" d="M1401.3,1690.078c2.462-2.927,8.931-3.377,21.87-4.278a160.733,160.733,0,0,1,22.675.131c3.45.256,10.407-.122,23.065,4.935a21.477,21.477,0,0,1,2.865,1.426c10.254,5.965-.038,28.249-.663,27.573a75.562,75.562,0,0,0-5.472,20.529,79.31,79.31,0,0,0,1.283,26.606,56.854,56.854,0,0,1-23.835,9.219c-7.94,1.066-16.836,2.218-24.376-3.623-2.38-1.844-6.987-6.216-13.392-32.949C1398.718,1712.086,1395.187,1697.347,1401.3,1690.078Z" transform="translate(-1339.139 -1664.446)" fill="url(#linear-gradient-45)"/>
        <path id="Trazado_1947" data-name="Trazado 1947" d="M1709.76,1560.806s.008,6.987-3.706,8.791-9.62,2.506-10.432,3.352a.237.237,0,0,0-.07.148c-.06,1.079,8.688,3.128,16.955,2.861,6.979-.226,12.429-2.063,12.37-2.983-.06-.942-5.843-.082-8.06-3.613-1.094-1.743-2.892-4.65-2.6-6.156Z" transform="translate(-1611.683 -1550.21)" fill="url(#linear-gradient-46)"/>
        <g id="Grupo_10119" data-name="Grupo 10119" transform="translate(94.647)">
          <path id="Trazado_1948" data-name="Trazado 1948" d="M1836.383,1442.593a5.4,5.4,0,0,0,.45-5.934,5.508,5.508,0,0,0-3.663-2.314c-2.94-.766-6.813.033-8.386,2.74-.932,1.6.412,5.384.615,6.057.229.763.744,1.083,1.191,1.7.619.851,1.587,2.2,3.162,4.454a12.971,12.971,0,0,1,.873-2.035,11.015,11.015,0,0,1,1.644-2.307C1834,1443.17,1835.207,1443.909,1836.383,1442.593Z" transform="translate(-1824.458 -1434.069)" fill="url(#linear-gradient-47)"/>
          <path id="Trazado_1949" data-name="Trazado 1949" d="M1836.382,1514.49a7.009,7.009,0,0,0,5.558,3.907c3.507.234,4.781-7.933,2.717-9.984a4.337,4.337,0,0,0-3.4-.935c-.734.114-1,.394-2.208.555-1.11.149-1.4-.019-1.757.226-.442.307-.824,1.155-.365,3.656-.6-.8-1.372-1.181-1.963-.976a1.154,1.154,0,0,0-.508.414C1833.886,1512.228,1834.59,1513.54,1836.382,1514.49Z" transform="translate(-1833.445 -1501.299)" fill="url(#linear-gradient-48)"/>
          <path id="Trazado_1950" data-name="Trazado 1950" d="M1841.525,1510.847c.156.155-.419.746-.544,1.677a4.7,4.7,0,0,0,3.06,4.648c1.042.252,1.393-.377,3.149-.334a7.739,7.739,0,0,1,2.522.5c.362,2.066-.337,3.981-1.684,4.731-1.452.807-3.132-.03-3.835-.38a5.338,5.338,0,0,1-2.651-2.6c-.7-1.683.217-2.515-.657-3.707a8.891,8.891,0,0,1-1.595-2.041,5.478,5.478,0,0,1-.289-.746C1839.992,1511.713,1841.3,1510.622,1841.525,1510.847Z" transform="translate(-1837.784 -1504.4)" fill="url(#linear-gradient-49)"/>
          <path id="Trazado_1951" data-name="Trazado 1951" d="M1926.7,1595.537a4.016,4.016,0,0,1-2.084.058c-.063-.012-.134,0-.146.031a1.63,1.63,0,0,0,1.528.7c.561-.088,1.036-.575.975-.723C1926.943,1595.539,1926.819,1595.53,1926.7,1595.537Z" transform="translate(-1916.102 -1582.035)" fill="url(#linear-gradient-50)"/>
        </g>
        <path id="Trazado_1952" data-name="Trazado 1952" d="M2792.044,1956.917q2.255-1.035,4.538-2.066,1.648-.744,3.287-1.475s.433-.83,1.038-.553-1.557,2.951-2.249,3.32,3.633.277,4.325-1.568,1.73-3.043,2.336-3.228-1.125,3.873-1.99,5.81-6.575,2.213-8.392,2.4a6.994,6.994,0,0,0-3.287,1.383l-2.11-1.666Z" transform="translate(-2614.203 -1908.092)" fill="url(#linear-gradient-51)"/>
        <path id="Trazado_1953" data-name="Trazado 1953" d="M2170,1765.069l3.287,3.212c-1.853,4.115-5.535,10.474-12.326,14.455-12.028,7.052-28.854,3.742-41.911-8.615-7.614-14.5-9.047-27.583-4.467-31.325,4.726-3.861,16.944,1.335,23.642,9.569,5.6,6.883,4.742,12.055,9.45,15.769C2150.741,1770.553,2156.774,1771.828,2170,1765.069Z" transform="translate(-1993.29 -1715.792)" fill="url(#linear-gradient-52)"/>
        <path id="Trazado_1954" data-name="Trazado 1954" d="M707.353,1930.541q-2.506-1.15-5.042-2.3-1.831-.827-3.653-1.639s-.481-.922-1.154-.615,1.73,3.279,2.5,3.689-4.037.307-4.806-1.742-1.923-3.382-2.6-3.587,1.25,4.3,2.211,6.456,7.306,2.459,9.325,2.665a7.768,7.768,0,0,1,3.653,1.537l2.345-1.852Z" transform="translate(-692.461 -1883.352)" fill="url(#linear-gradient-53)"/>
        <path id="Trazado_1955" data-name="Trazado 1955" d="M845.56,1733.092l-3.653,3.57c2.059,4.573,6.151,11.639,13.7,16.063,13.366,7.836,32.063,4.159,46.573-9.573,5.781-16.8,5.172-30.846-.363-34.042-5.163-2.981-15.226,3.124-20.945,9.866-6.6,7.779-5.414,13.51-10.5,17.523C866.962,1739.186,860.257,1740.6,845.56,1733.092Z" transform="translate(-829.412 -1685.402)" fill="url(#linear-gradient-54)"/>
        <g id="Grupo_10120" data-name="Grupo 10120" transform="translate(25.759 49.005)" opacity="0.3" style="mix-blend-mode: multiply;isolation: isolate">
          <path id="Trazado_1956" data-name="Trazado 1956" d="M1084.435,2072.337c-4.844-5.95-1.7-11.941-7.369-16.622-7.078-5.844-14.371-1.831-19.364-7.2-6.927-7.443,2.12-20.521-4.284-26.219-5.249-4.67-16.4-.4-20.564,1.2-13,4.982-14.749,12.715-23.991,14.737a20.053,20.053,0,0,1-8.313,0c.144.088.287.177.434.263,10.71,6.279,24.842,5.164,37.5-2.591q1.144,4.9,2.488,10.468c6.4,26.733,11.012,31.1,13.391,32.949,7.54,5.841,16.437,4.688,24.376,3.623a54.368,54.368,0,0,0,15.423-4.512A19.3,19.3,0,0,1,1084.435,2072.337Z" transform="translate(-1000.55 -2020.18)" fill="url(#linear-gradient-55)"/>
        </g>
      </g>
    </g>
  </g>
</svg>
