<svg id="Grupo_10209" data-name="Grupo 10209" xmlns="http://www.w3.org/2000/svg" xmlns:xlink="http://www.w3.org/1999/xlink" width="285" height="285" viewBox="0 0 285 285">
  <defs>
    <linearGradient id="linear-gradient" x1="0.763" y1="0.185" x2="-0.998" y2="1.919" gradientUnits="objectBoundingBox">
      <stop offset="0.004" stop-color="#e38ddd"/>
      <stop offset="1" stop-color="#9571f6"/>
    </linearGradient>
    <linearGradient id="linear-gradient-2" x1="-0.535" y1="0.601" x2="3.066" y2="-0.133" gradientUnits="objectBoundingBox">
      <stop offset="0" stop-color="#ffc444"/>
      <stop offset="0.996" stop-color="#f36f56"/>
    </linearGradient>
    <clipPath id="clip-path">
      <path id="Trazado_1967" data-name="Trazado 1967" d="M2189.556,1809.861l-21.389-3.451c-.823-3.068-1.633-8.615,3.034-9.2,6.489-.809,8.087-11.187,6.888-15.13-1.485-4.88-4.7-16.3,5.308-17.7,8.33-1.167,14.008-.292,15.924-9.959s8.384-14.888,17.641-12.873c9.742,2.121,19.523-9.031,27-3.649,13.023,9.378-2.676,28.918-20.6,32.522s-8.951,10.932-9.6,18.984c-.887,10.993-16.115,6.274-20.819,9.924C2189.251,1802.188,2189.2,1806.911,2189.556,1809.861Z" transform="translate(-2167.534 -1736.414)" fill="#d8dee8"/>
    </clipPath>
    <clipPath id="clip-path-2">
      <path id="Trazado_1975" data-name="Trazado 1975" d="M729.854,777.242c23.085-16.654,26.622-52.606,15.629-62.406-5.718-5.1-13-1.01-18.195-7.108-5.755-6.756.339-15.113-.42-33.6-.393-9.551-1.1-26.872-11.142-33.1-9.954-6.173-19.154,4.719-30.231-1.331-10.474-5.721-6.228-17.635-18.982-28.824-1.186-1.041-14.676-12.591-25.592-8.152-11.09,4.51-15.605,23.929-10.022,36.256,5.073,11.2,16.992,13.252,16.223,19.79-.847,7.206-15.6,7.073-17.179,14.391-2.285,10.578,26.868,18.573,27.344,35.338.28,9.859-9.675,11.513-12.029,23.931-3.038,16.027,9.814,32.947,21.066,41.456C682.629,786.218,709.845,791.676,729.854,777.242Z" transform="translate(-628.504 -601.714)" fill="url(#linear-gradient)"/>
    </clipPath>
    <clipPath id="clip-path-3">
      <path id="Trazado_1983" data-name="Trazado 1983" d="M1550.866,627.654c-21.36-15.876-24.189-49.534-13.782-58.55,5.413-4.689,12.167-.772,17.1-6.4,5.47-6.24-.117-14.133.839-31.405.494-8.924,1.389-25.107,10.856-30.794,9.388-5.639,17.844,4.666,28.281-.843,9.868-5.209,6.057-16.4,18.128-26.7,1.123-.957,13.888-11.576,24.034-7.281,10.308,4.363,14.271,22.578,8.887,34.028-4.892,10.4-16.062,12.163-15.43,18.286.7,6.747,14.489,6.819,15.869,13.682,2,9.92-25.365,17.006-26.033,32.674-.393,9.213,8.892,10.892,10.928,22.532,2.628,15.023-9.613,30.671-20.244,38.476C1594.9,636.673,1569.38,641.415,1550.866,627.654Z" transform="translate(-1531.236 -464.665)" fill="url(#linear-gradient-2)"/>
    </clipPath>
    <linearGradient id="linear-gradient-5" x1="-1.083" y1="0.584" x2="3.821" y2="-0.101" xlink:href="#linear-gradient-2"/>
    <linearGradient id="linear-gradient-6" x1="-25.817" y1="1.17" x2="40.551" y2="-1.515" xlink:href="#linear-gradient-2"/>
    <linearGradient id="linear-gradient-7" x1="-5.898" y1="0.629" x2="16.265" y2="-1.154" xlink:href="#linear-gradient-2"/>
    <linearGradient id="linear-gradient-8" x1="-1.906" y1="0.343" x2="10.358" y2="-1.527" xlink:href="#linear-gradient-2"/>
    <linearGradient id="linear-gradient-9" x1="-1.84" y1="1.395" x2="4.395" y2="-2.405" xlink:href="#linear-gradient-2"/>
    <linearGradient id="linear-gradient-10" x1="-1.528" y1="0.8" x2="5.238" y2="-2.216" xlink:href="#linear-gradient-2"/>
    <linearGradient id="linear-gradient-11" y1="0.5" x2="1" y2="0.5" gradientUnits="objectBoundingBox">
      <stop offset="0" stop-color="#444b8c"/>
      <stop offset="0.996" stop-color="#26264f"/>
    </linearGradient>
    <linearGradient id="linear-gradient-12" x1="0.366" y1="-0.381" x2="1.859" y2="7.397" gradientUnits="objectBoundingBox">
      <stop offset="0" stop-color="#ff9085"/>
      <stop offset="1" stop-color="#fb6fbb"/>
    </linearGradient>
    <linearGradient id="linear-gradient-13" x1="0.062" y1="-1.967" x2="1.555" y2="5.812" xlink:href="#linear-gradient-12"/>
    <linearGradient id="linear-gradient-14" x1="0.062" y1="-1.967" x2="1.555" y2="5.812" xlink:href="#linear-gradient-12"/>
    <linearGradient id="linear-gradient-15" x1="-0.523" y1="-5.017" x2="0.969" y2="2.761" xlink:href="#linear-gradient-12"/>
    <linearGradient id="linear-gradient-16" x1="82.993" y1="2.846" x2="83.359" y2="-0.259" xlink:href="#linear-gradient-11"/>
    <linearGradient id="linear-gradient-17" x1="25.718" y1="3.177" x2="25.796" y2="-0.32" gradientUnits="objectBoundingBox">
      <stop offset="0.1" stop-color="#311944"/>
      <stop offset="0.267" stop-color="#361b47"/>
      <stop offset="0.48" stop-color="#462050"/>
      <stop offset="0.719" stop-color="#602a5f"/>
      <stop offset="0.974" stop-color="#843773"/>
      <stop offset="1" stop-color="#893976"/>
    </linearGradient>
    <linearGradient id="linear-gradient-18" x1="511.641" y1="0.557" x2="529.068" y2="2.438" xlink:href="#linear-gradient-17"/>
    <linearGradient id="linear-gradient-19" x1="95.998" y1="2.888" x2="96.479" y2="-0.295" xlink:href="#linear-gradient-11"/>
    <linearGradient id="linear-gradient-20" x1="95.921" y1="7.14" x2="94.082" y2="-22.479" gradientUnits="objectBoundingBox">
      <stop offset="0.1" stop-color="#311944"/>
      <stop offset="0.685" stop-color="#6d2e66"/>
      <stop offset="1" stop-color="#893976"/>
    </linearGradient>
    <linearGradient id="linear-gradient-21" x1="26.735" y1="0.836" x2="23.639" y2="0.309" gradientUnits="objectBoundingBox">
      <stop offset="0" stop-color="#311944"/>
      <stop offset="1" stop-color="#893976"/>
    </linearGradient>
    <linearGradient id="linear-gradient-22" x1="31.653" y1="0.099" x2="32.912" y2="0.581" xlink:href="#linear-gradient-21"/>
    <linearGradient id="linear-gradient-23" x1="6.965" y1="-0.479" x2="7.058" y2="0.935" xlink:href="#linear-gradient-20"/>
    <linearGradient id="linear-gradient-24" x1="7.432" y1="0.325" x2="8.18" y2="0.917" xlink:href="#linear-gradient-21"/>
    <linearGradient id="linear-gradient-25" x1="6.988" y1="0.495" x2="7.278" y2="0.472" xlink:href="#linear-gradient-20"/>
    <linearGradient id="linear-gradient-26" x1="7.37" y1="2.528" x2="7.266" y2="0.167" xlink:href="#linear-gradient-17"/>
    <linearGradient id="linear-gradient-27" x1="7.421" y1="3.142" x2="7.245" y2="-0.185" xlink:href="#linear-gradient-21"/>
    <linearGradient id="linear-gradient-28" x1="43.58" y1="0.938" x2="40.333" y2="-0.587" xlink:href="#linear-gradient-11"/>
    <linearGradient id="linear-gradient-29" x1="51.17" y1="-2.23" x2="40.245" y2="1.258" xlink:href="#linear-gradient-11"/>
    <linearGradient id="linear-gradient-30" x1="-9.299" y1="-3.183" x2="-10.215" y2="-0.992" xlink:href="#linear-gradient-2"/>
    <linearGradient id="linear-gradient-31" x1="0.247" y1="-1.673" x2="-1.609" y2="-0.178" xlink:href="#linear-gradient-12"/>
    <linearGradient id="linear-gradient-32" x1="0.58" y1="-9.43" x2="1.848" y2="1.04" xlink:href="#linear-gradient-21"/>
    <linearGradient id="linear-gradient-33" x1="5.832" y1="-1.747" x2="5.894" y2="-6.044" xlink:href="#linear-gradient-2"/>
    <linearGradient id="linear-gradient-34" x1="3.923" y1="-11.36" x2="5.192" y2="-0.891" xlink:href="#linear-gradient-21"/>
    <linearGradient id="linear-gradient-35" x1="17.762" y1="-2.812" x2="17.824" y2="-7.109" xlink:href="#linear-gradient-2"/>
    <linearGradient id="linear-gradient-36" x1="1.151" y1="0.314" x2="2.088" y2="0.314" xlink:href="#linear-gradient-11"/>
    <linearGradient id="linear-gradient-37" x1="1.265" y1="0.314" x2="2.295" y2="0.314" xlink:href="#linear-gradient-11"/>
    <linearGradient id="linear-gradient-38" x1="2.096" y1="0.307" x2="3.305" y2="0.307" xlink:href="#linear-gradient-11"/>
    <linearGradient id="linear-gradient-39" x1="2.231" y1="1.241" x2="1.028" y2="0.008" xlink:href="#linear-gradient-12"/>
    <linearGradient id="linear-gradient-40" x1="2.463" y1="1.285" x2="1.135" y2="-0.176" xlink:href="#linear-gradient-12"/>
    <linearGradient id="linear-gradient-41" x1="7.169" y1="-4.119" x2="8.171" y2="-4.119" xlink:href="#linear-gradient-2"/>
    <linearGradient id="linear-gradient-42" x1="2.062" y1="1.44" x2="0.28" y2="0.221" xlink:href="#linear-gradient-12"/>
    <linearGradient id="linear-gradient-43" x1="0.54" y1="-0.071" x2="0.454" y2="1.869" xlink:href="#linear-gradient-2"/>
    <linearGradient id="linear-gradient-44" x1="3.663" y1="0.26" x2="2.946" y2="-1.327" gradientUnits="objectBoundingBox">
      <stop offset="0" stop-color="#444b8c"/>
      <stop offset="0.996" stop-color="#3e4177"/>
    </linearGradient>
    <linearGradient id="linear-gradient-45" x1="-28.209" y1="-8.077" x2="-27.657" y2="-17.315" xlink:href="#linear-gradient-2"/>
    <linearGradient id="linear-gradient-46" x1="0.383" y1="-2.504" x2="0.584" y2="1.901" xlink:href="#linear-gradient-11"/>
    <linearGradient id="linear-gradient-47" x1="11.557" y1="1.12" x2="11.557" y2="-0.094" xlink:href="#linear-gradient-11"/>
    <linearGradient id="linear-gradient-48" x1="1.087" y1="-0.027" x2="0.798" y2="0.192" gradientUnits="objectBoundingBox">
      <stop offset="0" stop-color="#aa80f9"/>
      <stop offset="0.996" stop-color="#6165d7"/>
    </linearGradient>
    <linearGradient id="linear-gradient-49" x1="0.201" y1="0.023" x2="1.193" y2="1.294" xlink:href="#linear-gradient-48"/>
    <linearGradient id="linear-gradient-50" x1="0.73" y1="0.758" x2="-0.115" y2="-0.571" xlink:href="#linear-gradient-48"/>
    <linearGradient id="linear-gradient-51" x1="1.346" y1="0.159" x2="0.658" y2="0.404" xlink:href="#linear-gradient-48"/>
    <linearGradient id="linear-gradient-52" x1="0.861" y1="-0.035" x2="-0.333" y2="1.316" xlink:href="#linear-gradient-48"/>
  </defs>
  <g id="Grupo_10169" data-name="Grupo 10169" transform="translate(27.601 26.05)">
    <path id="Trazado_1959" data-name="Trazado 1959" d="M680.589,554.3c-6.337-41.477-32.318-92.435-83.646-97.768,0,0-38.971-4.74-77.387,2.444-22.8,4.264-42.793,16.956-55.443,35.2a76.336,76.336,0,0,0-11.748,61.693c3.331,13.774,5.582,28.03,4.964,42.183-1.075,24.633-.457,47.626,23.449,62.317,21.345,13.117,48.208,24.686,73.836,26.712,17.416,1.377,36.948-.851,53.734-5.386C693.9,658.588,686.926,595.779,680.589,554.3Z" transform="translate(-450.238 -455)" fill="#f4f7fa"/>
    <g id="Grupo_10140" data-name="Grupo 10140" transform="translate(142.784 106.631)">
      <path id="Trazado_1960" data-name="Trazado 1960" d="M2180.185,1827.888c-.9-.257.908-4.827-.831-11.3-.434-1.617-2.192-10.6-8.954-11.885l-3.937-.748c-.681-3.139-.74-6.223,3.438-6.744,6.489-.809,8.087-11.187,6.888-15.13-1.485-4.88-4.7-16.3,5.307-17.7,8.331-1.167,14.008-.292,15.925-9.959s8.383-14.888,17.64-12.873c9.741,2.121,19.523-9.031,27-3.649,13.023,9.378-2.676,28.918-20.6,32.522s-8.95,10.932-9.6,18.984a14.011,14.011,0,0,1-.832,3.193c-3.155,8.026-12.054,8.127-19.307,13.982C2182.427,1814.565,2181.7,1828.322,2180.185,1827.888Z" transform="translate(-2166.115 -1736.414)" fill="#fff"/>
      <g id="Grupo_10139" data-name="Grupo 10139" transform="translate(0.118)">
        <path id="Trazado_1961" data-name="Trazado 1961" d="M2189.556,1809.861l-21.389-3.451c-.823-3.068-1.633-8.615,3.034-9.2,6.489-.809,8.087-11.187,6.888-15.13-1.485-4.88-4.7-16.3,5.308-17.7,8.33-1.167,14.008-.292,15.924-9.959s8.384-14.888,17.641-12.873c9.742,2.121,19.523-9.031,27-3.649,13.023,9.378-2.676,28.918-20.6,32.522s-8.951,10.932-9.6,18.984c-.887,10.993-16.115,6.274-20.819,9.924C2189.251,1802.188,2189.2,1806.911,2189.556,1809.861Z" transform="translate(-2167.534 -1736.414)" fill="#d8dee8"/>
        <g id="Grupo_10138" data-name="Grupo 10138" clip-path="url(#clip-path)">
          <g id="Grupo_10137" data-name="Grupo 10137" transform="translate(11.269 3.351)" opacity="0.5" style="mix-blend-mode: soft-light;isolation: isolate">
            <path id="Trazado_1962" data-name="Trazado 1962" d="M2311.929,1850.173l-.443-.158c11.192-30.43,38.022-55.1,70.019-64.382l.148.426C2349.792,1795.3,2323.075,1819.869,2311.929,1850.173Z" transform="translate(-2310.777 -1784.889)" fill="#fcfdfe"/>
            <path id="Trazado_1963" data-name="Trazado 1963" d="M2311.717,2096.021l-.464-.073c1.8-12.621-8.2-24.251-8.3-24.366l.357-.278C2303.411,2071.42,2313.547,2083.2,2311.717,2096.021Z" transform="translate(-2302.951 -2046.787)" fill="#fcfdfe"/>
            <path id="Trazado_1964" data-name="Trazado 1964" d="M2339.325,2401.355l-.378-.273c8.023-10.253,32.8-7.992,33.046-7.968l-.033.443C2371.713,2393.534,2347.2,2391.3,2339.325,2401.355Z" transform="translate(-2335.951 -2341.61)" fill="#fcfdfe"/>
            <path id="Trazado_1965" data-name="Trazado 1965" d="M2648.732,1801.167l-.4-.242c5.595-8.642,1.225-23.979,1.18-24.133l.451-.107C2650.007,1776.841,2654.43,1792.365,2648.732,1801.167Z" transform="translate(-2619.591 -1776.685)" fill="#fcfdfe"/>
            <path id="Trazado_1966" data-name="Trazado 1966" d="M2854.274,1898.02l-.189-.412c11.269-4.422,26.9,1.455,27.061,1.515l-.164.413C2880.827,1899.475,2865.367,1893.667,2854.274,1898.02Z" transform="translate(-2808.223 -1886.035)" fill="#fcfdfe"/>
          </g>
        </g>
      </g>
    </g>
    <g id="Grupo_10144" data-name="Grupo 10144" transform="translate(14.834 12.209)">
      <g id="Grupo_10143" data-name="Grupo 10143" transform="translate(0 0)">
        <path id="Trazado_1968" data-name="Trazado 1968" d="M729.854,777.242c23.085-16.654,26.622-52.606,15.629-62.406-5.718-5.1-13-1.01-18.195-7.108-5.755-6.756.339-15.113-.42-33.6-.393-9.551-1.1-26.872-11.142-33.1-9.954-6.173-19.154,4.719-30.231-1.331-10.474-5.721-6.228-17.635-18.982-28.824-1.186-1.041-14.676-12.591-25.592-8.152-11.09,4.51-15.605,23.929-10.022,36.256,5.073,11.2,16.992,13.252,16.223,19.79-.847,7.206-15.6,7.073-17.179,14.391-2.285,10.578,26.868,18.573,27.344,35.338.28,9.859-9.675,11.513-12.029,23.931-3.038,16.027,9.814,32.947,21.066,41.456C682.629,786.218,709.845,791.676,729.854,777.242Z" transform="translate(-628.504 -601.714)" fill="url(#linear-gradient)"/>
        <g id="Grupo_10142" data-name="Grupo 10142" clip-path="url(#clip-path-2)">
          <g id="Grupo_10141" data-name="Grupo 10141" transform="translate(-12.617 -10.79)" opacity="0.8" style="mix-blend-mode: soft-light;isolation: isolate">
            <path id="Trazado_1969" data-name="Trazado 1969" d="M736.777,720.015l.875-.219a771.168,771.168,0,0,0-29.45-93.511,487.918,487.918,0,0,0-28.487-60.891c-17.148-30.451-29.929-42.911-30.056-43.034l-.626.65c.126.122,12.838,12.524,29.928,42.883C694.736,593.915,717.572,643.4,736.777,720.015Z" transform="translate(-634.709 -518.172)" fill="#fff"/>
            <path id="Trazado_1970" data-name="Trazado 1970" d="M984.574,522.244a99.3,99.3,0,0,0-3.856-50.2l-.836.338a98.355,98.355,0,0,1,3.805,49.694Z" transform="translate(-938.026 -472.046)" fill="#fff"/>
            <path id="Trazado_1971" data-name="Trazado 1971" d="M1371.373,991.05c14.626-26.722,18.951-45.7,20-56.923,1.147-12.22-1.164-18.022-1.263-18.263l-.835.342c.024.058,2.335,5.9,1.191,17.936-1.058,11.12-5.367,29.945-19.887,56.474Z" transform="translate(-1296.215 -878.933)" fill="#fff"/>
            <path id="Trazado_1972" data-name="Trazado 1972" d="M1611.848,1763.926c35.415-39.774,36.873-71.142,36.883-71.454l-.9-.03c0,.078-.4,8.208-5.37,21.281-4.373,11.511-13.35,29.461-31.285,49.6Z" transform="translate(-1516.786 -1590.888)" fill="#fff"/>
            <path id="Trazado_1973" data-name="Trazado 1973" d="M538.762,1324.552a82.5,82.5,0,0,0,9.463,1.109l.052-.9c-21.1-1.227-39.208-10.819-50.681-18.65a122.825,122.825,0,0,1-20.039-16.867l-.671.6a123.836,123.836,0,0,0,20.2,17.008C506.9,1313.554,521.537,1321.532,538.762,1324.552Z" transform="translate(-476.887 -1221.241)" fill="#fff"/>
            <path id="Trazado_1974" data-name="Trazado 1974" d="M846.794,1915.143q2.492.437,5.084.705l.092-.9c-21.922-2.246-38.382-14.267-48.331-23.957a101.61,101.61,0,0,1-16.505-20.7l-.789.438a102.631,102.631,0,0,0,16.665,20.907C812.278,1900.666,827.146,1911.7,846.794,1915.143Z" transform="translate(-760.594 -1753.942)" fill="#fff"/>
          </g>
        </g>
      </g>
    </g>
    <g id="Grupo_10148" data-name="Grupo 10148" transform="translate(89.953 0.804)">
      <g id="Grupo_10147" data-name="Grupo 10147" transform="translate(0 0)">
        <path id="Trazado_1976" data-name="Trazado 1976" d="M1550.866,627.654c-21.36-15.876-24.189-49.534-13.782-58.55,5.413-4.689,12.167-.772,17.1-6.4,5.47-6.24-.117-14.133.839-31.405.494-8.924,1.389-25.107,10.856-30.794,9.388-5.639,17.844,4.666,28.281-.843,9.868-5.209,6.057-16.4,18.128-26.7,1.123-.957,13.888-11.576,24.034-7.281,10.308,4.363,14.271,22.578,8.887,34.028-4.892,10.4-16.062,12.163-15.43,18.286.7,6.747,14.489,6.819,15.869,13.682,2,9.92-25.365,17.006-26.033,32.674-.393,9.213,8.892,10.892,10.928,22.532,2.628,15.023-9.613,30.671-20.244,38.476C1594.9,636.673,1569.38,641.415,1550.866,627.654Z" transform="translate(-1531.236 -464.665)" fill="url(#linear-gradient-2)"/>
        <g id="Grupo_10146" data-name="Grupo 10146" clip-path="url(#clip-path-3)">
          <g id="Grupo_10145" data-name="Grupo 10145" transform="translate(3.949 -10.249)" style="mix-blend-mode: soft-light;isolation: isolate">
            <path id="Trazado_1977" data-name="Trazado 1977" d="M1889.355,576.592l-.815-.217a721.025,721.025,0,0,1,28.774-87.031,456.208,456.208,0,0,1,27.441-56.548c16.437-28.24,28.55-39.72,28.671-39.832l.576.616c-.12.112-12.168,11.538-28.549,39.693C1930.334,459.261,1908.328,505.221,1889.355,576.592Z" transform="translate(-1862.756 -388.681)" fill="url(#linear-gradient-5)"/>
            <path id="Trazado_1978" data-name="Trazado 1978" d="M2532.361,388.377a92.844,92.844,0,0,1,4.271-46.878l.777.327a91.975,91.975,0,0,0-4.218,46.408Z" transform="translate(-2451.843 -341.499)" fill="url(#linear-gradient-6)"/>
            <path id="Trazado_1979" data-name="Trazado 1979" d="M2014.887,818.781c-13.318-25.176-17.11-42.98-17.945-53.482-.909-11.439,1.328-16.833,1.424-17.057l.776.331c-.023.053-2.261,5.486-1.351,16.753.841,10.41,4.62,28.066,17.842,53.06Z" transform="translate(-1961.939 -714.396)" fill="url(#linear-gradient-7)"/>
            <path id="Trazado_1980" data-name="Trazado 1980" d="M1612.219,1535.628c-32.58-37.655-33.527-67-33.532-67.291l.843-.017c0,.073.27,7.679,4.738,19.966,3.935,10.819,12.089,27.72,28.589,46.789Z" transform="translate(-1578.687 -1374.554)" fill="url(#linear-gradient-8)"/>
            <path id="Trazado_1981" data-name="Trazado 1981" d="M2267.587,1144.386a77.082,77.082,0,0,1-8.862.911l-.037-.843c19.744-.867,36.8-9.594,47.628-16.762a114.864,114.864,0,0,0,18.959-15.5l.619.573a115.814,115.814,0,0,1-19.111,15.633C2297.518,1134.527,2283.73,1141.791,2267.587,1144.386Z" transform="translate(-2202.103 -1048.057)" fill="url(#linear-gradient-9)"/>
            <path id="Trazado_1982" data-name="Trazado 1982" d="M2029.818,1692.409q-2.335.376-4.762.592l-.074-.84c20.524-1.808,36.073-12.828,45.5-21.755a95.012,95.012,0,0,0,15.706-19.132l.732.42a95.97,95.97,0,0,1-15.857,19.324C2062.279,1679.333,2048.232,1689.449,2029.818,1692.409Z" transform="translate(-1987.844 -1542.283)" fill="url(#linear-gradient-10)"/>
          </g>
        </g>
      </g>
    </g>
    <g id="Grupo_10159" data-name="Grupo 10159" transform="translate(50.995 16.316)">
      <path id="Trazado_1984" data-name="Trazado 1984" d="M1182.564,848.335l-114.49-7.245c-2.637-.141-5.011,3.007-5.011,5.65V1008c0,3.665,3.423,4.4,6.06,4.108l113.441-12.673a4.583,4.583,0,0,0,3.745-4.634V852.75A4.266,4.266,0,0,0,1182.564,848.335Z" transform="translate(-1063.064 -825.274)" fill="#97a6b7"/>
      <path id="Trazado_1985" data-name="Trazado 1985" d="M1205.193,844.724l-114.716-6.173a4.508,4.508,0,0,0-4.785,4.565V1005.64a4.211,4.211,0,0,0,4.785,4.284l114.716-12.915a4.61,4.61,0,0,0,3.745-4.67V849.174A4.289,4.289,0,0,0,1205.193,844.724Z" transform="translate(-1083.81 -822.944)" fill="#d8dee8"/>
      <path id="Trazado_1986" data-name="Trazado 1986" d="M1114.739,1032.041a2.28,2.28,0,0,1-2.583-2.318V867.545a2.441,2.441,0,0,1,2.583-2.469L1229.454,871a2.321,2.321,0,0,1,2.03,2.407v143.434a2.5,2.5,0,0,1-2.03,2.526Z" transform="translate(-1108.071 -847.265)" fill="#fff" opacity="0.74"/>
      <path id="Trazado_1987" data-name="Trazado 1987" d="M1351.928,1138.59l-98.117,10.341V999.308l98.117,4.042Z" transform="translate(-1237.938 -970.33)" fill="#fff"/>
      <path id="Trazado_1988" data-name="Trazado 1988" d="M1529.288,881.017l-39.213.537.88-9.673a2.552,2.552,0,0,1,1.991-2.472l6.641-1.116a2.431,2.431,0,0,0,1.8-1.508l.72-1.711,17.37,1.173Z" transform="translate(-1454.542 -847.265)" fill="#97a6b7" opacity="0.3" style="mix-blend-mode: multiply;isolation: isolate"/>
      <path id="Trazado_1989" data-name="Trazado 1989" d="M1550.228,678.551a2.171,2.171,0,0,0-2-1.912l-6.266-.307c-2.844-.139-4.929-2.667-4.824-5.868l.242-7.418a2.339,2.339,0,0,0-2.082-2.552l-2.059-.134a2.8,2.8,0,0,1-2.395-3.367c.385-3.059-1.531-5.7-4.308-5.906-2.8-.209-5.411,2.13-5.827,5.228a3.662,3.662,0,0,1-.435,1.321,3.159,3.159,0,0,1-2.89,1.687l-2.124-.139a2.858,2.858,0,0,0-2.835,2.294l-1.766,7.53a6.852,6.852,0,0,1-6.7,5.46l-6.873-.337a2.959,2.959,0,0,0-2.749,1.788l-4.142,8.99a1.043,1.043,0,0,0,.818,1.559l59.606,2.166a1.181,1.181,0,0,0,1.086-1.395Zm-24.534-21.043a1.465,1.465,0,0,1-1.271-1.744,1.7,1.7,0,0,1,1.7-1.537,1.466,1.466,0,0,1,1.267,1.744A1.7,1.7,0,0,1,1525.693,657.508Z" transform="translate(-1454.542 -651.075)" fill="url(#linear-gradient-11)"/>
      <path id="Trazado_1990" data-name="Trazado 1990" d="M1554.471,680.967a2.171,2.171,0,0,0-2-1.912l-6.266-.307c-2.844-.139-4.929-2.667-4.824-5.868l.242-7.418a2.338,2.338,0,0,0-2.082-2.552l-2.059-.135a2.805,2.805,0,0,1-2.395-3.367c.385-3.059-1.531-5.7-4.308-5.906-2.8-.209-5.411,2.13-5.827,5.228a3.661,3.661,0,0,1-.435,1.321,3.159,3.159,0,0,1-2.89,1.687l-2.124-.139a2.859,2.859,0,0,0-2.835,2.294l-1.766,7.53a6.852,6.852,0,0,1-6.7,5.46l-6.873-.337a2.959,2.959,0,0,0-2.749,1.788l-4.142,8.99a1.043,1.043,0,0,0,.818,1.558l59.606,2.166a1.181,1.181,0,0,0,1.086-1.395Zm-24.535-21.043a1.465,1.465,0,0,1-1.271-1.744,1.7,1.7,0,0,1,1.7-1.537,1.466,1.466,0,0,1,1.267,1.743A1.7,1.7,0,0,1,1529.937,659.924Z" transform="translate(-1458.432 -653.289)" fill="#97a6b7"/>
      <g id="Grupo_10149" data-name="Grupo 10149" transform="translate(35.886 11.855)">
        <path id="Trazado_1991" data-name="Trazado 1991" d="M1544.27,813.5c-5.317-3.59-9.4-1.045-12.71-5.094-3.547-4.335-1.155-10.042-4.825-12.735-2.35-1.724-4.446-.2-7.179-.67a7.2,7.2,0,0,1-3.178-1.454l-1.473,6.28a6.852,6.852,0,0,1-6.7,5.46l-6.873-.337a2.96,2.96,0,0,0-2.749,1.788l-4.142,8.99a1.043,1.043,0,0,0,.818,1.558l54.17,1.968A17.045,17.045,0,0,0,1544.27,813.5Z" transform="translate(-1494.318 -793.544)" fill="#fff" opacity="0.5" style="mix-blend-mode: soft-light;isolation: isolate"/>
      </g>
      <g id="Grupo_10158" data-name="Grupo 10158" transform="translate(27.98 40.245)">
        <g id="Grupo_10150" data-name="Grupo 10150" transform="translate(0.447 57.78)">
          <path id="Trazado_1992" data-name="Trazado 1992" d="M1413.825,1851.544v8.739l-8.258.3v-8.821l8.258-.222Zm.893-.918-10.045.27v10.618l10.045-.371v-10.517Z" transform="translate(-1404.674 -1848.833)" fill="#d8dee8"/>
          <path id="Trazado_1993" data-name="Trazado 1993" d="M1632.817,1838.915l-62.989,2.326v-10.48l62.989-1.694Z" transform="translate(-1556.085 -1829.067)" fill="#d8dee8"/>
        </g>
        <g id="Grupo_10151" data-name="Grupo 10151" transform="translate(0.447 72.13)">
          <path id="Trazado_1994" data-name="Trazado 1994" d="M1413.825,2035.708v8.738l-8.258.426v-8.82l8.258-.343Zm.893-.931-10.045.417v10.618l10.045-.517v-10.517Z" transform="translate(-1404.674 -2032.009)" fill="#d8dee8"/>
          <path id="Trazado_1995" data-name="Trazado 1995" d="M1632.817,2011.361l-62.989,3.246v-10.48l62.989-2.615Z" transform="translate(-1556.085 -2001.512)" fill="#d8dee8"/>
        </g>
        <g id="Grupo_10152" data-name="Grupo 10152" transform="translate(0.447 86.48)">
          <path id="Trazado_1996" data-name="Trazado 1996" d="M1413.825,2219.872v8.736l-8.258.546v-8.819l8.258-.464Zm.893-.945-10.045.564v10.618l10.045-.664v-10.517Z" transform="translate(-1404.674 -2215.185)" fill="#d8dee8"/>
          <path id="Trazado_1997" data-name="Trazado 1997" d="M1632.817,2183.806l-62.989,4.166v-10.48l62.989-3.535Z" transform="translate(-1556.085 -2173.958)" fill="#d8dee8"/>
        </g>
        <g id="Grupo_10153" data-name="Grupo 10153" transform="translate(0.447 100.829)">
          <path id="Trazado_1998" data-name="Trazado 1998" d="M1413.825,2404.035v8.735l-8.258.666v-8.817l8.258-.584Zm.893-.959-10.045.711V2414.4l10.045-.811v-10.517Z" transform="translate(-1404.674 -2398.36)" fill="#d8dee8"/>
          <path id="Trazado_1999" data-name="Trazado 1999" d="M1632.817,2356.251l-62.989,5.086v-10.48l62.989-4.455Z" transform="translate(-1556.085 -2346.403)" fill="#d8dee8"/>
        </g>
        <path id="Trazado_2000" data-name="Trazado 2000" d="M1399.751,1185.153a.447.447,0,0,1-.447-.447v-49.554a.445.445,0,0,1,.135-.32.429.429,0,0,1,.324-.126l39.943,1.165a.447.447,0,0,1,.434.446V1184a.447.447,0,0,1-.439.446l-39.943.7Zm.447-49.54v48.639l39.05-.687v-46.813Zm39.5,48.391h0Z" transform="translate(-1399.304 -1134.706)" fill="#d8dee8"/>
        <path id="Trazado_2001" data-name="Trazado 2001" d="M1990.578,1163.221l-30.516-.7v-6.242l30.516.89Z" transform="translate(-1913.4 -1154.482)" fill="#d8dee8"/>
        <path id="Trazado_2002" data-name="Trazado 2002" d="M1990.578,1363.877l-30.516-.284v-3.121l30.516.378Z" transform="translate(-1913.4 -1341.684)" fill="#d8dee8"/>
        <path id="Trazado_2003" data-name="Trazado 2003" d="M1990.578,1425.535l-30.516-.13v-3.121l30.516.224Z" transform="translate(-1913.4 -1398.354)" fill="#d8dee8"/>
        <path id="Trazado_2004" data-name="Trazado 2004" d="M1990.578,1487.194l-30.516.026V1484.1l30.516.068Z" transform="translate(-1913.4 -1455.025)" fill="#d8dee8"/>
        <g id="Grupo_10157" data-name="Grupo 10157" transform="translate(2.004 9.188)">
          <path id="Trazado_2005" data-name="Trazado 2005" d="M1423.389,1492.035v-19l5.815-.918,24.84-.264,6.284,1.129v18.464Z" transform="translate(-1423.389 -1452.985)" fill="#d8dee8"/>
          <g id="Grupo_10154" data-name="Grupo 10154" transform="translate(5.671 6.563)">
            <path id="Trazado_2006" data-name="Trazado 2006" d="M1510.486,1329.366l.861,8.749a1.607,1.607,0,0,0,1.407,1.479c2.911.271,6.107,1.707,8.985,1.972l-13.2,4.12-11.643-3.856a43.9,43.9,0,0,0,7.732-2.23,1.629,1.629,0,0,0,1.089-1.387q.3-2.71.6-5.417Z" transform="translate(-1496.453 -1328.919)" fill="#fff"/>
            <path id="Trazado_2007" data-name="Trazado 2007" d="M1503.622,1341.212a.44.44,0,0,1-.141-.023l-11.643-3.856a.447.447,0,0,1,.073-.865,31.25,31.25,0,0,0,5.973-1.635c.579-.2,1.127-.4,1.688-.579a1.182,1.182,0,0,0,.783-1.011l.6-5.418a.447.447,0,0,1,.16-.3l4.166-3.43a.447.447,0,0,1,.729.3l.861,8.749a1.161,1.161,0,0,0,1,1.078,26.847,26.847,0,0,1,4.592,1.005,25.974,25.974,0,0,0,4.393.967.447.447,0,0,1,.092.871l-13.2,4.12A.443.443,0,0,1,1503.622,1341.212Zm-9.867-4.185,9.871,3.269,11.255-3.514c-.884-.193-1.778-.443-2.655-.689a26.257,26.257,0,0,0-4.435-.976,2.055,2.055,0,0,1-1.81-1.88l-.779-7.916-3.38,2.782-.579,5.237a2.076,2.076,0,0,1-1.395,1.762c-.551.179-1.093.37-1.667.572A38.521,38.521,0,0,1,1493.756,1337.027Z" transform="translate(-1491.533 -1323.998)" fill="#d8dee8"/>
          </g>
          <g id="Grupo_10156" data-name="Grupo 10156" transform="translate(12.171)">
            <g id="Grupo_10155" data-name="Grupo 10155">
              <path id="Trazado_2008" data-name="Trazado 2008" d="M1585.25,1256.782c0,4.267-2.274,9.257-5.093,9.24-2.834-.017-5.143-5.083-5.143-9.393s2.309-6.2,5.143-6.136C1582.976,1250.552,1585.25,1252.515,1585.25,1256.782Z" transform="translate(-1574.568 -1250.045)" fill="#fff"/>
              <path id="Trazado_2009" data-name="Trazado 2009" d="M1575.251,1261.549h-.017c-3.146-.019-5.587-5.3-5.587-9.839a7.053,7.053,0,0,1,1.789-5.175,5.147,5.147,0,0,1,3.81-1.408c4.077.085,5.53,3.535,5.53,6.735,0,3.247-1.234,6.741-3,8.5A3.579,3.579,0,0,1,1575.251,1261.549Zm-.143-15.53a4.24,4.24,0,0,0-3.047,1.154,6.2,6.2,0,0,0-1.52,4.537c0,4.014,2.168,8.931,4.7,8.946a2.7,2.7,0,0,0,1.906-.928c1.586-1.577,2.738-4.885,2.738-7.865,0-3.6-1.74-5.781-4.655-5.842Z" transform="translate(-1569.647 -1245.125)" fill="#d8dee8"/>
            </g>
          </g>
        </g>
      </g>
      <path id="Trazado_2010" data-name="Trazado 2010" d="M1419.984,1849.286s2.756,2.3,3.287,3.72c.044.062.913-.146,1.013-.1a24.443,24.443,0,0,1,2.063-4.272c1.666-2.56,3.623-5.04,3.657-5.071a.049.049,0,0,0,.016-.027c.012-.08-.31-.217-.362-.166a53.633,53.633,0,0,0-3.879,4.223,31.015,31.015,0,0,0-2.372,3.455s-2.634-2.034-2.99-2.151Z" transform="translate(-1390.284 -1744.14)" fill="url(#linear-gradient-12)"/>
      <path id="Trazado_2011" data-name="Trazado 2011" d="M1419.984,2040.709s2.756,2.3,3.287,3.72c.044.063.913-.146,1.013-.1a24.461,24.461,0,0,1,2.063-4.272c1.666-2.56,3.623-5.04,3.657-5.072a.048.048,0,0,0,.016-.027c.012-.08-.31-.217-.362-.166a53.66,53.66,0,0,0-3.879,4.222,31.061,31.061,0,0,0-2.372,3.455s-2.634-2.034-2.99-2.151Z" transform="translate(-1390.284 -1919.634)" fill="url(#linear-gradient-13)"/>
      <path id="Trazado_2012" data-name="Trazado 2012" d="M1419.984,2233.979s2.756,2.3,3.287,3.72c.044.062.913-.146,1.013-.1a24.451,24.451,0,0,1,2.063-4.273c1.666-2.56,3.623-5.04,3.657-5.071a.048.048,0,0,0,.016-.027c.012-.08-.31-.217-.362-.167a53.633,53.633,0,0,0-3.879,4.223,31.026,31.026,0,0,0-2.372,3.455s-2.634-2.034-2.99-2.152Z" transform="translate(-1390.284 -2096.822)" fill="url(#linear-gradient-14)"/>
      <path id="Trazado_2013" data-name="Trazado 2013" d="M1419.984,2409.008s2.756,2.3,3.287,3.72c.044.062.913-.146,1.013-.1a24.443,24.443,0,0,1,2.063-4.273c1.666-2.56,3.623-5.04,3.657-5.071a.053.053,0,0,0,.016-.027c.012-.081-.31-.217-.362-.166a53.66,53.66,0,0,0-3.879,4.222,31.026,31.026,0,0,0-2.372,3.455s-2.634-2.034-2.99-2.152Z" transform="translate(-1390.284 -2257.286)" fill="url(#linear-gradient-15)"/>
    </g>
    <g id="Grupo_10162" data-name="Grupo 10162" transform="translate(132.787 146.782)">
      <path id="Trazado_2014" data-name="Trazado 2014" d="M2563.867,2242.114s4.371,1.475,4.836,9.1c-.715-.059-2.382,0-2.382,0s.309-5.543-2.8-6.62A12.664,12.664,0,0,0,2563.867,2242.114Z" transform="translate(-2520.455 -2240.184)" fill="url(#linear-gradient-16)"/>
      <path id="Trazado_2015" data-name="Trazado 2015" d="M2374.928,2220.4q.163,2.082.327,4.163a31.216,31.216,0,0,1,7.063-1.479,30.681,30.681,0,0,1,9.024.881,3.207,3.207,0,0,0,.491-1.283,4.52,4.52,0,0,0-.186-2.187,26.458,26.458,0,0,0-4.458-1.228A24.876,24.876,0,0,0,2374.928,2220.4Z" transform="translate(-2347.555 -2218.927)" fill="url(#linear-gradient-17)"/>
      <path id="Trazado_2016" data-name="Trazado 2016" d="M2372.47,2237.738c.007-.5.042-1.129.2-1.2s.356.384.443.636a4.324,4.324,0,0,1,.167,1.169,6.566,6.566,0,0,1-.08,1.872c-.042.19-.107.478-.2.485-.078.006-.146-.176-.246-.528A8.383,8.383,0,0,1,2372.47,2237.738Z" transform="translate(-2345.301 -2235.064)" fill="url(#linear-gradient-18)"/>
      <path id="Trazado_2017" data-name="Trazado 2017" d="M2324.632,2253.507c.906.179,3.108.717,3.108.717s-1.436-4.876,1.271-7.126a5.385,5.385,0,0,0,.056-1.656,5.175,5.175,0,0,0-.323-1.278C2327.594,2244.85,2325.092,2247.161,2324.632,2253.507Z" transform="translate(-2301.444 -2242.063)" fill="url(#linear-gradient-19)"/>
      <path id="Trazado_2018" data-name="Trazado 2018" d="M2099.512,2343.677s.111-2.56,3.888-2.56c.595.467.625,2.56.625,2.56Z" transform="translate(-2095.057 -2330.949)" fill="url(#linear-gradient-20)"/>
      <path id="Trazado_2019" data-name="Trazado 2019" d="M2047.081,2412.023l10.338,6.748,6.263-24.781-10.32-33.222-2.926.925-4.441,47.714A2.823,2.823,0,0,0,2047.081,2412.023Z" transform="translate(-2045.98 -2348.964)" fill="url(#linear-gradient-21)"/>
      <path id="Trazado_2020" data-name="Trazado 2020" d="M2112.759,2393.99l-10.32-33.222-2.926.925a69.635,69.635,0,0,1,1.229,10.365c.692,11.311,2.99,14.459,1.876,22.35-.925,6.561-2.946,7.452-2.77,11.866.193,4.807,2.793,8.833,5.885,12l.763.5Z" transform="translate(-2095.057 -2348.964)" opacity="0.3" fill="url(#linear-gradient-22)" style="mix-blend-mode: multiply;isolation: isolate"/>
      <path id="Trazado_2021" data-name="Trazado 2021" d="M2134.678,2360.767h56.759l8.936,52.661-61.638,5.343Z" transform="translate(-2127.298 -2348.964)" fill="url(#linear-gradient-23)"/>
      <g id="Grupo_10160" data-name="Grupo 10160" transform="translate(13.749 11.803)" opacity="0.2" style="mix-blend-mode: multiply;isolation: isolate">
        <path id="Trazado_2022" data-name="Trazado 2022" d="M2261.6,2360.767h-19.121a38.349,38.349,0,0,1-1.676,4.261c-8.551,18.382-28.127,20.7-27.773,23.719.529,4.515,44.12-1.894,45.233,4.311.537,2.995-8.668,9.8-18.287,12.381-11.517,3.087-19.981-.8-25.61,6.132a16.819,16.819,0,0,0-3.157,6.959l59.326-5.1Z" transform="translate(-2211.209 -2360.767)" fill="url(#linear-gradient-24)"/>
      </g>
      <path id="Trazado_2023" data-name="Trazado 2023" d="M2112.551,2341.072a4.132,4.132,0,0,0-2.506.53,3.948,3.948,0,0,0-.552.423l.448-.172a1.788,1.788,0,0,1,2.084.855,16.744,16.744,0,0,1,.719,4.27c.283,3.122,2.026,22.544,2.026,22.544a2.841,2.841,0,0,0,2.646,2.846l52.8-2.961a1.82,1.82,0,0,0,1.128-.418,2.685,2.685,0,0,0,.842-2.5l-2.675-23.131a2.527,2.527,0,0,0-2.32-2.284Z" transform="translate(-2104.208 -2330.904)" fill="url(#linear-gradient-25)"/>
      <path id="Trazado_2024" data-name="Trazado 2024" d="M2120.011,2340.92a7.319,7.319,0,0,0-2.243.15,2.276,2.276,0,0,0-.754.334,2.116,2.116,0,0,1,2.471,1.151,19.077,19.077,0,0,1,.719,4.27c.283,3.122,2.025,22.543,2.025,22.543a2.842,2.842,0,0,0,2.647,2.846l53.392-1.239a1.822,1.822,0,0,0,1.128-.417,2.685,2.685,0,0,0,.842-2.5l-3.269-24.855a2.528,2.528,0,0,0-2.321-2.284Z" transform="translate(-2111.104 -2330.752)" fill="url(#linear-gradient-26)"/>
      <path id="Trazado_2025" data-name="Trazado 2025" d="M2180.239,2368.059l-3.269-24.855a2.528,2.528,0,0,0-2.321-2.284h-54.637a7.319,7.319,0,0,0-2.243.15,2.276,2.276,0,0,0-.754.334,2.116,2.116,0,0,1,2.471,1.151,4.4,4.4,0,0,1,.18.549c5.189.221,10.378.062,15.566.423,10.257.7,20.63.7,30.311,5.147,3.1,1.424,5.219,6.539,4.379,8.9-.606,1.7-2.673,1.569-3.394,3.8-.759,2.352,1.061,3.95.3,5.6-.8,1.729-3.229.906-7.16,2.14a18.257,18.257,0,0,0-4.866,2.4l23.47-.545a1.822,1.822,0,0,0,1.128-.417A2.685,2.685,0,0,0,2180.239,2368.059Z" transform="translate(-2111.104 -2330.752)" opacity="0.1" fill="url(#linear-gradient-27)" style="mix-blend-mode: multiply;isolation: isolate"/>
      <g id="Grupo_10161" data-name="Grupo 10161" transform="translate(34.542 35.226)">
        <path id="Trazado_2026" data-name="Trazado 2026" d="M2470.123,2653.069l-6.686,1.728-.706.062a1.381,1.381,0,0,1-1.355-1.468l-.293-8.225a1.435,1.435,0,0,1,1.245-1.6l.71-.012,6.721.918c.642-.011,1.183-.378,1.212.438l.275,7.714C2471.274,2653.438,2470.763,2653.013,2470.123,2653.069Z" transform="translate(-2461.081 -2643.443)" fill="url(#linear-gradient-28)"/>
        <path id="Trazado_2027" data-name="Trazado 2027" d="M2476.062,2653.015l-7.407.651a1.381,1.381,0,0,1-1.355-1.468l-.293-8.226a1.435,1.435,0,0,1,1.245-1.6l7.426-.12a1.388,1.388,0,0,1,1.216,1.465l.275,7.714A1.443,1.443,0,0,1,2476.062,2653.015Z" transform="translate(-2466.512 -2642.25)" fill="url(#linear-gradient-29)"/>
      </g>
    </g>
    <g id="Grupo_10165" data-name="Grupo 10165" transform="translate(17.51 82.941)">
      <path id="Trazado_2028" data-name="Trazado 2028" d="M1589.621,1457.693s.054-2.763,1.33-3.19,5.617-3.787,5.357-2.478-2.157,2.317-2.157,2.317,1.6,1.99-.437,3.155S1587.815,1462.562,1589.621,1457.693Z" transform="translate(-1511.89 -1451.724)" fill="url(#linear-gradient-30)"/>
      <path id="Trazado_2029" data-name="Trazado 2029" d="M1150.843,1514.173l2.9,3.515a38.873,38.873,0,0,1-3.94,10.3,39.656,39.656,0,0,1-9.7,11.458c-7.7,6.14-22.215,12.652-27.216,7.525-4.462-4.574.7-16.32,1.655-18.432,2.482.856-.762-1.842,11.554,1.727,1.584.459,5.936-.255,10.576-2.242C1145.26,1524.346,1149.455,1516.935,1150.843,1514.173Z" transform="translate(-1073.611 -1508.976)" fill="url(#linear-gradient-31)"/>
      <path id="Trazado_2030" data-name="Trazado 2030" d="M1173.809,3121.406a23.187,23.187,0,0,0-.32,3.047c.047.8,8.923,1.208,9.012.609s-1.467-1.552-2.563-1.888-4.3-1.233-4.3-1.233Z" transform="translate(-1130.81 -2982.466)" fill="url(#linear-gradient-32)"/>
      <path id="Trazado_2031" data-name="Trazado 2031" d="M1173.78,3093.469l-.283,2.794a2.019,2.019,0,0,1-1.94.155l-.455-3.042Z" transform="translate(-1128.627 -2956.77)" fill="url(#linear-gradient-33)"/>
      <path id="Trazado_2032" data-name="Trazado 2032" d="M983.5,3165.189a23.154,23.154,0,0,0-.32,3.047c.047.8,8.923,1.208,9.012.609s-1.467-1.552-2.563-1.888-4.3-1.234-4.3-1.234Z" transform="translate(-956.338 -3022.606)" fill="url(#linear-gradient-34)"/>
      <path id="Trazado_2033" data-name="Trazado 2033" d="M983.473,3137.25l-.283,2.794a2.018,2.018,0,0,1-1.939.156l-.454-3.042Z" transform="translate(-954.156 -2996.908)" fill="url(#linear-gradient-35)"/>
      <path id="Trazado_2034" data-name="Trazado 2034" d="M1055.056,2204.662l3.078,6.24c.825,11.87,1.235,24.777.972,38.581-.2,10.27-.745,20-1.533,29.131l-4.173-.192a41.624,41.624,0,0,1-4.6-17.506c-.228-7.788,2.133-8.822,1.983-16.278-.194-9.665-4.247-12.243-6.406-23.868a62.241,62.241,0,0,1-.721-17.3Z" transform="translate(-1011.513 -2140.917)" fill="url(#linear-gradient-36)"/>
      <path id="Trazado_2035" data-name="Trazado 2035" d="M1043.651,2203.472l6.159.643c3.7,6.431,4.727,13.125,4.079,16.086-.917,4.189-3.344,5.531-3.211,9.737.132,4.162,2.584,5.241,4.139,10.146,1.077,3.4.792,6.519.18,12.625-1.233,12.3-4.2,16.062-1.716,20.095a9.075,9.075,0,0,0,4.476,3.552c-.061.755-.121,1.511-.186,2.257l-4.173-.191a41.627,41.627,0,0,1-4.6-17.506c-.228-7.788,2.133-8.822,1.983-16.278-.194-9.665-4.247-12.243-6.406-23.868A62.241,62.241,0,0,1,1043.651,2203.472Z" transform="translate(-1011.513 -2140.917)" opacity="0.3" fill="url(#linear-gradient-37)" style="mix-blend-mode: multiply;isolation: isolate"/>
      <path id="Trazado_2036" data-name="Trazado 2036" d="M912.478,2230.364c-1.926,10.5-3.627,21.741-4.954,33.662-1.6,14.392-2.458,27.961-2.794,40.558l-4.58.13c-6.016-11.9-6.384-19.972-5.517-25.226a75.938,75.938,0,0,0,1.449-11.927,83.855,83.855,0,0,0-.449-11.066c-.722-8.3-1.6-10.106-1.725-16.451-.119-5.954-.143-8.968,1.557-10.726C899.943,2224.684,911.594,2229.954,912.478,2230.364Z" transform="translate(-874.455 -2162.874)" fill="url(#linear-gradient-38)"/>
      <path id="Trazado_2037" data-name="Trazado 2037" d="M824.408,1726.191c1.463-2.427-.375-4.768-.793-9.367-.474-5.212,1.534-6.08,3.52-14.717,1.32-5.745,2.588-11.26,1.075-17.715-.725-3.094-1.955-8.341-6.3-10.876-2.241-1.308-5.3-1.177-11.329-.862-7.455.39-11.182.585-13.962,2.048-.407.215-8.864,4.814-9.446,12.312-.593,7.631,7.718,8.657,8.827,18.834.5,4.569-.389,11.595-.965,16.152-.552,4.376-.932,5.5-.069,6.821,2.081,3.193,8.453,2.283,21.2.463C821.165,1728.571,823.317,1728,824.408,1726.191Z" transform="translate(-776.62 -1654.076)" fill="url(#linear-gradient-39)"/>
      <path id="Trazado_2038" data-name="Trazado 2038" d="M805.018,1804.841c-.539,1.983-2.477,3.465-3.826,8.289-.291,1.042-2.366,8.459.325,10.286,1.555,1.055,2.95-.943,6.722-1.2,6.537-.452,9.651,5.042,13.921,3.542a5.849,5.849,0,0,0,2.7-2.091,4.314,4.314,0,0,1-.448,3.158c-1.092,1.811-3.243,2.38-8.242,3.094-12.744,1.82-19.116,2.73-21.2-.463-.864-1.325-.483-2.445.069-6.821.575-4.557,1.462-11.584.965-16.152-1.108-10.177-9.419-11.2-8.827-18.834a11.837,11.837,0,0,1,1.912-5.438C799.631,1786.472,806.712,1798.608,805.018,1804.841Z" transform="translate(-776.62 -1754.705)" opacity="0.2" fill="url(#linear-gradient-40)" style="mix-blend-mode: multiply;isolation: isolate"/>
      <path id="Trazado_2039" data-name="Trazado 2039" d="M841.9,2230.347l2.109,1.346a4.939,4.939,0,0,1,2.625-1.621c1.543-.339,3.313.147,3.354.639.033.395-1.045.792-1.212.854-1.346.5-2.344.084-2.888.625a4.117,4.117,0,0,1-.984.877,2.979,2.979,0,0,1-.376.194c-.9.349-2.439-1.214-2.572-1.351Z" transform="translate(-826.823 -2165.2)" fill="url(#linear-gradient-41)"/>
      <path id="Trazado_2040" data-name="Trazado 2040" d="M681.971,1709.038c1.526-3.655,2.7-9.218.288-17.528-15.881,6.257-24.1,21.06-20.933,32.82,2.607,9.694,12.091,14.416,14.207,15.41l1.477-3.361c-2.452-2.73-5.215-6.768-4.824-11.375C672.728,1718.616,678.881,1716.437,681.971,1709.038Z" transform="translate(-660.657 -1671.557)" fill="url(#linear-gradient-42)"/>
      <path id="Trazado_2041" data-name="Trazado 2041" d="M988.479,1584.627a17,17,0,0,1-.988,4.859c-.779,1.88-4.878,3.062-5.709,3.482s1.557,1.647,3.954,1.888,9.245-.3,10.479-1.212-.992-.841-2.7-1.469-2.7-3.975-2.4-5.494S988.479,1584.627,988.479,1584.627Z" transform="translate(-954.905 -1573.568)" fill="url(#linear-gradient-43)"/>
      <path id="Trazado_2042" data-name="Trazado 2042" d="M1035.928,1500.506c1.244-1.222,1.418-1.365,1.553-1.788a4.07,4.07,0,0,0-2.5-4.59c-.089-.03-1.247-.4-1.688.1-.375.426.177,1.015-.086,1.837-.246.769-.912.827-2.148,1.835-1.018.831-1.651,1.347-1.8,2.073a3.542,3.542,0,0,0,3.117,3.609C1032.96,1503.563,1033.117,1503.268,1035.928,1500.506Z" transform="translate(-998.563 -1490.454)" fill="url(#linear-gradient-44)"/>
      <g id="Grupo_10163" data-name="Grupo 10163" transform="translate(32.55 8.97)">
        <path id="Trazado_2043" data-name="Trazado 2043" d="M1053.252,1563.911a3.535,3.535,0,0,0,3.337,1c1.8-.443,1.343-4.583.023-5.244a2.34,2.34,0,0,0-1.842.087c-.355.171-.454.349-1.04.618-.541.247-.712.213-.858.388-.182.218-.26.688.31,1.821a1.008,1.008,0,0,0-1.124-.16.631.631,0,0,0-.2.28C1051.685,1563.216,1052.218,1563.737,1053.252,1563.911Z" transform="translate(-1051.825 -1559.52)" fill="url(#linear-gradient-45)"/>
      </g>
      <g id="Grupo_10164" data-name="Grupo 10164" transform="translate(33.338 21.008)">
        <path id="Trazado_2044" data-name="Trazado 2044" d="M1065.391,1704.183q-.367.833-.833,1.717c-.143.268-.287.531-.43.785l-1.774.245c-.355-.806-.71-1.618-1.066-2.427.415-.015.851-.036,1.3-.066.245.006.5,0,.767-.015a11.471,11.471,0,0,0,1.32-.158C1064.916,1704.24,1065.155,1704.209,1065.391,1704.183Z" transform="translate(-1061.289 -1704.183)" fill="url(#linear-gradient-46)"/>
        <path id="Trazado_2045" data-name="Trazado 2045" d="M1066.527,1732.274s2.034,19.9,8.3,23.013c-.151.64.076,5.822.076,5.822s-5.822-1.671-6.151-1.552-7.166-10.887-3.976-26.874Z" transform="translate(-1063.707 -1729.937)" fill="url(#linear-gradient-47)"/>
      </g>
    </g>
    <g id="Grupo_10168" data-name="Grupo 10168" transform="translate(131.734 33.074)">
      <path id="Trazado_2046" data-name="Trazado 2046" d="M2070.39,943.815a9.548,9.548,0,0,1-5.2-1.344,100.446,100.446,0,0,1-18.054-13.683c-8-7.8-12.6-15.725-13.6-23.509l-.016-.122-.2-33.213c0-6.564,4.281-11.892,12.32-15.393,6.641-2.893,15.443-4.326,24.742-4.057,9.19.266,17.7,2.162,23.99,5.322,7.482,3.756,11.408,9.035,11.408,15.293l-.178,31.736-.014.117c-.919,7.454-5.148,15.158-12.623,22.95a104.23,104.23,0,0,1-17.421,14.27A9.891,9.891,0,0,1,2070.39,943.815Z" transform="translate(-2033.329 -852.463)" fill="url(#linear-gradient-48)"/>
      <path id="Trazado_2047" data-name="Trazado 2047" d="M2097.7,943.815a9.325,9.325,0,0,1-5.127-1.344,99.251,99.251,0,0,1-17.815-13.683c-7.893-7.8-12.429-15.725-13.421-23.509l-.016-.122-.193-33.213c0-6.564,4.225-11.892,12.157-15.393,6.553-2.893,15.239-4.326,24.415-4.057,9.069.266,17.461,2.162,23.672,5.322,7.384,3.756,11.258,9.035,11.258,15.293l-.176,31.736-.014.117c-.907,7.454-5.08,15.158-12.455,22.95a103.131,103.131,0,0,1-17.192,14.27A9.669,9.669,0,0,1,2097.7,943.815Z" transform="translate(-2058.818 -852.463)" fill="url(#linear-gradient-49)"/>
      <path id="Trazado_2048" data-name="Trazado 2048" d="M2090.455,894.445l.194,33.045c2.175,16.861,21.99,30.512,30.62,35.7a7.62,7.62,0,0,0,8.088-.218c8.45-5.56,27.179-19.558,29.181-35.769l.177-31.648C2158.716,872.073,2090.455,869.927,2090.455,894.445Z" transform="translate(-2085.701 -874.939)" fill="url(#linear-gradient-50)"/>
      <g id="Grupo_10166" data-name="Grupo 10166" transform="translate(4.507 2.042)" opacity="0.3" style="mix-blend-mode: soft-light;isolation: isolate">
        <path id="Trazado_2049" data-name="Trazado 2049" d="M2122.567,937.222c1.344-14.826,9.119-21.068,8.59-34.357-.386-9.667-4.978-18.32-11.51-25.868-16.384.054-32.161,5.677-32.161,17.464l.194,33.045c2.175,16.861,21.99,30.512,30.621,35.7a7.618,7.618,0,0,0,8.088-.218c.191-.126.39-.258.591-.392C2122.76,952.644,2121.937,944.182,2122.567,937.222Z" transform="translate(-2087.486 -876.997)" fill="#fff"/>
      </g>
      <path id="Trazado_2050" data-name="Trazado 2050" d="M2194.441,1026.073a1.178,1.178,0,0,1-.639-.169,93.8,93.8,0,0,1-16.434-12.545c-6.473-6.358-10.206-12.54-11.062-18.346l-.19-32.5c.008-3.118,2.476-5.787,7.315-7.922,5.4-2.384,13.072-3.635,21.011-3.446,7.86.187,15.306,1.769,20.466,4.329,4.563,2.265,6.871,4.934,6.878,7.944l-.177,31.373c-.8,5.618-4.3,11.675-10.455,18.042a97.436,97.436,0,0,1-16.073,13.039A1.219,1.219,0,0,1,2194.441,1026.073Z" transform="translate(-2155.066 -942.917)" fill="url(#linear-gradient-51)"/>
      <path id="Trazado_2051" data-name="Trazado 2051" d="M2208.594,1046.455a91.141,91.141,0,0,1-15.537-11.957c-6.083-5.986-9.6-11.731-10.431-17.047l-.188-32.31c.006-2.23,2.055-4.275,6.076-6.055,5.116-2.266,12.448-3.459,20.08-3.288,7.56.17,14.685,1.663,19.582,4.086,3.8,1.882,5.729,3.936,5.734,6.11l-.177,31.258c-.776,5.157-4.1,10.8-9.9,16.8A94.655,94.655,0,0,1,2208.594,1046.455Z" transform="translate(-2170.03 -965.52)" fill="url(#linear-gradient-52)"/>
      <path id="Trazado_2052" data-name="Trazado 2052" d="M2292.34,1201.577a3.783,3.783,0,0,1-3.495-1.757l-12.41-19.928a4.252,4.252,0,0,1,1.4-5.713,3.95,3.95,0,0,1,5.6,1.05l8.606,13.833,11.356-23.129a4.252,4.252,0,0,1,5.468-2.128,3.92,3.92,0,0,1,1.777,5.385l-14.676,29.913a4.426,4.426,0,0,1-3.489,2.461Z" transform="translate(-2255.669 -1137.587)" fill="#fff" opacity="0.8"/>
      <g id="Grupo_10167" data-name="Grupo 10167" transform="translate(12.408 10.262)" opacity="0.3" style="mix-blend-mode: soft-light;isolation: isolate">
        <path id="Trazado_2053" data-name="Trazado 2053" d="M2209.619,1027.787c1.344-14.826,9.119-21.068,8.589-34.357a37.241,37.241,0,0,0-5.377-17.395c-1.388-.124-2.8-.2-4.236-.237-7.633-.172-14.964,1.022-20.081,3.288-4.021,1.78-6.07,3.825-6.076,6.055l.188,32.31c.828,5.316,4.348,11.06,10.431,17.047a91.122,91.122,0,0,0,15.538,11.957c.738-.488,1.6-1.07,2.532-1.729A48.765,48.765,0,0,1,2209.619,1027.787Z" transform="translate(-2182.439 -975.783)" fill="#fff"/>
      </g>
    </g>
  </g>
  <rect id="Rectángulo_2699" data-name="Rectángulo 2699" width="285" height="285" transform="translate(0 0)" fill="none"/>
</svg>
