<svg xmlns="http://www.w3.org/2000/svg" xmlns:xlink="http://www.w3.org/1999/xlink" width="744" height="277.133" viewBox="0 0 744 277.133">
  <defs>
    <clipPath id="clip-path">
      <rect id="Rectángulo_2714" data-name="Rectángulo 2714" width="596.254" height="258.137" transform="translate(351.647 215.052)" fill="none"/>
    </clipPath>
  </defs>
  <g id="Grupo_10234" data-name="Grupo 10234" transform="translate(-328 -6561.868)">
    <g id="Grupo_10233" data-name="Grupo 10233" transform="translate(45.099 6346.815)" clip-path="url(#clip-path)">
      <g id="Grupo_10232" data-name="Grupo 10232">
        <g id="Grupo_10220" data-name="Grupo 10220">
          <g id="Grupo_10214" data-name="Grupo 10214">
            <path id="Trazado_2175" data-name="Trazado 2175" d="M409.129,405.4l2.015,3.29q-.807-1.592-1.6-3.276Z" fill="none"/>
            <path id="Trazado_2176" data-name="Trazado 2176" d="M369.508,432.515c4.125,10.087,10.22,19.048,13.837,22.926l34.1-.23-14.766-22.7Z" fill="#dcd0fe"/>
            <path id="Trazado_2177" data-name="Trazado 2177" d="M386.613,407.822l-20.522-1.361c-2.2,7.76-.178,17.179,3.315,25.8h33.11Z" fill="#dcd0fe"/>
            <path id="Trazado_2178" data-name="Trazado 2178" d="M456.862,454.946l14.9-.1s-1.17-7.409-3.715-17.935L454.9,450.558Z" fill="#dcd0fe"/>
            <path id="Trazado_2179" data-name="Trazado 2179" d="M417.036,366.652c-9.952,1.479-13.672,7.2-14,14.493l21.179,1.532Z" fill="#dcd0fe"/>
            <path id="Trazado_2180" data-name="Trazado 2180" d="M439.542,455.062l17.047-.115-7.754-17.309H428.872Z" fill="#dcd0fe"/>
            <path id="Trazado_2181" data-name="Trazado 2181" d="M454.787,450.312l13.193-13.689a229.045,229.045,0,0,0-11.034-34.357l-15.032,19.309Z" fill="#dcd0fe"/>
            <path id="Trazado_2182" data-name="Trazado 2182" d="M421.4,425.909l-10.876,18.2,7.223,11.1,21.508-.145Z" fill="#dcd0fe"/>
            <path id="Trazado_2183" data-name="Trazado 2183" d="M441.8,421.317,456.835,402c-3.929-9.226-8.7-17.936-14.406-24.443L430.637,396.4Z" fill="#dcd0fe"/>
            <path id="Trazado_2184" data-name="Trazado 2184" d="M424.33,382.936l-21.3-1.541c-.251,7.3,2.814,16.1,6.394,23.764l25.239.84Z" fill="#dcd0fe"/>
            <path id="Trazado_2185" data-name="Trazado 2185" d="M442.255,377.367c-6.33-7.148-13.8-11.583-22.51-11.013-.859.056-1.672.145-2.454.254l13.223,29.518Z" fill="#dcd0fe"/>
            <path id="Trazado_2186" data-name="Trazado 2186" d="M410.368,443.875l10.88-18.206-10.932-17.853a54.884,54.884,0,0,0-10.205-10.55l-5.983,21.647Z" fill="#dcd0fe"/>
            <path id="Trazado_2187" data-name="Trazado 2187" d="M411.144,408.69l17.575,28.7h20.005l-13.948-31.136-25.233-.839Q410.334,407.1,411.144,408.69Z" fill="#dcd0fe"/>
            <path id="Trazado_2188" data-name="Trazado 2188" d="M399.9,397.1c-6.4-4.788-14-7.241-22.262-3.537l16.311,25.068Z" fill="#dcd0fe"/>
            <path id="Trazado_2189" data-name="Trazado 2189" d="M377.4,393.671c-.417.192-.835.4-1.255.619a19.439,19.439,0,0,0-9.989,11.925l20.281,1.346Z" fill="#dcd0fe"/>
            <path id="Trazado_2190" data-name="Trazado 2190" d="M410.52,444.108l-.04.067-.214-.128.1-.172-16.24-24.962-.015.055-.241-.067.074-.268-16.311-25.068-.23.106,9.037,13.89.25.016-.017.249-.062,0,15.9,24.443h.231v.25h-.068l14.766,22.7.3,0Z" fill="#6242ba"/>
            <path id="Trazado_2191" data-name="Trazado 2191" d="M454.838,450.619l-.179-.174.128-.133-12.873-28.737-.046.059-.2-.153.128-.164L430.637,396.4l-.036.057-.212-.133.125-.2-13.223-29.518c-.088.012-.168.031-.255.044l7.179,16.025.208.015-.017.249-.076-.005L434.662,406l.2.007-.009.25-.078,0,13.948,31.136h.193v.25h-.081l7.753,17.308h.273l-1.965-4.388Z" fill="#6242ba"/>
            <path id="Trazado_2192" data-name="Trazado 2192" d="M421.287,425.6l.215.128-.106.177,17.854,29.155.292,0-10.67-17.423h-.223v-.25h.07l-17.575-28.7c.133.263.266.529.4.787-.4-.551-.807-1.106-1.227-1.661l10.932,17.853Z" fill="#6242ba"/>
            <path id="Trazado_2193" data-name="Trazado 2193" d="M386.442,407.561l-20.281-1.346c-.025.082-.046.164-.07.246l20.522,1.361Z" fill="#6242ba"/>
            <path id="Trazado_2194" data-name="Trazado 2194" d="M386.675,407.826l.017-.249-.249-.017.17.262Z" fill="#6242ba"/>
            <path id="Trazado_2195" data-name="Trazado 2195" d="M394.128,418.913l5.983-21.647c-.072-.054-.142-.111-.214-.164l-5.951,21.531Z" fill="#6242ba"/>
            <path id="Trazado_2196" data-name="Trazado 2196" d="M393.872,418.9l.241.066.015-.054-.182-.28Z" fill="#6242ba"/>
            <path id="Trazado_2197" data-name="Trazado 2197" d="M402.516,432.265h-33.11c.033.084.068.167.1.25h33.171Z" fill="#6242ba"/>
            <path id="Trazado_2198" data-name="Trazado 2198" d="M402.747,432.515v-.25h-.231l.163.25Z" fill="#6242ba"/>
            <path id="Trazado_2199" data-name="Trazado 2199" d="M421.249,425.669l-10.88,18.206.152.233,10.876-18.2Z" fill="#6242ba"/>
            <path id="Trazado_2200" data-name="Trazado 2200" d="M410.266,444.047l.215.128.04-.067-.152-.233Z" fill="#6242ba"/>
            <path id="Trazado_2201" data-name="Trazado 2201" d="M421.5,425.732l-.215-.128-.039.065.147.241Z" fill="#6242ba"/>
            <path id="Trazado_2202" data-name="Trazado 2202" d="M424.215,382.677l-21.179-1.532c0,.082,0,.167-.007.25l21.3,1.541Z" fill="#6242ba"/>
            <path id="Trazado_2203" data-name="Trazado 2203" d="M424.406,382.941l.018-.249-.209-.015.116.259Z" fill="#6242ba"/>
            <path id="Trazado_2204" data-name="Trazado 2204" d="M430.637,396.4l11.792-18.842c-.057-.065-.117-.127-.174-.192l-11.741,18.759Z" fill="#6242ba"/>
            <path id="Trazado_2205" data-name="Trazado 2205" d="M430.389,396.325l.212.133.036-.057-.123-.275Z" fill="#6242ba"/>
            <path id="Trazado_2206" data-name="Trazado 2206" d="M434.776,406.253l-.114-.254-25.239-.84.12.255Z" fill="#6242ba"/>
            <path id="Trazado_2207" data-name="Trazado 2207" d="M434.854,406.256l.009-.25-.2-.007.114.254Z" fill="#6242ba"/>
            <path id="Trazado_2208" data-name="Trazado 2208" d="M441.914,421.575l15.032-19.309-.111-.264L441.8,421.317Z" fill="#6242ba"/>
            <path id="Trazado_2209" data-name="Trazado 2209" d="M441.67,421.481l.2.153.046-.059-.116-.258Z" fill="#6242ba"/>
            <path id="Trazado_2210" data-name="Trazado 2210" d="M428.872,437.639h19.964l-.112-.25h-20Z" fill="#6242ba"/>
            <path id="Trazado_2211" data-name="Trazado 2211" d="M448.917,437.639v-.25h-.193l.112.25Z" fill="#6242ba"/>
            <path id="Trazado_2212" data-name="Trazado 2212" d="M428.649,437.389v.25h.223l-.153-.25Z" fill="#6242ba"/>
          </g>
          <path id="Trazado_2213" data-name="Trazado 2213" d="M824.054,384.733l.055-3.315-1.078,3.315Z" fill="#6242ba"/>
          <g id="Grupo_10215" data-name="Grupo 10215">
            <path id="Trazado_2214" data-name="Trazado 2214" d="M450.046,467.9l-.032-.669-.145.006Z" fill="none"/>
            <path id="Trazado_2215" data-name="Trazado 2215" d="M447.1,401.425l3.169,65.8,1.832-.079S456.984,402.474,447.1,401.425Z" fill="#6242ba"/>
            <path id="Trazado_2216" data-name="Trazado 2216" d="M450.014,467.235l-3.17-65.824c-.033,0-.064-.007-.1-.006-4.836.21-4.531,14.6-2.833,29.868-3.275-17.763-7.812-35.3-12.853-34.361l18.808,70.329Z" fill="#6242ba"/>
            <path id="Trazado_2217" data-name="Trazado 2217" d="M446.469,466.9l.047-.025.24.641,1.922-.429L414.6,409.311C407.576,415.992,446.469,466.9,446.469,466.9Z" fill="#6242ba"/>
            <path id="Trazado_2218" data-name="Trazado 2218" d="M449.2,466.976l.4.277h.016l-18.792-70.274c-5.306,1.644.034,22.791,5.924,41.513-7.561-15.82-16.8-32.174-21.667-29.539a2.235,2.235,0,0,0-.288.2l34.144,57.888Z" fill="#6242ba"/>
            <path id="Trazado_2219" data-name="Trazado 2219" d="M414.6,409.311a2.345,2.345,0,0,1,.193-.164l-.94-1.594" fill="#bba4ff"/>
            <path id="Trazado_2220" data-name="Trazado 2220" d="M414.79,409.147a2.345,2.345,0,0,0-.193.164l34.081,57.781.256-.057Z" fill="#bba4ff"/>
            <path id="Trazado_2221" data-name="Trazado 2221" d="M449.869,467.241l-18.808-70.329c-.026.005-.052,0-.078.009-.058.012-.107.04-.162.057l18.792,70.274Z" fill="#bba4ff"/>
            <path id="Trazado_2222" data-name="Trazado 2222" d="M446.844,401.411l3.17,65.824.25-.011-3.169-65.8A2.317,2.317,0,0,0,446.844,401.411Z" fill="#bba4ff"/>
          </g>
          <g id="Grupo_10216" data-name="Grupo 10216">
            <path id="Trazado_2223" data-name="Trazado 2223" d="M438.119,355.806C421.424,359.624,462.408,462,462.408,462l.085-.02c.063.725.1,1.128.1,1.128l2.971.154L438.712,355.736A3.776,3.776,0,0,0,438.119,355.806Z" fill="#bba4ff"/>
            <path id="Trazado_2224" data-name="Trazado 2224" d="M466.721,463.318l.513.618.552.128.965-120.361c-9.422-.418-10.316,36.015-9.228,68.742-4.866-27.636-12.021-56.766-20.56-56.736l26.861,107.562Z" fill="#bba4ff"/>
            <path id="Trazado_2225" data-name="Trazado 2225" d="M468.912,464.326l23.156-106.434c-.061-.018-.116-.047-.179-.061-7.793-1.811-13.686,21.232-17.753,46.3,2.65-29.62,3.205-59.426-5.136-60.392l-.964,120.384Z" fill="#bba4ff"/>
            <path id="Trazado_2226" data-name="Trazado 2226" d="M492.306,357.973,469.155,464.382l2.106.49S507.91,363.525,492.306,357.973Z" fill="#bba4ff"/>
            <path id="Trazado_2227" data-name="Trazado 2227" d="M468.036,464.122,469,343.738c-.075-.009-.146-.033-.223-.037a.226.226,0,0,1-.026,0l-.965,120.361Z" fill="#6242ba"/>
            <path id="Trazado_2228" data-name="Trazado 2228" d="M438.963,355.709c-.083,0-.167.021-.251.027l26.851,107.522.261.013Z" fill="#6242ba"/>
            <path id="Trazado_2229" data-name="Trazado 2229" d="M492.068,357.892,468.912,464.326l.243.056,23.151-106.409C492.227,357.945,492.149,357.915,492.068,357.892Z" fill="#6242ba"/>
          </g>
          <path id="Trazado_2230" data-name="Trazado 2230" d="M824.109,381.417l-.055,3.315h.25l.068-4.126Z" fill="#bba4ff"/>
          <g id="Grupo_10217" data-name="Grupo 10217" transform="translate(0 12)">
            <path id="Trazado_2231" data-name="Trazado 2231" d="M850.693,367.737l-26.32,80.951-.069,4.126h1.75l.126-.9.068.019S862.462,373.458,850.693,367.737Z" fill="#6242ba"/>
            <path id="Trazado_2232" data-name="Trazado 2232" d="M819.009,453.875l2.679-.478-15.957-86.015C794.831,374.432,819.009,453.875,819.009,453.875Z" fill="#6242ba"/>
            <path id="Trazado_2233" data-name="Trazado 2233" d="M822.286,453.29l.439-.476h.043l1.355-4.169,1.527-92.072c-6.557.9-7.324,24.648-6.432,48.333-2.23-20.329-6.012-39.105-12.355-37.973a3.039,3.039,0,0,0-.9.327l15.971,86.093Z" fill="#6242ba"/>
            <path id="Trazado_2234" data-name="Trazado 2234" d="M850.46,367.644c-.09-.035-.174-.079-.269-.107-7.083-2.009-14.339,21.918-19.565,44.662,2.236-26.3,3.029-55.671-4.589-55.669-.047,0-.09.013-.137.015l-1.513,91.289Z" fill="#6242ba"/>
            <path id="Trazado_2235" data-name="Trazado 2235" d="M805.731,367.382c.074-.048.155-.081.232-.122" fill="#bba4ff"/>
            <path id="Trazado_2236" data-name="Trazado 2236" d="M805.963,367.26c-.077.041-.158.074-.232.122L821.688,453.4l.246-.044Z" fill="#bba4ff"/>
            <path id="Trazado_2237" data-name="Trazado 2237" d="M824.387,447.834l1.513-91.289c-.085,0-.167.016-.25.028l-1.527,92.072Z" fill="#bba4ff"/>
            <path id="Trazado_2238" data-name="Trazado 2238" d="M824.373,448.688l26.32-80.951c-.074-.036-.155-.062-.233-.093l-26.073,80.19Z" fill="#bba4ff"/>
          </g>
          <g id="Grupo_10218" data-name="Grupo 10218" transform="translate(0 12)">
            <path id="Trazado_2239" data-name="Trazado 2239" d="M887.6,401.407a86.22,86.22,0,0,1-5.36,7.2c1.061-1.272,2.1-2.482,3.13-3.652l2.623-3.627Z" fill="none"/>
            <path id="Trazado_2240" data-name="Trazado 2240" d="M890.6,398.156l-3.59,4.963c1.364-1.509,2.7-2.936,4-4.267Z" fill="none"/>
            <path id="Trazado_2241" data-name="Trazado 2241" d="M863.356,435.818l11.7,16.158,14.618-18.356-12.089-17.473Z" fill="#dcd0fe"/>
            <path id="Trazado_2242" data-name="Trazado 2242" d="M887.6,401.407l-22.529,4.285-8.595,21.136,13.939-1.193,14.955-20.676c-1.027,1.17-2.069,2.38-3.13,3.652A86.22,86.22,0,0,0,887.6,401.407Z" fill="#dcd0fe"/>
            <path id="Trazado_2243" data-name="Trazado 2243" d="M916.554,399.865l-8.925-14.624a81.372,81.372,0,0,0-16.44,13.428l11.184,19Z" fill="#dcd0fe"/>
            <path id="Trazado_2244" data-name="Trazado 2244" d="M887.007,403.119l-9.268,12.813,12.1,17.483,12.37-15.533-11.2-19.03C889.706,400.183,888.371,401.61,887.007,403.119Z" fill="#dcd0fe"/>
            <path id="Trazado_2245" data-name="Trazado 2245" d="M936.386,395.311a18.628,18.628,0,0,0-6.628-11.625L922.1,393.3Z" fill="#dcd0fe"/>
            <path id="Trazado_2246" data-name="Trazado 2246" d="M909.386,409.266l23.538,4.473c2.584-6.041,3.74-11.365,3.74-15.3a18.4,18.4,0,0,0-.237-2.866l-14.509-2.04Z" fill="#dcd0fe"/>
            <path id="Trazado_2247" data-name="Trazado 2247" d="M929.555,383.539c-4.669-3.4-11.776-4.165-21.71,1.577l8.875,14.541Z" fill="#dcd0fe"/>
            <path id="Trazado_2248" data-name="Trazado 2248" d="M888.862,346.511c-4.188-1.19-9.572-.644-16.155,2.191a26.549,26.549,0,0,0-7.733,5.26l14.37,15.956Z" fill="#dcd0fe"/>
            <path id="Trazado_2249" data-name="Trazado 2249" d="M882.427,443.119l23.853,4.09a100.919,100.919,0,0,0,15.388-15.169l-26.489-4.934Z" fill="#dcd0fe"/>
            <path id="Trazado_2250" data-name="Trazado 2250" d="M860.158,417.1l-16.411-16.66c-2.478,10.462-4.229,21.021-5.453,30.209l12.7,8.976Z" fill="#dcd0fe"/>
            <path id="Trazado_2251" data-name="Trazado 2251" d="M838.257,430.931c-2.085,15.737-2.622,27.368-2.622,27.368h7.77l7.5-18.434Z" fill="#dcd0fe"/>
            <path id="Trazado_2252" data-name="Trazado 2252" d="M856.367,427.088,843.676,458.3h3.11l23.432-32.4Z" fill="#dcd0fe"/>
            <path id="Trazado_2253" data-name="Trazado 2253" d="M898.556,356.68c-1.622-5.048-4.772-8.676-9.453-10.1l-4.746,11.673Z" fill="#dcd0fe"/>
            <path id="Trazado_2254" data-name="Trazado 2254" d="M879.24,370.175l-14.446-16.04c-5.066,4.885-9.271,11.934-12.755,20.108l17.655,19.406Z" fill="#dcd0fe"/>
            <path id="Trazado_2255" data-name="Trazado 2255" d="M869.59,393.906,851.932,374.5a164.72,164.72,0,0,0-8.117,25.657l16.445,16.7Z" fill="#dcd0fe"/>
            <path id="Trazado_2256" data-name="Trazado 2256" d="M865.18,405.417l22.613-4.3a76.128,76.128,0,0,0,10.521-23.495l-23.348,3.728Z" fill="#dcd0fe"/>
            <path id="Trazado_2257" data-name="Trazado 2257" d="M863.2,436.031,847.095,458.3H870.02l4.874-6.12Z" fill="#dcd0fe"/>
            <path id="Trazado_2258" data-name="Trazado 2258" d="M870.339,458.3h19.349a119.551,119.551,0,0,0,16.328-10.881l-23.766-4.076Z" fill="#dcd0fe"/>
            <path id="Trazado_2259" data-name="Trazado 2259" d="M875.077,381.078l23.3-3.72c1.87-7.791,1.959-14.934.26-20.436l-14.386,1.6Z" fill="#dcd0fe"/>
            <path id="Trazado_2260" data-name="Trazado 2260" d="M909.211,409.487l-13.855,17.4,26.488,4.933a78.346,78.346,0,0,0,10.982-17.844Z" fill="#dcd0fe"/>
            <path id="Trazado_2261" data-name="Trazado 2261" d="M856.291,427.094l-.022-.249.2-.017,8.595-21.136L865,405.7l-.047-.245.226-.043,9.786-24.068-.07.011-.039-.247.22-.035,9.173-22.559-.074.008-.028-.248.209-.023,4.746-11.673c-.08-.024-.16-.049-.241-.072l-9.518,23.407.133.148-.185.167-.052-.058-9.546,23.474.134.146-.185.168-.053-.057-9.33,22.944.133.135-.177.176-.058-.059L851,439.627l.129.091-.145.2-.081-.057-7.5,18.434h.271l12.691-31.211Z" fill="#6242ba"/>
            <path id="Trazado_2262" data-name="Trazado 2262" d="M882.177,443.33l.043-.246.207.035,12.752-16.013-.073-.013.045-.246.205.038,13.855-17.4-.074-.014.047-.245.2.038,12.532-15.736-.07-.01.035-.247.216.03,7.659-9.617c-.066-.05-.135-.1-.2-.147L916.72,399.657l.092.153-.212.13-.046-.075-14.181,17.808.092.156-.215.127-.044-.074-12.37,15.533.1.139-.206.142-.053-.076-14.617,18.355.1.133-.2.147-.055-.077L870.02,458.3h.319l11.911-14.957Z" fill="#6242ba"/>
            <path id="Trazado_2263" data-name="Trazado 2263" d="M863.1,435.891l.2-.147.053.074,14.228-19.671-.1-.146.205-.143.051.074,9.268-12.813q-.813.9-1.64,1.84l-14.955,20.676.057-.005.021.249-.272.024-23.432,32.4h.309L863.2,436.031Z" fill="#6242ba"/>
            <path id="Trazado_2264" data-name="Trazado 2264" d="M863.2,436.031l11.693,16.147.162-.2-11.7-16.158Z" fill="#6242ba"/>
            <path id="Trazado_2265" data-name="Trazado 2265" d="M874.949,452.255l.2-.147-.1-.133-.162.2Z" fill="#6242ba"/>
            <path id="Trazado_2266" data-name="Trazado 2266" d="M863.3,435.744l-.2.147.1.14.154-.214Z" fill="#6242ba"/>
            <path id="Trazado_2267" data-name="Trazado 2267" d="M877.584,416.147l12.089,17.473.162-.2-12.1-17.483Z" fill="#6242ba"/>
            <path id="Trazado_2268" data-name="Trazado 2268" d="M889.727,433.7l.205-.143-.1-.138-.162.2Z" fill="#6242ba"/>
            <path id="Trazado_2269" data-name="Trazado 2269" d="M877.688,415.858l-.205.143.1.146.155-.215Z" fill="#6242ba"/>
            <path id="Trazado_2270" data-name="Trazado 2270" d="M902.206,417.882l.167-.209-11.184-19c-.061.063-.121.121-.182.183Z" fill="#6242ba"/>
            <path id="Trazado_2271" data-name="Trazado 2271" d="M902.25,417.956l.215-.127-.092-.156-.167.209Z" fill="#6242ba"/>
            <path id="Trazado_2272" data-name="Trazado 2272" d="M916.72,399.657l-8.875-14.541-.216.125,8.925,14.624Z" fill="#6242ba"/>
            <path id="Trazado_2273" data-name="Trazado 2273" d="M916.6,399.94l.213-.13-.093-.152-.165.208Z" fill="#6242ba"/>
            <path id="Trazado_2274" data-name="Trazado 2274" d="M921.918,393.53l14.509,2.04c-.014-.086-.026-.172-.041-.259L922.1,393.3Z" fill="#6242ba"/>
            <path id="Trazado_2275" data-name="Trazado 2275" d="M921.883,393.272l-.035.248.071.01.181-.227Z" fill="#6242ba"/>
            <path id="Trazado_2276" data-name="Trazado 2276" d="M909.211,409.487l23.615,4.487c.034-.079.064-.156.1-.235l-23.538-4.473Z" fill="#6242ba"/>
            <path id="Trazado_2277" data-name="Trazado 2277" d="M909.184,409.228l-.047.245.074.014.176-.221Z" fill="#6242ba"/>
            <path id="Trazado_2278" data-name="Trazado 2278" d="M895.179,427.106l26.489,4.934c.061-.074.116-.148.176-.222l-26.488-4.933Z" fill="#6242ba"/>
            <path id="Trazado_2279" data-name="Trazado 2279" d="M895.106,427.093l.073.014.177-.222-.2-.038Z" fill="#6242ba"/>
            <path id="Trazado_2280" data-name="Trazado 2280" d="M882.25,443.342l23.766,4.076c.087-.07.177-.139.264-.209l-23.853-4.09Z" fill="#6242ba"/>
            <path id="Trazado_2281" data-name="Trazado 2281" d="M882.177,443.33l.073.013.178-.223-.208-.036Z" fill="#6242ba"/>
            <path id="Trazado_2282" data-name="Trazado 2282" d="M856.367,427.088l13.851-1.185.193-.267-13.938,1.193Z" fill="#6242ba"/>
            <path id="Trazado_2283" data-name="Trazado 2283" d="M856.269,426.845l.022.249.076-.007.106-.26Z" fill="#6242ba"/>
            <path id="Trazado_2284" data-name="Trazado 2284" d="M870.49,425.879l-.021-.249-.057,0-.193.267Z" fill="#6242ba"/>
            <path id="Trazado_2285" data-name="Trazado 2285" d="M851,439.627l-12.7-8.976c-.012.093-.025.187-.037.28l12.644,8.934Z" fill="#6242ba"/>
            <path id="Trazado_2286" data-name="Trazado 2286" d="M850.982,439.922l.145-.2-.129-.091-.1.238Z" fill="#6242ba"/>
            <path id="Trazado_2287" data-name="Trazado 2287" d="M860.26,416.85l-16.445-16.7c-.023.1-.046.191-.068.287l16.411,16.66Z" fill="#6242ba"/>
            <path id="Trazado_2288" data-name="Trazado 2288" d="M860.216,417.161l.178-.176-.133-.135-.1.252Z" fill="#6242ba"/>
            <path id="Trazado_2289" data-name="Trazado 2289" d="M887.99,401.332l.213-.294-.41.078c-.064.1-.132.194-.2.291Z" fill="#6242ba"/>
            <path id="Trazado_2290" data-name="Trazado 2290" d="M865.068,405.692l22.529-4.285c.064-.1.132-.194.2-.291l-22.613,4.3Z" fill="#6242ba"/>
            <path id="Trazado_2291" data-name="Trazado 2291" d="M864.954,405.46l.047.245.067-.013.112-.275Z" fill="#6242ba"/>
            <path id="Trazado_2292" data-name="Trazado 2292" d="M869.694,393.649l-17.655-19.406c-.036.084-.071.17-.107.255l17.658,19.408Z" fill="#6242ba"/>
            <path id="Trazado_2293" data-name="Trazado 2293" d="M869.643,393.963l.185-.168-.134-.147-.1.257Z" fill="#6242ba"/>
            <path id="Trazado_2294" data-name="Trazado 2294" d="M874.966,381.349l23.348-3.728c.022-.088.041-.175.062-.263l-23.3,3.72Z" fill="#6242ba"/>
            <path id="Trazado_2295" data-name="Trazado 2295" d="M874.857,381.113l.039.247.07-.011.11-.271Z" fill="#6242ba"/>
            <path id="Trazado_2296" data-name="Trazado 2296" d="M879.344,369.918l-14.37-15.956-.18.173,14.446,16.04Z" fill="#6242ba"/>
            <path id="Trazado_2297" data-name="Trazado 2297" d="M879.292,370.233l.185-.167-.133-.148-.1.257Z" fill="#6242ba"/>
          </g>
          <g id="Grupo_10219" data-name="Grupo 10219" transform="translate(0 12)">
            <path id="Trazado_2298" data-name="Trazado 2298" d="M864.174,406.7a2.03,2.03,0,0,0-.793-.783c-4.375-2.37-12.689,12.341-19.49,26.572,5.228-16.621,9.976-35.368,5.512-37.277l-16.326,60.858Z" fill="#bba4ff"/>
            <path id="Trazado_2299" data-name="Trazado 2299" d="M849.166,395.131c-.031-.009-.059-.026-.092-.033-4.563-1.02-8.67,14.84-11.632,30.9,1.528-13.737,1.8-26.679-2.548-26.867-.023,0-.044,0-.066,0l-2.058,57.121Z" fill="#bba4ff"/>
            <path id="Trazado_2300" data-name="Trazado 2300" d="M831.94,458.346l.266.012.2-.756Z" fill="#bba4ff"/>
            <path id="Trazado_2301" data-name="Trazado 2301" d="M834.577,399.15c-8.89.961-4.5,59.116-4.5,59.116l1.571.068.84-1.333Z" fill="#bba4ff"/>
            <path id="Trazado_2302" data-name="Trazado 2302" d="M832.729,457.372l-.027.745,2.183.488s.078-.206.217-.577l.042.023s32.721-42.835,29.161-51.088l-31.446,49.925Z" fill="#bba4ff"/>
            <path id="Trazado_2303" data-name="Trazado 2303" d="M833.077,456.073,849.4,395.215a2.012,2.012,0,0,0-.237-.084l-16.4,61.126,2.058-57.121a2.08,2.08,0,0,0-.251.014L832.493,457Z" fill="#6242ba"/>
            <path id="Trazado_2304" data-name="Trazado 2304" d="M832.859,456.888l-.45.714-.2.756.124.005.359-.249.012,0,.027-.745Z" fill="#6242ba"/>
            <path id="Trazado_2305" data-name="Trazado 2305" d="M832.481,457.334l.012-.333-.84,1.333.287.012.469-.745Z" fill="#6242ba"/>
            <path id="Trazado_2306" data-name="Trazado 2306" d="M833.077,456.073l-.218.815L864.3,406.963a2.344,2.344,0,0,0-.131-.26Z" fill="#6242ba"/>
            <path id="Trazado_2307" data-name="Trazado 2307" d="M832.481,457.334l-.072.267.45-.714.219-.815-.585.928Z" fill="#6242ba"/>
          </g>
          <path id="Trazado_2308" data-name="Trazado 2308" d="M454.838,450.619l.059-.061-.11-.246-.128.133Z" fill="#6242ba"/>
          <path id="Trazado_2309" data-name="Trazado 2309" d="M838.257,430.931c.012-.093.025-.187.037-.28" fill="#6242ba"/>
          <path id="Trazado_2310" data-name="Trazado 2310" d="M864.794,354.135l.18-.173" fill="#6242ba"/>
          <path id="Trazado_2311" data-name="Trazado 2311" d="M884.25,358.519l14.386-1.6c-.025-.082-.054-.161-.08-.242l-14.2,1.576Z" fill="#6242ba"/>
          <path id="Trazado_2312" data-name="Trazado 2312" d="M884.148,358.279l.027.248.074-.008.107-.263Z" fill="#6242ba"/>
        </g>
        <path id="Trazado_2313" data-name="Trazado 2313" d="M818.366,280.17s-3.012-4.792-2.428-5.626c.51-.663,2.142,2.441,2.142,2.441s-.531-3.263-.988-4.844,1.5-2.082,3.122.655.946,7.374.946,7.374Z" fill="#f3a9b8"/>
        <g id="Grupo_10231" data-name="Grupo 10231">
          <path id="Trazado_2314" data-name="Trazado 2314" d="M687.008,329.414s-3.621-1.146-4.075,4.285c0,3.109,1,3.026,1,3.026l3.877-3.026Z" fill="#f3a9b8"/>
          <g id="Grupo_10221" data-name="Grupo 10221">
            <path id="Trazado_2315" data-name="Trazado 2315" d="M585.3,390.718l-7.172,120.691h7.252l18.863-102.43,11.086,102.43h6.8l.386-120.691Z" fill="#ea4272"/>
          </g>
          <path id="Rectángulo_2709" data-name="Rectángulo 2709" d="M5.756,0h0a5.756,5.756,0,0,1,5.756,5.756v9.594a0,0,0,0,1,0,0H0a0,0,0,0,1,0,0V5.756A5.756,5.756,0,0,1,5.756,0Z" transform="translate(609.939 338.913) rotate(-180)" fill="#e87d91"/>
          <g id="Grupo_10222" data-name="Grupo 10222">
            <path id="Trazado_2316" data-name="Trazado 2316" d="M594.961,312.573a2.691,2.691,0,0,0-3.049,2.871c0,3.2,3.927,3.518,3.927,3.518Z" fill="#f3a9b8"/>
            <path id="Trazado_2317" data-name="Trazado 2317" d="M613.405,312.573a2.691,2.691,0,0,1,3.048,2.871c0,3.2-3.927,3.518-3.927,3.518Z" fill="#f3a9b8"/>
          </g>
          <rect id="Rectángulo_2710" data-name="Rectángulo 2710" width="18.747" height="26.142" rx="9.374" transform="translate(613.556 327.773) rotate(-180)" fill="#f3a9b8"/>
          <path id="Trazado_2318" data-name="Trazado 2318" d="M536.728,395.421l-6.181,115.988h9.738l17.528-92.416,11.255,92.416h9.747l.634-115.988Z" fill="#4f2caf"/>
          <path id="Trazado_2319" data-name="Trazado 2319" d="M578.065,350.682c0-26.227-13.1-22.4-26.209-22.4s-12.567,22.4-12.567,22.4l-3.818,49.309c15.057,5.106,29.955,5.22,44.683,0Z" fill="#dfd2fd"/>
          <g id="Grupo_10223" data-name="Grupo 10223">
            <line id="Línea_2" data-name="Línea 2" x1="0.844" y1="6.141" transform="translate(549.488 309.881)" fill="#f3a9b8"/>
          </g>
          <path id="Trazado_2320" data-name="Trazado 2320" d="M558.351,332.8h0c-3.055,0-5.532-.08-5.532-3.135v-9.22h11.064v9.22C563.883,332.718,561.406,332.8,558.351,332.8Z" fill="#e87d91"/>
          <rect id="Rectángulo_2711" data-name="Rectángulo 2711" width="18.017" height="25.124" rx="9.009" transform="translate(567.36 324.49) rotate(180)" fill="#f3a9b8"/>
          <path id="Trazado_2321" data-name="Trazado 2321" d="M810.762,350.682c0-26.227-13.1-22.4-26.209-22.4s-12.567,22.4-12.567,22.4l-2.561,44.739a55.538,55.538,0,0,0,42.721,0Z" fill="#bba4ff"/>
          <path id="Trazado_2322" data-name="Trazado 2322" d="M769.425,395.421l-6.181,115.988h9.738L791.11,412.97l10.655,98.439h9.747l.634-115.988A61.556,61.556,0,0,1,769.425,395.421Z" fill="#ea4272"/>
          <g id="Grupo_10224" data-name="Grupo 10224">
            <path id="Trazado_2323" data-name="Trazado 2323" d="M782.185,309.881a2.586,2.586,0,0,0-2.929,2.76c0,3.07,3.774,3.381,3.774,3.381Z" fill="#f3a9b8"/>
            <path id="Trazado_2324" data-name="Trazado 2324" d="M799.911,309.881a2.586,2.586,0,0,1,2.929,2.76c0,3.07-3.773,3.381-3.773,3.381Z" fill="#f3a9b8"/>
          </g>
          <path id="Trazado_2325" data-name="Trazado 2325" d="M791.048,333.128h0c-3.055,0-5.532-.41-5.532-3.465v-9.22H796.58v9.22C796.58,332.718,794.1,333.128,791.048,333.128Z" fill="#e87d91"/>
          <path id="Rectángulo_2712" data-name="Rectángulo 2712" d="M9.008,0h0a9.009,9.009,0,0,1,9.009,9.009v7.107a9.009,9.009,0,0,1-9.009,9.009h0A9.008,9.008,0,0,1,0,16.115V9.008A9.008,9.008,0,0,1,9.008,0Z" transform="translate(800.057 324.49) rotate(180)" fill="#f3a9b8"/>
          <path id="Trazado_2326" data-name="Trazado 2326" d="M695.338,331.238s-12.971-.849-15.282,13.656c-2.784,17.478,7.284,19.474-2.784,45.824h37.211s-8.256-9.568-1.673-31.431S705.607,331.238,695.338,331.238Z" fill="#d7c5ff"/>
          <path id="Trazado_2327" data-name="Trazado 2327" d="M696.151,336.846h0c-3.18,0-5.757-.51-5.757-3.69v-9.594h11.513v9.594C701.907,336.336,699.33,336.846,696.151,336.846Z" fill="#e87d91"/>
          <g id="Grupo_10225" data-name="Grupo 10225">
            <line id="Línea_3" data-name="Línea 3" x1="0.878" y1="6.39" transform="translate(686.929 312.573)" fill="#f3a9b8"/>
          </g>
          <path id="Trazado_2328" data-name="Trazado 2328" d="M696.151,327.774h0a9.4,9.4,0,0,1-9.374-9.374v-7.395a9.4,9.4,0,0,1,9.374-9.373h0a9.4,9.4,0,0,1,9.373,9.373V318.4A9.4,9.4,0,0,1,696.151,327.774Z" fill="#f3a9b8"/>
          <g id="Grupo_10226" data-name="Grupo 10226">
            <path id="Trazado_2329" data-name="Trazado 2329" d="M490.415,397.376l-6.776,114.033h6.852l17.823-96.779,10.475,96.779h6.421l.365-114.033Z" fill="#f3a9b8"/>
          </g>
          <path id="Trazado_2330" data-name="Trazado 2330" d="M507.485,341.176s-12.255-.8-14.439,12.9c-2.631,16.514,6.882,18.4-2.631,43.3h35.159s-7.8-9.041-1.581-29.7S517.187,341.176,507.485,341.176Z" fill="#ea4272"/>
          <path id="Trazado_2331" data-name="Trazado 2331" d="M508.253,348.428h0a5.439,5.439,0,0,1-5.439-5.439v-9.065h10.878v9.065A5.439,5.439,0,0,1,508.253,348.428Z" fill="#e87d91"/>
          <g id="Grupo_10227" data-name="Grupo 10227">
            <path id="Trazado_2332" data-name="Trazado 2332" d="M499.54,323.541a2.542,2.542,0,0,0-2.88,2.713c0,3.019,3.71,3.324,3.71,3.324Z" fill="#f3a9b8"/>
            <path id="Trazado_2333" data-name="Trazado 2333" d="M516.966,323.541a2.542,2.542,0,0,1,2.88,2.713c0,3.019-3.71,3.324-3.71,3.324Z" fill="#f3a9b8"/>
          </g>
          <path id="Trazado_2334" data-name="Trazado 2334" d="M508.253,337.9h0a8.883,8.883,0,0,1-8.857-8.856V322.06a8.883,8.883,0,0,1,8.857-8.857h0a8.883,8.883,0,0,1,8.857,8.857v6.987A8.883,8.883,0,0,1,508.253,337.9Z" fill="#f3a9b8"/>
          <g id="Grupo_10228" data-name="Grupo 10228">
            <path id="Trazado_2335" data-name="Trazado 2335" d="M721.876,390.122l-7.392,121.286h7.475L741.4,408.474l11.427,102.935h7l.4-121.286Z" fill="#f3a9b8"/>
          </g>
          <path id="Trazado_2336" data-name="Trazado 2336" d="M740.5,328.814s-13.369-.875-15.751,14.076c-2.87,18.015,7.507,20.072-2.87,47.232H760.23s-8.509-9.862-1.724-32.4S751.081,328.814,740.5,328.814Z" fill="#6242ba"/>
          <path id="Trazado_2337" data-name="Trazado 2337" d="M741.335,336.725h0a5.933,5.933,0,0,1-5.934-5.933V320.9h11.867v9.889A5.933,5.933,0,0,1,741.335,336.725Z" fill="#e87d91"/>
          <g id="Grupo_10229" data-name="Grupo 10229">
            <path id="Trazado_2338" data-name="Trazado 2338" d="M731.829,309.576a2.773,2.773,0,0,0-3.141,2.959c0,3.293,4.047,3.627,4.047,3.627Z" fill="#f3a9b8"/>
            <path id="Trazado_2339" data-name="Trazado 2339" d="M750.84,309.576a2.773,2.773,0,0,1,3.142,2.959c0,3.293-4.047,3.627-4.047,3.627Z" fill="#f3a9b8"/>
          </g>
          <path id="Trazado_2340" data-name="Trazado 2340" d="M741.335,325.244h0a9.691,9.691,0,0,1-9.662-9.662V307.96a9.691,9.691,0,0,1,9.662-9.662h0A9.691,9.691,0,0,1,751,307.96v7.622A9.691,9.691,0,0,1,741.335,325.244Z" fill="#f3a9b8"/>
          <path id="Trazado_2341" data-name="Trazado 2341" d="M670.97,347.513c0-26.744-13.354-22.843-26.726-22.843s-12.814,22.843-12.814,22.843l-2.612,45.621a65.479,65.479,0,0,0,43.563,0Z" fill="#9c89e5"/>
          <path id="Trazado_2342" data-name="Trazado 2342" d="M628.818,393.134l-6.3,118.275h9.93L650.93,411.03l10.865,100.379h9.939l.647-118.275A77.269,77.269,0,0,1,628.818,393.134Z" fill="#dcd0fe"/>
          <path id="Trazado_2343" data-name="Trazado 2343" d="M650.867,329.654h0c-3.115,0-5.641-.459-5.641-3.574v-9.4h11.283v9.4C656.509,329.2,653.983,329.654,650.867,329.654Z" fill="#e87d91"/>
          <path id="Trazado_2344" data-name="Trazado 2344" d="M650.867,320.8h0a9.213,9.213,0,0,1-9.186-9.186v-7.247a9.213,9.213,0,0,1,9.186-9.186h0a9.213,9.213,0,0,1,9.186,9.186v7.247A9.213,9.213,0,0,1,650.867,320.8Z" fill="#f3a9b8"/>
          <path id="Trazado_2345" data-name="Trazado 2345" d="M596.441,332.8s-7.421,2.567-20.6,13.338-23.018,11.947-23.018,11.947l.082,8.239s24.54-3.042,41.679-20.072" fill="#6242ba"/>
          <path id="Trazado_2346" data-name="Trazado 2346" d="M502.476,343.031s-17.408-10.947-20.156-42.554c-2.443,0-2.72.014-2.72.014s-3.77,39.088,13.789,58.174" fill="#ea4272"/>
          <path id="Trazado_2347" data-name="Trazado 2347" d="M513.692,342s7.852,0,23.828,5.864,25.413,2.385,25.413,2.385l1.278,2.4s-22.6,11.939-44.365,1.455" fill="#ea4272"/>
          <path id="Trazado_2348" data-name="Trazado 2348" d="M626.71,421.737a118.536,118.536,0,0,1-45.812,0,127.788,127.788,0,0,1,6.621-41.272,36.254,36.254,0,0,0,1.439-18.654c-.924-4.88-2.05-9.509-.87-16.917,2.311-14.505,15.282-13.656,15.282-13.656,10.269,0,24.054,6.186,17.472,28.049q-.171.566-.327,1.12a37.334,37.334,0,0,0,.813,22.217C627.351,400.363,626.71,421.737,626.71,421.737Z" fill="#6242ba"/>
          <path id="Trazado_2349" data-name="Trazado 2349" d="M611.536,332.8s7.42,2.567,20.6,13.338,22.954,10.228,22.954,10.228v8.347s-24.557-1.431-41.7-18.461" fill="#6242ba"/>
          <path id="Trazado_2350" data-name="Trazado 2350" d="M552.819,328.274s-9.52-.987-27.182,12.609c-17.078,11.142-32.472,3.621-32.472,3.621l-1.042,2.512s7.885,11.511,24.471,9.671a69.137,69.137,0,0,0,28.807-10.3Z" fill="#dfd2fd"/>
          <path id="Trazado_2351" data-name="Trazado 2351" d="M700.971,331.721s7.674,1.661,22.046,10.777,25.54,8.294,25.54,8.294l-.514,3.514s-24.567,5.4-43.62-9.451" fill="#d7c5ff"/>
          <path id="Trazado_2352" data-name="Trazado 2352" d="M563.883,328.126s8.232-2.612,27.972,7.74c18.741,8.034,32.6-1.575,32.6-1.575l2.252,3.306s-6.571,11.235-23.226,12.279a69.134,69.134,0,0,1-30.151-5.188Z" fill="#dfd2fd"/>
          <path id="Trazado_2353" data-name="Trazado 2353" d="M686.423,333.7s-6.4,4.552-16.011,18.6S650.6,368.947,650.6,368.947l1.613,4.868s24.566-5.521,36.219-26.686" fill="#d7c5ff"/>
          <path id="Trazado_2354" data-name="Trazado 2354" d="M656.438,324.471s9.571-.914,25.745,14.422c15.845,12.836,31.635,6.823,31.635,6.823l1.274,5.347s-9.225,8.01-25.535,4.478a69.126,69.126,0,0,1-27.6-13.2Z" fill="#9c89e5"/>
          <path id="Trazado_2355" data-name="Trazado 2355" d="M644.244,324.67s-9.92-.2-26.094,15.132c-15.845,12.835-31.633,6.762-31.633,6.762l-1.894,4.568s9.844,8.849,26.153,5.318a69.144,69.144,0,0,0,27.6-13.2Z" fill="#9c89e5"/>
          <path id="Trazado_2356" data-name="Trazado 2356" d="M783.03,328.517s-9.571.1-25.579,15.608c-13.278,14.677-30.755,7.9-30.755,7.9l-.666,2.684s7.957,9.844,24.227,6.137a69.138,69.138,0,0,0,27.455-13.5Z" fill="#bba4ff"/>
          <path id="Trazado_2357" data-name="Trazado 2357" d="M796.58,328.2s18.671-11.457,21.768-47.073h2.812s12.29,22.608-14.34,64.592" fill="#bba4ff"/>
          <path id="Trazado_2358" data-name="Trazado 2358" d="M747.268,329.335s7.83.58,23.328,7.613,25.7,3.958,25.7,3.958l1.042,2.513s-18.079,10.64-44.826-1.556" fill="#6242ba"/>
          <path id="Trazado_2359" data-name="Trazado 2359" d="M735.4,329.537s-7.735-1.716-24.48,1.324c-12.283,2.23-20.439-.066-23.913-1.447a2.245,2.245,0,0,0-2.861,1.149h0a2.253,2.253,0,0,0,.893,2.912c5.461,3.2,22.98,12.026,42.223,6.564" fill="#6242ba"/>
          <path id="Trazado_2360" data-name="Trazado 2360" d="M508.253,310.864a12.8,12.8,0,0,0-11.593,8.528c-3.031,8.528-11.062,15.3-5.06,19.521s1.545,12.654,13.95,14.4,14.3-6.4,14.3-13.568,5.571-5.219,3.342-14.191S513.767,310.864,508.253,310.864Z" fill="#31193b"/>
          <path id="Trazado_2361" data-name="Trazado 2361" d="M558.088,298.362s-8.346-.213-10.478,9.633,4.619,18.56,10.741,18.56,11.743-6.678,10.677-18.114S558.088,298.362,558.088,298.362Z" fill="#ea4272"/>
          <path id="Trazado_2362" data-name="Trazado 2362" d="M699.737,299.159c5.626-6.027-7.767-7.716-8.788-3.175-.1.458.661,3.4,1.362,3.175,0,0-9.33,3.046-7.758,14.626.553,4.067,1.7,8.916,5.251,11.865a10.59,10.59,0,0,0,12.063.46c4.042-2.774,5.06-8.14,5.628-12.325C709.068,302.2,699.737,299.159,699.737,299.159Z" fill="#31193b"/>
          <path id="Trazado_2363" data-name="Trazado 2363" d="M754.271,308.336c-3.279-14.817-24.334-14.07-26.8.9a42.173,42.173,0,0,0-.521,6.842v33.435a53.135,53.135,0,0,0,28.255,0V316.428A39.438,39.438,0,0,0,754.271,308.336Z" fill="#ea4272"/>
          <path id="Trazado_2364" data-name="Trazado 2364" d="M798.731,297.869c-2.575-5.029-13.04-5.056-15.628,0-2.151,4.2-7.238,5.2-6.269,11.848s4.665,6.856,6.269,11.232c2.377,6.485,13.251,6.484,15.628,0,1.6-4.375,5.3-4.586,6.268-11.231S800.882,302.071,798.731,297.869Z" fill="#4f2caf"/>
          <path id="Trazado_2365" data-name="Trazado 2365" d="M482.32,300.477s.918-5.585.057-6.127c-.728-.414-1.028,3.081-1.028,3.081s-.776-3.214-.968-4.849-2.188-1.338-2.624,1.814,1.843,6.1,1.843,6.1Z" fill="#f3a9b8"/>
          <path id="Trazado_2366" data-name="Trazado 2366" d="M493.165,344.5s-4.792-3.013-5.626-2.429c-.663.51,2.441,2.142,2.441,2.142s-3.263-.531-4.844-.988-2.082,1.5.655,3.122,6.332.665,6.332.665Z" fill="#f3a9b8"/>
          <path id="Trazado_2367" data-name="Trazado 2367" d="M552.825,358.083s-5.6-.819-6.127.051c-.4.735,3.1.974,3.1.974s-3.2.833-4.83,1.053-1.3,2.212,1.86,2.592a12.021,12.021,0,0,0,6.081-1.09Z" fill="#f3a9b8"/>
          <path id="Trazado_2368" data-name="Trazado 2368" d="M562.933,350.249s4.481-3.458,5.367-2.957c.709.445-2.225,2.367-2.225,2.367s3.2-.841,4.728-1.448,2.216,1.292-.353,3.171-6.239,1.268-6.239,1.268Z" fill="#f3a9b8"/>
          <path id="Trazado_2369" data-name="Trazado 2369" d="M586.517,346.564s-4.792-3.012-5.625-2.429c-.664.511,2.441,2.143,2.441,2.143s-3.263-.531-4.845-.988-2.082,1.5.655,3.122,6.332.665,6.332.665Z" fill="#f3a9b8"/>
          <path id="Trazado_2370" data-name="Trazado 2370" d="M650.6,368.947s-5.595.856-5.844,1.843c-.168.82,3.248.023,3.248.023s-2.816,1.733-4.311,2.422-.594,2.5,2.538,1.933,5.224-3.639,5.224-3.639Z" fill="#f3a9b8"/>
          <path id="Trazado_2371" data-name="Trazado 2371" d="M655.087,356.364s5.209-2.215,5.939-1.507c.574.609-2.749,1.729-2.749,1.729s3.3-.008,4.939-.208,1.819,1.809-1.141,2.979-6.988.443-6.988.443Z" fill="#f3a9b8"/>
          <path id="Trazado_2372" data-name="Trazado 2372" d="M713.818,345.716s5.209-2.215,5.939-1.506c.574.609-2.749,1.728-2.749,1.728s3.306-.007,4.939-.208,1.819,1.809-1.141,2.979-6.358-.347-6.358-.347Z" fill="#f3a9b8"/>
          <path id="Trazado_2373" data-name="Trazado 2373" d="M725.763,351.719s-5.209-2.215-5.939-1.507c-.574.61,2.749,1.729,2.749,1.729s-3.306-.007-4.939-.208-1.819,1.809,1.141,2.979,6.357-.347,6.357-.347Z" fill="#f3a9b8"/>
          <path id="Trazado_2374" data-name="Trazado 2374" d="M796.293,340.906s4.792-3.012,5.626-2.428c.663.51-2.441,2.142-2.441,2.142s3.263-.531,4.844-.988,2.082,1.5-.655,3.122-6.332.665-6.332.665Z" fill="#f3a9b8"/>
          <path id="Trazado_2375" data-name="Trazado 2375" d="M494.739,378.7S481.7,407.438,481.7,442.142c9.275,4.3,43.129,2.86,48.845,0,0,0,1.21-46.6-8.774-63.438C521.773,378.7,511.35,381.969,494.739,378.7Z" fill="#31193b"/>
          <path id="Trazado_2376" data-name="Trazado 2376" d="M711.712,385.106c-10.318,3.416-26.341,2.542-32.479,0,0,0-5.015,7.138-4.185,23.108a223.216,223.216,0,0,1-.29,24.81L670.1,511.409h7.252L696.215,408.98,707.3,511.409H714.1l.355-78.886a199.9,199.9,0,0,1,1.4-23.88C717.342,396.708,715.346,390.452,711.712,385.106Z" fill="#31193b"/>
          <path id="Trazado_2377" data-name="Trazado 2377" d="M757.419,361.753a76.356,76.356,0,0,1-31.528-.09,237.2,237.2,0,0,0-7.423,59.18c11.214,3.823,39.067,1.826,45.333,0C763.8,420.843,763.244,377.6,757.419,361.753Z" fill="#31193b"/>
          <path id="Trazado_2378" data-name="Trazado 2378" d="M551.856,328.28l.963-.448s-.006,4.623,5.532,4.623,5.538-4.819,5.538-4.819l.845.323s.955,6.115-6.383,6.115S551.856,328.28,551.856,328.28Z" fill="#bba4ff"/>
          <path id="Trazado_2379" data-name="Trazado 2379" d="M645.226,323.562s.334,5.212,5.641,5.212,5.642-5.423,5.642-5.423l1.689,1.219s.083,6.226-7.331,6.226-7.413-6.071-7.413-6.071Z" fill="#6242ba"/>
          <path id="Trazado_2380" data-name="Trazado 2380" d="M589.511,370.534l-.212,2.307s12.873,4.358,30.006,0l-.1-2.307C602.29,374.21,589.511,370.534,589.511,370.534Z" fill="#31193b"/>
          <path id="Trazado_2381" data-name="Trazado 2381" d="M633.311,347.076s8.155-7.687.565-18.991" fill="none" stroke="#31193b" stroke-miterlimit="10" stroke-width="0.25"/>
          <path id="Trazado_2382" data-name="Trazado 2382" d="M670.528,348.126s-11.594-4.982-1.9-19.609" fill="none" stroke="#31193b" stroke-miterlimit="10" stroke-width="0.25"/>
          <path id="Trazado_2383" data-name="Trazado 2383" d="M540.4,405.49l13.9,2.653s.969,10.85-7.79,10.85S540.4,405.49,540.4,405.49Z" fill="none" stroke="#31193b" stroke-miterlimit="10" stroke-width="0.25"/>
          <path id="Trazado_2384" data-name="Trazado 2384" d="M575.228,405.49l-13.9,2.653s-.968,10.85,7.79,10.85S575.228,405.49,575.228,405.49Z" fill="none" stroke="#31193b" stroke-miterlimit="10" stroke-width="0.25"/>
          <path id="Trazado_2385" data-name="Trazado 2385" d="M772.3,392.343s20.259,5.9,36.913,0" fill="none" stroke="#31193b" stroke-miterlimit="10" stroke-width="0.25"/>
          <path id="Trazado_2386" data-name="Trazado 2386" d="M692.846,299.253a5.915,5.915,0,0,0,6.338,0" fill="none" stroke="#f96c96" stroke-miterlimit="10" stroke-width="0.517"/>
          <path id="Trazado_2387" data-name="Trazado 2387" d="M679.625,383.831s16.733,4.419,31.714,0l.373,1.275s-5.023,2.619-16.044,2.619-16.435-2.619-16.435-2.619Z" fill="#6242ba"/>
          <path id="Trazado_2388" data-name="Trazado 2388" d="M686.265,387.62v-2.546l1.256.166v2.668Z" fill="#31193b"/>
          <path id="Trazado_2389" data-name="Trazado 2389" d="M704.613,387.725v-2.467l-1.14.145v2.322Z" fill="#31193b"/>
          <g id="Grupo_10230" data-name="Grupo 10230">
            <path id="Trazado_2390" data-name="Trazado 2390" d="M527.944,442.976l-.285.064c0-42.752-8.043-63.6-8.124-63.807l.254-.05C519.87,379.388,527.944,400.177,527.944,442.976Z" fill="#6242ba"/>
          </g>
        </g>
        <path id="Trazado_2391" data-name="Trazado 2391" d="M541.157,332.207s3.331,6.7,0,15.708" fill="none" stroke="#bba4ff" stroke-miterlimit="10" stroke-width="0.25"/>
        <path id="Trazado_2392" data-name="Trazado 2392" d="M575.606,344.649s-3.549-6.11,0-14.5" fill="none" stroke="#bba4ff" stroke-miterlimit="10" stroke-width="0.25"/>
        <line id="Línea_4" data-name="Línea 4" x1="7.41" y2="117.388" transform="translate(624.802 394.021)" fill="none" stroke="#bba4ff" stroke-miterlimit="10" stroke-width="0.25"/>
        <line id="Línea_5" data-name="Línea 5" x2="1.744" y2="108.984" transform="translate(668.356 394.198)" fill="none" stroke="#bba4ff" stroke-miterlimit="10" stroke-width="0.25"/>
        <line id="Línea_6" data-name="Línea 6" x2="1.663" y2="4.052" transform="translate(653.423 368.947)" fill="none" stroke="#bba4ff" stroke-miterlimit="10" stroke-width="0.25"/>
        <path id="Trazado_2393" data-name="Trazado 2393" d="M609.394,300.554a12.818,12.818,0,0,0-10.052.874,15.854,15.854,0,0,0-4.913,3.85l.007-.032a41.348,41.348,0,0,0-4.1,5.714c-1.246,2.364-8.742,9.174-7.649,15.66a10.623,10.623,0,0,1,2.008-5.078c-.714,1.719-.734,3.63.61,6.232,2.913-4.312,10.569,1.794,23.167,1.794C619.81,329.568,623.1,305.39,609.394,300.554Z" fill="#31193b"/>
        <path id="Trazado_2394" data-name="Trazado 2394" d="M661.967,301.632c0-3.389-2.712-5.34-5.456-6.446a13.239,13.239,0,0,0-11.852.623,9.124,9.124,0,0,0-4.381,6.251h-.021l0,.112a11.308,11.308,0,0,0-.19,2.005c0,1.824.045,3.55.117,5.151l-.117,11.477.649-2.264V320.8h20.255s.085-.825.323-4.5l.676,4.5Z" fill="#4f2caf"/>
        <path id="Trazado_2395" data-name="Trazado 2395" d="M776.937,330.2a6.652,6.652,0,0,1,7.131-3.419c5.017.906,5.77,3.06,8.78,1.732s4.558-3.272,7.171-3.272c0,7.63-.993,13.478-7.924,14.738S783.939,329.456,776.937,330.2Z" fill="#9c89e5"/>
        <path id="Trazado_2396" data-name="Trazado 2396" d="M725.133,354.365l.63-2.646.933.311-.666,2.683Z" fill="#9c89e5"/>
        <rect id="Rectángulo_2713" data-name="Rectángulo 2713" width="2.813" height="0.962" transform="translate(818.348 280.17)" fill="#9c89e5"/>
      </g>
    </g>
    <path id="Trazado_2397" data-name="Trazado 2397" d="M351.647,430.008v31.177h744V430.008C769.6,463.472,594.135,397.27,351.647,430.008Z" transform="translate(-23.647 6377.815)" fill="#413682"/>
    <path id="Trazado_2398" data-name="Trazado 2398" d="M404.192,286.253h51.091s-2.661-12.773-17.563-8.515c-14.369-14.369-24.481-.869-24.481-.869S404.192,276.141,404.192,286.253Z" transform="translate(45.099 6377.815)" fill="#aa78fa"/>
    <path id="Trazado_2399" data-name="Trazado 2399" d="M852.515,264.619h51.091s-2.661-12.773-17.562-8.515c-14.369-14.369-24.481-.869-24.481-.869S852.515,254.507,852.515,264.619Z" transform="translate(45.099 6377.815)" fill="#370b7d"/>
    <path id="Trazado_2400" data-name="Trazado 2400" d="M795.447,238.32h39.465s-3.773-9.824-13.853-5.645C814.2,221.323,795.447,225.425,795.447,238.32Z" transform="translate(45.099 6377.815)" fill="#fff"/>
  </g>
</svg>
