<svg xmlns="http://www.w3.org/2000/svg" width="366.304" height="109.57" viewBox="0 0 366.304 109.57">
  <g id="Grupo_9910" data-name="Grupo 9910" transform="translate(-230.696 -1332.895)">
    <path id="Trazado_3054" data-name="Trazado 3054" d="M48.267,0H44.312V-101.66L13.7-90.161v-4.321l33.765-12.451h.806ZM150.879-53.027a31.381,31.381,0,0,1-12.048,13.586,33.742,33.742,0,0,1-18.42,5.164A27.726,27.726,0,0,1,104.59-39,31.769,31.769,0,0,1,93.6-52a41.578,41.578,0,0,1-3.955-18.164,45.43,45.43,0,0,1,4.028-19.226,32.921,32.921,0,0,1,11.279-13.733,27.71,27.71,0,0,1,16.04-4.98q16.479,0,25.122,10.73t8.716,30.945V-54.2q0,27.026-12.012,41.2T107.446,1.465h-3.516l.146-3.955h3.149q21.387-.22,32.52-13.037T150.879-53.027ZM120.41-38.232A30.772,30.772,0,0,0,139.6-44.6a31.139,31.139,0,0,0,11.279-16.919v-4.541q0-18.53-7.654-28.308t-21.936-9.778a23.656,23.656,0,0,0-14.209,4.614,30.462,30.462,0,0,0-9.924,12.561A40.728,40.728,0,0,0,93.6-70.166a37.962,37.962,0,0,0,3.442,16.15,27.945,27.945,0,0,0,9.521,11.609A23.87,23.87,0,0,0,120.41-38.232ZM232.983-53.027a31.381,31.381,0,0,1-12.048,13.586,33.742,33.742,0,0,1-18.42,5.164A27.726,27.726,0,0,1,186.694-39a31.769,31.769,0,0,1-10.986-13,41.578,41.578,0,0,1-3.955-18.164,45.43,45.43,0,0,1,4.028-19.226,32.921,32.921,0,0,1,11.279-13.733,27.71,27.71,0,0,1,16.04-4.98q16.479,0,25.122,10.73t8.716,30.945V-54.2q0,27.026-12.012,41.2T189.551,1.465h-3.516l.146-3.955h3.149q21.387-.22,32.52-13.037T232.983-53.027ZM202.515-38.232A30.772,30.772,0,0,0,221.7-44.6a31.139,31.139,0,0,0,11.279-16.919v-4.541q0-18.53-7.654-28.308t-21.936-9.778a23.656,23.656,0,0,0-14.209,4.614,30.462,30.462,0,0,0-9.924,12.561,40.728,40.728,0,0,0-3.552,16.809,37.962,37.962,0,0,0,3.442,16.15,27.945,27.945,0,0,0,9.521,11.609A23.87,23.87,0,0,0,202.515-38.232ZM294.58,0h-3.955V-101.66l-30.615,11.5v-4.321l33.765-12.451h.806Z" transform="translate(217 1441)" fill="#09347b"/>
    <g id="Grupo_9908" data-name="Grupo 9908" transform="translate(415.896 1280.927)">
      <path id="Trazado_1578" data-name="Trazado 1578" d="M179.819,105.814a29.685,29.685,0,0,0-59.229,0c-.047.679-.071,1.355-.071,2.046h59.373C179.892,107.169,179.864,106.493,179.819,105.814Z" transform="translate(1.213 1.213)" fill="#fbd036"/>
      <path id="Trazado_1579" data-name="Trazado 1579" d="M124.732,110.6h50.944a29.532,29.532,0,0,0,4.215-15.248H120.519A29.547,29.547,0,0,0,124.732,110.6Z" transform="translate(1.213 13.721)" fill="#0551aa"/>
      <path id="Trazado_1580" data-name="Trazado 1580" d="M148.43,118.614A29.665,29.665,0,0,0,173.9,104.175H122.957A29.674,29.674,0,0,0,148.43,118.614Z" transform="translate(2.988 20.146)" fill="#ca202b"/>
    </g>
  </g>
</svg>
