<svg xmlns="http://www.w3.org/2000/svg" width="433.067" height="488.729" viewBox="0 0 433.067 488.729">
  <g id="Grupo_11362" data-name="Grupo 11362" transform="translate(-760.466 -839.369)">
    <path id="Trazado_1558" data-name="Trazado 1558" d="M99.48,316c-16.24-13.4-32.168-29.058-40.541-48.372s-8.154-43.56,5.292-59.757c6.838-8.237,16.6-13.982,22.088-23.175,6.03-10.107,5.874-22.717,4.089-34.35s-5.019-23.183-4.517-34.942a55.379,55.379,0,0,1,68.685-51.377c18.6,4.622,33.51,18.449,51.328,25.5,18.333,7.257,39.311,7.053,58.235,2.216,19.609-5.012,38.654-18.878,56.789-27.89,11.222-5.577,22.736-11.046,35.116-12.983s25.941.1,35.517,8.186c10.608,8.955,14.493,23.327,18.389,36.651s9.21,27.606,21.153,34.685c8.949,5.3,20.005,5.513,29.651,9.411a40.982,40.982,0,0,1,21.576,55.774c-5.406,11.231-15.859,19.9-19.111,31.933-2.682,9.926.013,20.414.124,30.695.247,23.055-19.072,47.925-39.911,57.792Z" transform="translate(707.194 816.178)" fill="#fae7c4"/>
    <g id="Grupo_9907" data-name="Grupo 9907" transform="translate(-4.518 -64.042)">
      <g id="Grupo_9904" data-name="Grupo 9904" transform="translate(853.984 1058.042)">
        <g id="Grupo_9902" data-name="Grupo 9902" transform="translate(0 0)">
          <path id="Trazado_1559" data-name="Trazado 1559" d="M367.179,286.37H326.414V286.3H186.595v37.262h36.218v194.2a48.327,48.327,0,0,0,48.326,48.327H415.5V334.7A48.327,48.327,0,0,0,367.179,286.37Z" transform="translate(-150.088 -286.301)" fill="#ede4d6"/>
          <path id="Trazado_1560" data-name="Trazado 1560" d="M167.018,323.633h72.726a37.3,37.3,0,0,0-37.3-37.3h1.865a37.3,37.3,0,0,0-37.3,37.3Z" transform="translate(-167.018 -286.269)" fill="#f1b13d"/>
          <path id="Trazado_1561" data-name="Trazado 1561" d="M267.68,416.329a37.287,37.287,0,0,1-37.085,37.284v.011H384.228a37.3,37.3,0,0,0,37.3-37.3Z" transform="translate(-112.039 -173.857)" fill="#f1b13d"/>
        </g>
        <path id="Trazado_1562" data-name="Trazado 1562" d="M359.655,312.888H224.771a3.108,3.108,0,0,1-3.109-3.109h0a3.109,3.109,0,0,1,3.109-3.109H359.655a3.11,3.11,0,0,1,3.109,3.109h0A3.109,3.109,0,0,1,359.655,312.888Z" transform="translate(-119.763 -268.686)" fill="#bcb2a7"/>
        <path id="Trazado_1563" data-name="Trazado 1563" d="M359.655,325.888H224.771a3.108,3.108,0,0,1-3.109-3.109h0a3.109,3.109,0,0,1,3.109-3.109H359.655a3.11,3.11,0,0,1,3.109,3.109h0A3.109,3.109,0,0,1,359.655,325.888Z" transform="translate(-119.763 -257.444)" fill="#bcb2a7"/>
        <path id="Trazado_1564" data-name="Trazado 1564" d="M359.655,338.888H224.771a3.108,3.108,0,0,1-3.109-3.109h0a3.109,3.109,0,0,1,3.109-3.109H359.655a3.11,3.11,0,0,1,3.109,3.109h0A3.109,3.109,0,0,1,359.655,338.888Z" transform="translate(-119.763 -246.202)" fill="#bcb2a7"/>
        <path id="Trazado_1565" data-name="Trazado 1565" d="M359.655,351.888H224.771a3.108,3.108,0,0,1-3.109-3.109h0a3.109,3.109,0,0,1,3.109-3.109H359.655a3.11,3.11,0,0,1,3.109,3.109h0A3.109,3.109,0,0,1,359.655,351.888Z" transform="translate(-119.763 -234.96)" fill="#bcb2a7"/>
        <rect id="Rectángulo_2680" data-name="Rectángulo 2680" width="141.101" height="6.216" rx="1.667" transform="translate(101.898 134.954)" fill="#bcb2a7"/>
        <path id="Trazado_1566" data-name="Trazado 1566" d="M359.655,377.888H224.771a3.108,3.108,0,0,1-3.109-3.109h0a3.109,3.109,0,0,1,3.109-3.109H359.655a3.11,3.11,0,0,1,3.109,3.109h0A3.109,3.109,0,0,1,359.655,377.888Z" transform="translate(-119.763 -212.476)" fill="#bcb2a7"/>
        <g id="Grupo_9903" data-name="Grupo 9903" transform="translate(101.898 192.295)">
          <path id="Trazado_1567" data-name="Trazado 1567" d="M295.787,395.638H224.771a3.108,3.108,0,0,1-3.109-3.109h0a3.109,3.109,0,0,1,3.109-3.109h71.016a3.11,3.11,0,0,1,3.109,3.109h0A3.109,3.109,0,0,1,295.787,395.638Z" transform="translate(-221.662 -389.421)" fill="#bcb2a7"/>
        </g>
        <circle id="Elipse_516" data-name="Elipse 516" cx="23.427" cy="23.427" r="23.427" transform="translate(191.285 186.393) rotate(-13.629)" fill="#7c3be6"/>
        <circle id="Elipse_517" data-name="Elipse 517" cx="15.639" cy="15.639" r="15.639" transform="translate(203.934 188.001)" fill="#3bcfff"/>
      </g>
      <g id="Grupo_9906" data-name="Grupo 9906" transform="translate(770.297 903.411)">
        <path id="Trazado_1569" data-name="Trazado 1569" d="M156.381,348.911l18.113,10.745c40.043-43.868,30.222-67.63,20.36-77.492-7.348-7.348-28.568-9.183-51.668,12.079l4.389,8.779-7.78-5.492a118.965,118.965,0,0,0-10.021,11.646l10.848,13.314-13.991-9.011a185.858,185.858,0,0,0-14.748,25.234C79.435,405,71.787,485.188,71.787,485.188l9.5,2.549S111.419,421.685,163.8,370.7c2.136-2.08,4.131-4.105,6.063-6.106Z" transform="translate(-25.605 -277.116)" fill="#ede4d6"/>
        <g id="Grupo_9905" data-name="Grupo 9905" transform="translate(53.973 4.17)" opacity="0.2" style="mix-blend-mode: multiply;isolation: isolate">
          <path id="Trazado_1570" data-name="Trazado 1570" d="M155.885,280.242a12.69,12.69,0,0,0-.99-.877c7.711,20.15,1.8,39.659-20.332,65.771l1.854,4.326-19-2.471,18.113,10.744C175.568,313.866,165.747,290.1,155.885,280.242Z" transform="translate(-40.609 -279.365)" fill="#5b2872"/>
          <path id="Trazado_1571" data-name="Trazado 1571" d="M160.208,337.624c2.136-2.08,4.131-4.105,6.063-6.106l-13.479-15.68,4.481,14.833s-18.233,16.687-30.593,33.684l.617,4.326-6.489-.617s-32.7,53.209-44.819,86.142l1.711.46S107.83,388.612,160.208,337.624Z" transform="translate(-75.989 -248.213)" fill="#5b2872"/>
        </g>
        <rect id="Rectángulo_2681" data-name="Rectángulo 2681" width="133.813" height="21.386" transform="translate(0 273.136)" fill="#f1b13d"/>
        <rect id="Rectángulo_2683" data-name="Rectángulo 2683" width="101.303" height="12.218" transform="translate(16.255 260.914)" fill="#f4c269"/>
        <path id="Trazado_1572" data-name="Trazado 1572" d="M157.517,303.671c-4.7,7.389-9.384,14.759-13.789,22.307-4.505,7.479-8.874,15.039-13.172,22.629q-12.855,22.8-24.3,46.316c-7.632,15.676-14.392,31.742-20.657,48l-4.383,12.317L80.1,458.32l-.953,3.124-1.926,6.25c-2.87,8.262-4.593,16.82-6.949,25.264a314.492,314.492,0,0,1,12.588-51,454.431,454.431,0,0,1,19.959-48.68q11.425-23.707,25.058-46.234A451.848,451.848,0,0,1,157.517,303.671Z" transform="translate(-26.895 -254.435)" fill="#bcb2a7"/>
        <path id="Trazado_1573" data-name="Trazado 1573" d="M77.232,389.338l-11.82,26.653,1.854,22.481,15.065-18.078,4.4-28.507Z" transform="translate(-31.05 -181.266)" fill="#eaa51b"/>
        <circle id="Elipse_518" data-name="Elipse 518" cx="3.013" cy="3.013" r="3.013" transform="translate(38.302 234.261)" fill="#5e481f"/>
        <line id="Línea_1" data-name="Línea 1" y1="14.485" x2="4.519" transform="translate(41.431 222.325)" fill="none" stroke="#5e481f" stroke-linecap="round" stroke-miterlimit="10" stroke-width="1"/>
        <path id="Trazado_1574" data-name="Trazado 1574" d="M65.412,415.028l1.854,22.481,15.065-18.078,4.4-28.507-1.711-.459-5.01,27.807L68.194,431.51Z" transform="translate(-31.05 -180.303)" fill="#5b2872" opacity="0.3" style="mix-blend-mode: multiply;isolation: isolate"/>
      </g>
      <path id="Trazado_1575" data-name="Trazado 1575" d="M-10359.906,3545.495h231.393" transform="translate(11124.891 -2189.636)" fill="none" stroke="#f1b13d" stroke-width="2"/>
      <path id="Trazado_1576" data-name="Trazado 1576" d="M-10359.906,3545.495h231.393" transform="translate(11251.745 -2171.995)" fill="none" stroke="#3f66d0" stroke-width="2"/>
      <path id="Trazado_1581" data-name="Trazado 1581" d="M-10359.906,3545.495h231.393" transform="translate(11319.745 -2154.354)" fill="none" stroke="#ed3535" stroke-width="2"/>
    </g>
  </g>
</svg>
