<svg xmlns="http://www.w3.org/2000/svg" width="590.531" height="410.302" viewBox="0 0 590.531 410.302">
  <g id="Grupo_10028" data-name="Grupo 10028" transform="translate(-474 -1046.023)">
    <g id="Grupo_9979" data-name="Grupo 9979" transform="translate(510.74 1046.023)">
      <g id="Grupo_9978" data-name="Grupo 9978" transform="translate(0 0)">
        <g id="Grupo_9912" data-name="Grupo 9912" transform="translate(0 0)">
          <path id="Trazado_1704" data-name="Trazado 1704" d="M537.633,415.167H122.678C71.036,376.533,43.727,303.908,51.306,239.861s51.254-122.592,110.486-148.1c12.519-5.391,25.933-9.436,39.555-8.935S228.875,88.9,237.08,99.783c7.512,9.963,10.249,23.971,20.785,30.655,15.225,9.659,34.414-2.216,49.325-12.353,42.355-28.8,93.439-46.482,144.548-43.155s101.669,29.412,128.745,72.886C605.017,187.205,608.579,237,598.8,282.363S561.551,375.4,537.633,415.167Z" transform="translate(-50.058 -32.942)" fill="#d9f6ff"/>
          <path id="Trazado_1705" data-name="Trazado 1705" d="M315.217,97.1c9.306.776,18.26-3.269,26.722-7.22l39.538-18.462c5.543-2.589,11.5-5.569,14.154-11.078,2.513-5.208,1.345-11.657-1.848-16.479s-8.134-8.226-13.29-10.843a68.2,68.2,0,0,0-44.986-5.77c-23.811,5.191-57.944,28.133-41.341,56.532A27.5,27.5,0,0,0,315.217,97.1Z" transform="translate(-85.503 -25.726)" fill="#d9f6ff"/>
        </g>
        <g id="Grupo_9977" data-name="Grupo 9977" transform="translate(13.123 34.637)">
          <g id="Grupo_9933" data-name="Grupo 9933" transform="translate(322.737)">
            <path id="Trazado_1706" data-name="Trazado 1706" d="M585.448,182c-.139-2.478-.871-4.884-1.182-7.346s-.146-5.138,1.311-7.148L550.788,155.92l-36.543,3.01c.939,2.3.466,4.936-.42,7.255s-2.167,4.481-2.89,6.856c-1.687,5.544-.062,11.762,3.4,16.407s8.581,7.848,13.989,9.932,11.034,3.121,16.736,4.163c5.785.34,11.5.665,17.246-.078s11.477-2.643,15.944-6.334S585.773,187.785,585.448,182Z" transform="translate(-453.965 -79.614)" fill="#472948"/>
            <g id="Grupo_9924" data-name="Grupo 9924" transform="translate(0 89.922)">
              <path id="Trazado_1707" data-name="Trazado 1707" d="M649.466,290.274l15.583,52.634H620.706l-4.748-33.44Z" transform="translate(-469.593 -189.402)" fill="#6ca8bc"/>
              <g id="Grupo_9923" data-name="Grupo 9923">
                <path id="Trazado_1708" data-name="Trazado 1708" d="M546.917,206.342a105.343,105.343,0,0,0-35.473,5.839l7.212,7.877,28.26,5.185,28.261-5.185,7.212-7.877A105.344,105.344,0,0,0,546.917,206.342Z" transform="translate(-454.139 -176.992)" fill="#94cbca"/>
                <g id="Grupo_9915" data-name="Grupo 9915" transform="translate(0 37.629)">
                  <path id="Trazado_1709" data-name="Trazado 1709" d="M619.481,263.8a53.282,53.282,0,0,0-38.067-36.54l-18.833-4.748-25.608-6.455-25.608,6.455-18.833,4.748a53.282,53.282,0,0,0-38.066,36.54L444.2,298.494h35.215L468.9,436.093H610.1l-19.537-137.6h39.191Z" transform="translate(-444.196 -216.057)" fill="#6ca8bc"/>
                  <g id="Grupo_9913" data-name="Grupo 9913" transform="translate(30.189 28.009)">
                    <path id="Trazado_1710" data-name="Trazado 1710" d="M488.624,302.37a86.376,86.376,0,0,0-9-53.444c1.5,7.477,3.628,16.987,5.227,26.6C486.489,285.132,487.589,294.816,488.624,302.37Z" transform="translate(-479.623 -248.926)" fill="#5195a8"/>
                  </g>
                  <g id="Grupo_9914" data-name="Grupo 9914" transform="translate(145.314 28.009)">
                    <path id="Trazado_1711" data-name="Trazado 1711" d="M615.776,302.37a86.368,86.368,0,0,1,9-53.444c-1.5,7.477-3.629,16.987-5.227,26.6C617.912,285.132,616.812,294.816,615.776,302.37Z" transform="translate(-614.725 -248.926)" fill="#5195a8"/>
                  </g>
                </g>
                <path id="Trazado_1712" data-name="Trazado 1712" d="M523.021,223.632Z" transform="translate(-455.851 -179.548)" fill="none" stroke="#222221" stroke-miterlimit="10" stroke-width="1.478"/>
                <path id="Trazado_1713" data-name="Trazado 1713" d="M523.021,223.632Z" transform="translate(-455.851 -179.548)" fill="none" stroke="#222221" stroke-miterlimit="10" stroke-width="1.478"/>
                <path id="Trazado_1714" data-name="Trazado 1714" d="M583.123,223.632Z" transform="translate(-464.738 -179.548)" fill="none" stroke="#222221" stroke-miterlimit="10" stroke-width="1.478"/>
                <path id="Trazado_1715" data-name="Trazado 1715" d="M583.123,223.632Z" transform="translate(-464.738 -179.548)" fill="none" stroke="#222221" stroke-miterlimit="10" stroke-width="1.478"/>
                <g id="Grupo_9917" data-name="Grupo 9917" transform="translate(67.17)">
                  <path id="Trazado_1716" data-name="Trazado 1716" d="M548.629,216.057l-25.608,6.455,1.493,3.668a26.035,26.035,0,0,0,48.229,0l1.493-3.668Z" transform="translate(-523.021 -178.428)" fill="#468094"/>
                  <g id="Grupo_9916" data-name="Grupo 9916" transform="translate(9.026)">
                    <path id="Trazado_1717" data-name="Trazado 1717" d="M550.195,210.424c-5.647,0-11.068-3.6-15.1-10.024q-.766-1.219-1.486-2.5v25.229a16.583,16.583,0,0,0,6.293,13h0a16.583,16.583,0,0,0,20.577,0h0a16.583,16.583,0,0,0,6.294-13V197.9q-.722,1.276-1.486,2.5C561.264,206.824,555.843,210.424,550.195,210.424Z" transform="translate(-533.613 -175.744)" fill="#eba588"/>
                    <path id="Trazado_1718" data-name="Trazado 1718" d="M533.613,171.9V194.06q.721,1.276,1.486,2.5c4.027,6.424,9.448,10.024,15.1,10.024s11.069-3.6,15.1-10.024q.764-1.219,1.486-2.5V171.9Z" transform="translate(-533.613 -171.899)" fill="#422c4f"/>
                  </g>
                </g>
                <g id="Grupo_9922" data-name="Grupo 9922" transform="translate(43.348 34.885)">
                  <path id="Trazado_1719" data-name="Trazado 1719" d="M544.495,241.925l-25.347-25.879a10.683,10.683,0,0,0-14.238-.92l-8.427,6.629a3.713,3.713,0,0,0,.787,6.311l47.225,21.017Z" transform="translate(-495.065 -212.837)" fill="#94cbca"/>
                  <path id="Trazado_1720" data-name="Trazado 1720" d="M553.072,241.925l25.347-25.879a10.684,10.684,0,0,1,14.239-.92l8.426,6.629a3.713,3.713,0,0,1-.786,6.311l-47.226,21.017Z" transform="translate(-503.642 -212.837)" fill="#94cbca"/>
                  <g id="Grupo_9919" data-name="Grupo 9919" transform="translate(42.209 27.68)">
                    <rect id="Rectángulo_2685" data-name="Rectángulo 2685" width="1.04" height="6.606" transform="translate(0.888 47.775)" fill="#f0bf6c"/>
                    <g id="Grupo_9918" data-name="Grupo 9918">
                      <path id="Trazado_1721" data-name="Trazado 1721" d="M546.007,295.909A1.407,1.407,0,0,1,544.6,294.5V246.727a1.407,1.407,0,0,1,2.815,0V294.5A1.407,1.407,0,0,1,546.007,295.909Z" transform="translate(-544.599 -245.32)" fill="#5195a8"/>
                    </g>
                  </g>
                  <g id="Grupo_9921" data-name="Grupo 9921" transform="translate(53.836 27.68)">
                    <rect id="Rectángulo_2686" data-name="Rectángulo 2686" width="1.04" height="6.606" transform="translate(1.927 54.381) rotate(180)" fill="#f0bf6c"/>
                    <g id="Grupo_9920" data-name="Grupo 9920">
                      <path id="Trazado_1722" data-name="Trazado 1722" d="M559.651,295.909a1.407,1.407,0,0,1-1.408-1.407V246.727a1.408,1.408,0,0,1,2.815,0V294.5A1.408,1.408,0,0,1,559.651,295.909Z" transform="translate(-558.243 -245.32)" fill="#5195a8"/>
                    </g>
                  </g>
                </g>
              </g>
            </g>
            <g id="Grupo_9932" data-name="Grupo 9932" transform="translate(49.723)">
              <g id="Grupo_9925" data-name="Grupo 9925" transform="translate(73.328 79.28)">
                <path id="Trazado_1723" data-name="Trazado 1723" d="M588.667,167.751a9.47,9.47,0,1,0,10.532-8.272A9.47,9.47,0,0,0,588.667,167.751Z" transform="translate(-588.599 -159.411)" fill="#e78882"/>
                <path id="Trazado_1724" data-name="Trazado 1724" d="M593.6,168.99a5.24,5.24,0,1,0,5.829-4.578A5.241,5.241,0,0,0,593.6,168.99Z" transform="translate(-589.333 -160.145)" fill="#de7274"/>
              </g>
              <path id="Trazado_1725" data-name="Trazado 1725" d="M603.954,146.608c-2.031,9.766-14.992,23.7-14.992,23.7l6.954-40.771,8.573,10.267Z" transform="translate(-515.324 -75.712)" fill="#472948"/>
              <g id="Grupo_9926" data-name="Grupo 9926" transform="translate(0 70.465)">
                <path id="Trazado_1726" data-name="Trazado 1726" d="M521.418,159.667a9.469,9.469,0,1,1-8.271-10.532A9.47,9.47,0,0,1,521.418,159.667Z" transform="translate(-502.547 -149.066)" fill="#e78882"/>
                <path id="Trazado_1727" data-name="Trazado 1727" d="M517.953,159.9a5.24,5.24,0,1,1-4.577-5.828A5.24,5.24,0,0,1,517.953,159.9Z" transform="translate(-503.28 -149.8)" fill="#de7274"/>
              </g>
              <path id="Trazado_1728" data-name="Trazado 1728" d="M511.977,135.653c-.342,9.97,8.948,26.574,8.948,26.574l2.908-41.257-10.762,7.942Z" transform="translate(-503.94 -74.446)" fill="#472948"/>
              <path id="Trazado_1729" data-name="Trazado 1729" d="M557.715,99.4a33.9,33.9,0,0,0-37.7,29.608l-1.661,13.812a51.611,51.611,0,0,0,10.924,38.382,26.343,26.343,0,0,0,36.673,4.409,51.611,51.611,0,0,0,19.71-34.7l1.661-13.812A33.9,33.9,0,0,0,557.715,99.4Z" transform="translate(-504.829 -71.221)" fill="#eba588"/>
              <path id="Trazado_1730" data-name="Trazado 1730" d="M542.132,154.911a2.865,2.865,0,1,1-2.5-3.186A2.864,2.864,0,0,1,542.132,154.911Z" transform="translate(-507.556 -78.991)" fill="#422c4f"/>
              <path id="Trazado_1731" data-name="Trazado 1731" d="M572.2,158.525a2.865,2.865,0,1,0,3.186-2.5A2.865,2.865,0,0,0,572.2,158.525Z" transform="translate(-512.843 -79.626)" fill="#422c4f"/>
              <path id="Trazado_1732" data-name="Trazado 1732" d="M560.536,173.352a27.959,27.959,0,0,0-11.488-1.332c.934,2.073,2.516,3.832,4.761,4.187S559.007,175.035,560.536,173.352Z" transform="translate(-509.422 -81.977)" fill="#e78882"/>
              <path id="Trazado_1733" data-name="Trazado 1733" d="M593.487,105.528c-1.606-3.791-3.982-7.2-5.956-10.813-2.843-5.2-4.875-10.873-8.323-15.7S567.684,67.3,560.771,66.469s-16.393,3.952-20.886,7.822-7.812,8.9-11.806,13.278c-2.775,3.043-5.89,5.79-8.349,9.092S515.473,104,515.869,108.1l40.369-3.917,38.29,13.373C595.883,113.666,595.093,109.318,593.487,105.528Z" transform="translate(-504.508 -66.373)" fill="#566884"/>
              <path id="Trazado_1734" data-name="Trazado 1734" d="M595.833,137.126c-.193-1.577-.959-3.073-.933-4.662s.841-3.055,1.2-4.607c1.59-6.855-6.175-12.223-10.95-15.494a67.243,67.243,0,0,0-18.878-9.331,63.452,63.452,0,0,0-20.4-2.452,67.278,67.278,0,0,0-20.553,4.591c-5.414,2.046-14.229,5.42-14.31,12.457-.018,1.593.428,3.207.075,4.761s-1.45,2.821-2.012,4.308c-.678,1.8-.581,4.87.95,6.287,1,.921,1.126.048,1.815-.884a24.2,24.2,0,0,1,1.812-2.16c9.852-10.508,26.176-10.014,40.041-8.348s29.842,5.057,36.922,17.6a24.331,24.331,0,0,1,1.248,2.528c.449,1.068.369,1.947,1.553,1.288C595.244,142,596.066,139.033,595.833,137.126Z" transform="translate(-503.453 -71.422)" fill="#454f6b"/>
              <g id="Grupo_9927" data-name="Grupo 9927" transform="translate(23.292 58.538)">
                <path id="Trazado_1735" data-name="Trazado 1735" d="M538.228,135.088a11.419,11.419,0,0,0-8.348,4.439,140.735,140.735,0,0,0,17.154-1A11.418,11.418,0,0,0,538.228,135.088Z" transform="translate(-529.88 -135.069)" fill="#472948"/>
              </g>
              <g id="Grupo_9928" data-name="Grupo 9928" transform="translate(56.957 62.234)">
                <path id="Trazado_1736" data-name="Trazado 1736" d="M578.758,139.9a11.419,11.419,0,0,1,7.058,6.291,141,141,0,0,1-16.429-5.034A11.418,11.418,0,0,1,578.758,139.9Z" transform="translate(-569.387 -139.406)" fill="#472948"/>
              </g>
              <path id="Trazado_1737" data-name="Trazado 1737" d="M556.115,195.676l-7.363-.631a5.049,5.049,0,0,0,3.6,2.21A4.738,4.738,0,0,0,556.115,195.676Z" transform="translate(-509.379 -85.399)" fill="#e78882"/>
              <g id="Grupo_9929" data-name="Grupo 9929" transform="translate(12.793 63.264)">
                <path id="Trazado_1738" data-name="Trazado 1738" d="M546.273,145.146a48.974,48.974,0,0,0-7.347-1.457,43.461,43.461,0,0,0-16.451,1.012c-.075.879-.029,2.212-.029,2.212l.052,1.388a30.712,30.712,0,0,0,.875,6.183,8.725,8.725,0,0,0,2.641,4.508c1.945,1.622,4.836,2.125,8.136,2.573.387.053.777.1,1.169.152a11.523,11.523,0,0,0,4.985-.193,7.406,7.406,0,0,0,3.836-3.443,23.841,23.841,0,0,0,2.045-5.594C546.656,150.778,547.785,145.569,546.273,145.146Z" transform="translate(-518.28 -141.018)" fill="#fff" opacity="0.4"/>
                <path id="Trazado_1739" data-name="Trazado 1739" d="M542.331,141.565c-8.363-1.589-17.389-1.254-24.772,1.535l.337,4.4c.431.078.863.134,1.3.227a33.719,33.719,0,0,0,.975,6.872,10.9,10.9,0,0,0,3.4,5.706c2.58,2.152,6.209,2.708,9.617,3.171,2.49.338,5.1.666,7.445-.139a9.681,9.681,0,0,0,5.079-4.466,26.426,26.426,0,0,0,2.32-6.287c.4-1.438,2.617-1.835,4.169-1.648s3.617,1.1,3.661,2.59a26.5,26.5,0,0,0,.763,6.658,9.685,9.685,0,0,0,3.876,5.541c2.083,1.338,4.7,1.639,7.2,1.9,3.421.358,7.077.678,10.094-.8a10.9,10.9,0,0,0,4.654-4.738,33.7,33.7,0,0,0,2.576-6.445c.441.013.874.06,1.312.087l1.369-4.2c-6.512-4.459-15.2-6.924-23.7-7.362A160.014,160.014,0,0,1,542.331,141.565Zm3.134,10.517a23.839,23.839,0,0,1-2.045,5.594,7.406,7.406,0,0,1-3.836,3.443,11.523,11.523,0,0,1-4.985.193c-.392-.047-.782-.1-1.169-.152-3.3-.448-6.192-.951-8.136-2.573a8.725,8.725,0,0,1-2.641-4.508,30.708,30.708,0,0,1-.875-6.183l-.052-1.388s-.046-1.334.029-2.212a43.461,43.461,0,0,1,16.451-1.011,48.973,48.973,0,0,1,7.347,1.457C547.064,145.166,545.935,150.375,545.466,152.082Zm37.378,1.774-.379,1.336a30.609,30.609,0,0,1-2.316,5.8,8.72,8.72,0,0,1-3.634,3.754c-2.274,1.115-5.2.919-8.514.572-.389-.041-.78-.083-1.172-.13a11.53,11.53,0,0,1-4.8-1.369,7.413,7.413,0,0,1-2.911-4.255,23.884,23.884,0,0,1-.66-5.92c-.051-1.771.086-7.1,1.655-7.151a49.058,49.058,0,0,1,7.483.326,43.443,43.443,0,0,1,15.741,4.882C583.2,152.572,582.844,153.856,582.844,153.856Z" transform="translate(-517.559 -140.615)" fill="#fff"/>
                <path id="Trazado_1740" data-name="Trazado 1740" d="M567.21,147.508c-1.569.054-1.706,5.38-1.655,7.151a23.884,23.884,0,0,0,.66,5.92,7.412,7.412,0,0,0,2.911,4.255,11.53,11.53,0,0,0,4.8,1.369c.392.047.783.089,1.172.13,3.312.347,6.24.544,8.514-.572a8.721,8.721,0,0,0,3.634-3.754,30.613,30.613,0,0,0,2.316-5.8l.379-1.336s.36-1.284.5-2.156a43.444,43.444,0,0,0-15.741-4.882A49.056,49.056,0,0,0,567.21,147.508Z" transform="translate(-524.655 -141.63)" fill="#fff" opacity="0.4"/>
              </g>
              <g id="Grupo_9930" data-name="Grupo 9930" transform="translate(18.551 67.196)" opacity="0.5">
                <path id="Trazado_1741" data-name="Trazado 1741" d="M524.317,148.524a2.789,2.789,0,0,0,.961,2.219,1.71,1.71,0,0,0,2.268-.122,2.775,2.775,0,0,0,.464-1.693,6.467,6.467,0,0,0-.118-2.08,2.188,2.188,0,0,0-1.3-1.53C524.8,144.718,524.312,147.323,524.317,148.524Z" transform="translate(-524.317 -145.229)" fill="#fff"/>
                <path id="Trazado_1742" data-name="Trazado 1742" d="M526.728,159.1a3.241,3.241,0,0,0,.878,1.126,1.276,1.276,0,0,0,1.351.148,1.3,1.3,0,0,0,.566-1.109,3.818,3.818,0,0,0-.27-1.265c-.374-1.117-.969-4.642-2.879-3.606C524.6,155.352,526.081,157.908,526.728,159.1Z" transform="translate(-524.497 -146.556)" fill="#fff"/>
              </g>
              <g id="Grupo_9931" data-name="Grupo 9931" transform="translate(54.911 71.116)" opacity="0.5">
                <path id="Trazado_1743" data-name="Trazado 1743" d="M566.986,153.125a2.789,2.789,0,0,0,.962,2.219,1.709,1.709,0,0,0,2.267-.123,2.775,2.775,0,0,0,.465-1.693,6.465,6.465,0,0,0-.118-2.079,2.188,2.188,0,0,0-1.3-1.531C567.473,149.319,566.981,151.924,566.986,153.125Z" transform="translate(-566.986 -149.829)" fill="#fff"/>
                <path id="Trazado_1744" data-name="Trazado 1744" d="M569.4,163.7a3.24,3.24,0,0,0,.877,1.126,1.276,1.276,0,0,0,1.352.147,1.3,1.3,0,0,0,.565-1.108,3.836,3.836,0,0,0-.269-1.265c-.375-1.117-.97-4.642-2.879-3.606C567.271,159.953,568.751,162.509,569.4,163.7Z" transform="translate(-567.166 -151.156)" fill="#fff"/>
              </g>
              <ellipse id="Elipse_519" data-name="Elipse 519" cx="5.919" cy="13.085" rx="5.919" ry="13.085" transform="translate(30.699 107.904) rotate(-85.207)" fill="#fff"/>
            </g>
          </g>
          <g id="Grupo_9949" data-name="Grupo 9949" transform="translate(0 7.75)">
            <g id="Grupo_9934" data-name="Grupo 9934" transform="translate(13.988)">
              <path id="Trazado_1745" data-name="Trazado 1745" d="M81.873,160.676,95.56,116.785a16.958,16.958,0,0,0-1.21-10.178h0a16.959,16.959,0,0,1-1.419-8.768l.682-6.5,35.632,2.992-5.368,18.846-6.98,2.343L107.2,166.293Z" transform="translate(-81.873 -77.815)" fill="#a64f5a"/>
              <path id="Trazado_1746" data-name="Trazado 1746" d="M94.766,82.308l-.675,7.777a5.347,5.347,0,0,0,4.591,5.759l22.4,3.111a6.417,6.417,0,0,0,7.111-4.809l2.872-11.561a4.278,4.278,0,0,0-3.838-5.3l-24.451-1.8A7.487,7.487,0,0,0,94.766,82.308Z" transform="translate(-83.677 -75.468)" fill="#bd6c67"/>
              <path id="Trazado_1747" data-name="Trazado 1747" d="M118.159,90.438,133.62,91a4.278,4.278,0,0,1,4.112,4.6l-.556,7.2a11.441,11.441,0,0,1-8.725,10.242h0l-6.98,2.343-8.667-1.655h0A15.6,15.6,0,0,1,125.673,103.1l1.911-.242.8-4.2-1.891-.176a9.273,9.273,0,0,1-8.336-8.037Z" transform="translate(-86.447 -77.682)" fill="#b56361"/>
            </g>
            <path id="Trazado_1748" data-name="Trazado 1748" d="M254.595,175.281c.165-4.494-1.624-10.146-5.094-13.008a17.418,17.418,0,0,0,2.611-15.817c-1.656-5.31-6.212-10.156-10.954-13.062a17.472,17.472,0,0,0-16.609-23.028,17.4,17.4,0,0,0-7.65-15.875c-5.171-3.372-12.239-3.284-17.627-.27-.418-6.925-19.038-11.567-20.482,0-5.389-3.014-12.457-3.1-17.628.27a17.4,17.4,0,0,0-7.65,15.875A17.472,17.472,0,0,0,136.9,133.395c-4.741,2.906-9.3,7.752-10.954,13.062a17.418,17.418,0,0,0,2.611,15.817c-3.469,2.862-5.259,8.514-5.094,13.008a14.937,14.937,0,0,0,6.194,11.456c-3.406,3.535-4.775,10.555-4,15.4a16.168,16.168,0,0,0,8.274,11.548c-2.918,4.412-3.841,10.492-1.558,15.263,15.695-5.55,31.8-10.612,47.5-16.162-.037-8.043-.279-16.329-.316-24.372-10.8-7.364-18.028-16.844-17.667-29.593a58.3,58.3,0,0,1,1.313-8.144c3.385-11.316,6.735-14.942,14.891-19.445a91.449,91.449,0,0,0,10.936-6.878,91.371,91.371,0,0,0,10.935,6.878c8.156,4.5,11.506,8.129,14.891,19.445a58.307,58.307,0,0,1,1.313,8.144c.36,12.749-6.869,22.229-17.667,29.593-.037,8.043-.279,16.329-.315,24.372,15.694,5.551,31.8,10.613,47.495,16.162,2.284-4.771,1.36-10.851-1.557-15.263a16.169,16.169,0,0,0,8.273-11.548c.777-4.847-.592-11.867-4-15.4A14.937,14.937,0,0,0,254.595,175.281Z" transform="translate(-74.034 -77.2)" fill="#3c3247"/>
            <g id="Grupo_9935" data-name="Grupo 9935" transform="translate(0 66.883)">
              <path id="Trazado_1749" data-name="Trazado 1749" d="M113.72,426.911l11.413-90.687a22.215,22.215,0,0,0-2.993-14.206h0a27.76,27.76,0,0,1-2.989-21.539l9.281-34.257A320.808,320.808,0,0,1,80.41,246.306a27.805,27.805,0,0,1-14.7-28.368l2.831-20.844a43.364,43.364,0,0,0,.153-10.409l-3.126-29.5h0a41.024,41.024,0,0,1,41.024,5.334l1.777,1.373-6.019,52.7h25.463a104.231,104.231,0,0,1,25.862,3.259l5.061,1.3,26.709,8.275,24.576-9.592,14.194,2.263a31.976,31.976,0,0,1,25.675,22.664l16.912,58.27-30.2,36.615,7.633,87.273Z" transform="translate(-65.458 -153.957)" fill="#21c3fd"/>
              <path id="Trazado_1750" data-name="Trazado 1750" d="M174.4,232.572c-7.231,17.345.042,37.2,7.524,45.767l17.512-28.923-1.4,19.561,4.41,41.63-1-65.935L219.67,277c14.712-20.565,6.019-45.748,6.019-45.748l-24.576,9.592Z" transform="translate(-81.126 -165.387)" fill="#4987e5"/>
              <path id="Trazado_1751" data-name="Trazado 1751" d="M183.583,222.868l-8.8,8.464c-3.887,25.7,7.524,38.621,7.524,38.621l19.185-30.345Z" transform="translate(-81.503 -164.146)" fill="#8ee1fe"/>
              <path id="Trazado_1752" data-name="Trazado 1752" d="M230.84,229.591,219.3,220l-13.04,19.185,19.184,26.835C234.728,249.716,230.84,229.591,230.84,229.591Z" transform="translate(-86.278 -163.722)" fill="#8ee1ff"/>
              <path id="Trazado_1753" data-name="Trazado 1753" d="M107.091,227.454l-.758,8.031a11.673,11.673,0,0,1-2.031,5.558l-6.783,9.776,5.982-3.277a11.736,11.736,0,0,0,5.559-13.8Z" transform="translate(-70.199 -164.825)" fill="#4987e5"/>
            </g>
            <path id="Trazado_1754" data-name="Trazado 1754" d="M183.75,205.1l1.63,18.934c6.019,10.533,17.555,12.664,17.555,12.664,10.031-3.511,13.04-15.047,13.04-15.047V203.223Z" transform="translate(-82.949 -94.358)" fill="#bd6c67"/>
            <path id="Trazado_1755" data-name="Trazado 1755" d="M200.742,222.3c5.3-.389,9.956-3.927,13-8.283a31.042,31.042,0,0,0,2.236-3.791v-7L183.75,205.1l.726,8.437a30.56,30.56,0,0,0,2.568,2.92C190.674,220.072,195.636,222.676,200.742,222.3Z" transform="translate(-82.949 -94.358)" fill="#3c3247"/>
            <g id="Grupo_9948" data-name="Grupo 9948" transform="translate(66.781 21.967)">
              <g id="Grupo_9937" data-name="Grupo 9937" transform="translate(75.039 50.198)">
                <g id="Grupo_9936" data-name="Grupo 9936">
                  <circle id="Elipse_520" data-name="Elipse 520" cx="10.696" cy="10.696" r="10.696" fill="#a64f5a"/>
                  <circle id="Elipse_521" data-name="Elipse 521" cx="6.046" cy="6.046" r="6.046" transform="translate(4.65 4.65)" fill="#8c404c"/>
                </g>
                <path id="Trazado_1756" data-name="Trazado 1756" d="M242.107,184.914a1.986,1.986,0,1,0,1.986-1.985A1.986,1.986,0,0,0,242.107,184.914Z" transform="translate(-233.398 -163.523)" fill="#fff"/>
              </g>
              <g id="Grupo_9939" data-name="Grupo 9939" transform="translate(0 50.198)">
                <g id="Grupo_9938" data-name="Grupo 9938">
                  <path id="Trazado_1757" data-name="Trazado 1757" d="M165.219,170.852a10.7,10.7,0,1,1-10.7-10.7A10.7,10.7,0,0,1,165.219,170.852Z" transform="translate(-143.827 -160.156)" fill="#a64f5a"/>
                  <path id="Trazado_1758" data-name="Trazado 1758" d="M161.376,171.659a6.046,6.046,0,1,1-6.046-6.046A6.046,6.046,0,0,1,161.376,171.659Z" transform="translate(-144.634 -160.963)" fill="#8c404c"/>
                </g>
                <path id="Trazado_1759" data-name="Trazado 1759" d="M158.021,184.914a1.986,1.986,0,1,1-1.986-1.985A1.986,1.986,0,0,1,158.021,184.914Z" transform="translate(-145.338 -163.523)" fill="#fff"/>
              </g>
              <g id="Grupo_9947" data-name="Grupo 9947" transform="translate(12.641)">
                <g id="Grupo_9946" data-name="Grupo 9946" transform="translate(2.986 12.683)">
                  <path id="Trazado_1760" data-name="Trazado 1760" d="M194.754,116.131h0c-18,0-32.587,8.165-32.587,26.163V161.34a43.133,43.133,0,0,0,13.986,31.794l1.357,1.243a24.253,24.253,0,0,0,16.387,6.375h1.715A24.251,24.251,0,0,0,212,194.378l1.357-1.243a43.133,43.133,0,0,0,13.986-31.794V142.294C227.342,124.3,212.751,116.131,194.754,116.131Z" transform="translate(-162.166 -116.131)" fill="#bd6c67"/>
                  <g id="Grupo_9945" data-name="Grupo 9945" transform="translate(10.786 25.474)">
                    <path id="Trazado_1761" data-name="Trazado 1761" d="M185.763,159.643a2.956,2.956,0,1,1-2.956-2.957A2.956,2.956,0,0,1,185.763,159.643Z" transform="translate(-175.567 -147.602)" fill="#3c3247"/>
                    <path id="Trazado_1762" data-name="Trazado 1762" d="M214.028,159.643a2.956,2.956,0,1,0,2.957-2.957A2.956,2.956,0,0,0,214.028,159.643Z" transform="translate(-180.621 -147.602)" fill="#3c3247"/>
                    <path id="Trazado_1763" data-name="Trazado 1763" d="M207.623,180.007a56.887,56.887,0,0,0-15.269-.355,9.878,9.878,0,0,0,7.506,4.917C202.926,184.829,205.681,182.392,207.623,180.007Z" transform="translate(-177.416 -150.946)" fill="#a64f5a"/>
                    <g id="Grupo_9940" data-name="Grupo 9940">
                      <path id="Trazado_1764" data-name="Trazado 1764" d="M182.763,146.038a10,10,0,0,0-7.939,4.462l16.268-.777A10,10,0,0,0,182.763,146.038Z" transform="translate(-174.824 -146.026)" fill="#3c3247"/>
                    </g>
                    <g id="Grupo_9941" data-name="Grupo 9941" transform="translate(27.335)">
                      <path id="Trazado_1765" data-name="Trazado 1765" d="M215.231,146.038a10,10,0,0,1,7.939,4.462l-16.268-.777A10,10,0,0,1,215.231,146.038Z" transform="translate(-206.902 -146.026)" fill="#3c3247"/>
                    </g>
                    <g id="Grupo_9942" data-name="Grupo 9942" transform="translate(1.685 16.376)">
                      <path id="Trazado_1766" data-name="Trazado 1766" d="M187.61,166.69a12.071,12.071,0,0,0-10.809-.324,36.377,36.377,0,0,0,10.809.324Z" transform="translate(-176.801 -165.243)" fill="#a64f5a"/>
                    </g>
                    <g id="Grupo_9943" data-name="Grupo 9943" transform="translate(31.109 16.376)">
                      <path id="Trazado_1767" data-name="Trazado 1767" d="M211.331,166.69a12.071,12.071,0,0,1,10.809-.324,36.377,36.377,0,0,1-10.809.324Z" transform="translate(-211.331 -165.243)" fill="#a64f5a"/>
                    </g>
                    <g id="Grupo_9944" data-name="Grupo 9944" transform="translate(10.161 38.239)">
                      <path id="Trazado_1768" data-name="Trazado 1768" d="M202.52,191.023a2.56,2.56,0,0,0-2.112.25l-1.248.76-1.248-.76a2.56,2.56,0,0,0-2.112-.25c-3.854,1.23-9.051,4.746-9.051,4.746,3.994,6.442,8.106,8.053,12.411,8.053s8.417-1.611,12.412-8.053C211.572,195.769,206.375,192.252,202.52,191.023Zm-3.361,9.771a14.68,14.68,0,0,1-11.27-4.767s7.04-2.578,11.27-2.578,11.27,2.578,11.27,2.578A14.683,14.683,0,0,1,199.159,200.794Z" transform="translate(-186.748 -190.9)" fill="#aa3045"/>
                      <path id="Trazado_1769" data-name="Trazado 1769" d="M199.358,193.892c-4.23,0-11.27,2.578-11.27,2.578a15.706,15.706,0,0,0,22.54,0S203.588,193.892,199.358,193.892Z" transform="translate(-186.946 -191.343)" fill="#fff"/>
                    </g>
                  </g>
                </g>
                <path id="Trazado_1770" data-name="Trazado 1770" d="M180.961,103.72a34.426,34.426,0,0,0-19.089,17.672A42.119,42.119,0,0,0,158.7,140.14c.2,5.683,1.871,12.194,2.948,17.782.042-1.47-.432-3.824,0-5.269,3.385-11.316,13.5-14.837,21.652-19.34s17.007-10.044,21.1-18.411c1.753-3.581,1.194-8.424.127-12.491A40.247,40.247,0,0,0,180.961,103.72Z" transform="translate(-158.661 -101.247)" fill="#3c3247"/>
              </g>
            </g>
          </g>
          <g id="Grupo_9953" data-name="Grupo 9953" transform="translate(70.33 196.159)">
            <rect id="Rectángulo_2687" data-name="Rectángulo 2687" width="381.192" height="151.428" fill="#370c7d"/>
            <g id="Grupo_9952" data-name="Grupo 9952" transform="translate(262.33 29.512)">
              <g id="Grupo_9951" data-name="Grupo 9951" transform="translate(0)">
                <path id="Trazado_1771" data-name="Trazado 1771" d="M462.967,400.825l-2.213-4.889a55.2,55.2,0,0,1-4.765-26.8l1.84-25.066,57.714-9.321-5.974,66.079Z" transform="translate(-455.841 -319.125)" fill="#370c7d"/>
                <path id="Trazado_1772" data-name="Trazado 1772" d="M458.174,344.067l4.2,14.272a8.007,8.007,0,0,0,9.481,5.541l5.435-1.254h0a17.42,17.42,0,0,0,13.981,3.91l.188-.03h0a33.347,33.347,0,0,0-4.848,19.246l.6,10.731,31.665-43.216.677-2.987-3.665-15.534Z" transform="translate(-456.186 -319.125)" fill="#370c7d"/>
                <path id="Trazado_1773" data-name="Trazado 1773" d="M457.065,342.114l6.625,15.934a6.651,6.651,0,0,0,8.4,3.7h0a6.652,6.652,0,0,0,4.17-7.973l-5.831-21.821-1.767-.3a10.375,10.375,0,0,0-11.792,7.6h0A4.485,4.485,0,0,0,457.065,342.114Z" transform="translate(-455.972 -318.645)" fill="#370c7d"/>
                <path id="Trazado_1774" data-name="Trazado 1774" d="M472.8,330.929h0A11.675,11.675,0,0,1,489,326.093l.378.216,5.418,23.261a8.18,8.18,0,0,1-6.348,9.874h0a8.181,8.181,0,0,1-9.517-5.881Z" transform="translate(-458.35 -317.618)" fill="#370c7d"/>
                <path id="Trazado_1775" data-name="Trazado 1775" d="M492.249,325.625l.165-.272a11.281,11.281,0,0,1,15.926-3.508l2.372,1.628-1.167,7.193L512.2,347.1a7.291,7.291,0,0,1-5.468,8.247h0a7.29,7.29,0,0,1-8.83-5.429Z" transform="translate(-461.225 -316.934)" fill="#370c7d"/>
                <path id="Trazado_1776" data-name="Trazado 1776" d="M513.815,322.338l-1.267,7.808,2.128,13.156a7.867,7.867,0,0,0,9.262,6.467h0a7.867,7.867,0,0,0,6.078-5.605l4.2-15.037-6.247-9.109a7.055,7.055,0,0,0-3.249-2.581l-1.379-.539a7.052,7.052,0,0,0-6.629.8h0A7.05,7.05,0,0,0,513.815,322.338Z" transform="translate(-464.226 -316.414)" fill="#370c7d"/>
                <path id="Trazado_1777" data-name="Trazado 1777" d="M515.345,394.966l16.479-17.725A39.578,39.578,0,0,0,542.108,355.2l1.853-14.826a6.9,6.9,0,0,0-4.688-7.406l-25.246-8.3a3.6,3.6,0,0,0-4.73,3.424h0A21.377,21.377,0,0,0,522.1,347.675l2.487,1.088-.677,2.987-11.985,4.9a31.663,31.663,0,0,0-17.307,17.281h0a31.664,31.664,0,0,0-2.373,12.027v9.007Z" transform="translate(-461.225 -317.607)" fill="#370c7d"/>
                <path id="Trazado_1778" data-name="Trazado 1778" d="M526.016,327.426l-2.816,8.147-.045-.033a9.018,9.018,0,0,1-3.137-10.086h0Z" transform="translate(-465.261 -317.751)" fill="#370c7d"/>
                <g id="Grupo_9950" data-name="Grupo 9950" transform="translate(14.393 6.397)">
                  <path id="Trazado_1779" data-name="Trazado 1779" d="M473.672,333.633a.478.478,0,0,0-.924.246l5.414,20.283a.479.479,0,0,0,.462.354.446.446,0,0,0,.124-.017.478.478,0,0,0,.339-.585Z" transform="translate(-472.732 -325.305)" fill="#370c7d"/>
                  <path id="Trazado_1780" data-name="Trazado 1780" d="M493.079,328.339a.479.479,0,0,0-.932.216l5.038,21.627a.478.478,0,0,0,.465.37.426.426,0,0,0,.108-.013.477.477,0,0,0,.358-.573Z" transform="translate(-475.601 -324.52)" fill="#370c7d"/>
                  <path id="Trazado_1781" data-name="Trazado 1781" d="M534.684,329.928l-15.674-5.154h0l-1.957-.644a4.083,4.083,0,0,0-5.358,3.879,21.836,21.836,0,0,0,.548,4.852v.008l1.836,11.619a.479.479,0,0,0,.471.4.447.447,0,0,0,.076-.006.478.478,0,0,0,.4-.546l-1.05-6.641a21.827,21.827,0,0,0,10.815,10.331.464.464,0,0,0,.192.041.478.478,0,0,0,.191-.916,20.9,20.9,0,0,1-12.521-19.145,3.126,3.126,0,0,1,4.1-2.971l1.516.5a9.472,9.472,0,0,0,3.438,10.158l.521.39,2.921-8.286,9.236,3.037a.478.478,0,0,0,.3-.908Zm-12.916,4.587a8.507,8.507,0,0,1-2.575-8.674l5.048,1.66Z" transform="translate(-478.493 -323.921)" fill="#370c7d"/>
                </g>
              </g>
              <path id="Trazado_1782" data-name="Trazado 1782" d="M464.2,412.291v40.216l51.7-.579-5.1-39.637Z" transform="translate(-457.078 -330.591)" fill="#370c7d"/>
              <path id="Trazado_1783" data-name="Trazado 1783" d="M472.732,412.291l6.507,1.936a25.065,25.065,0,0,0,10.3.842l11.1-1.4-8.473,4.97a11.017,11.017,0,0,0-5.278,7.616L484.3,441.136l-1.377-16.407a11.013,11.013,0,0,0-4.2-7.76Z" transform="translate(-458.339 -330.591)" fill="#370c7d"/>
            </g>
          </g>
          <g id="Grupo_9974" data-name="Grupo 9974" transform="translate(160.989 6.95)">
            <g id="Grupo_9971" data-name="Grupo 9971" transform="translate(17.79)">
              <g id="Grupo_9959" data-name="Grupo 9959" transform="translate(0 94.948)">
                <g id="Grupo_9957" data-name="Grupo 9957" transform="translate(0 17.602)">
                  <g id="Grupo_9954" data-name="Grupo 9954">
                    <path id="Trazado_1784" data-name="Trazado 1784" d="M451.909,264.666a41.345,41.345,0,0,0-24.925-28.627L411.8,230.018a14.277,14.277,0,0,1-.614,4.914l-15.921,51.8H457.3Z" transform="translate(-293.004 -210.07)" fill="#454f6b"/>
                    <path id="Trazado_1785" data-name="Trazado 1785" d="M384.574,222.995a19.406,19.406,0,0,1-31.831,0l-1.383-1.983,7.349,64.386h19.9l7.349-64.386Z" transform="translate(-286.511 -208.739)" fill="#a34262"/>
                    <path id="Trazado_1786" data-name="Trazado 1786" d="M320.755,230.018l-15.183,6.021a41.345,41.345,0,0,0-24.925,28.627l-5.388,22.064h62.032l-15.922-51.8A14.3,14.3,0,0,1,320.755,230.018Z" transform="translate(-275.259 -210.07)" fill="#454f6b"/>
                    <path id="Trazado_1787" data-name="Trazado 1787" d="M351.357,217.55V206.609l-15.117,8.01a14.311,14.311,0,0,0-6.98,16.852l15.922,51.8h10.165L348,218.882Z" transform="translate(-283.15 -206.609)" fill="#55617c"/>
                    <path id="Trazado_1788" data-name="Trazado 1788" d="M410.038,226.557a14.314,14.314,0,0,0-7.594-11.938l-15.117-8.01V217.55l3.358,1.332-7.349,64.386H393.5l15.921-51.8A14.277,14.277,0,0,0,410.038,226.557Z" transform="translate(-291.24 -206.609)" fill="#55617c"/>
                  </g>
                  <g id="Grupo_9955" data-name="Grupo 9955" transform="translate(22.564 36.992)" opacity="0.5">
                    <path id="Trazado_1789" data-name="Trazado 1789" d="M310.119,287.6a51.825,51.825,0,0,0-8.381-37.575c1.677,5.176,3.795,11.778,5.284,18.544C308.549,275.321,309.437,282.2,310.119,287.6Z" transform="translate(-301.738 -250.02)" fill="#3c3247"/>
                  </g>
                  <g id="Grupo_9956" data-name="Grupo 9956" transform="translate(132.636 36.992)" opacity="0.5">
                    <path id="Trazado_1790" data-name="Trazado 1790" d="M431.624,287.6A51.831,51.831,0,0,1,440,250.02c-1.676,5.176-3.795,11.778-5.284,18.544C433.193,275.321,432.3,282.2,431.624,287.6Z" transform="translate(-430.91 -250.02)" fill="#3c3247"/>
                  </g>
                </g>
                <g id="Grupo_9958" data-name="Grupo 9958" transform="translate(64.848)">
                  <path id="Trazado_1791" data-name="Trazado 1791" d="M381.7,206.284c-3.382,4.648-7.8,7.227-12.393,7.227h-1.3c-4.589,0-9.01-2.579-12.393-7.227l-.9-1.236V217.32l-3.358,1.332,1.383,1.983a19.406,19.406,0,0,0,31.831,0l1.383-1.983L382.6,217.32V205.048Z" transform="translate(-351.36 -188.776)" fill="#bd6c67"/>
                  <path id="Trazado_1792" data-name="Trazado 1792" d="M368.593,210.687h1.3c4.589,0,9.01-2.579,12.393-7.227l.9-1.236V185.953H355.3v16.272l.9,1.236C359.583,208.109,364,210.687,368.593,210.687Z" transform="translate(-351.943 -185.953)" fill="#3c3247"/>
                </g>
              </g>
              <g id="Grupo_9970" data-name="Grupo 9970" transform="translate(25.577)">
                <circle id="Elipse_522" data-name="Elipse 522" cx="56.57" cy="56.57" r="56.57" fill="#3c3247"/>
                <g id="Grupo_9962" data-name="Grupo 9962" transform="translate(10.563 68.088)">
                  <g id="Grupo_9960" data-name="Grupo 9960">
                    <path id="Trazado_1793" data-name="Trazado 1793" d="M338.082,164.638a10.206,10.206,0,1,1-10.206-10.206A10.206,10.206,0,0,1,338.082,164.638Z" transform="translate(-317.67 -154.432)" fill="#a64f5a"/>
                    <path id="Trazado_1794" data-name="Trazado 1794" d="M334.415,165.408a5.769,5.769,0,1,1-5.769-5.769A5.769,5.769,0,0,1,334.415,165.408Z" transform="translate(-318.44 -155.202)" fill="#8c404c"/>
                  </g>
                  <g id="Grupo_9961" data-name="Grupo 9961" transform="translate(71.602)">
                    <path id="Trazado_1795" data-name="Trazado 1795" d="M401.7,164.638A10.206,10.206,0,1,0,411.9,154.432,10.206,10.206,0,0,0,401.7,164.638Z" transform="translate(-401.696 -154.432)" fill="#a64f5a"/>
                    <path id="Trazado_1796" data-name="Trazado 1796" d="M406.9,165.408a5.769,5.769,0,1,0,5.768-5.769A5.768,5.768,0,0,0,406.9,165.408Z" transform="translate(-402.466 -155.202)" fill="#8c404c"/>
                  </g>
                </g>
                <g id="Grupo_9963" data-name="Grupo 9963" transform="translate(20.769 55.696)">
                  <path id="Trazado_1797" data-name="Trazado 1797" d="M331.146,158.272h3.207l2.1-18.383h-6.805Z" transform="translate(-329.647 -139.889)" fill="#3c3247"/>
                  <path id="Trazado_1798" data-name="Trazado 1798" d="M405.687,139.889l2.1,18.383h3.207l1.5-18.383Z" transform="translate(-340.89 -139.889)" fill="#3c3247"/>
                </g>
                <path id="Trazado_1799" data-name="Trazado 1799" d="M366.264,119.539c-12.461,0-23.235,2.544-28.4,6.241a30.969,30.969,0,0,0-2.7,12.66v18.174a41.155,41.155,0,0,0,13.345,30.338l1.3,1.187a23.141,23.141,0,0,0,15.637,6.083h1.637a23.139,23.139,0,0,0,15.636-6.083l1.3-1.187a41.155,41.155,0,0,0,13.345-30.338V138.44a30.969,30.969,0,0,0-2.7-12.66C389.5,122.083,378.725,119.539,366.264,119.539Z" transform="translate(-309.694 -81.185)" fill="#bd6c67"/>
                <path id="Trazado_1800" data-name="Trazado 1800" d="M357.685,153.942a2.821,2.821,0,1,1-2.821-2.821A2.821,2.821,0,0,1,357.685,153.942Z" transform="translate(-312.189 -85.855)" fill="#3c3247"/>
                <path id="Trazado_1801" data-name="Trazado 1801" d="M384.656,153.942a2.821,2.821,0,1,0,2.821-2.821A2.821,2.821,0,0,0,384.656,153.942Z" transform="translate(-317.012 -85.855)" fill="#3c3247"/>
                <path id="Trazado_1802" data-name="Trazado 1802" d="M377.655,171.362a35.49,35.49,0,0,0-14.506-.007,10.539,10.539,0,0,0,7.425,4.135A7.613,7.613,0,0,0,377.655,171.362Z" transform="translate(-313.832 -88.736)" fill="#a64f5a"/>
                <g id="Grupo_9964" data-name="Grupo 9964" transform="translate(32.214 56.57)">
                  <path id="Trazado_1803" data-name="Trazado 1803" d="M352.884,140.938a12.593,12.593,0,0,0-9.806,3.86,182.536,182.536,0,0,0,19.079,1.147A12.588,12.588,0,0,0,352.884,140.938Z" transform="translate(-343.078 -140.916)" fill="#3c3247"/>
                </g>
                <g id="Grupo_9965" data-name="Grupo 9965" transform="translate(61.847 56.57)">
                  <path id="Trazado_1804" data-name="Trazado 1804" d="M387.126,140.938a12.592,12.592,0,0,1,9.806,3.86,182.536,182.536,0,0,1-19.078,1.147A12.588,12.588,0,0,1,387.126,140.938Z" transform="translate(-377.853 -140.916)" fill="#3c3247"/>
                </g>
                <g id="Grupo_9969" data-name="Grupo 9969" transform="translate(31.02 59.254)">
                  <g id="Grupo_9966" data-name="Grupo 9966">
                    <circle id="Elipse_523" data-name="Elipse 523" cx="9.381" cy="9.381" r="9.381" transform="translate(0.888 3.904) rotate(-9.249)" fill="#fff" opacity="0.3"/>
                    <circle id="Elipse_524" data-name="Elipse 524" cx="9.381" cy="9.381" r="9.381" transform="translate(28.679 3.904) rotate(-9.249)" fill="#fff" opacity="0.3"/>
                    <path id="Trazado_1805" data-name="Trazado 1805" d="M381.121,144.065a11.668,11.668,0,0,0-11.044,7.956,5.189,5.189,0,0,0-5.7,0,11.631,11.631,0,1,0,.612,3.7c0-.291-.022-.577-.043-.862h.043c0-.67.92-1.416,2.24-1.416s2.239.746,2.239,1.416h.044c-.021.285-.044.571-.044.862a11.656,11.656,0,1,0,11.656-11.656ZM343.95,155.721a9.381,9.381,0,1,1,9.381,9.38A9.392,9.392,0,0,1,343.95,155.721Zm27.79,0a9.381,9.381,0,1,1,9.381,9.38A9.392,9.392,0,0,1,371.74,155.721Z" transform="translate(-341.676 -144.065)" fill="#454f6b"/>
                  </g>
                  <g id="Grupo_9967" data-name="Grupo 9967" transform="translate(4.078 6.013)">
                    <path id="Trazado_1806" data-name="Trazado 1806" d="M350.079,152.531a1.411,1.411,0,1,1-1.41-1.41A1.411,1.411,0,0,1,350.079,152.531Z" transform="translate(-346.58 -151.121)" fill="#fff" opacity="0.5"/>
                    <path id="Trazado_1807" data-name="Trazado 1807" d="M347.819,155.842a.679.679,0,1,1-.679-.679A.679.679,0,0,1,347.819,155.842Z" transform="translate(-346.462 -151.719)" fill="#fff" opacity="0.5"/>
                  </g>
                  <g id="Grupo_9968" data-name="Grupo 9968" transform="translate(31.937 6.013)">
                    <path id="Trazado_1808" data-name="Trazado 1808" d="M382.772,152.531a1.411,1.411,0,1,1-1.411-1.41A1.411,1.411,0,0,1,382.772,152.531Z" transform="translate(-379.273 -151.121)" fill="#fff" opacity="0.5"/>
                    <path id="Trazado_1809" data-name="Trazado 1809" d="M380.512,155.842a.678.678,0,1,1-.678-.679A.678.678,0,0,1,380.512,155.842Z" transform="translate(-379.155 -151.719)" fill="#fff" opacity="0.5"/>
                  </g>
                </g>
                <path id="Trazado_1810" data-name="Trazado 1810" d="M396.946,161.462l-4.518,12.687a2.545,2.545,0,0,1-3.576,1.4l-3.213-1.68a11.356,11.356,0,0,0-6.515-1.225l-13.414,1.491-13.272-1.491a11.352,11.352,0,0,0-6.515,1.225l-3.214,1.68a2.545,2.545,0,0,1-3.576-1.4l-4.518-12.687h-3.207v7.911a41.157,41.157,0,0,0,5.793,21.055l.931,1.565a25.663,25.663,0,0,0,22.052,12.537h11.195a25.663,25.663,0,0,0,22.052-12.537l.931-1.565a41.157,41.157,0,0,0,5.793-21.055v-7.911ZM380.33,180.841l-2.36,7.063a4.585,4.585,0,0,1-4.719,3.116l-1.014-.083a6.17,6.17,0,0,1-4.041-1.972h-4.832a6.17,6.17,0,0,1-4.041,1.972l-1.014.083a4.585,4.585,0,0,1-4.719-3.116l-2.36-7.063a1.891,1.891,0,0,1,2.012-2.477l4.926.571a16.225,16.225,0,0,0,7.351-.845l.19-.069.332.069a16.225,16.225,0,0,0,7.351.845l4.926-.571A1.891,1.891,0,0,1,380.33,180.841Z" transform="translate(-309.138 -87.384)" fill="#3c3247"/>
                <ellipse id="Elipse_525" data-name="Elipse 525" cx="11.41" cy="4.451" rx="11.41" ry="4.451" transform="translate(45.16 92.799)" fill="#fff"/>
              </g>
            </g>
            <g id="Grupo_9972" data-name="Grupo 9972" transform="translate(161.377 176.642)">
              <path id="Trazado_1811" data-name="Trazado 1811" d="M460.887,306.185h0a4.648,4.648,0,0,1-4.645-4.459l-.672-16.5a3.273,3.273,0,0,1,3.271-3.405h4.092a3.272,3.272,0,0,1,3.27,3.405l-.672,16.5A4.648,4.648,0,0,1,460.887,306.185Z" transform="translate(-445.507 -281.822)" fill="#bd6c67"/>
              <path id="Trazado_1812" data-name="Trazado 1812" d="M451.1,307.165h0a4.516,4.516,0,0,1-4.948-3.827L443.8,287.472a3.178,3.178,0,0,1,2.805-3.628l3.952-.423a3.179,3.179,0,0,1,3.511,2.952l1.058,16A4.515,4.515,0,0,1,451.1,307.165Z" transform="translate(-443.761 -282.056)" fill="#bd6c67"/>
              <path id="Trazado_1813" data-name="Trazado 1813" d="M470.548,307.165h0a4.515,4.515,0,0,0,4.947-3.827l2.356-15.866a3.179,3.179,0,0,0-2.806-3.628l-3.952-.423a3.179,3.179,0,0,0-3.511,2.952l-1.058,16A4.515,4.515,0,0,0,470.548,307.165Z" transform="translate(-447.125 -282.056)" fill="#bd6c67"/>
              <path id="Trazado_1814" data-name="Trazado 1814" d="M478.595,306.109h0a3.6,3.6,0,0,0,4.39-2.37l3.911-12.18a2.536,2.536,0,0,0-1.738-3.219l-3.056-.846a2.535,2.535,0,0,0-3.145,1.868l-2.909,12.458A3.6,3.6,0,0,0,478.595,306.109Z" transform="translate(-448.521 -282.647)" fill="#bd6c67"/>
            </g>
            <g id="Grupo_9973" data-name="Grupo 9973" transform="translate(0 176.642)">
              <path id="Trazado_1815" data-name="Trazado 1815" d="M280.588,306.185h0a4.648,4.648,0,0,0,4.644-4.459l.671-16.5a3.272,3.272,0,0,0-3.27-3.405h-4.092a3.273,3.273,0,0,0-3.271,3.405l.671,16.5A4.648,4.648,0,0,0,280.588,306.185Z" transform="translate(-257.47 -281.822)" fill="#bd6c67"/>
              <path id="Trazado_1816" data-name="Trazado 1816" d="M290.249,307.165h0a4.515,4.515,0,0,0,4.947-3.827l2.356-15.866a3.179,3.179,0,0,0-2.806-3.628l-3.952-.423a3.179,3.179,0,0,0-3.511,2.952l-1.058,16A4.515,4.515,0,0,0,290.249,307.165Z" transform="translate(-259.088 -282.056)" fill="#bd6c67"/>
              <path id="Trazado_1817" data-name="Trazado 1817" d="M270.8,307.165h0a4.516,4.516,0,0,1-4.948-3.827L263.5,287.472a3.178,3.178,0,0,1,2.805-3.628l3.952-.423a3.179,3.179,0,0,1,3.511,2.952l1.058,16A4.515,4.515,0,0,1,270.8,307.165Z" transform="translate(-255.724 -282.056)" fill="#bd6c67"/>
              <path id="Trazado_1818" data-name="Trazado 1818" d="M262.805,306.109h0a3.6,3.6,0,0,1-4.39-2.37l-3.911-12.18a2.536,2.536,0,0,1,1.738-3.219l3.056-.846a2.535,2.535,0,0,1,3.145,1.868l2.909,12.458A3.6,3.6,0,0,1,262.805,306.109Z" transform="translate(-254.382 -282.647)" fill="#bd6c67"/>
            </g>
          </g>
          <g id="Grupo_9976" data-name="Grupo 9976" transform="translate(439.232 226.833)">
            <path id="Trazado_1819" data-name="Trazado 1819" d="M648.753,343.283l16.2-4.4,8.645,13.686a26.055,26.055,0,0,1,.742,26.577l-.62,1.115a14.591,14.591,0,0,1-21.6,4.509l-14.341-10.939Z" transform="translate(-589.316 -333.501)" fill="#6ca8bc"/>
            <g id="Grupo_9975" data-name="Grupo 9975">
              <path id="Trazado_1820" data-name="Trazado 1820" d="M623.457,345.317l-12.888-10.5a10.029,10.029,0,0,0-7.589-2.175l-13.072,1.648a5.78,5.78,0,0,0-4.033,2.448l-3.553,5.14a5.434,5.434,0,0,0,1.009,7.28h0l-1.443,2.09a5.541,5.541,0,0,0,1.778,7.941h0l-.232.587a6.177,6.177,0,0,0,2.636,7.6l1.441.841h0a4.11,4.11,0,0,0,.857,5.284h0a4.7,4.7,0,0,0,5.575.36l9.284-5.979,12.205,2.007,5.517-3.678,7.691,4.18,1.034-1.386a24.319,24.319,0,0,0,3.39-22.795l-.746-2.069Z" transform="translate(-580.906 -332.566)" fill="#eba588"/>
              <path id="Trazado_1821" data-name="Trazado 1821" d="M583.753,350.6l5.35-5.859,11.661-.828-12.539-1.63Z" transform="translate(-581.327 -334.003)" fill="#e78882"/>
              <path id="Trazado_1822" data-name="Trazado 1822" d="M584.145,362.37l7.022-5.832,11.787-.73-13.166-1.756Z" transform="translate(-581.385 -335.743)" fill="#e78882"/>
              <path id="Trazado_1823" data-name="Trazado 1823" d="M588.657,372.841l9.572-6.562h4.765l-6.52-2.466Z" transform="translate(-582.052 -337.187)" fill="#e78882"/>
            </g>
            <path id="Trazado_1824" data-name="Trazado 1824" d="M633.142,346.356h0a4.782,4.782,0,0,1,4.092-3.517l9.842-1.093a5.1,5.1,0,0,1,5.292,3.151l.74,1.82a28.182,28.182,0,0,1-3.464,27.383L647.1,377.54a5.1,5.1,0,0,1-7.193,1.023l-7.5-5.709a5.214,5.214,0,0,1-2.056-4.15h0l5.6,3.045,1.034-1.386a24.319,24.319,0,0,0,3.39-22.795l-.746-2.069Z" transform="translate(-588.217 -333.919)" fill="#94cbca"/>
          </g>
        </g>
      </g>
      <path id="Trazado_1703" data-name="Trazado 1703" d="M2.417-4.8V-32.06H11.2a12.918,12.918,0,0,1,6.5,1.638A11.516,11.516,0,0,1,22.2-25.8,13.963,13.963,0,0,1,23.837-19.1v1.254a14.044,14.044,0,0,1-1.582,6.712A11.566,11.566,0,0,1,17.8-6.493,12.633,12.633,0,0,1,11.386-4.8ZM8.989-26.986V-9.854h2.284a5.112,5.112,0,0,0,4.344-2.013q1.517-2.013,1.517-5.982v-1.18q0-3.951-1.517-5.954a5.2,5.2,0,0,0-4.419-2ZM44.115-16.351H33.779v6.5H45.987V-4.8H27.207V-32.06H46.025v5.074H33.779v5.748H44.115Zm14.679,1.929H55.237V-4.8H48.665V-32.06H59.393q4.849,0,7.583,2.153a7.3,7.3,0,0,1,2.734,6.085A8.868,8.868,0,0,1,68.559-19.1a8.175,8.175,0,0,1-3.6,3.033L70.646-5.08V-4.8h-7.04ZM55.237-19.5h4.157a3.737,3.737,0,0,0,2.818-.983,3.794,3.794,0,0,0,.946-2.743,3.839,3.839,0,0,0-.955-2.762,3.7,3.7,0,0,0-2.809-1H55.237Zm35.35,3.146H80.252v6.5H92.459V-4.8H73.679V-32.06H92.5v5.074H80.252v5.748H90.587Zm26.606,2.322A9.956,9.956,0,0,1,115.658-9a9.266,9.266,0,0,1-3.941,3.38,13.415,13.415,0,0,1-5.795,1.2,10.705,10.705,0,0,1-8.463-3.5q-3.089-3.5-3.089-9.886V-19.16a16.5,16.5,0,0,1,1.395-7.012,10.569,10.569,0,0,1,4.016-4.643,11.206,11.206,0,0,1,6.066-1.638,11.75,11.75,0,0,1,7.976,2.612,10.32,10.32,0,0,1,3.426,7.2H110.7a4.883,4.883,0,0,0-1.254-3.576,5.16,5.16,0,0,0-3.595-1.086,3.926,3.926,0,0,0-3.595,1.835q-1.142,1.835-1.2,5.861v1.929q0,4.363,1.1,6.235a4.008,4.008,0,0,0,3.773,1.872,5.047,5.047,0,0,0,3.464-1.067,4.53,4.53,0,0,0,1.273-3.389ZM143.088-4.8h-6.535V-16.183h-9.68V-4.8H120.3V-32.06h6.572v10.822h9.68V-32.06h6.535Zm27.243-13.069a16.076,16.076,0,0,1-1.479,7.059,10.932,10.932,0,0,1-4.2,4.728,11.7,11.7,0,0,1-6.207,1.657,11.87,11.87,0,0,1-6.179-1.6,10.914,10.914,0,0,1-4.2-4.578,15.614,15.614,0,0,1-1.582-6.834v-1.535a16.147,16.147,0,0,1,1.47-7.068,10.905,10.905,0,0,1,4.213-4.728,11.786,11.786,0,0,1,6.244-1.666,11.671,11.671,0,0,1,6.179,1.648,11.1,11.1,0,0,1,4.222,4.69,15.684,15.684,0,0,1,1.526,6.975Zm-6.684-1.142a11.464,11.464,0,0,0-1.357-6.169,4.354,4.354,0,0,0-3.885-2.106q-4.943,0-5.224,7.415l-.019,2a11.791,11.791,0,0,0,1.329,6.16,4.348,4.348,0,0,0,3.951,2.153,4.3,4.3,0,0,0,3.838-2.116,11.469,11.469,0,0,0,1.367-6.085Zm24.135,6.965a2.7,2.7,0,0,0-1.02-2.247,12.683,12.683,0,0,0-3.586-1.666,34.4,34.4,0,0,1-4.194-1.666q-5.3-2.6-5.3-7.152a6.414,6.414,0,0,1,1.32-4,8.538,8.538,0,0,1,3.735-2.7,14.536,14.536,0,0,1,5.43-.964,12.715,12.715,0,0,1,5.271,1.049,8.345,8.345,0,0,1,3.623,2.986,7.8,7.8,0,0,1,1.292,4.428H187.8a3.3,3.3,0,0,0-1.02-2.584,3.977,3.977,0,0,0-2.762-.917,4.485,4.485,0,0,0-2.78.777,2.384,2.384,0,0,0-1.02,1.975,2.4,2.4,0,0,0,1.123,1.9,14.167,14.167,0,0,0,3.951,1.76,24.2,24.2,0,0,1,4.643,1.957q4.419,2.546,4.419,7.021a6.657,6.657,0,0,1-2.7,5.617,11.993,11.993,0,0,1-7.4,2.041,14.673,14.673,0,0,1-6-1.189,9.048,9.048,0,0,1-4.044-3.258,8.489,8.489,0,0,1-1.357-4.765h6.591a4.181,4.181,0,0,0,1.133,3.23,5.354,5.354,0,0,0,3.679,1.039,4.23,4.23,0,0,0,2.575-.7A2.317,2.317,0,0,0,187.782-12.045Z" transform="translate(163.374 324.14)" fill="#f1b13d"/>
    </g>
    <path id="Trazado_1825" data-name="Trazado 1825" d="M-10359.906,3545.495h147.886" transform="translate(10833.906 -2090.17)" fill="none" stroke="#3bcfff" stroke-width="2"/>
  </g>
</svg>
