<svg xmlns="http://www.w3.org/2000/svg" width="87" height="87" viewBox="0 0 87 87">
  <g id="Grupo_10235" data-name="Grupo 10235" transform="translate(-419 -6209)">
    <g id="Elipse_527" data-name="Elipse 527" transform="translate(419 6209)" fill="#f1b13d" stroke="#fff" stroke-width="3">
      <circle cx="43.5" cy="43.5" r="43.5" stroke="none"/>
      <circle cx="43.5" cy="43.5" r="42" fill="none"/>
    </g>
    <g id="Grupo_10213" data-name="Grupo 10213" transform="translate(432.812 6234.943)">
      <path id="Trazado_2173" data-name="Trazado 2173" d="M472.768,63.106a13.953,13.953,0,1,1,14.263,13.96c2.147,5.066,8.372,5.991,8.372,5.991v1.222c-15.922,0-22.636-8.562-22.636-19.125C472.768,65.153,472.764,63.105,472.768,63.106Z" transform="translate(-441.298 -49.166)" fill="#370b7d"/>
      <path id="Trazado_2174" data-name="Trazado 2174" d="M531.756,63.106a13.953,13.953,0,1,1,14.264,13.96c2.147,5.066,8.372,5.991,8.372,5.991v1.222c-15.921,0-22.636-8.562-22.636-19.125C531.756,65.153,531.751,63.105,531.756,63.106Z" transform="translate(-531.754 -49.166)" fill="#370b7d"/>
    </g>
  </g>
</svg>
