<svg xmlns="http://www.w3.org/2000/svg" xmlns:xlink="http://www.w3.org/1999/xlink" width="264" height="233" viewBox="0 0 264 233">
  <defs>
    <linearGradient id="linear-gradient" x1="0.589" y1="-0.07" x2="0.336" y2="1.919" gradientUnits="objectBoundingBox">
      <stop offset="0.004" stop-color="#e38ddd"/>
      <stop offset="1" stop-color="#9571f6"/>
    </linearGradient>
    <linearGradient id="linear-gradient-2" y1="0.5" x2="1" y2="0.5" gradientUnits="objectBoundingBox">
      <stop offset="0" stop-color="#aa80f9"/>
      <stop offset="0.996" stop-color="#6165d7"/>
    </linearGradient>
    <linearGradient id="linear-gradient-3" x1="0.587" y1="-0.057" x2="0.341" y2="1.881" xlink:href="#linear-gradient"/>
    <clipPath id="clip-path">
      <rect id="Rectángulo_2690" data-name="Rectángulo 2690" width="264" height="233" transform="translate(265.121 2001.003)" fill="#fff" stroke="#707070" stroke-width="1"/>
    </clipPath>
    <clipPath id="clip-path-2">
      <path id="Trazado_1833" data-name="Trazado 1833" d="M1828.443,585.931c-3.4-2.374-8.354-3.413-12.463-3.367-29.131.327-28.384,61.212-22.833,74.376s3.039,17.843-19.189,26.8-10.166,21.682-6.731,29.423,9.493,14.022-6.484,23.307-9.8,13.717-9.8,13.717,33.242,28.847,30.723,18.944-.7-25.319,26.7-28.729c11.8-1.469,29.471-8.608,32.445-21.618.693-3.029.973-7.593.01-10.59-1.335-4.158-4.392-7.27-6.265-11.134-4.365-9,4.106-16.554,8.793-23.2a69.423,69.423,0,0,0,6.659-10.888c3.683-8.035,1.391-16.139-3.888-22.833-2.531-3.21-5.958-6.555-7.272-10.524-1.413-4.263-.981-10.282-1.1-14.778a94.241,94.241,0,0,0-.531-10.552C1836.321,597.771,1834.131,589.9,1828.443,585.931Z" transform="translate(-1749.77 -582.563)" fill="url(#linear-gradient)"/>
    </clipPath>
    <clipPath id="clip-path-3">
      <path id="Trazado_1840" data-name="Trazado 1840" d="M1950.827,1283.165c-1.874-3.165-5.486-5.821-8.818-7.293-23.621-10.433-45.376,38.959-45.733,51.617s-4.1,15.511-25.32,14.57-16.163,13.758-16.234,21.265,2.51,14.8-13.789,16.422-12.94,7.469-12.94,7.469,16.224,35.479,17.829,26.565,8.736-20.682,32.092-13.371c10.06,3.149,26.937,3.878,34.113-5.525,1.671-2.19,3.573-5.769,3.9-8.54.45-3.845-.874-7.478-.966-11.282-.215-8.865,9.392-11.847,15.611-15.484a61.458,61.458,0,0,0,9.37-6.339c5.922-5.13,7.049-12.509,5.249-19.848-.863-3.519-2.4-7.476-2-11.16.426-3.958,2.984-8.655,4.541-12.325a83.573,83.573,0,0,0,3.446-8.707C1952.835,1295.609,1953.959,1288.456,1950.827,1283.165Z" transform="translate(-1827.706 -1274.435)" fill="url(#linear-gradient-2)"/>
    </clipPath>
    <clipPath id="clip-path-4">
      <path id="Trazado_1847" data-name="Trazado 1847" d="M807.877,585.931c3.4-2.374,8.354-3.413,12.463-3.367,29.131.327,28.384,61.212,22.833,74.376s-3.039,17.843,19.189,26.8,10.166,21.682,6.731,29.423-9.493,14.022,6.484,23.307,9.8,13.717,9.8,13.717-33.242,28.847-30.723,18.944.7-25.319-26.7-28.729c-11.8-1.469-29.472-8.608-32.445-21.618-.693-3.029-.973-7.593-.01-10.59,1.335-4.158,4.392-7.27,6.265-11.134,4.365-9-4.106-16.554-8.793-23.2a69.4,69.4,0,0,1-6.659-10.888c-3.683-8.035-1.391-16.139,3.888-22.833,2.531-3.21,5.958-6.555,7.273-10.524,1.413-4.263.981-10.282,1.1-14.778a94.212,94.212,0,0,1,.531-10.552C800,597.771,802.188,589.9,807.877,585.931Z" transform="translate(-784.503 -582.563)" fill="url(#linear-gradient-3)"/>
    </clipPath>
    <clipPath id="clip-path-5">
      <path id="Trazado_1854" data-name="Trazado 1854" d="M452.377,1283.165c1.873-3.165,5.486-5.821,8.818-7.293,23.621-10.433,45.376,38.959,45.732,51.617s4.1,15.511,25.32,14.57,16.163,13.758,16.235,21.265-2.51,14.8,13.79,16.422,12.94,7.469,12.94,7.469-16.224,35.479-17.829,26.565-8.736-20.682-32.092-13.371c-10.06,3.149-26.937,3.878-34.113-5.525-1.671-2.19-3.573-5.769-3.9-8.54-.45-3.845.873-7.478.966-11.282.215-8.865-9.392-11.847-15.611-15.484a61.494,61.494,0,0,1-9.37-6.339c-5.922-5.13-7.049-12.509-5.248-19.848.863-3.519,2.4-7.476,2-11.16-.426-3.958-2.984-8.655-4.541-12.325a83.492,83.492,0,0,1-3.446-8.707C450.369,1295.609,449.245,1288.456,452.377,1283.165Z" transform="translate(-450.395 -1274.435)" fill="url(#linear-gradient-2)"/>
    </clipPath>
    <clipPath id="clip-path-6">
      <circle id="Elipse_526" data-name="Elipse 526" cx="91.152" cy="91.152" r="91.152" fill="none"/>
    </clipPath>
    <clipPath id="clip-path-7">
      <path id="Trazado_1866" data-name="Trazado 1866" d="M687.742,526.292c6.676-60.809-52.278-81.936-94.072-66.366-42.133,15.7-51.9-10.323-111.147-2.889-59.989,7.527-29.532,101.7-29.532,101.7s9.545,81.885,20.854,119.63c11.247,37.54,118.909,23.958,145.1,22.838,26.04-1.114,48.667,1.036,71.322-40.183C712.881,619.874,681.088,586.9,687.742,526.292Z" transform="translate(-445.26 -455)" fill="none"/>
    </clipPath>
    <linearGradient id="linear-gradient-9" x1="-0.021" y1="1.326" x2="0.563" y2="0.279" gradientUnits="objectBoundingBox">
      <stop offset="0" stop-color="#ff9085"/>
      <stop offset="1" stop-color="#fb6fbb"/>
    </linearGradient>
    <linearGradient id="linear-gradient-10" x1="-0.198" y1="0.819" x2="-0.871" y2="-0.191" gradientUnits="objectBoundingBox">
      <stop offset="0" stop-color="#ffc444"/>
      <stop offset="0.996" stop-color="#f36f56"/>
    </linearGradient>
  </defs>
  <g id="Grupo_3" data-name="Grupo 3" transform="translate(-265.121 -2001.003)" clip-path="url(#clip-path)">
    <g id="Grupo_10075" data-name="Grupo 10075" transform="translate(272.06 1992.525)">
      <g id="Grupo_10047" data-name="Grupo 10047" transform="translate(117.41 11.481)">
        <g id="Grupo_10037" data-name="Grupo 10037" transform="translate(0 0)">
          <g id="Grupo_10036" data-name="Grupo 10036">
            <path id="Trazado_1827" data-name="Trazado 1827" d="M1828.443,585.931c-3.4-2.374-8.354-3.413-12.463-3.367-29.131.327-28.384,61.212-22.833,74.376s3.039,17.843-19.189,26.8-10.166,21.682-6.731,29.423,9.493,14.022-6.484,23.307-9.8,13.717-9.8,13.717,33.242,28.847,30.723,18.944-.7-25.319,26.7-28.729c11.8-1.469,29.471-8.608,32.445-21.618.693-3.029.973-7.593.01-10.59-1.335-4.158-4.392-7.27-6.265-11.134-4.365-9,4.106-16.554,8.793-23.2a69.423,69.423,0,0,0,6.659-10.888c3.683-8.035,1.391-16.139-3.888-22.833-2.531-3.21-5.958-6.555-7.272-10.524-1.413-4.263-.981-10.282-1.1-14.778a94.241,94.241,0,0,0-.531-10.552C1836.321,597.771,1834.131,589.9,1828.443,585.931Z" transform="translate(-1749.77 -582.563)" fill="url(#linear-gradient)"/>
            <g id="Grupo_10035" data-name="Grupo 10035" clip-path="url(#clip-path-2)">
              <g id="Grupo_10034" data-name="Grupo 10034" transform="translate(-0.396 -7.688)" opacity="0.8" style="mix-blend-mode: soft-light;isolation: isolate">
                <g id="Grupo_10029" data-name="Grupo 10029">
                  <path id="Trazado_1828" data-name="Trazado 1828" d="M1745.976,690.257a.43.43,0,0,1-.407-.755,207.342,207.342,0,0,0,25.957-20.3c12.423-11.4,28.375-29.064,33.823-48.529,4.55-16.257,7.739-42.775,8.749-72.756.906-26.884-.224-46.62-1.839-50.168a.43.43,0,1,1,.782-.356c1.889,4.15,2.731,26.356,1.916,50.553-1.012,30.047-4.213,56.639-8.78,72.959-5.5,19.664-21.571,37.468-34.081,48.941a208.17,208.17,0,0,1-26.068,20.378A.39.39,0,0,1,1745.976,690.257Z" transform="translate(-1745.369 -497.146)" fill="#fff"/>
                </g>
                <g id="Grupo_10030" data-name="Grupo 10030" transform="translate(40.512 21.109)">
                  <path id="Trazado_1829" data-name="Trazado 1829" d="M2224.074,766.513a.385.385,0,0,1-.545-.16c-.132-.284-13.314-28.444-27.776-33.859a.412.412,0,0,1-.246-.54.43.43,0,0,1,.556-.245c14.792,5.538,27.7,33.107,28.244,34.28a.388.388,0,0,1-.231.523Z" transform="translate(-2195.48 -731.68)" fill="#fff"/>
                </g>
                <g id="Grupo_10031" data-name="Grupo 10031" transform="translate(66.001 66.209)">
                  <path id="Trazado_1830" data-name="Trazado 1830" d="M2479.291,1256.625a.43.43,0,0,1-.478-.7,136.243,136.243,0,0,1,16.846-13.523c12.645-8.482,22.631-11.38,29.682-8.614a.43.43,0,1,1-.314.8c-16.222-6.364-45.323,21.669-45.615,21.953A.433.433,0,0,1,2479.291,1256.625Z" transform="translate(-2478.683 -1232.774)" fill="#fff"/>
                </g>
                <g id="Grupo_10032" data-name="Grupo 10032" transform="translate(11.997 105.899)">
                  <path id="Trazado_1831" data-name="Trazado 1831" d="M1904.326,1729.612a.429.429,0,0,1-.606-.349,163.847,163.847,0,0,0-4.944-25.486c-3.381-11.843-9.558-26.519-19.789-29.177a.43.43,0,0,1,.216-.832c8.53,2.217,15.395,12.237,20.4,29.784a164.8,164.8,0,0,1,4.97,25.627A.429.429,0,0,1,1904.326,1729.612Z" transform="translate(-1878.666 -1673.753)" fill="#fff"/>
                </g>
                <g id="Grupo_10033" data-name="Grupo 10033" transform="translate(53.091 112.932)">
                  <path id="Trazado_1832" data-name="Trazado 1832" d="M2335.855,1779.139a.43.43,0,0,1-.461-.715c1.295-1.133,31.862-27.721,44.735-26.479a.43.43,0,1,1-.083.855c-12.509-1.206-43.773,26-44.087,26.271A.408.408,0,0,1,2335.855,1779.139Z" transform="translate(-2335.247 -1751.903)" fill="#fff"/>
                </g>
              </g>
            </g>
          </g>
        </g>
        <g id="Grupo_10046" data-name="Grupo 10046" transform="translate(7.015 62.271)">
          <g id="Grupo_10045" data-name="Grupo 10045">
            <path id="Trazado_1834" data-name="Trazado 1834" d="M1950.827,1283.165c-1.874-3.165-5.486-5.821-8.818-7.293-23.621-10.433-45.376,38.959-45.733,51.617s-4.1,15.511-25.32,14.57-16.163,13.758-16.234,21.265,2.51,14.8-13.789,16.422-12.94,7.469-12.94,7.469,16.224,35.479,17.829,26.565,8.736-20.682,32.092-13.371c10.06,3.149,26.937,3.878,34.113-5.525,1.671-2.19,3.573-5.769,3.9-8.54.45-3.845-.874-7.478-.966-11.282-.215-8.865,9.392-11.847,15.611-15.484a61.458,61.458,0,0,0,9.37-6.339c5.922-5.13,7.049-12.509,5.249-19.848-.863-3.519-2.4-7.476-2-11.16.426-3.958,2.984-8.655,4.541-12.325a83.573,83.573,0,0,0,3.446-8.707C1952.835,1295.609,1953.959,1288.456,1950.827,1283.165Z" transform="translate(-1827.706 -1274.435)" fill="url(#linear-gradient-2)"/>
            <g id="Grupo_10044" data-name="Grupo 10044" clip-path="url(#clip-path-3)">
              <g id="Grupo_10043" data-name="Grupo 10043" transform="translate(-7.41 -4.553)" opacity="0.8" style="mix-blend-mode: soft-light;isolation: isolate">
                <g id="Grupo_10038" data-name="Grupo 10038">
                  <path id="Trazado_1835" data-name="Trazado 1835" d="M1745.754,1355.193a.381.381,0,0,1-.051-.758,183.744,183.744,0,0,0,28.394-6.841c14.206-4.631,33.564-13.028,45.107-26.73,9.64-11.444,21.95-31.667,33.775-55.483,10.6-21.356,16.939-37.692,16.939-41.147a.381.381,0,0,1,.762,0c0,4.042-7.475,22.265-17.018,41.486-11.85,23.868-24.2,44.146-33.875,55.634-11.661,13.843-31.161,22.306-45.466,26.968a184.538,184.538,0,0,1-28.513,6.867A.367.367,0,0,1,1745.754,1355.193Z" transform="translate(-1745.374 -1223.853)" fill="#fff"/>
                </g>
                <g id="Grupo_10039" data-name="Grupo 10039" transform="translate(95.545 7.35)">
                  <path id="Trazado_1836" data-name="Trazado 1836" d="M2817.407,1343.932c-.209,0-.38-.087-.381-.3,0-.277-.3-27.82-9.974-37.5a.358.358,0,0,1,0-.518.381.381,0,0,1,.539.01c9.9,9.9,10.189,36.851,10.2,38,0,.21-.167.307-.378.307Z" transform="translate(-2806.941 -1305.512)" fill="#fff"/>
                </g>
                <g id="Grupo_10040" data-name="Grupo 10040" transform="translate(91.087 65.949)">
                  <path id="Trazado_1837" data-name="Trazado 1837" d="M2757.791,1963.084a.381.381,0,0,1-.128-.74,120.729,120.729,0,0,1,18.556-4.724c13.316-2.2,22.437-.87,27.109,3.95a.381.381,0,0,1-.547.531c-10.75-11.091-44.521.838-44.861.96A.383.383,0,0,1,2757.791,1963.084Z" transform="translate(-2757.41 -1956.592)" fill="#fff"/>
                </g>
                <g id="Grupo_10041" data-name="Grupo 10041" transform="translate(41.402 65.289)">
                  <path id="Trazado_1838" data-name="Trazado 1838" d="M2205.763,2003.621a.388.388,0,0,1-.123-.021.381.381,0,0,1-.238-.484,145.19,145.19,0,0,0,5.371-22.376c1.622-10.8,2.027-24.9-5.25-30.8a.381.381,0,0,1,.48-.592c6.068,4.921,7.926,15.525,5.522,31.52a146.139,146.139,0,0,1-5.4,22.5A.381.381,0,0,1,2205.763,2003.621Z" transform="translate(-2205.383 -1949.259)" fill="#fff"/>
                </g>
                <g id="Grupo_10042" data-name="Grupo 10042" transform="translate(62.271 100.706)">
                  <path id="Trazado_1839" data-name="Trazado 1839" d="M2437.633,2350.189a.381.381,0,0,1-.109-.746c1.46-.438,35.884-10.664,45.813-4.935a.381.381,0,1,1-.381.659c-9.648-5.566-44.859,4.9-45.214,5.005A.392.392,0,0,1,2437.633,2350.189Z" transform="translate(-2437.252 -2342.77)" fill="#fff"/>
                </g>
              </g>
            </g>
          </g>
        </g>
      </g>
      <g id="Grupo_10066" data-name="Grupo 10066" transform="translate(0.462 11.481)">
        <g id="Grupo_10056" data-name="Grupo 10056" transform="translate(30.071 0)">
          <g id="Grupo_10055" data-name="Grupo 10055">
            <path id="Trazado_1841" data-name="Trazado 1841" d="M807.877,585.931c3.4-2.374,8.354-3.413,12.463-3.367,29.131.327,28.384,61.212,22.833,74.376s-3.039,17.843,19.189,26.8,10.166,21.682,6.731,29.423-9.493,14.022,6.484,23.307,9.8,13.717,9.8,13.717-33.242,28.847-30.723,18.944.7-25.319-26.7-28.729c-11.8-1.469-29.472-8.608-32.445-21.618-.693-3.029-.973-7.593-.01-10.59,1.335-4.158,4.392-7.27,6.265-11.134,4.365-9-4.106-16.554-8.793-23.2a69.4,69.4,0,0,1-6.659-10.888c-3.683-8.035-1.391-16.139,3.888-22.833,2.531-3.21,5.958-6.555,7.273-10.524,1.413-4.263.981-10.282,1.1-14.778a94.212,94.212,0,0,1,.531-10.552C800,597.771,802.188,589.9,807.877,585.931Z" transform="translate(-784.503 -582.563)" fill="url(#linear-gradient-3)"/>
            <g id="Grupo_10054" data-name="Grupo 10054" clip-path="url(#clip-path-4)">
              <g id="Grupo_10053" data-name="Grupo 10053" transform="translate(-10.489 -7.688)" opacity="0.8" style="mix-blend-mode: soft-light;isolation: isolate">
                <g id="Grupo_10048" data-name="Grupo 10048" transform="translate(43.033)">
                  <path id="Trazado_1842" data-name="Trazado 1842" d="M1215.381,690.257a.43.43,0,0,0,.407-.755,207.287,207.287,0,0,1-25.957-20.3c-12.423-11.4-28.375-29.064-33.823-48.529-4.55-16.257-7.738-42.775-8.749-72.756-.906-26.884.224-46.62,1.839-50.168a.43.43,0,1,0-.782-.356c-1.889,4.15-2.731,26.356-1.916,50.553,1.012,30.047,4.213,56.639,8.78,72.959,5.5,19.664,21.571,37.468,34.081,48.941a208.164,208.164,0,0,0,26.068,20.378A.412.412,0,0,0,1215.381,690.257Z" transform="translate(-1146.09 -497.146)" fill="#fff"/>
                </g>
                <g id="Grupo_10049" data-name="Grupo 10049" transform="translate(43.556 21.109)">
                  <path id="Trazado_1843" data-name="Trazado 1843" d="M1152.169,766.513a.386.386,0,0,0,.545-.16c.132-.284,13.314-28.444,27.775-33.859a.412.412,0,0,0,.246-.54.429.429,0,0,0-.556-.245c-14.792,5.538-27.7,33.107-28.244,34.28a.387.387,0,0,0,.231.523Z" transform="translate(-1151.899 -731.68)" fill="#fff"/>
                </g>
                <g id="Grupo_10050" data-name="Grupo 10050" transform="translate(0 66.209)">
                  <path id="Trazado_1844" data-name="Trazado 1844" d="M714.284,1256.625a.43.43,0,0,0,.478-.7,136.267,136.267,0,0,0-16.846-13.523c-12.645-8.482-22.631-11.38-29.682-8.614a.43.43,0,0,0,.314.8c16.222-6.364,45.323,21.669,45.615,21.953A.43.43,0,0,0,714.284,1256.625Z" transform="translate(-667.961 -1232.774)" fill="#fff"/>
                </g>
                <g id="Grupo_10051" data-name="Grupo 10051" transform="translate(75.023 105.899)">
                  <path id="Trazado_1845" data-name="Trazado 1845" d="M1501.773,1729.612a.429.429,0,0,0,.606-.349,163.906,163.906,0,0,1,4.944-25.486c3.381-11.843,9.558-26.519,19.789-29.177a.43.43,0,1,0-.216-.832c-8.531,2.217-15.395,12.237-20.4,29.784a164.785,164.785,0,0,0-4.97,25.627A.43.43,0,0,0,1501.773,1729.612Z" transform="translate(-1501.521 -1673.753)" fill="#fff"/>
                </g>
                <g id="Grupo_10052" data-name="Grupo 10052" transform="translate(14.57 112.932)">
                  <path id="Trazado_1846" data-name="Trazado 1846" d="M874.509,1779.139a.43.43,0,0,0,.461-.715c-1.295-1.133-31.862-27.721-44.735-26.479a.43.43,0,1,0,.082.855c12.509-1.206,43.773,26,44.087,26.271A.42.42,0,0,0,874.509,1779.139Z" transform="translate(-829.846 -1751.903)" fill="#fff"/>
                </g>
              </g>
            </g>
          </g>
        </g>
        <g id="Grupo_10065" data-name="Grupo 10065" transform="translate(0 62.271)">
          <g id="Grupo_10064" data-name="Grupo 10064">
            <path id="Trazado_1848" data-name="Trazado 1848" d="M452.377,1283.165c1.873-3.165,5.486-5.821,8.818-7.293,23.621-10.433,45.376,38.959,45.732,51.617s4.1,15.511,25.32,14.57,16.163,13.758,16.235,21.265-2.51,14.8,13.79,16.422,12.94,7.469,12.94,7.469-16.224,35.479-17.829,26.565-8.736-20.682-32.092-13.371c-10.06,3.149-26.937,3.878-34.113-5.525-1.671-2.19-3.573-5.769-3.9-8.54-.45-3.845.873-7.478.966-11.282.215-8.865-9.392-11.847-15.611-15.484a61.494,61.494,0,0,1-9.37-6.339c-5.922-5.13-7.049-12.509-5.248-19.848.863-3.519,2.4-7.476,2-11.16-.426-3.958-2.984-8.655-4.541-12.325a83.492,83.492,0,0,1-3.446-8.707C450.369,1295.609,449.245,1288.456,452.377,1283.165Z" transform="translate(-450.395 -1274.435)" fill="url(#linear-gradient-2)"/>
            <g id="Grupo_10063" data-name="Grupo 10063" clip-path="url(#clip-path-5)">
              <g id="Grupo_10062" data-name="Grupo 10062" transform="translate(-4.598 -4.553)" opacity="0.8" style="mix-blend-mode: soft-light;isolation: isolate">
                <g id="Grupo_10057" data-name="Grupo 10057" transform="translate(11.807)">
                  <path id="Trazado_1849" data-name="Trazado 1849" d="M655.409,1355.193a.381.381,0,0,0,.051-.758,183.747,183.747,0,0,1-28.394-6.841c-14.207-4.631-33.564-13.028-45.107-26.73-9.64-11.444-21.95-31.667-33.775-55.483-10.6-21.356-16.939-37.692-16.939-41.147a.381.381,0,0,0-.762,0c0,4.042,7.475,22.265,17.018,41.486,11.85,23.868,24.2,44.146,33.874,55.634,11.661,13.843,31.161,22.306,45.466,26.968a184.543,184.543,0,0,0,28.513,6.867A.364.364,0,0,0,655.409,1355.193Z" transform="translate(-530.485 -1223.853)" fill="#fff"/>
                </g>
                <g id="Grupo_10058" data-name="Grupo 10058" transform="translate(30.72 7.35)">
                  <path id="Trazado_1850" data-name="Trazado 1850" d="M741,1343.932c.209,0,.379-.087.381-.3,0-.277.3-27.82,9.974-37.5a.357.357,0,0,0,0-.518.381.381,0,0,0-.539.01c-9.9,9.9-10.19,36.851-10.2,38,0,.21.168.307.378.307Z" transform="translate(-740.619 -1305.512)" fill="#fff"/>
                </g>
                <g id="Grupo_10059" data-name="Grupo 10059" transform="translate(0 65.949)">
                  <path id="Trazado_1851" data-name="Trazado 1851" d="M444.947,1963.084a.381.381,0,0,0,.128-.74,120.728,120.728,0,0,0-18.556-4.724c-13.316-2.2-22.437-.87-27.109,3.95a.381.381,0,0,0,.547.531c10.75-11.091,44.521.838,44.861.96A.382.382,0,0,0,444.947,1963.084Z" transform="translate(-399.303 -1956.592)" fill="#fff"/>
                </g>
                <g id="Grupo_10060" data-name="Grupo 10060" transform="translate(88.548 65.289)">
                  <path id="Trazado_1852" data-name="Trazado 1852" d="M1389.915,2003.621a.389.389,0,0,0,.123-.021.381.381,0,0,0,.237-.484,145.271,145.271,0,0,1-5.371-22.376c-1.621-10.8-2.027-24.9,5.25-30.8a.381.381,0,0,0-.48-.592c-6.068,4.921-7.926,15.525-5.522,31.52a146.082,146.082,0,0,0,5.4,22.5A.381.381,0,0,0,1389.915,2003.621Z" transform="translate(-1383.135 -1949.259)" fill="#fff"/>
                </g>
                <g id="Grupo_10061" data-name="Grupo 10061" transform="translate(28.565 100.706)">
                  <path id="Trazado_1853" data-name="Trazado 1853" d="M762.572,2350.189a.381.381,0,0,0,.109-.746c-1.46-.438-35.883-10.664-45.813-4.935a.381.381,0,1,0,.381.659c9.649-5.566,44.859,4.9,45.214,5.005A.4.4,0,0,0,762.572,2350.189Z" transform="translate(-716.677 -2342.77)" fill="#fff"/>
                </g>
              </g>
            </g>
          </g>
        </g>
      </g>
      <g id="Grupo_10072" data-name="Grupo 10072" transform="translate(37.47 39.227)">
        <g id="Grupo_10071" data-name="Grupo 10071" transform="translate(0 0)">
          <g id="Grupo_10070" data-name="Grupo 10070" clip-path="url(#clip-path-6)">
            <g id="Grupo_10069" data-name="Grupo 10069" transform="translate(-1.165 -1.083)">
              <path id="Trazado_1855" data-name="Trazado 1855" d="M1033.223,971.119a91.611,91.611,0,0,1-16.536,52.567c-.041.061-.187.12-.187.181v0a91.382,91.382,0,0,1-75.657,39.407,54.347,54.347,0,0,1-7.536-.467h0c-.01,0-.015.153-.026.153-1.237-.1-2.464-.15-3.685-.3-.434-.051-.869-.068-1.3-.13-.383-.051-.764-.085-1.145-.144-.332-.049-.662-.09-.989-.144-.074-.013-.148-.021-.222-.031-.805-.133-1.608-.271-2.408-.424l-.013,0A92.6,92.6,0,0,1,852.7,943.773c.419-1.354.941-2.693,1.288-4.02v0c1.042-2.211,1.74-4.38,2.7-6.509.386-.851.813-1.7,1.219-2.535a92.356,92.356,0,0,1,7.831-13.134c.268-.376.547-.749.82-1.122q1.64-2.231,3.418-4.357,2.657-3.189,5.589-6.131a92.7,92.7,0,0,1,16.917-13.417q2.856-1.767,5.85-3.327A92.387,92.387,0,0,1,998.964,899.3a93.012,93.012,0,0,1,27.106,35.621c1.334,3.123,2.235,6.333,3.624,9.62v0c0,.015-.159.026-.154.041A92.16,92.16,0,0,1,1033.223,971.119Z" transform="translate(-848.638 -878.806)" fill="#d8dee8"/>
              <g id="Grupo_10068" data-name="Grupo 10068" transform="translate(4.064 3.419)" style="mix-blend-mode: soft-light;isolation: isolate">
                <path id="Trazado_1856" data-name="Trazado 1856" d="M1789.341,2926.638v0h.008l-.005,0Z" transform="translate(-1708.739 -2745.743)" fill="#fff"/>
                <path id="Trazado_1857" data-name="Trazado 1857" d="M1002.158,1036.809c-1.981,2.791-8.109,6.374-3.951,13.412,4.122,7.021-.286,8.337-3.123,7.68s-11.708-1.012-10.23,3.013,4.01,5.541.764,7.1-4.616,5.595-7.935,11.163c-3.3,5.579-11.132.754-8.812,6.346s4.122,5.053,3.905,8.95a4.856,4.856,0,0,0,1.62,3.215c-1.237-.1-2.479-.227-3.711-.378q-.652-.077-1.3-.168c-.383-.051-.764-.1-1.145-.164q-.5-.073-.989-.153c-.074-.013-.055-.026-.129-.036-.792-.133-1.2-.276-2.245-.427v0c-.694-.66-.259-1.375-.154-2.147,1.035-7.2-8.894-12.142-10.558-17.184-1.636-5.03-.021-8.03-.4-12.2s.972-9.678-1.422-13.185-12.048-4.664-13.886-11.715c-1.85-7.035,2.453-17.572,4.125-19.367,1.651-1.794-7.993-9.957-12.583-10.217-4.61-.281-2.766-9.563-10.56-8.15-7.81,1.37-21.841-2.988-18.943-7.675,2.392-3.862,6.407-12.38-6.7-16.177.419-1.354.938-2.694,1.286-4.02v0c1.042-2.211,1.74-4.38,2.7-6.509.386-.851.813-1.7,1.219-2.535a92.839,92.839,0,0,1,7.831-13.134c.268-.376.547-.749.82-1.122q1.644-2.231,3.418-4.357,2.657-3.19,5.589-6.131a92.693,92.693,0,0,1,16.917-13.417c2.6,1.82,5.562,2.942,8.122,1.559,6.279-3.514,2.139-4.053-.432-4.184a3.316,3.316,0,0,1-1.84-.7,91.388,91.388,0,0,1,15.186-6.264c-.391,3.545-5.208,9.239-1.664,8.543,4.125-.785,5.809-11.93,8.838-8.227,3.072,3.718-3.361,8.592,2.681,5.768,6.049-2.8,6.857-9.037,13.6-6,6.775,3.074,6.157,6.714,8.048,6.353s7.976,3.739,4.291,7.107c-3.719,3.379-7.128-.925-12.7-2.223-5.576-1.283-5.441,3.279-8.007,4.322-2.609,1.007-15.2-5.076-18.286.422-3.123,5.454-4.452,9.259.184,9.119s4.93-1.329,4.567,2.1.473,5.993,4.669,2.77,3.246-6.356,6.517-4.822,3.66.146,7.141-2.382,8.055-2.791,9.254,2.88-.851,6.946-6.969,7.233-6.813-1.633-8.764,3.483-10.036,11.692-17.143,14.4-9.875,6.724-9.711,12.134-2.5,11.137-4.281,6.67-6.8-12.024-11.92-6.982S910.9,994.171,920.76,995.8c9.839,1.664,4.705-7.555,9.678-5.712s-3.146,5.919.174,7.386,4.718.787,4.692,5.318,1.1,8.927,5.137,7.005,9.213-10.792,15.048-5.541,5.428,4.58,8.492,3.046,5.012,3.059,6.267,5.15,6.177-.043,10.166,6.177,5.551,7.33,10.1,5.091,6.4-.575,7.585,2.566,3.982.072,5.331,4.222S1004.125,1034.016,1002.158,1036.809Z" transform="translate(-893.793 -916.792)" fill="#fff"/>
                <g id="Grupo_10067" data-name="Grupo 10067" transform="translate(118.862 17.077)">
                  <path id="Trazado_1858" data-name="Trazado 1858" d="M2266.459,1134.11c-3.222-6.916,12.745-6.139,15.567-5.607,2.839.473,9.5-4.733,10.345-7.153.869-2.438,2.3-1.28,7.348-1.349,5.05-.054.588-1.2-4.971-3.029s-.8-2.011-5.919-6.049c-2.2-1.768-1.508-3.271-.041-4.388a92.607,92.607,0,0,1,26.94,35.621,1.759,1.759,0,0,0-.476-.082c-3.537-.021-4.316-7.841-6.139-9.364-1.8-1.521.051,4.3.491,6.685s-.969.381-2.732,2.576-4.968,2.239-5.257-1.058-2.612-6.52-7.317-8.022-8.776-.268-12.6,1.206C2277.9,1135.547,2269.705,1140.972,2266.459,1134.11Z" transform="translate(-2261.388 -1106.535)" fill="#fff"/>
                  <path id="Trazado_1859" data-name="Trazado 1859" d="M2259.589,1592.194c.32-2.374.841-4.827-.151-5.724-2.41-2.236-2.937-8.329-2.1-11.416s7.327-2.919,2.921-8.058c-4.418-5.155-8.4-11.273-6.545-14.772s1.293-3.749-2.185-3.729-5.009.174-8.477-2.924c-3.471-3.138-8.245,7.407-21.306-1.051-13.06-8.541-5.623-22.937-.729-22.973,4.925-.082,10.678-2.568,6.642-8.574-4.023-6.029,2.265-6.88,5.336-5.51,3.077,1.354,8.533-2.285,14.094-3.926s5.329,7.447,8.424,9.264c3.113,1.82,8.945.375,11.976-2.533,2.165-2.075,2.637.345,4.777,2.643a92.505,92.505,0,0,1-12.676,79.281Z" transform="translate(-2214.429 -1467.628)" fill="#fff"/>
                  <path id="Trazado_1860" data-name="Trazado 1860" d="M2421.447,1138.145c0-.005,4.072-1.843,2.6-4.8s-3.779-12.034-5.474-9.175.809,8.449.26,10.855S2418.262,1138.7,2421.447,1138.145Z" transform="translate(-2399.649 -1122.08)" fill="#fff"/>
                  <path id="Trazado_1861" data-name="Trazado 1861" d="M2359.473,1206.642c-.057-.953.543-4.828-2.505-4.706.006-.006-4.409,1.836-1.826,4.966S2359.539,1207.593,2359.473,1206.642Z" transform="translate(-2341.739 -1193.347)" fill="#fff"/>
                </g>
              </g>
            </g>
            <path id="Trazado_1862" data-name="Trazado 1862" d="M1035.949,973.329a91.512,91.512,0,0,1-16.413,52.567.327.327,0,0,0-.065.182v0a92.012,92.012,0,0,1-75.78,39.333,56.165,56.165,0,0,1-7.658-.543h0c-.01,0-.015.228-.026.228-1.237-.1-2.464-.115-3.685-.265-.435-.051-.869-.05-1.3-.111-.383-.051-.764-.076-1.145-.135-.332-.049-.662-.084-.989-.138-.074-.013-.148-.019-.222-.029-.805-.133-1.607-.27-2.407-.423h-.013A92.388,92.388,0,0,1,851.9,983.335a80.146,80.146,0,0,0,60.237,52.02h.01a6.546,6.546,0,0,0,2.078.392c.064.008.131.03.194.04.281.046.567.093.854.134.327.051.657.092.989.136.373.054.746.086,1.122.129,1.055.13,2.113.371,3.182.458.01,0,.015.1.023.1h0c2.17,0,4.332.175,6.548.175a79.585,79.585,0,0,0,65.374-34.219c0-.054.087-.126.12-.179a79.706,79.706,0,0,0,10.894-68.321c0-.013-.032-.028-.032-.041v0a54.525,54.525,0,0,0-2.963-8.306,79.84,79.84,0,0,0-48.266-44.438,91.856,91.856,0,0,1,49.422,20.1,92.887,92.887,0,0,1,27.055,35.621c1.334,3.123,2.185,6.333,3.574,9.62v0c0,.015-.108.026-.1.041A92.163,92.163,0,0,1,1035.949,973.329Z" transform="translate(-852.774 -882.261)" fill="#d8dee8" opacity="0.5" style="mix-blend-mode: multiply;isolation: isolate"/>
          </g>
        </g>
      </g>
      <g id="Grupo_10074" data-name="Grupo 10074" transform="translate(0 0)">
        <g id="Grupo_10073" data-name="Grupo 10073" transform="translate(0 0)" clip-path="url(#clip-path-7)">
          <path id="Trazado_1863" data-name="Trazado 1863" d="M898.493,1704.5c4.544-2.822,11.426-.014,15.434,2.739a36.5,36.5,0,0,0,3.571,2.713c1.369.719,1.983,1.035,2.406.882.778-.281,1.067-1.331,1.177-1.756,1.511-5.851-1.173-14.884-1.173-14.884-1.744-5.87-3.018-11.871-4.624-17.781-.633-2.331-1.6-5.879-.169-6.925.924-.674,2.456-.026,2.829.133,3.941,1.668,4.51,6.946,6.975,13.709,1.754,4.813,5.472,13.13,7.191,12.787,3.225-.644-2.409-31.4,3.966-33.434a3.956,3.956,0,0,1,3.19.833c.75,4.793,1.363,10.052,1.714,15.725a169.4,169.4,0,0,1,.189,17.221,43.893,43.893,0,0,0,4.684-9.68c2.65-7.842,2.153-13.944,6.191-16.052l.035-.018a2.834,2.834,0,0,1,4,1.767q.05.177.1.361c1.428,5.574-.923,9.911-3.33,17.5a105.091,105.091,0,0,0-2.812,10.892c3.442-.965,3.968-6.891,5.489-9.641,1.222-2.211,4.042-7.872,6.8-8.666,4.066-1.17,2.727,3.425,1.906,5.65-1.658,4.49-3.5,8.977-5.247,13.444a77.362,77.362,0,0,0-4.247,15.68,80.829,80.829,0,0,1-2.051,7.85,13.172,13.172,0,0,1-6.418,8.271v73.195H923.5v-73.323a16.817,16.817,0,0,1-2.688-2.6c-.152-.256-.291-.517-.446-.77a66.661,66.661,0,0,0-12.734-15.035C904.373,1712.387,898.13,1709.528,898.493,1704.5Z" transform="translate(-857.687 -1553.892)" fill="url(#linear-gradient-9)"/>
          <path id="Trazado_1864" data-name="Trazado 1864" d="M2217.873,1703.858c-4.544-2.822-11.426-.014-15.434,2.739a36.458,36.458,0,0,1-3.57,2.713c-1.369.718-1.983,1.035-2.407.882-.778-.281-1.067-1.331-1.177-1.756-1.511-5.85,1.173-14.883,1.173-14.883,1.744-5.87,3.018-11.871,4.624-17.781.633-2.331,1.6-5.879.169-6.925-.924-.674-2.456-.026-2.829.132-3.942,1.668-4.51,6.946-6.976,13.709-1.754,4.812-5.472,13.13-7.191,12.786-3.225-.644,2.409-31.4-3.966-33.434a3.959,3.959,0,0,0-3.19.833c-.75,4.793-1.363,10.052-1.714,15.725a169.544,169.544,0,0,0-.19,17.221,43.871,43.871,0,0,1-4.684-9.679c-2.65-7.842-2.152-13.944-6.19-16.052l-.035-.018a2.834,2.834,0,0,0-4,1.766c-.033.118-.066.238-.1.362-1.427,5.573.923,9.911,3.33,17.5a105,105,0,0,1,2.812,10.891c-3.442-.965-3.968-6.891-5.489-9.641-1.222-2.21-4.041-7.871-6.8-8.665-4.065-1.171-2.727,3.424-1.906,5.65,1.658,4.489,3.5,8.977,5.247,13.443a77.381,77.381,0,0,1,4.248,15.68,80.077,80.077,0,0,0,1.933,7.85,14.114,14.114,0,0,0,6.3,8.271v73.252h23.078V1733.05c.624-.736,1.84-1.6,2.651-2.6.152-.256.271-.517.427-.77a66.6,66.6,0,0,1,12.725-15.035C2212,1711.743,2218.237,1708.884,2217.873,1703.858Z" transform="translate(-1997.706 -1553.306)" fill="url(#linear-gradient-10)"/>
          <path id="Trazado_1865" data-name="Trazado 1865" d="M1557.155,1373.157c-5.414-3.363-13.615-.017-18.391,3.264-1.573,1.081-2.594,2.361-4.255,3.232-1.632.857-2.363,1.234-2.867,1.052-.927-.335-1.271-1.586-1.4-2.093-1.8-6.972,1.4-17.736,1.4-17.736,2.078-6.995,3.6-14.146,5.51-21.188.754-2.777,1.912-7.005.2-8.252-1.1-.8-2.927-.031-3.372.158-4.7,1.988-5.374,8.277-8.312,16.337-2.09,5.735-6.52,15.646-8.569,15.237-3.843-.767,2.871-37.415-4.726-39.841-1.455-.464-3.02.458-3.8.992-.894,5.711-1.624,11.978-2.042,18.739a201.8,201.8,0,0,0-.226,20.521,52.311,52.311,0,0,1-5.582-11.535c-3.157-9.345-2.565-16.617-7.377-19.128l-.042-.022a3.377,3.377,0,0,0-4.769,2.105c-.04.14-.079.284-.116.431-1.7,6.642,1.1,11.81,3.968,20.855a125.3,125.3,0,0,1,3.35,12.979c-4.1-1.151-4.728-8.212-6.541-11.489-1.457-2.634-4.816-9.38-8.1-10.326-4.844-1.395-3.25,4.081-2.271,6.733,1.976,5.35,4.166,10.7,6.252,16.02a92.191,92.191,0,0,1,5.062,18.685,96.32,96.32,0,0,0,2.449,9.355,16.951,16.951,0,0,0,7.652,9.856v87.279h27.132v-87.432a15.687,15.687,0,0,0,3.2-3.094c.181-.305.343-.616.529-.917a79.431,79.431,0,0,1,15.173-17.917C1550.15,1382.553,1557.588,1379.146,1557.155,1373.157Z" transform="translate(-1384.836 -1245.058)" fill="#370c7d"/>
        </g>
      </g>
    </g>
  </g>
</svg>
